<svg xmlns="http://www.w3.org/2000/svg" xmlns:xlink="http://www.w3.org/1999/xlink" viewBox="0 0 291.75 299.41"><defs><style>.cls-1{isolation:isolate;}.cls-2{opacity:0.2;}.cls-3,.cls-53,.cls-65{opacity:0;}.cls-4,.cls-67{opacity:0.09;}.cls-5,.cls-69{opacity:0.18;}.cls-6,.cls-71{opacity:0.27;}.cls-58,.cls-7,.cls-73{opacity:0.36;}.cls-75,.cls-8{opacity:0.45;}.cls-9{opacity:0.55;}.cls-10{opacity:0.64;}.cls-11,.cls-63{opacity:0.73;}.cls-12{opacity:0.82;}.cls-13{opacity:0.91;}.cls-14{fill:url(#linear-gradient);}.cls-15,.cls-26,.cls-31,.cls-35,.cls-83,.cls-84,.cls-89,.cls-90,.cls-91,.cls-92,.cls-96{mix-blend-mode:color-dodge;}.cls-15{fill:url(#radial-gradient);}.cls-16{opacity:0.6;fill:url(#radial-gradient-2);}.cls-16,.cls-36,.cls-37,.cls-38,.cls-39,.cls-40,.cls-41,.cls-42,.cls-43,.cls-44,.cls-45,.cls-46,.cls-47{mix-blend-mode:screen;}.cls-17{fill:url(#linear-gradient-2);}.cls-18{fill:url(#linear-gradient-3);}.cls-19{fill:url(#linear-gradient-4);}.cls-20{fill:url(#linear-gradient-5);}.cls-21{fill:url(#New_Gradient_Swatch_copy_9);}.cls-22{fill:url(#New_Gradient_Swatch_copy_7);}.cls-23{fill:url(#New_Gradient_Swatch_copy_8);}.cls-24{fill:url(#linear-gradient-6);}.cls-25{fill:url(#linear-gradient-7);}.cls-26{fill:url(#radial-gradient-3);}.cls-27{fill:#bcbec0;}.cls-27,.cls-52,.cls-65,.cls-66,.cls-67,.cls-68,.cls-69,.cls-70,.cls-71,.cls-72,.cls-73,.cls-74,.cls-75,.cls-76,.cls-82{mix-blend-mode:multiply;}.cls-28{fill:url(#New_Gradient_Swatch_copy_7-2);}.cls-29{fill:url(#linear-gradient-8);}.cls-30{fill:url(#New_Gradient_Swatch_copy_8-2);}.cls-31{fill:url(#radial-gradient-4);}.cls-32{fill:#fff;}.cls-33{fill:url(#linear-gradient-9);}.cls-34{fill:url(#New_Gradient_Swatch_copy_9-2);}.cls-35{fill:url(#radial-gradient-5);}.cls-36{fill:url(#linear-gradient-10);}.cls-37{fill:url(#linear-gradient-11);}.cls-38{fill:url(#linear-gradient-12);}.cls-39{fill:url(#linear-gradient-13);}.cls-40{fill:url(#linear-gradient-14);}.cls-41{fill:url(#linear-gradient-15);}.cls-42{fill:url(#linear-gradient-16);}.cls-43{fill:url(#linear-gradient-17);}.cls-44{fill:url(#linear-gradient-18);}.cls-45{fill:url(#linear-gradient-19);}.cls-46{fill:url(#linear-gradient-20);}.cls-47{fill:url(#linear-gradient-21);}.cls-48{fill:url(#linear-gradient-22);}.cls-49{fill:url(#linear-gradient-23);}.cls-50{fill:url(#linear-gradient-24);}.cls-51{fill:url(#linear-gradient-25);}.cls-52{fill:url(#radial-gradient-6);}.cls-53{fill:url(#linear-gradient-26);}.cls-54{opacity:0.07;fill:url(#linear-gradient-27);}.cls-55{opacity:0.15;fill:url(#linear-gradient-28);}.cls-56{opacity:0.22;fill:url(#linear-gradient-29);}.cls-57{opacity:0.29;fill:url(#linear-gradient-30);}.cls-58{fill:url(#linear-gradient-31);}.cls-59{opacity:0.44;fill:url(#linear-gradient-32);}.cls-60{opacity:0.51;fill:url(#linear-gradient-33);}.cls-61{opacity:0.58;fill:url(#linear-gradient-34);}.cls-62{opacity:0.65;fill:url(#linear-gradient-35);}.cls-63{fill:url(#linear-gradient-36);}.cls-64{opacity:0.8;fill:url(#linear-gradient-37);}.cls-65{fill:url(#linear-gradient-38);}.cls-66{opacity:0.05;fill:url(#linear-gradient-39);}.cls-67{fill:url(#linear-gradient-40);}.cls-68{opacity:0.14;fill:url(#linear-gradient-41);}.cls-69{fill:url(#linear-gradient-42);}.cls-70{opacity:0.23;fill:url(#linear-gradient-43);}.cls-71{fill:url(#linear-gradient-44);}.cls-72{opacity:0.32;fill:url(#linear-gradient-45);}.cls-73{fill:url(#linear-gradient-46);}.cls-74{opacity:0.41;fill:url(#linear-gradient-47);}.cls-75{fill:url(#linear-gradient-48);}.cls-76{opacity:0.5;fill:url(#linear-gradient-49);}.cls-77{fill:url(#radial-gradient-7);}.cls-78{fill:url(#linear-gradient-50);}.cls-79{fill:#2af6ff;}.cls-80{fill:url(#radial-gradient-8);}.cls-81{fill:url(#linear-gradient-51);}.cls-82{fill:url(#radial-gradient-9);}.cls-83{fill:url(#radial-gradient-10);}.cls-84{fill:url(#radial-gradient-11);}.cls-85{fill:url(#linear-gradient-52);}.cls-86{fill:url(#linear-gradient-53);}.cls-87{fill:url(#linear-gradient-54);}.cls-88{fill:url(#radial-gradient-12);}.cls-89{fill:url(#radial-gradient-13);}.cls-90{fill:url(#radial-gradient-14);}.cls-91{fill:url(#radial-gradient-15);}.cls-92{fill:url(#radial-gradient-16);}.cls-93{fill:url(#linear-gradient-55);}.cls-94{fill:url(#linear-gradient-56);}.cls-95{fill:url(#linear-gradient-57);}.cls-96{fill:url(#radial-gradient-17);}</style><linearGradient id="linear-gradient" x1="124.55" y1="1.81" x2="230.88" y2="185.97" gradientTransform="matrix(1.09, 0.02, -0.37, 0.91, 31, 7.58)" gradientUnits="userSpaceOnUse"><stop offset="0.06" stop-color="#200041"/><stop offset="0.26" stop-color="#210243"/><stop offset="0.36" stop-color="#25084b"/><stop offset="0.43" stop-color="#2c1358"/><stop offset="0.47" stop-color="#311b61"/><stop offset="0.48" stop-color="#351f65"/><stop offset="0.5" stop-color="#422c73"/><stop offset="0.51" stop-color="#584188"/><stop offset="0.52" stop-color="#765fa7"/><stop offset="0.53" stop-color="#8770b8"/><stop offset="0.54" stop-color="#7e67ae"/><stop offset="0.56" stop-color="#5c468d"/><stop offset="0.59" stop-color="#442e75"/><stop offset="0.61" stop-color="#362066"/><stop offset="0.63" stop-color="#311b61"/><stop offset="0.67" stop-color="#2a1155"/><stop offset="0.75" stop-color="#230446"/><stop offset="0.81" stop-color="#200041"/><stop offset="1" stop-color="#200041"/></linearGradient><radialGradient id="radial-gradient" cx="289.79" cy="76.63" r="199.53" gradientTransform="matrix(1.09, 0.02, -0.37, 0.91, 31, 7.58)" gradientUnits="userSpaceOnUse"><stop offset="0" stop-color="#711f56"/><stop offset="0.16" stop-color="#6c1e52"/><stop offset="0.36" stop-color="#5c1946"/><stop offset="0.58" stop-color="#431233"/><stop offset="0.82" stop-color="#200918"/><stop offset="1"/></radialGradient><radialGradient id="radial-gradient-2" cx="256.41" cy="62.38" r="117.55" gradientTransform="matrix(1.09, 0.02, -0.37, 0.91, 31, 7.58)" gradientUnits="userSpaceOnUse"><stop offset="0" stop-color="#af8afc"/><stop offset="1" stop-color="#10054d"/></radialGradient><linearGradient id="linear-gradient-2" x1="265.88" y1="171.64" x2="-59.07" y2="69.92" gradientTransform="matrix(1.09, 0.02, -0.37, 0.91, 31, 7.58)" gradientUnits="userSpaceOnUse"><stop offset="0.19" stop-color="#3d065f"/><stop offset="0.93" stop-color="#3d065f"/></linearGradient><linearGradient id="linear-gradient-3" x1="270.12" y1="297.41" x2="105.09" y2="-51.29" gradientTransform="matrix(1.09, 0.02, -0.37, 0.91, 31, 7.58)" gradientUnits="userSpaceOnUse"><stop offset="0" stop-color="#311b61"/><stop offset="0.2" stop-color="#290f52"/><stop offset="0.49" stop-color="#200041"/><stop offset="1" stop-color="#0f001f"/></linearGradient><linearGradient id="linear-gradient-4" x1="149.16" y1="151.32" x2="252.81" y2="151.32" xlink:href="#linear-gradient-3"/><linearGradient id="linear-gradient-5" x1="137.45" y1="30.19" x2="295.13" y2="330.85" gradientTransform="matrix(1.09, 0.02, -0.37, 0.91, 31, 7.58)" gradientUnits="userSpaceOnUse"><stop offset="0.01" stop-color="#9f19ab"/><stop offset="0.43" stop-color="#5f27bd"/><stop offset="0.9" stop-color="#3d065f"/></linearGradient><linearGradient id="New_Gradient_Swatch_copy_9" x1="246.7" y1="140.83" x2="152.71" y2="6.87" gradientTransform="matrix(1.09, 0.02, -0.37, 0.91, 31, 7.58)" gradientUnits="userSpaceOnUse"><stop offset="0.04" stop-color="#9f19ab"/><stop offset="0.24" stop-color="#ae25b1"/><stop offset="0.65" stop-color="#d744bf"/><stop offset="1" stop-color="#ff63ce"/></linearGradient><linearGradient id="New_Gradient_Swatch_copy_7" x1="265.8" y1="216.31" x2="179.56" y2="93.4" gradientTransform="matrix(1.09, 0.02, -0.37, 0.91, 31, 7.58)" gradientUnits="userSpaceOnUse"><stop offset="0.04" stop-color="#138bbd"/><stop offset="0.23" stop-color="#169ac7"/><stop offset="0.59" stop-color="#1fc3df"/><stop offset="1" stop-color="#2af6ff"/></linearGradient><linearGradient id="New_Gradient_Swatch_copy_8" x1="249.35" y1="278.89" x2="152.68" y2="141.12" gradientTransform="matrix(1.09, 0.02, -0.37, 0.91, 31, 7.58)" gradientUnits="userSpaceOnUse"><stop offset="0.04" stop-color="#ffa98c"/><stop offset="0.32" stop-color="#ffb892"/><stop offset="0.86" stop-color="#fee1a3"/><stop offset="1" stop-color="#feeca8"/></linearGradient><linearGradient id="linear-gradient-6" x1="-369.22" y1="10281.38" x2="-350.68" y2="10281.38" gradientTransform="matrix(-1.08, 1.3, -1.13, 0.43, 11499.29, -3876.22)" xlink:href="#linear-gradient-3"/><linearGradient id="linear-gradient-7" x1="267.81" y1="117.61" x2="255.02" y2="117.06" gradientTransform="matrix(1.09, 0.02, -0.37, 0.91, 31, 7.58)" gradientUnits="userSpaceOnUse"><stop offset="0" stop-color="#3d065f"/><stop offset="1" stop-color="#5f27bd"/></linearGradient><radialGradient id="radial-gradient-3" cx="261.38" cy="112.16" r="7.51" xlink:href="#radial-gradient"/><linearGradient id="New_Gradient_Swatch_copy_7-2" x1="217.65" y1="305.66" x2="169.65" y2="231.99" gradientTransform="matrix(1, 0, 0, 1, 0, 0)" xlink:href="#New_Gradient_Swatch_copy_7"/><linearGradient id="linear-gradient-8" x1="32.39" y1="100.45" x2="127.6" y2="217.12" gradientUnits="userSpaceOnUse"><stop offset="0.34" stop-color="#fbcd9c"/><stop offset="0.81" stop-color="#feeca8"/><stop offset="0.91" stop-color="#ffa98c"/></linearGradient><linearGradient id="New_Gradient_Swatch_copy_8-2" x1="-112.48" y1="178.41" x2="383.29" y2="67.27" gradientTransform="matrix(0.87, 0.5, 0.5, 1.44, -98.55, -81.29)" xlink:href="#New_Gradient_Swatch_copy_8"/><radialGradient id="radial-gradient-4" cx="150.17" cy="157.83" r="56.79" gradientUnits="userSpaceOnUse"><stop offset="0" stop-color="#fff"/><stop offset="1"/></radialGradient><linearGradient id="linear-gradient-9" x1="121.82" y1="-2.43" x2="216.52" y2="113.63" gradientUnits="userSpaceOnUse"><stop offset="0.17" stop-color="#dc48c1"/><stop offset="0.43" stop-color="#df4ac2"/><stop offset="0.6" stop-color="#e851c5"/><stop offset="0.75" stop-color="#f75dcb"/><stop offset="0.81" stop-color="#ff63ce"/><stop offset="0.91" stop-color="#9f19ab"/></linearGradient><linearGradient id="New_Gradient_Swatch_copy_9-2" x1="69.4" y1="44.11" x2="561.95" y2="-66.3" gradientTransform="matrix(0.87, 0.5, 0.5, 1.44, -98.55, -81.29)" xlink:href="#New_Gradient_Swatch_copy_9"/><radialGradient id="radial-gradient-5" cx="238.82" cy="54.65" r="56.58" xlink:href="#radial-gradient-4"/><linearGradient id="linear-gradient-10" x1="188.34" y1="226.56" x2="188.34" y2="264.13" gradientUnits="userSpaceOnUse"><stop offset="0" stop-color="#113a39"/><stop offset="0.22" stop-color="#0a2222"/><stop offset="0.47" stop-color="#040f0f"/><stop offset="0.73" stop-color="#010404"/><stop offset="1"/></linearGradient><linearGradient id="linear-gradient-11" x1="188.34" y1="226.61" x2="188.34" y2="263.58" gradientUnits="userSpaceOnUse"><stop offset="0" stop-color="#164a48"/><stop offset="0.06" stop-color="#134140"/><stop offset="0.3" stop-color="#0b2524"/><stop offset="0.54" stop-color="#051010"/><stop offset="0.77" stop-color="#010404"/><stop offset="1"/></linearGradient><linearGradient id="linear-gradient-12" x1="188.34" y1="226.66" x2="188.34" y2="263.03" gradientUnits="userSpaceOnUse"><stop offset="0" stop-color="#1a5a58"/><stop offset="0.13" stop-color="#144645"/><stop offset="0.36" stop-color="#0b2827"/><stop offset="0.58" stop-color="#051211"/><stop offset="0.8" stop-color="#010404"/><stop offset="1"/></linearGradient><linearGradient id="linear-gradient-13" x1="188.34" y1="226.71" x2="188.34" y2="262.48" gradientUnits="userSpaceOnUse"><stop offset="0" stop-color="#1f6967"/><stop offset="0.17" stop-color="#164c4a"/><stop offset="0.4" stop-color="#0d2b2a"/><stop offset="0.62" stop-color="#061313"/><stop offset="0.83" stop-color="#010505"/><stop offset="1"/></linearGradient><linearGradient id="linear-gradient-14" x1="188.34" y1="226.75" x2="188.34" y2="261.94" gradientUnits="userSpaceOnUse"><stop offset="0" stop-color="#237976"/><stop offset="0.21" stop-color="#185250"/><stop offset="0.44" stop-color="#0e2f2e"/><stop offset="0.65" stop-color="#061514"/><stop offset="0.85" stop-color="#020505"/><stop offset="1"/></linearGradient><linearGradient id="linear-gradient-15" x1="188.34" y1="226.8" x2="188.34" y2="261.39" gradientUnits="userSpaceOnUse"><stop offset="0" stop-color="#288985"/><stop offset="0.23" stop-color="#1a5a58"/><stop offset="0.46" stop-color="#0f3332"/><stop offset="0.68" stop-color="#071717"/><stop offset="0.86" stop-color="#020606"/><stop offset="1"/></linearGradient><linearGradient id="linear-gradient-16" x1="188.34" y1="226.85" x2="188.34" y2="260.84" gradientUnits="userSpaceOnUse"><stop offset="0" stop-color="#2c9995"/><stop offset="0.25" stop-color="#1d6462"/><stop offset="0.48" stop-color="#103938"/><stop offset="0.7" stop-color="#071a19"/><stop offset="0.88" stop-color="#020707"/><stop offset="1"/></linearGradient><linearGradient id="linear-gradient-17" x1="188.34" y1="226.9" x2="188.34" y2="260.29" gradientUnits="userSpaceOnUse"><stop offset="0" stop-color="#31a9a4"/><stop offset="0.25" stop-color="#21716d"/><stop offset="0.49" stop-color="#13403e"/><stop offset="0.71" stop-color="#081d1c"/><stop offset="0.89" stop-color="#020808"/><stop offset="1"/></linearGradient><linearGradient id="linear-gradient-18" x1="188.34" y1="226.94" x2="188.34" y2="259.74" gradientUnits="userSpaceOnUse"><stop offset="0" stop-color="#35b9b3"/><stop offset="0.24" stop-color="#25807c"/><stop offset="0.49" stop-color="#154947"/><stop offset="0.72" stop-color="#0a2120"/><stop offset="0.89" stop-color="#030909"/><stop offset="1"/></linearGradient><linearGradient id="linear-gradient-19" x1="188.34" y1="226.99" x2="188.34" y2="259.19" gradientUnits="userSpaceOnUse"><stop offset="0" stop-color="#3ac8c2"/><stop offset="0.2" stop-color="#2b9591"/><stop offset="0.48" stop-color="#195653"/><stop offset="0.72" stop-color="#0b2726"/><stop offset="0.9" stop-color="#030b0a"/><stop offset="1"/></linearGradient><linearGradient id="linear-gradient-20" x1="188.34" y1="227.04" x2="188.34" y2="258.64" gradientUnits="userSpaceOnUse"><stop offset="0" stop-color="#3ed8d2"/><stop offset="0.14" stop-color="#33b3ae"/><stop offset="0.45" stop-color="#1e6764"/><stop offset="0.71" stop-color="#0e2f2e"/><stop offset="0.9" stop-color="#040d0d"/><stop offset="1"/></linearGradient><linearGradient id="linear-gradient-21" x1="188.34" y1="227.08" x2="188.34" y2="258.09" gradientUnits="userSpaceOnUse"><stop offset="0" stop-color="#43e8e1"/><stop offset="0.02" stop-color="#41e1db"/><stop offset="0.39" stop-color="#26827e"/><stop offset="0.68" stop-color="#113c3a"/><stop offset="0.89" stop-color="#051110"/><stop offset="1"/></linearGradient><linearGradient id="linear-gradient-22" x1="179.81" y1="220.15" x2="196.87" y2="220.15" gradientUnits="userSpaceOnUse"><stop offset="0.02" stop-color="#45108a"/><stop offset="0.29" stop-color="#3d065f"/><stop offset="1" stop-color="#12054e"/><stop offset="1" stop-color="#10054d"/></linearGradient><linearGradient id="linear-gradient-23" x1="138.82" y1="164.54" x2="170" y2="168.37" gradientUnits="userSpaceOnUse"><stop offset="0.01" stop-color="#c1a1d5"/><stop offset="0.05" stop-color="#c8abda"/><stop offset="0.11" stop-color="#dac6e6"/><stop offset="0.2" stop-color="#f7f2f9"/><stop offset="0.22" stop-color="#fff"/><stop offset="0.25" stop-color="#f9f5fb"/><stop offset="0.3" stop-color="#e9dbf2"/><stop offset="0.36" stop-color="#d1b4e3"/><stop offset="0.43" stop-color="#b395d6"/><stop offset="0.49" stop-color="#9c7dcb"/><stop offset="0.56" stop-color="#8e6ec5"/><stop offset="0.61" stop-color="#8969c3"/><stop offset="0.76" stop-color="#9471c6"/><stop offset="1" stop-color="#b086cc"/></linearGradient><linearGradient id="linear-gradient-24" x1="176.25" y1="209.3" x2="189.98" y2="217.22" xlink:href="#linear-gradient-22"/><linearGradient id="linear-gradient-25" x1="148.37" y1="179.93" x2="228.2" y2="167.84" gradientUnits="userSpaceOnUse"><stop offset="0.01" stop-color="#c1a1d5"/><stop offset="0.04" stop-color="#c8abda"/><stop offset="0.1" stop-color="#dac6e6"/><stop offset="0.18" stop-color="#f7f2f9"/><stop offset="0.2" stop-color="#fff"/><stop offset="0.23" stop-color="#f9f5fb"/><stop offset="0.29" stop-color="#e9dbf2"/><stop offset="0.36" stop-color="#d1b4e3"/><stop offset="0.43" stop-color="#b395d6"/><stop offset="0.49" stop-color="#9c7dcb"/><stop offset="0.56" stop-color="#8e6ec5"/><stop offset="0.61" stop-color="#8969c3"/><stop offset="0.76" stop-color="#9471c6"/><stop offset="1" stop-color="#b086cc"/></linearGradient><radialGradient id="radial-gradient-6" cx="184.63" cy="171.54" r="50.72" gradientUnits="userSpaceOnUse"><stop offset="0.38" stop-color="#fff"/><stop offset="0.47" stop-color="#f4f2f9"/><stop offset="0.63" stop-color="#d8d0e8"/><stop offset="0.85" stop-color="#a9c"/><stop offset="1" stop-color="#8770b8"/></radialGradient><linearGradient id="linear-gradient-26" x1="153.15" y1="129.54" x2="213.17" y2="164.19" gradientUnits="userSpaceOnUse"><stop offset="0" stop-color="#fff"/><stop offset="0.31" stop-color="#e9ddf1"/><stop offset="0.98" stop-color="#b188cd"/><stop offset="1" stop-color="#b086cc"/></linearGradient><linearGradient id="linear-gradient-27" x1="153.5" y1="129.6" x2="212.79" y2="163.83" xlink:href="#linear-gradient-26"/><linearGradient id="linear-gradient-28" x1="153.84" y1="129.66" x2="212.41" y2="163.48" xlink:href="#linear-gradient-26"/><linearGradient id="linear-gradient-29" x1="154.19" y1="129.72" x2="212.04" y2="163.12" xlink:href="#linear-gradient-26"/><linearGradient id="linear-gradient-30" x1="154.54" y1="129.78" x2="211.66" y2="162.76" xlink:href="#linear-gradient-26"/><linearGradient id="linear-gradient-31" x1="154.88" y1="129.84" x2="211.29" y2="162.4" xlink:href="#linear-gradient-26"/><linearGradient id="linear-gradient-32" x1="155.23" y1="129.9" x2="210.91" y2="162.04" xlink:href="#linear-gradient-26"/><linearGradient id="linear-gradient-33" x1="155.58" y1="129.95" x2="210.54" y2="161.68" xlink:href="#linear-gradient-26"/><linearGradient id="linear-gradient-34" x1="155.92" y1="130.01" x2="210.16" y2="161.33" xlink:href="#linear-gradient-26"/><linearGradient id="linear-gradient-35" x1="156.27" y1="130.07" x2="209.79" y2="160.97" xlink:href="#linear-gradient-26"/><linearGradient id="linear-gradient-36" x1="156.62" y1="130.13" x2="209.41" y2="160.61" xlink:href="#linear-gradient-26"/><linearGradient id="linear-gradient-37" x1="156.97" y1="130.19" x2="209.03" y2="160.25" xlink:href="#linear-gradient-26"/><linearGradient id="linear-gradient-38" x1="161.43" y1="125.97" x2="213.48" y2="156.02" gradientTransform="matrix(1, 0, 0, 1, 0, 0)" xlink:href="#linear-gradient-2"/><linearGradient id="linear-gradient-39" x1="162.02" y1="126.41" x2="212.73" y2="155.69" gradientTransform="matrix(1, 0, 0, 1, 0, 0)" xlink:href="#linear-gradient-2"/><linearGradient id="linear-gradient-40" x1="162.62" y1="126.85" x2="211.99" y2="155.36" gradientTransform="matrix(1, 0, 0, 1, 0, 0)" xlink:href="#linear-gradient-2"/><linearGradient id="linear-gradient-41" x1="163.21" y1="127.29" x2="211.25" y2="155.03" gradientTransform="matrix(1, 0, 0, 1, 0, 0)" xlink:href="#linear-gradient-2"/><linearGradient id="linear-gradient-42" x1="163.81" y1="127.74" x2="210.5" y2="154.7" gradientTransform="matrix(1, 0, 0, 1, 0, 0)" xlink:href="#linear-gradient-2"/><linearGradient id="linear-gradient-43" x1="164.41" y1="128.18" x2="209.76" y2="154.36" gradientTransform="matrix(1, 0, 0, 1, 0, 0)" xlink:href="#linear-gradient-2"/><linearGradient id="linear-gradient-44" x1="165" y1="128.62" x2="209.02" y2="154.03" gradientTransform="matrix(1, 0, 0, 1, 0, 0)" xlink:href="#linear-gradient-2"/><linearGradient id="linear-gradient-45" x1="165.6" y1="129.07" x2="208.27" y2="153.7" gradientTransform="matrix(1, 0, 0, 1, 0, 0)" xlink:href="#linear-gradient-2"/><linearGradient id="linear-gradient-46" x1="166.19" y1="129.51" x2="207.53" y2="153.37" gradientTransform="matrix(1, 0, 0, 1, 0, 0)" xlink:href="#linear-gradient-2"/><linearGradient id="linear-gradient-47" x1="166.79" y1="129.95" x2="206.79" y2="153.04" gradientTransform="matrix(1, 0, 0, 1, 0, 0)" xlink:href="#linear-gradient-2"/><linearGradient id="linear-gradient-48" x1="167.39" y1="130.39" x2="206.04" y2="152.71" gradientTransform="matrix(1, 0, 0, 1, 0, 0)" xlink:href="#linear-gradient-2"/><linearGradient id="linear-gradient-49" x1="167.98" y1="130.84" x2="205.3" y2="152.38" gradientTransform="matrix(1, 0, 0, 1, 0, 0)" xlink:href="#linear-gradient-2"/><radialGradient id="radial-gradient-7" cx="176.8" cy="100.95" r="64.1" gradientTransform="translate(268.41 -91.47) rotate(80.17)" gradientUnits="userSpaceOnUse"><stop offset="0.01" stop-color="#fff"/><stop offset="0.16" stop-color="#e6d7f0"/><stop offset="0.28" stop-color="#d7bde7"/><stop offset="0.36" stop-color="#d1b4e3"/><stop offset="0.48" stop-color="#c4a4dc"/><stop offset="0.71" stop-color="#a17bc9"/><stop offset="0.72" stop-color="#9f79c8"/><stop offset="0.81" stop-color="#a37cc9"/><stop offset="0.9" stop-color="#ae84cc"/><stop offset="0.91" stop-color="#b086cc"/><stop offset="0.96" stop-color="#ad84cb"/><stop offset="0.99" stop-color="#a57dc9"/><stop offset="1" stop-color="#9f79c8"/></radialGradient><linearGradient id="linear-gradient-50" x1="144.19" y1="115.38" x2="192" y2="115.38" xlink:href="#linear-gradient-22"/><radialGradient id="radial-gradient-8" cx="206.57" cy="169.32" r="15.5" gradientUnits="userSpaceOnUse"><stop offset="0.04" stop-color="#6115a3"/><stop offset="0.1" stop-color="#5a139a"/><stop offset="0.52" stop-color="#2b0658"/><stop offset="1" stop-color="#12054e"/><stop offset="1" stop-color="#10054d"/></radialGradient><linearGradient id="linear-gradient-51" x1="203.58" y1="187.44" x2="234.53" y2="191.24" xlink:href="#linear-gradient-23"/><radialGradient id="radial-gradient-9" cx="206.79" cy="183.59" r="21.85" xlink:href="#radial-gradient-6"/><radialGradient id="radial-gradient-10" cx="-7074.01" cy="-2057.03" r="14.21" gradientTransform="matrix(0.32, -0.19, 0, 0.98, 2472.79, 824.18)" gradientUnits="userSpaceOnUse"><stop offset="0" stop-color="#972a74"/><stop offset="0.04" stop-color="#8a266a"/><stop offset="0.19" stop-color="#601b4a"/><stop offset="0.35" stop-color="#3d112f"/><stop offset="0.51" stop-color="#230a1b"/><stop offset="0.67" stop-color="#0f040c"/><stop offset="0.83" stop-color="#040103"/><stop offset="1"/></radialGradient><radialGradient id="radial-gradient-11" cx="-9008.56" cy="-1991.45" r="14.84" gradientTransform="matrix(0.34, -0.15, -0.12, 0.97, 3060.87, 725.38)" gradientUnits="userSpaceOnUse"><stop offset="0" stop-color="#481437"/><stop offset="0.07" stop-color="#3d112f"/><stop offset="0.3" stop-color="#220a1a"/><stop offset="0.52" stop-color="#0f040c"/><stop offset="0.76" stop-color="#040103"/><stop offset="1"/></radialGradient><linearGradient id="linear-gradient-52" x1="174.94" y1="79.77" x2="201.65" y2="79.77" xlink:href="#linear-gradient-23"/><linearGradient id="linear-gradient-53" x1="172.36" y1="65.48" x2="193.84" y2="77.88" gradientUnits="userSpaceOnUse"><stop offset="0.08" stop-color="#fff"/><stop offset="0.21" stop-color="#f9f5fb"/><stop offset="0.44" stop-color="#e8dbf0"/><stop offset="0.74" stop-color="#ccb1de"/><stop offset="1" stop-color="#b086cc"/></linearGradient><linearGradient id="linear-gradient-54" x1="186.37" y1="65.64" x2="190.37" y2="65.64" xlink:href="#linear-gradient-23"/><radialGradient id="radial-gradient-12" cx="186.95" cy="55.47" r="8.05" gradientTransform="matrix(1, 0, 0, 1, 0, 0)" xlink:href="#radial-gradient-7"/><radialGradient id="radial-gradient-13" cx="174.84" cy="94.99" r="33.26" gradientTransform="translate(249.72 -92.32) rotate(80.7)" xlink:href="#radial-gradient-10"/><radialGradient id="radial-gradient-14" cx="155.06" cy="109.97" r="12.71" gradientTransform="translate(226.23 -66.3) rotate(76.64)" gradientUnits="userSpaceOnUse"><stop offset="0" stop-color="#43e8e1"/><stop offset="0.14" stop-color="#34b5b0"/><stop offset="0.3" stop-color="#257f7b"/><stop offset="0.46" stop-color="#17514f"/><stop offset="0.62" stop-color="#0d2e2d"/><stop offset="0.76" stop-color="#061514"/><stop offset="0.89" stop-color="#020505"/><stop offset="1"/></radialGradient><radialGradient id="radial-gradient-15" cx="169.61" cy="118.51" r="12.71" gradientTransform="matrix(1, 0, 0, 1, 0, 0)" xlink:href="#radial-gradient-14"/><radialGradient id="radial-gradient-16" cx="-5015.83" cy="-482.73" r="40.49" gradientTransform="matrix(0.22, -0.06, 0.24, 0.97, 1386.1, 368.7)" gradientUnits="userSpaceOnUse"><stop offset="0" stop-color="#972a74"/><stop offset="0.02" stop-color="#8c276c"/><stop offset="0.11" stop-color="#671d4f"/><stop offset="0.21" stop-color="#471437"/><stop offset="0.32" stop-color="#2d0d23"/><stop offset="0.43" stop-color="#190713"/><stop offset="0.57" stop-color="#0b0308"/><stop offset="0.73" stop-color="#020102"/><stop offset="1"/></radialGradient><linearGradient id="linear-gradient-55" x1="-1643.41" y1="6370.55" x2="-1630.61" y2="6370.55" gradientTransform="matrix(0.61, 1.06, -0.61, 0.35, 5064.87, -357.12)" xlink:href="#linear-gradient-22"/><linearGradient id="linear-gradient-56" x1="18.47" y1="14" x2="141.47" y2="152.72" gradientUnits="userSpaceOnUse"><stop offset="0" stop-color="#4ec1de"/><stop offset="0.24" stop-color="#4dc4de"/><stop offset="0.45" stop-color="#49cfde"/><stop offset="0.64" stop-color="#43e1de"/><stop offset="0.65" stop-color="#43e2de"/><stop offset="0.77" stop-color="#3dabc8"/><stop offset="0.84" stop-color="#3a91bd"/><stop offset="0.88" stop-color="#3b96bf"/><stop offset="1" stop-color="#3ca0c3"/></linearGradient><linearGradient id="linear-gradient-57" x1="-148.3" y1="111.64" x2="322.94" y2="6" gradientTransform="matrix(0.87, 0.5, 0, 1.15, -1.45, -25.43)" xlink:href="#New_Gradient_Swatch_copy_7"/><radialGradient id="radial-gradient-17" cx="144.2" cy="67.58" r="67.64" xlink:href="#radial-gradient-4"/></defs><title>113 [Przekonwertowany]</title><g class="cls-1"><g id="Layer_1" data-name="Layer 1"><g class="cls-2"><path class="cls-3" d="M201,302.55a16.7,16.7,0,0,1-8.35-2L142,271.71,91.29,242.88a8.85,8.85,0,0,1-4.79-7.63c0-3.39,2.1-6.54,5.77-8.66l33.16-18.65a20.52,20.52,0,0,1,10.13-2.58,16.77,16.77,0,0,1,8.34,2l50.67,28.84L245.23,265a8.83,8.83,0,0,1,4.79,7.63c0,3.38-2.1,6.54-5.76,8.65L211.1,300A20.57,20.57,0,0,1,201,302.55Z" transform="translate(-5.28 -3.15)"/><path class="cls-4" d="M93.17,227.31l9-5c.36-.21,17.24-9.41,17.55-9.23l5.8-2.84c2.62-1.51,6.46-2,9.79-2a17.09,17.09,0,0,1,8,2.1l40.57,23.1,8.65,4.93,49.22,28a10.51,10.51,0,0,1,3.82,3.72,7.69,7.69,0,0,1,1,3.55c.1,3.26-1.9,6.34-5.5,8.42l-9,5c-.36.22-17.24,9.42-17.55,9.24l-5.8,2.84c-2.62,1.51-6.46,2-9.79,2a17.09,17.09,0,0,1-8-2.1L150.36,276,141.71,271,92.49,243a10.45,10.45,0,0,1-3.82-3.73,7.66,7.66,0,0,1-1-3.55C87.56,232.47,89.56,229.39,93.17,227.31Z" transform="translate(-5.28 -3.15)"/><path class="cls-5" d="M94.06,228l8.75-4.84c.74-.42,16.53-8.73,17.17-8.36l5.62-2.32c2.36-1.36,6.44-1.45,9.44-1.45a17.68,17.68,0,0,1,7.76,2.19l39.38,22.45,8.39,4.79,47.78,27.24a11.29,11.29,0,0,1,3.77,3.54,7.67,7.67,0,0,1,1.1,3.38c.19,3.12-1.71,6.13-5.25,8.18l-8.75,4.83c-.73.42-16.52,8.73-17.16,8.37l-5.63,2.32c-2.35,1.36-6.44,1.45-9.43,1.45a17.81,17.81,0,0,1-7.76-2.19l-39.38-22.45-8.4-4.79L93.69,243.12a11.5,11.5,0,0,1-3.77-3.54,7.71,7.71,0,0,1-1.1-3.38C88.63,233.07,90.53,230.06,94.06,228Z" transform="translate(-5.28 -3.15)"/><path class="cls-6" d="M95,228.73l8.51-4.65c1.1-.64,15.81-8.05,16.77-7.5l5.45-1.8c2.09-1.21,6.43-.89,9.09-.89a18.54,18.54,0,0,1,7.47,2.28L180.43,238l8.15,4.65,46.33,26.45a12.5,12.5,0,0,1,3.72,3.36,7.56,7.56,0,0,1,1.19,3.21c.28,3-1.51,5.93-5,7.93l-8.51,4.66c-1.09.63-15.81,8-16.76,7.5l-5.46,1.8c-2.09,1.21-6.42.88-9.08.88a18.74,18.74,0,0,1-7.48-2.27l-38.18-21.8-8.14-4.65L94.89,243.24a12.52,12.52,0,0,1-3.72-3.36,7.63,7.63,0,0,1-1.2-3.21C89.69,233.68,91.49,230.74,95,228.73Z" transform="translate(-5.28 -3.15)"/><path class="cls-7" d="M95.86,229.45l8.26-4.48c1.47-.84,15.11-7.36,16.38-6.63l5.28-1.28c1.83-1.06,6.41-.32,8.73-.32,2,0,5.74,1.53,7.19,2.36l37,21.14,7.89,4.51,44.88,25.64a14.33,14.33,0,0,1,3.67,3.18,7.56,7.56,0,0,1,1.29,3c.38,2.86-1.32,5.73-4.73,7.7l-8.26,4.47c-1.47.85-15.11,7.37-16.38,6.64l-5.28,1.28c-1.83,1.06-6.41.32-8.73.32-2,0-5.74-1.53-7.19-2.37l-37-21.13L141,269,96.09,243.36a14,14,0,0,1-3.67-3.18,7.45,7.45,0,0,1-1.29-3C90.75,234.28,92.45,231.42,95.86,229.45Z" transform="translate(-5.28 -3.15)"/><path class="cls-8" d="M96.76,230.16l8-4.29c1.83-1.06,14.39-6.68,16-5.77l5.11-.76c1.57-.91,6.39.24,8.38.24,1.74,0,5.66,1.74,6.9,2.46L177,242.52l7.64,4.36L228,271.73a16.35,16.35,0,0,1,3.62,3A7.6,7.6,0,0,1,233,277.6c.47,2.73-1.12,5.52-4.47,7.46l-8,4.29c-1.83,1.06-14.4,6.68-16,5.77l-5.11.76c-1.57.91-6.39-.25-8.39-.25-1.73,0-5.65-1.73-6.89-2.45l-35.8-20.48-7.64-4.37L97.29,243.48a16.12,16.12,0,0,1-3.62-3,7.56,7.56,0,0,1-1.38-2.86C91.81,234.89,93.41,232.09,96.76,230.16Z" transform="translate(-5.28 -3.15)"/><path class="cls-9" d="M97.66,230.87l7.78-4.11c2.19-1.27,13.68-6,15.58-4.9l4.94-.24c1.3-.76,6.37.81,8,.81,1.45,0,5.58,1.94,6.61,2.54l34.61,19.82,7.38,4.23,42,24a19.56,19.56,0,0,1,3.57,2.82,7.66,7.66,0,0,1,1.47,2.7c.57,2.59-.92,5.31-4.21,7.21l-7.78,4.12c-2.2,1.26-13.68,6-15.59,4.89l-4.93.25c-1.31.75-6.38-.81-8-.81-1.45,0-5.57-1.94-6.61-2.54l-34.61-19.83-7.38-4.22-42-24.05a19.65,19.65,0,0,1-3.57-2.82,7.85,7.85,0,0,1-1.48-2.7C92.87,235.49,94.37,232.77,97.66,230.87Z" transform="translate(-5.28 -3.15)"/><path class="cls-10" d="M98.55,231.59l7.54-3.94c2.56-1.48,13-5.31,15.19-4l4.76.28c1-.61,6.36,1.37,7.69,1.37,1.16,0,5.49,2.15,6.32,2.63l33.42,19.17,7.12,4.08,40.55,23.26a24.57,24.57,0,0,1,3.51,2.64,7.83,7.83,0,0,1,1.57,2.52c.67,2.47-.73,5.12-3.95,7l-7.54,3.93c-2.56,1.48-13,5.32-15.19,4l-4.76-.27c-1.05.6-6.36-1.38-7.69-1.38-1.16,0-5.49-2.15-6.32-2.62l-33.42-19.17L140.23,267,99.68,243.73a24.57,24.57,0,0,1-3.51-2.64,7.87,7.87,0,0,1-1.57-2.53C93.93,236.1,95.33,233.45,98.55,231.59Z" transform="translate(-5.28 -3.15)"/><path class="cls-11" d="M99.45,232.3l7.3-3.75c2.93-1.69,12.25-4.63,14.79-3.17l4.59.8c.79-.46,6.35,1.94,7.34,1.94s5.41,2.35,6,2.71l32.23,18.51,6.87,3.95,39.09,22.46a22.11,22.11,0,0,1,3.47,2.45,5.21,5.21,0,0,1,1.66,2.36c.77,2.33-.53,4.91-3.69,6.74l-7.3,3.75c-2.93,1.69-12.26,4.63-14.8,3.16l-4.59-.79c-.78.45-6.34-1.94-7.34-1.94s-5.4-2.36-6-2.72l-32.23-18.51L140,266.31l-39.1-22.46a23.24,23.24,0,0,1-3.46-2.46A5.19,5.19,0,0,1,95.76,239C95,236.7,96.29,234.13,99.45,232.3Z" transform="translate(-5.28 -3.15)"/><path class="cls-12" d="M100.35,233l7.05-3.57c3.3-1.9,11.55-3.94,14.4-2.3l4.42,1.32c.52-.3,6.33,2.5,7,2.5s5.33,2.57,5.74,2.81l31,17.85,6.61,3.81,37.65,21.66a31.7,31.7,0,0,1,3.42,2.27,5.18,5.18,0,0,1,1.75,2.19c.87,2.2-.34,4.7-3.44,6.49l-7,3.57c-3.3,1.91-11.55,3.95-14.4,2.3l-4.42-1.31c-.52.3-6.32-2.5-7-2.5s-5.32-2.57-5.74-2.81l-31-17.85-6.62-3.81L102.08,244a30.19,30.19,0,0,1-3.41-2.28,5.11,5.11,0,0,1-1.76-2.18C96.05,237.31,97.25,234.8,100.35,233Z" transform="translate(-5.28 -3.15)"/><path class="cls-13" d="M101.25,233.73l6.81-3.39c3.66-2.12,10.83-3.27,14-1.44l4.25,1.84c.26-.15,6.31,3.07,6.64,3.07s5.24,2.77,5.45,2.89l29.84,17.2,6.36,3.66,36.21,20.86c.16.1,3.29,2,3.36,2.1a5,5,0,0,1,1.85,2c1,2.07-.14,4.51-3.18,6.26L206,292.18c-3.66,2.12-10.83,3.26-14,1.43l-4.25-1.83c-.26.15-6.31-3.07-6.64-3.07s-5.24-2.77-5.45-2.89l-29.84-17.2L139.49,265l-36.21-20.87c-.16-.09-3.29-2-3.36-2.09a5.08,5.08,0,0,1-1.85-2C97.1,237.92,98.21,235.48,101.25,233.73Z" transform="translate(-5.28 -3.15)"/><path d="M189.52,293.31l-44.18-25.5L101.17,242.3c-3.49-2-3-5.53,1-7.86l6.57-3.21c4-2.33,10.13-2.58,13.62-.56l44.17,25.5,44.18,25.51c3.49,2,3,5.53-1,7.86l-6.57,3.21C199.1,295.07,193,295.33,189.52,293.31Z" transform="translate(-5.28 -3.15)"/></g><path class="cls-14" d="M192.44,287.3l-71.6-44.55c-8.07-5-11-18.11-6.47-29.23l79.7-196.87c2.29-5.65-2.79-7,1.41-9,.16-.07,9.16-2.86,9.33-2.9,4.11-1.09,8.22-1.52,12,.85l71.6,44.55c8.07,5,11,18.11,6.47,29.23l-79.7,196.87c-2.39,5.91-6.39,10.07-10.82,11.92-.27.11-11.18,3.63-11.44,3.69C189.34,292.71,196,289.5,192.44,287.3Z" transform="translate(-5.28 -3.15)"/><path class="cls-15" d="M287.52,50.38,215.93,5.83c-3.81-2.37,66.13,45.81,66.13,45.81,8.08,5,11,18.11,6.47,29.23,0,0-76.62,201.52-74.23,195.61L294,79.61C298.5,68.49,295.6,55.4,287.52,50.38Z" transform="translate(-5.28 -3.15)"/><path class="cls-16" d="M184.47,289.78l-71.59-44.55c-8.08-5-11-18.11-6.48-29.23L186.1,19.13c4.5-11.11,14.7-16,22.77-11l71.6,44.55c8.08,5,11,18.11,6.47,29.23L207.25,278.75C202.74,289.87,192.55,294.81,184.47,289.78Z" transform="translate(-5.28 -3.15)"/><path class="cls-17" d="M182.6,290.46,111,245.91c-8.08-5-11-18.11-6.47-29.23L184.23,19.81c4.5-11.12,14.7-16.06,22.78-11L278.6,53.33c8.08,5,11,18.11,6.47,29.23L205.38,279.43C200.88,290.54,190.68,295.48,182.6,290.46Z" transform="translate(-5.28 -3.15)"/><path class="cls-18" d="M106.48,218l79.8-197.11c3.94-9.75,12.88-14.08,20-9.67l71.21,44.31c7.08,4.41,9.62,15.88,5.68,25.62l-79.8,197.12c-3.94,9.74-12.88,14.07-20,9.67l-71.21-44.31C105.08,239.26,102.54,227.79,106.48,218Z" transform="translate(-5.28 -3.15)"/><path class="cls-19" d="M109.53,219.32,188.92,23.2c3.31-8.16,10.79-11.78,16.71-8.09l69.7,43.36c5.92,3.69,8.05,13.29,4.75,21.45L200.69,276c-3.31,8.15-10.79,11.78-16.71,8.09l-69.7-43.36C108.36,237.08,106.23,227.48,109.53,219.32Z" transform="translate(-5.28 -3.15)"/><path class="cls-20" d="M265.56,54.51c-1.66,4.1-5.81,5.68-9.27,3.53l-39-24.27c-3.46-2.15-4.92-7.22-3.26-11.33l-8.27-5.14c-5.59-3.48-12.29-.93-15,5.69L110.51,221.31c-2.68,6.61-.32,14.8,5.26,18.27l68.08,42.36c5.59,3.48,12.29.93,15-5.69L279.1,77.93c2.68-6.62.32-14.8-5.26-18.27Z" transform="translate(-5.28 -3.15)"/><path class="cls-21" d="M187.8,31.18l-12.62,31,66.91,41.28A8.88,8.88,0,0,0,255,99.28L260.83,85a8.88,8.88,0,0,0-3.53-10.88Z" transform="translate(-5.28 -3.15)"/><path class="cls-22" d="M177,116.64l-4.11,10.1a11.13,11.13,0,0,0,4.44,13.64l61.14,37.94,12.61-31-57.91-35.93A11.12,11.12,0,0,0,177,116.64Z" transform="translate(-5.28 -3.15)"/><path class="cls-23" d="M137.7,153.73l-12.61,31,69.42,42.86a9.2,9.2,0,0,0,13.39-4.34l5.58-13.71a9.2,9.2,0,0,0-3.66-11.28Z" transform="translate(-5.28 -3.15)"/><path class="cls-24" d="M269,128.16l5.38-13.29a9,9,0,0,1,4.56-4.35h0c1.83-.71,2.75.1,2.07,1.8l-5.38,13.29a9,9,0,0,1-4.56,4.35h0C269.26,130.66,268.33,129.86,269,128.16Z" transform="translate(-5.28 -3.15)"/><path class="cls-25" d="M270.08,129.72c-.8,0-.74-.85-.46-1.55L275,114.88a8.3,8.3,0,0,1,4.08-3.93,2.64,2.64,0,0,1,.89-.19c.79,0,.74.84.46,1.55l-5.38,13.29a8.3,8.3,0,0,1-4.09,3.92A2.64,2.64,0,0,1,270.08,129.72Z" transform="translate(-5.28 -3.15)"/><path class="cls-26" d="M270.3,128.53l5.38-13.29a8.3,8.3,0,0,1,4.08-3.93,2.79,2.79,0,0,1,.8-.18.6.6,0,0,0-.59-.37,2.64,2.64,0,0,0-.89.19,8.3,8.3,0,0,0-4.08,3.93l-5.38,13.29c-.28.7-.34,1.53.46,1.55l.09,0A1.71,1.71,0,0,1,270.3,128.53Z" transform="translate(-5.28 -3.15)"/><path class="cls-27" d="M273.84,59.66l-8.28-5.15c-1.66,4.1-5.81,5.68-9.27,3.53l-39-24.27c-3.46-2.15-4.92-7.22-3.26-11.33l-8.27-5.14c-5.59-3.48-12.29-.93-15,5.69L110.51,221.31c-2.68,6.61-.32,14.79,5.26,18.27l68.08,42.36c5.59,3.48,12.29.93,15-5.69L279.1,77.93C281.78,71.31,279.42,63.13,273.84,59.66ZM197.72,276.23a11,11,0,0,1-3.65,4.85,8,8,0,0,1-4.79,1.51h0a9.15,9.15,0,0,1-4.55-1.42l-68.08-42.36c-5.34-3.32-7.6-11.16-5-17.48L191.88,23c1.62-4,4.86-6.43,8.45-6.36a9.16,9.16,0,0,1,4.56,1.42L212.74,23c-1.48,4.35.08,9.35,3.69,11.6l39,24.26a7.07,7.07,0,0,0,3.63,1.1A8,8,0,0,0,265.89,56l7.08,4.4c5.34,3.32,7.6,11.16,5,17.48Z" transform="translate(-5.28 -3.15)"/><path class="cls-28" d="M191.83,256.2l.4-1-.94-.58,1.09-2.69a1.26,1.26,0,0,0,1.24-.84A1.79,1.79,0,0,0,193,249a1.18,1.18,0,0,0-1.74.67,1.86,1.86,0,0,0,.19,1.73l-1.09,2.69-.93-.59-.4,1c-3.45-1.19-7.15.64-8.75,4.59-1.83,4.52-.22,10.1,3.6,12.48s8.38.63,10.21-3.89A10.73,10.73,0,0,0,191.83,256.2Zm.25,11.42a1.48,1.48,0,0,1-1.88,1,24.78,24.78,0,0,1-8.13-5,2.43,2.43,0,0,1-.54-2.61l.76-1.86a1,1,0,0,1,1.73-.45,24.79,24.79,0,0,0,8.11,5.05,1.55,1.55,0,0,1,.75,2Zm-2.14-3.34a.85.85,0,0,0-1.24.47,1.27,1.27,0,0,0,.43,1.52.84.84,0,0,0,1.24-.47A1.28,1.28,0,0,0,189.94,264.28Zm-5-3.11a.84.84,0,0,0-1.24.47,1.29,1.29,0,0,0,.44,1.52.85.85,0,0,0,1.24-.47A1.27,1.27,0,0,0,184.93,261.17Z" transform="translate(-5.28 -3.15)"/><path class="cls-29" d="M130.6,212.66,31.36,155.49c-5.41-3.13-9.8-11.51-9.8-18.73v-22c0-3.66-3.58-3.73-1.76-5,.15-.11,5-2.8,5.17-2.89,1.71-1,4-.88,6.39.53l99.24,57.17c5.41,3.13,9.8,11.51,9.8,18.73v22c0,3.94-1.31,6.72-3.39,7.92l-5.07,2.89C130.25,216.93,133,214,130.6,212.66Z" transform="translate(-5.28 -3.15)"/><path class="cls-30" d="M125.7,215.44,26.46,158.27c-5.42-3.12-9.81-11.51-9.81-18.73v-22c0-7.22,4.39-10.54,9.81-7.41l99.24,57.17c5.41,3.12,9.8,11.51,9.8,18.73v22C135.5,215.25,131.11,218.57,125.7,215.44Z" transform="translate(-5.28 -3.15)"/><path class="cls-31" d="M127.24,166.28,28,109.11c-2.75-1.59-5.24-1.51-7-.1a7.25,7.25,0,0,1,4.77,1.1L125,167.28c5.41,3.12,9.8,11.51,9.8,18.73v22c0,3.55-1.07,6.15-2.79,7.51,3-.5,5-3.6,5-8.51V185C137,177.79,132.65,169.4,127.24,166.28Z" transform="translate(-5.28 -3.15)"/><polygon class="cls-32" points="54.51 138.12 54.51 140.49 117.7 176.65 117.7 174.28 54.51 138.12"/><polygon class="cls-32" points="79.77 172.16 54.51 157.82 54.51 160.19 79.77 174.53 79.77 172.16"/><polygon class="cls-32" points="93.71 170.36 54.51 147.97 54.51 150.34 93.71 172.73 93.71 170.36"/><polygon class="cls-32" points="70.46 161.86 54.51 152.9 54.51 155.26 70.46 164.23 70.46 161.86"/><polygon class="cls-32" points="72.8 163.21 72.8 165.58 105.07 184.13 105.07 181.76 72.8 163.21"/><polygon class="cls-32" points="82.11 173.51 82.11 175.88 100.21 186.33 100.21 183.96 82.11 173.51"/><polygon class="cls-32" points="96.05 174.08 117.7 186.5 117.7 184.13 96.05 171.71 96.05 174.08"/><polygon class="cls-32" points="107.4 185.48 117.7 191.43 117.7 189.06 107.4 183.11 107.4 185.48"/><polygon class="cls-32" points="54.51 145.41 117.7 181.58 117.7 179.21 54.51 143.04 54.51 145.41"/><polygon class="cls-32" points="102.55 187.68 117.7 196.35 117.7 193.98 102.55 185.31 102.55 187.68"/><polygon class="cls-32" points="54.51 165.12 117.7 201.28 117.7 198.91 54.51 162.75 54.51 165.12"/><path class="cls-32" d="M48.53,152.31a19.55,19.55,0,0,1-4.05-4.85c-.67-1.12-.65-2.33,0-2.71a5.1,5.1,0,0,0,2.07-2.31c.71.2,1.59-.06,1.59-1a3.81,3.81,0,0,0-1-2.62c-.17-4.25-1.62-8.61-6.5-11.43s-6.34-.13-6.51,3.91c-.59-.13-1,.45-1,1.44a4.69,4.69,0,0,0,1.59,2.87,23.58,23.58,0,0,0,2.07,4.69c.65,1.13.67,2.37,0,2.72a5.28,5.28,0,0,1-4,.17c-2-.62-3.58.62-3.58,3.15v4.38A3,3,0,0,0,30.45,153l20.31,11.72c.74.43,1.34.09,1.34-.76v-4.38A10.42,10.42,0,0,0,48.53,152.31Z" transform="translate(-5.28 -3.15)"/><path class="cls-33" d="M219.35,109.27,120.94,52.49c-5.41-3.13-9.8-11.51-9.8-18.73v-22c0-3.66-3.58-3.73-1.76-5.05.15-.11,5-2.8,5.17-2.89,1.72-1,4-.88,6.39.53l98.41,56.79c5.41,3.13,9.8,11.51,9.8,18.73v22c0,3.94-1.31,6.72-3.39,7.92l-5.07,2.88C219,113.55,221.71,110.64,219.35,109.27Z" transform="translate(-5.28 -3.15)"/><path class="cls-34" d="M214.45,112.06,116,55.27c-5.41-3.12-9.8-11.51-9.8-18.73v-22c0-7.22,4.39-10.54,9.8-7.41L214.45,63.9c5.41,3.12,9.8,11.51,9.8,18.72v22C224.25,111.87,219.86,115.19,214.45,112.06Z" transform="translate(-5.28 -3.15)"/><path class="cls-35" d="M216,62.9,117.58,6.11c-2.75-1.59-5.23-1.51-7-.1a7.22,7.22,0,0,1,4.76,1.1L213.74,63.9c5.41,3.12,9.8,11.51,9.8,18.73v22c0,3.55-1.07,6.15-2.79,7.51,3-.5,5-3.6,5-8.51v-22C225.79,74.41,221.4,66,216,62.9Z" transform="translate(-5.28 -3.15)"/><polygon class="cls-32" points="144.09 35.12 144.09 37.49 206.45 73.27 206.45 70.9 144.09 35.12"/><polygon class="cls-32" points="169.36 69.16 144.09 54.82 144.09 57.19 169.36 71.53 169.36 69.16"/><polygon class="cls-32" points="183.29 67.36 144.09 44.97 144.09 47.34 183.29 69.73 183.29 67.36"/><polygon class="cls-32" points="160.04 58.86 144.09 49.9 144.09 52.27 160.04 61.23 160.04 58.86"/><polygon class="cls-32" points="162.38 60.21 162.38 62.58 193.82 80.75 193.82 78.38 162.38 60.21"/><polygon class="cls-32" points="171.69 70.51 171.69 72.88 189.79 83.33 189.79 80.96 171.69 70.51"/><polygon class="cls-32" points="185.63 71.08 206.45 83.12 206.45 80.75 185.63 68.71 185.63 71.08"/><polygon class="cls-32" points="196.15 82.1 206.45 88.05 206.45 85.68 196.15 79.73 196.15 82.1"/><polygon class="cls-32" points="144.09 42.41 206.45 78.19 206.45 75.83 144.09 40.05 144.09 42.41"/><polygon class="cls-32" points="192.13 84.68 206.45 92.97 206.45 90.6 192.13 82.31 192.13 84.68"/><polygon class="cls-32" points="144.09 62.12 206.45 97.9 206.45 95.53 144.09 59.74 144.09 62.12"/><path class="cls-32" d="M138.11,49.31a19.77,19.77,0,0,1-4.05-4.85c-.67-1.12-.64-2.33,0-2.71a5.14,5.14,0,0,0,2.06-2.31c.71.2,1.59-.06,1.59-1a3.85,3.85,0,0,0-1-2.62c-.18-4.25-1.63-8.61-6.51-11.43s-6.33-.13-6.51,3.91c-.58-.13-1,.45-1,1.44a4.69,4.69,0,0,0,1.59,2.87,23,23,0,0,0,2.06,4.69c.65,1.13.68,2.37,0,2.72a5.31,5.31,0,0,1-4,.17c-2-.62-3.57.62-3.57,3.15v4.38A3,3,0,0,0,120,50l20.3,11.72c.74.43,1.34.09,1.34-.76V56.58A10.42,10.42,0,0,0,138.11,49.31Z" transform="translate(-5.28 -3.15)"/><path class="cls-36" d="M199.18,232.1c0,11.54-4.85,41.73-10.84,41.73s-10.83-30.19-10.83-41.73c0-10.15,4.85-12.6,10.83-12.6S199.18,222,199.18,232.1Z" transform="translate(-5.28 -3.15)"/><path class="cls-37" d="M198.6,232c0,11.26-4.59,41.17-10.26,41.17S178.09,243.22,178.09,232c0-9.91,4.59-12.3,10.25-12.3S198.6,222.05,198.6,232Z" transform="translate(-5.28 -3.15)"/><path class="cls-38" d="M198,231.82c0,11-4.33,40.6-9.68,40.6s-9.67-29.61-9.67-40.6c0-9.67,4.33-12,9.67-12S198,222.15,198,231.82Z" transform="translate(-5.28 -3.15)"/><path class="cls-39" d="M197.44,231.68c0,10.71-4.07,40-9.1,40s-9.09-29.33-9.09-40c0-9.43,4.07-11.7,9.09-11.7S197.44,222.25,197.44,231.68Z" transform="translate(-5.28 -3.15)"/><path class="cls-40" d="M196.86,231.54c0,10.44-3.81,39.48-8.52,39.48s-8.52-29-8.52-39.48c0-9.19,3.82-11.4,8.52-11.4S196.86,222.35,196.86,231.54Z" transform="translate(-5.28 -3.15)"/><path class="cls-41" d="M196.29,231.4c0,10.17-3.56,38.92-7.95,38.92s-7.94-28.75-7.94-38.92c0-9,3.56-11.1,7.94-11.1S196.29,222.45,196.29,231.4Z" transform="translate(-5.28 -3.15)"/><path class="cls-42" d="M195.71,231.26c0,9.89-3.3,38.35-7.37,38.35S181,241.15,181,231.26c0-8.7,3.3-10.8,7.36-10.8S195.71,222.56,195.71,231.26Z" transform="translate(-5.28 -3.15)"/><path class="cls-43" d="M195.13,231.12c0,9.62-3,37.79-6.79,37.79s-6.78-28.17-6.78-37.79c0-8.46,3-10.5,6.78-10.5S195.13,222.66,195.13,231.12Z" transform="translate(-5.28 -3.15)"/><path class="cls-44" d="M194.55,231c0,9.34-2.78,37.23-6.21,37.23s-6.2-27.89-6.2-37.23c0-8.22,2.78-10.2,6.2-10.2S194.55,222.76,194.55,231Z" transform="translate(-5.28 -3.15)"/><path class="cls-45" d="M194,230.84c0,9.07-2.52,36.66-5.63,36.66s-5.62-27.59-5.62-36.66c0-8,2.52-9.9,5.62-9.9S194,222.86,194,230.84Z" transform="translate(-5.28 -3.15)"/><path class="cls-46" d="M193.39,230.7c0,8.79-2.26,36.1-5,36.1s-5.05-27.31-5.05-36.1c0-7.74,2.27-9.61,5.05-9.61S193.39,223,193.39,230.7Z" transform="translate(-5.28 -3.15)"/><path class="cls-47" d="M192.82,230.56c0,8.52-2,35.54-4.48,35.54s-4.47-27-4.47-35.54c0-7.5,2-9.31,4.47-9.31S192.82,223.06,192.82,230.56Z" transform="translate(-5.28 -3.15)"/><path class="cls-48" d="M197.06,216.37H179.73v2.45h0v.07c0,2.78,3.88,5,8.66,5s8.67-2.26,8.67-5v-.07h0Z" transform="translate(-5.28 -3.15)"/><path class="cls-49" d="M165.91,159c-1.37,6.14-8.4,27.16-13.13,26.11s-5.67-23.71-4-29.91c1.44-5.34,5.69-8.1,10.42-7.05A8.77,8.77,0,0,1,165.91,159Z" transform="translate(-5.28 -3.15)"/><ellipse class="cls-50" cx="183.12" cy="213.26" rx="8.67" ry="5.05"/><path class="cls-51" d="M227,153.07c0,21.34-17.3,66-38.64,66s-38.63-44.68-38.63-66c0-18.78,17.3-23.31,38.63-23.31S227,134.29,227,153.07Z" transform="translate(-5.28 -3.15)"/><path class="cls-52" d="M227,153.07c0,21.34-17.3,66-38.64,66s-38.63-44.68-38.63-66c0-18.78,17.3-23.31,38.63-23.31S227,134.29,227,153.07Z" transform="translate(-5.28 -3.15)"/><ellipse class="cls-53" cx="183.16" cy="146.87" rx="37.91" ry="22.08"/><ellipse class="cls-54" cx="183.14" cy="146.72" rx="37.46" ry="21.81"/><ellipse class="cls-55" cx="183.13" cy="146.57" rx="37" ry="21.55"/><ellipse class="cls-56" cx="183.11" cy="146.42" rx="36.54" ry="21.28"/><ellipse class="cls-57" cx="183.1" cy="146.27" rx="36.09" ry="21.02"/><ellipse class="cls-58" cx="183.09" cy="146.12" rx="35.63" ry="20.75"/><ellipse class="cls-59" cx="183.07" cy="145.97" rx="35.18" ry="20.48"/><ellipse class="cls-60" cx="183.06" cy="145.82" rx="34.72" ry="20.22"/><ellipse class="cls-61" cx="183.04" cy="145.67" rx="34.26" ry="19.95"/><ellipse class="cls-62" cx="183.03" cy="145.52" rx="33.81" ry="19.69"/><ellipse class="cls-63" cx="183.01" cy="145.37" rx="33.35" ry="19.42"/><ellipse class="cls-64" cx="183" cy="145.22" rx="32.89" ry="19.15"/><ellipse class="cls-65" cx="187.45" cy="140.99" rx="32.88" ry="19.15"/><ellipse class="cls-66" cx="187.38" cy="141.05" rx="32.04" ry="18.66"/><ellipse class="cls-67" cx="187.3" cy="141.1" rx="31.19" ry="18.16"/><ellipse class="cls-68" cx="187.23" cy="141.16" rx="30.34" ry="17.67"/><ellipse class="cls-69" cx="187.16" cy="141.22" rx="29.5" ry="17.18"/><ellipse class="cls-70" cx="187.08" cy="141.27" rx="28.65" ry="16.68"/><ellipse class="cls-71" cx="187.01" cy="141.33" rx="27.81" ry="16.19"/><ellipse class="cls-72" cx="186.94" cy="141.38" rx="26.96" ry="15.7"/><ellipse class="cls-73" cx="186.86" cy="141.44" rx="26.11" ry="15.21"/><ellipse class="cls-74" cx="186.79" cy="141.5" rx="25.27" ry="14.71"/><ellipse class="cls-75" cx="186.71" cy="141.55" rx="24.42" ry="14.22"/><ellipse class="cls-76" cx="186.64" cy="141.61" rx="23.58" ry="13.73"/><circle class="cls-77" cx="188.55" cy="113.73" r="45.36" transform="translate(39.01 276.94) rotate(-80.17)"/><path class="cls-78" d="M146.86,117.74h0a61.54,61.54,0,0,0,37.57,21.56h0a6.51,6.51,0,0,0,7.57-6.43V121a12,12,0,0,0-8.51-11.48h0a66.63,66.63,0,0,1-28.13-17h0a3.92,3.92,0,0,0-6.25.87,44.41,44.41,0,0,0-4.85,15.65A11.56,11.56,0,0,0,146.86,117.74Z" transform="translate(-5.28 -3.15)"/><ellipse class="cls-79" cx="155.22" cy="110.27" rx="2.75" ry="4.77" transform="translate(-39.71 90.26) rotate(-30.31)"/><path class="cls-79" d="M178.08,123.48c0,2.15-1.51,3-3.38,1.93a7.46,7.46,0,0,1-3.39-5.83c0-2.15,1.52-3,3.39-1.93A7.43,7.43,0,0,1,178.08,123.48Z" transform="translate(-5.28 -3.15)"/><circle class="cls-80" cx="210.02" cy="174.33" r="10.56"/><path class="cls-81" d="M224.74,182.16c-1.34,7.94-12.49,25.38-17.22,24.33s-.51-22.53.85-28.67c1.2-5.41,5.7-8.1,10.43-7S225.66,176.7,224.74,182.16Z" transform="translate(-5.28 -3.15)"/><path class="cls-82" d="M224.74,182.16c-1.34,7.94-12.49,25.38-17.22,24.33s-.51-22.53.85-28.67c1.2-5.41,5.7-8.1,10.43-7S225.66,176.7,224.74,182.16Z" transform="translate(-5.28 -3.15)"/><path class="cls-83" d="M216.9,180.2c-.46,6.28-7.77,23.93-9.28,23.82s1-16,1.86-22.79c.7-5.49,2.38-8.28,3.82-8.75C217.42,171.13,217.31,174.68,216.9,180.2Z" transform="translate(-5.28 -3.15)"/><path class="cls-84" d="M223.76,183c-1.94,9.28-11.5,21.62-13,21.34s7-12.74,8.66-19.33c1.34-5.37.06-10.84,1.54-11.14C225.22,173,224.89,177.57,223.76,183Z" transform="translate(-5.28 -3.15)"/><path class="cls-85" d="M202,74.78H174.81v2h0a.41.41,0,0,0,0,.11c0,4.36,6.08,7.9,13.57,7.9S202,81.22,202,76.86v-.11h0Z" transform="translate(-5.28 -3.15)"/><ellipse class="cls-86" cx="183.1" cy="71.68" rx="13.57" ry="7.9"/><path class="cls-87" d="M190.41,56.1h-4.06V74h0c0,.65.91,1.18,2,1.18s2-.53,2-1.18h0Z" transform="translate(-5.28 -3.15)"/><path class="cls-88" d="M194.41,56.62a6,6,0,1,1-6-6A6,6,0,0,1,194.41,56.62Z" transform="translate(-5.28 -3.15)"/><circle class="cls-89" cx="179.19" cy="100.82" r="28.74" transform="translate(45.46 258.21) rotate(-80.7)"/><circle class="cls-90" cx="155.06" cy="109.97" r="12.71" transform="translate(6.97 232.28) rotate(-76.64)"/><circle class="cls-91" cx="169.61" cy="118.51" r="12.71"/><path class="cls-92" d="M168.24,169.45c5.16,20.7,15.84,44.55,13.3,45.7-4.47,2-22-21.39-27.19-42.1-4.54-18.22-2.39-39.66,2.33-40.83S163.71,151.22,168.24,169.45Z" transform="translate(-5.28 -3.15)"/><path class="cls-93" d="M157.07,140l-3.26-5.62c-.64-1.11,0-1.95.9-1.11l4.46,4.39a7.37,7.37,0,0,0,3.75,2.17l4.46.76c.86.14,1.53,1.77.89,2.13L165,144.55C162.82,145.8,159.27,143.75,157.07,140Z" transform="translate(-5.28 -3.15)"/><path class="cls-94" d="M144.58,150.72,128,113.07V92.24c0-6.21-4.39-13.78-9.8-16.91L19.77,18.41c-2.7-1.56-5.15-1.72-6.93-.71-.16.09-4.9,2.75-5,2.86C6.29,21.67,10,21.17,10,24V49.67c0,6.21,4.39,13.78,9.8,16.9l95.35,55.16,24.77,31.69Z" transform="translate(-5.28 -3.15)"/><path class="cls-95" d="M139.89,153.42l-16.61-37.65V94.93c0-6.21-4.39-13.78-9.8-16.9L15.08,21.1c-5.41-3.12-9.8-.62-9.8,5.59V52.36c0,6.21,4.39,13.78,9.8,16.91l95.35,55.16Z" transform="translate(-5.28 -3.15)"/><path class="cls-96" d="M14.58,21.77,113,78.69c5.41,3.13,9.8,10.7,9.8,16.91v20.83l14.16,32.12,4.45,4.37-16.61-37.65V94.43c0-6.21-4.39-13.78-9.8-16.9L16.58,20.6c-3.24-1.87-6.1-1.71-7.89,0A7.66,7.66,0,0,1,14.58,21.77Z" transform="translate(-5.28 -3.15)"/><path class="cls-32" d="M27.93,43.72v-1.6l-1.58-.91V36.8c.71.06,1.2-.46,1.2-1.4a4.41,4.41,0,0,0-2-3.45c-1.1-.63-2-.12-2,1.14a4.4,4.4,0,0,0,1.21,2.8V40.3l-1.58-.92V41c-5.31-1.81-9.3,1.28-9.3,7.75,0,7.39,5.22,16.4,11.67,20.12s11.67.75,11.67-6.65C37.23,55.74,33.24,48,27.93,43.72Zm4.55,20.15A50.38,50.38,0,0,1,18.77,56a5.87,5.87,0,0,1-2.16-4.21v-3c0-1.27,1-1.65,2.09-.79a50.63,50.63,0,0,0,13.72,7.92A3.79,3.79,0,0,1,34.51,59v3.21C34.51,63.61,33.66,64.3,32.48,63.87ZM21.33,52c-.78-.45-1.42-.09-1.42.81a3.13,3.13,0,0,0,1.42,2.44c.78.45,1.42.09,1.42-.81A3.12,3.12,0,0,0,21.33,52Zm8.45,4.88c-.78-.45-1.41-.09-1.41.81a3.12,3.12,0,0,0,1.41,2.44c.79.45,1.42.09,1.42-.81A3.09,3.09,0,0,0,29.78,56.91Z" transform="translate(-5.28 -3.15)"/><polygon class="cls-32" points="39.69 46.27 39.69 48.64 104.7 85.86 104.7 83.49 39.69 46.27"/><polygon class="cls-32" points="66.88 81.35 39.69 65.97 39.69 68.34 66.88 83.72 66.88 81.35"/><polygon class="cls-32" points="80.81 79.55 39.69 56.12 39.69 58.49 80.81 81.92 80.81 79.55"/><polygon class="cls-32" points="57.56 71.05 39.69 61.05 39.69 63.42 57.56 73.42 57.56 71.05"/><polygon class="cls-32" points="59.9 72.4 59.9 74.77 92.06 93.34 92.06 90.97 59.9 72.4"/><polygon class="cls-32" points="69.21 82.7 69.21 85.07 87.31 95.52 87.31 93.15 69.21 82.7"/><polygon class="cls-32" points="83.15 83.27 104.7 95.71 104.7 93.34 83.15 80.9 83.15 83.27"/><polygon class="cls-32" points="94.4 94.69 104.7 100.64 104.7 98.27 94.4 92.32 94.4 94.69"/><polygon class="cls-32" points="39.69 53.57 104.7 90.78 104.7 88.42 39.69 51.2 39.69 53.57"/><polygon class="cls-32" points="89.65 96.87 104.7 105.56 104.7 103.19 89.65 94.5 89.65 96.87"/><polygon class="cls-32" points="39.69 73.27 104.7 110.49 104.7 108.11 39.69 70.9 39.69 73.27"/></g></g></svg>