<svg width="1440" height="469" viewBox="0 0 1440 469" fill="none" xmlns="http://www.w3.org/2000/svg">
<rect width="1440" height="469" fill="#E7F5FF"/>
<g opacity="0.08">
<mask id="mask0_1124_3075" style="mask-type:alpha" maskUnits="userSpaceOnUse" x="0" y="0" width="1440" height="469">
<rect width="1440" height="469" fill="white"/>
</mask>
<g mask="url(#mask0_1124_3075)">
<path opacity="0.7" d="M-127.899 212.904C-113.287 202.282 -98.536 191.614 -83.6477 180.898C-74.7216 174.431 -64.7271 169.427 -54.1467 164.092C-37.4663 155.737 -20.2344 147.051 -7.55173 132.275C-0.658989 124.25 4.5795 115.47 8.50838 105.509C13.3678 93.1884 15.2633 81.0091 17.2621 68.0746C19.8125 51.7412 22.4662 34.8413 31.5991 17.3277C35.8381 9.16101 41.0077 1.7024 46.7287 -4.90649H43.5925C38.4574 1.32475 33.8392 8.21688 29.9448 15.7227C20.5707 33.7083 17.8825 50.8915 15.2977 67.5081C13.2988 80.2066 11.4378 92.2442 6.71625 104.187C2.92525 113.865 -2.17538 122.362 -8.89582 130.151C-21.3028 144.596 -38.3623 153.188 -54.8705 161.449C-65.0373 166.547 -75.5487 171.834 -84.6127 178.396C-99.1908 188.876 -113.631 199.308 -127.934 209.694V212.904H-127.899Z" fill="url(#paint0_linear_1124_3075)"/>
<path opacity="0.7" d="M-127.896 241.37C-124.139 238.868 -120.417 236.319 -116.695 233.864C-112.112 230.796 -107.493 227.727 -102.944 224.612C-85.161 212.574 -70.3415 202.708 -56.3148 193.503C-47.5266 187.696 -37.8078 183.164 -27.5031 178.349C-11.2707 170.796 5.4787 163.007 18.2303 149.695C25.0196 142.614 30.4304 134.825 34.8073 125.856C40.2526 114.715 42.9408 103.622 45.8357 91.8672C49.3855 77.3749 53.0387 62.3632 62.3094 46.8796C77.9904 20.6328 104.045 1.23098 128.652 -2.49833C131.478 -2.92318 134.821 -3.39525 138.061 -3.67849C161.531 -5.70836 180.313 -2.68715 198.51 0.286851C225.323 4.62984 250.929 8.68959 287.254 -4.85864H278.949C247.001 5.24352 223.393 1.51422 198.751 -2.49833C193.651 -3.30083 188.516 -4.15055 183.208 -4.85864H126.343C101.529 -0.279624 76.5429 18.6501 60.7241 45.1329C51.2466 60.9943 47.5245 76.2419 43.9058 90.9703C41.0797 102.536 38.3916 113.488 33.1186 124.298C28.8796 133.031 23.5722 140.584 16.9896 147.476C4.51372 160.505 -12.0978 168.2 -28.1579 175.706C-38.049 180.332 -48.2847 185.1 -57.2109 190.953C-71.2376 200.159 -86.057 210.072 -103.84 222.11C-108.39 225.178 -112.973 228.246 -117.591 231.362C-121.003 233.675 -124.45 235.941 -127.896 238.301V241.37Z" fill="url(#paint1_linear_1124_3075)"/>
<path opacity="0.7" d="M-127.899 268.089C-113.32 257.939 -98.3976 248.64 -83.7505 239.529L-74.721 233.911C-60.7632 225.178 -45.8059 216.067 -28.9876 206.059C-20.3717 200.914 -10.9975 196.901 -1.03749 192.653C14.7814 185.902 31.1172 178.916 43.9722 167.067C50.6237 160.93 56.2412 154.085 61.0662 146.155C67.1318 136.194 70.716 126.186 74.507 115.565C79.0218 102.914 83.6744 89.8846 92.9796 76.4307C109.281 52.8748 134.267 35.1252 158.151 30.1685C160.977 29.602 164.147 28.9411 167.18 28.4691C189.685 24.9758 207.778 25.1174 225.32 25.259C255.924 25.4951 284.839 25.6839 331.572 6.28206C340.36 2.59996 348.873 -1.17654 357.075 -4.85864H350.527C344.151 -2.02626 337.707 0.806121 330.986 3.5913C284.529 22.8987 255.786 22.6627 225.32 22.4266C207.744 22.285 189.547 22.1434 166.939 25.6839C163.872 26.156 160.666 26.8168 157.84 27.4305C133.543 32.4816 108.109 50.5144 91.4977 74.4953C81.9857 88.2323 77.2641 101.497 72.6805 114.29C68.9584 124.77 65.4086 134.636 59.5153 144.314C54.7938 152.055 49.3485 158.711 42.8349 164.707C30.2211 176.319 14.0232 183.259 -1.65784 189.962C-11.2043 194.069 -21.0954 198.27 -29.8147 203.463C-46.633 213.471 -61.6247 222.629 -75.5826 231.315L-84.6121 236.932C-98.9834 245.854 -113.631 254.965 -127.933 264.926V268.089H-127.899Z" fill="url(#paint2_linear_1124_3075)"/>
<path opacity="0.7" d="M1466.43 22.2381C1454.33 14.7795 1443.17 5.66871 1433.24 -4.90552H1429.93C1440.69 6.99049 1452.99 17.1871 1466.4 25.3066V22.2381H1466.43Z" fill="url(#paint3_linear_1124_3075)"/>
<path opacity="0.7" d="M570.682 18.7922C596.53 31.6324 622.205 36.7779 649.294 34.4648C684.654 31.4436 707.848 14.1188 731.628 -4.85815H727.595C705.056 12.9859 682.586 28.8472 649.19 31.7268C622.412 33.9927 596.978 28.9416 571.406 16.2431C560.825 10.956 550.176 4.67753 539.871 -1.36488C537.907 -2.49784 535.943 -3.678 533.944 -4.81095H528.74C532.152 -2.82828 535.598 -0.845613 539.044 1.18426C549.349 7.22668 560.033 13.4579 570.682 18.7922Z" fill="url(#paint4_linear_1124_3075)"/>
<path opacity="0.7" d="M-127.899 297.215C-104.567 276.256 -78.099 261.15 -52.3891 246.563L-46.4958 243.211C-33.2272 235.658 -18.5457 227.586 -1.65845 218.617C6.78517 214.132 15.9181 210.592 25.5679 206.862C40.9388 200.914 56.7921 194.777 69.7504 184.439C76.2985 179.247 82.054 173.346 87.3614 166.454C94.1508 157.626 98.6655 148.657 103.456 139.121C108.867 128.405 114.415 117.312 123.652 105.935C140.573 85.1642 164.491 69.0196 187.685 62.8356L188.857 62.5051C191.407 61.8442 193.889 61.1361 196.336 60.5697C218.841 55.377 236.969 52.4974 254.511 49.665C283.184 45.086 310.273 40.743 353.697 27.1948L356.661 26.2506C406.22 10.7669 445.336 -1.45952 496.17 16.8094C513.54 23.0878 530.841 34.0397 549.107 45.6052C560.411 52.7806 572.128 60.192 583.846 66.3761C608.97 79.5466 633.75 85.0698 659.666 83.1343C697.576 80.3491 719.323 59.7672 742.345 38.005C756.199 24.8816 770.502 11.3334 788.974 1.27845C793.213 -1.03466 797.452 -2.87571 801.519 -4.2447C802.381 -4.52793 803.208 -4.71676 804.035 -5H796.005C793.455 -3.91425 790.87 -2.73409 788.25 -1.3179C769.537 8.83147 755.131 22.4741 741.207 35.6919C718.427 57.2652 696.922 77.6112 659.597 80.3491C633.991 82.2374 609.487 76.8087 584.604 63.7325C572.956 57.5485 561.272 50.1843 550.003 43.0089C531.633 31.3961 514.298 20.397 496.722 14.0242C445.405 -4.43352 406.082 7.88735 356.247 23.4655L353.284 24.4096C309.963 37.9578 282.909 42.2536 254.304 46.8326C236.727 49.7594 218.565 52.639 195.991 57.8789C193.544 58.4454 191.028 59.1063 188.444 59.8144L187.272 60.1448C163.733 66.4705 139.436 82.8039 122.273 103.905C112.865 115.471 107.213 126.706 101.733 137.563C97.0112 146.957 92.531 155.832 85.9139 164.471C80.7099 171.221 75.0923 176.981 68.6821 182.079C55.9649 192.228 40.215 198.318 24.982 204.219C15.7113 207.806 6.09589 211.536 -2.41665 216.068C-19.3383 225.037 -34.0199 233.109 -47.3229 240.662L-53.1817 244.014C-78.5815 258.459 -104.705 273.329 -127.934 293.864V297.215H-127.899Z" fill="url(#paint5_linear_1124_3075)"/>
<path opacity="0.7" d="M1466.43 46.88C1462.67 45.4638 1458.95 43.9532 1455.3 42.2538C1433.76 32.1516 1414.18 15.8654 1398.26 -4.85815H1395.36C1411.77 17.0928 1432.1 34.3231 1454.61 44.8502C1458.47 46.644 1462.43 48.249 1466.39 49.7124V46.88H1466.43Z" fill="url(#paint6_linear_1124_3075)"/>
<path opacity="0.7" d="M-127.896 339.323C-119.901 327.616 -112.456 318.174 -104.702 309.96C-80.3706 284.327 -50.5595 269.08 -21.7478 254.304L-18.3014 252.557C-5.4809 245.996 8.89049 239.009 25.6399 231.22C33.9456 227.349 42.8373 224.281 52.2114 221.071C67.0653 215.925 82.4706 210.638 95.4979 201.858C101.874 197.562 107.801 192.605 113.591 186.752C121.242 179.01 126.894 170.985 132.857 162.488C138.991 153.754 145.332 144.691 154.328 135.486C171.732 117.594 194.65 103.055 217.224 95.5018L220.015 94.5577C221.876 93.944 223.669 93.3303 225.495 92.7638C241.728 87.6655 255.444 82.9449 268.713 78.3659C300.557 67.414 328.059 57.9255 375.757 48.201C424.075 38.3821 464.019 37.1075 513.681 61.3244C528.225 68.4525 542.768 78.4603 558.139 89.0817C570.753 97.7677 583.78 106.737 596.911 114.101C621.346 127.602 645.229 133.456 669.94 131.992C708.505 129.679 728.149 107.539 748.931 84.0779C761.234 70.2464 773.917 55.8956 791.183 45.1326C795.146 42.6779 799.144 40.648 803.073 39.1846C821.098 32.3397 839.019 31.5371 854.872 30.8291C870.587 30.121 885.441 29.4601 897.607 23.04C907.808 17.6585 917.251 12.0881 927.28 6.23453C933.484 2.59964 939.756 -1.08246 946.339 -4.81177H941.066C936.103 -1.93218 931.244 0.900206 926.488 3.68538C916.493 9.53897 907.05 15.1093 896.883 20.4436C885.028 26.6749 870.346 27.3358 854.803 28.0439C838.846 28.752 820.787 29.5545 802.522 36.4938C798.489 38.0044 794.388 40.0815 790.321 42.5834C772.814 53.5353 760.028 67.9333 747.621 81.9064C727.081 105.037 707.712 126.894 669.836 129.16C645.401 130.623 621.794 124.817 597.669 111.458C584.573 104.141 571.58 95.2186 559.035 86.5326C543.596 75.8639 529.017 65.8562 514.336 58.6336C464.294 34.2279 424.075 35.4553 375.447 45.3686C327.646 55.0931 300.075 64.5816 268.196 75.5807C254.927 80.1597 241.245 84.8804 225.013 89.9787C223.221 90.5451 221.359 91.1588 219.498 91.8197L216.707 92.7638C193.892 100.411 170.698 115.14 153.087 133.22C143.988 142.567 137.578 151.677 131.375 160.505C125.481 168.908 119.898 176.886 112.385 184.486C106.699 190.245 100.874 195.107 94.6018 199.309C81.7813 207.947 66.4794 213.187 51.7289 218.286C42.7339 221.401 33.3942 224.611 25.0195 228.482C8.23567 236.271 -6.17017 243.258 -18.9907 249.819L-22.4371 251.566C-51.3866 266.389 -81.3701 281.731 -105.908 307.6C-113.283 315.389 -120.349 324.264 -127.896 335.121V339.323Z" fill="url(#paint7_linear_1124_3075)"/>
<path opacity="0.7" d="M1466.43 65.857C1455.85 63.6855 1445.2 61.042 1435 56.8878C1408.87 46.1719 1384.13 24.4098 1364.52 -4.85815H1361.76C1381.79 25.6844 1407.36 48.4379 1434.41 59.5313C1444.85 63.8271 1455.71 66.4707 1466.43 68.6422V65.857Z" fill="url(#paint8_linear_1124_3075)"/>
<path opacity="0.7" d="M1204.47 1.79779C1208.92 0.145566 1213.33 -2.02593 1217.95 -4.90552H1212.74C1209.78 -3.3005 1206.88 -1.97872 1203.92 -0.892975C1180 8.02903 1161.84 2.93074 1143.99 -4.90552H1137.54C1157.64 4.44135 1177.35 11.9472 1204.47 1.79779Z" fill="url(#paint9_linear_1124_3075)"/>
<path opacity="0.7" d="M-127.897 401.163C-125.14 397.67 -122.314 393.751 -119.384 389.172C-114.904 382.186 -110.562 374.019 -105.943 365.333C-103.255 360.329 -100.498 355.137 -97.6721 350.086C-89.6421 335.876 -82.0601 324.877 -73.7543 315.483C-50.3879 289.189 -20.5078 275.594 8.44171 262.518L9.95813 261.857C22.3306 256.239 36.3918 250.338 53.0033 243.777C61.2057 240.519 69.8561 237.923 78.989 235.185C93.3604 230.842 108.18 226.405 121.276 219.229C127.514 215.831 133.614 211.818 139.886 207.05C148.813 200.252 155.912 193.03 163.46 185.382C169.973 178.774 176.694 171.976 185.034 164.989C202.61 150.308 224.529 137.185 246.793 128.121C248.172 127.555 249.516 126.988 250.86 126.422C252.135 125.902 253.41 125.336 254.651 124.817C271.745 117.83 286.082 110.041 299.971 102.535C328.024 87.2876 354.527 72.9368 397.882 69.1131C444.959 64.959 483.593 75.5804 531.291 105.745C542.595 112.921 553.899 121.512 565.858 130.623C580.161 141.48 594.98 152.763 610.144 161.685C633.855 175.564 656.808 181.748 680.381 180.709C719.498 178.868 736.971 155.218 755.443 130.151C766.265 115.517 777.431 100.364 793.56 88.7982C797.248 86.1546 801.039 84.0303 804.795 82.3781C820.132 75.722 835.537 74.3058 850.425 72.9368C867.209 71.379 883.063 69.9156 895.607 60.6632C904.947 53.771 913.494 46.5485 922.524 38.901C939.962 24.1254 957.987 8.92498 983.18 -4.90649H977.838C954.851 8.31129 937.894 22.6148 921.455 36.5407C912.46 44.1409 903.948 51.3635 894.642 58.2084C882.477 67.1777 866.83 68.641 850.288 70.1516C835.296 71.5678 819.787 72.984 804.21 79.7346C800.315 81.434 796.421 83.6527 792.63 86.3434C776.225 98.0978 764.921 113.393 753.996 128.168C735.799 152.81 718.602 176.13 680.278 177.924C657.015 179.01 634.338 172.873 610.902 159.136C595.842 150.261 581.091 139.026 566.823 128.168C554.83 119.057 543.457 110.419 532.118 103.196C484.11 72.8424 445.201 62.1738 397.744 66.3279C354.079 70.1989 327.438 84.644 299.247 99.9389C285.427 107.445 271.124 115.234 254.099 122.173C252.824 122.692 251.549 123.212 250.274 123.778C248.93 124.345 247.586 124.911 246.207 125.478C223.771 134.636 201.68 147.806 183.966 162.629C175.556 169.663 168.802 176.508 162.253 183.164C154.775 190.764 147.71 197.892 138.887 204.643C132.684 209.363 126.687 213.281 120.518 216.68C107.594 223.761 92.809 228.199 78.541 232.494C69.3736 235.232 60.7232 237.876 52.4519 241.133C35.8059 247.695 21.7103 253.596 9.33778 259.213L7.85583 259.874C-21.3005 273.092 -51.3873 286.735 -75.0295 313.359C-83.4386 322.895 -91.1585 334.035 -99.2575 348.386C-102.118 353.437 -104.875 358.677 -107.563 363.681C-112.147 372.273 -116.455 380.439 -120.901 387.284C-123.279 391.013 -125.622 394.318 -127.897 397.292V401.163Z" fill="url(#paint10_linear_1124_3075)"/>
<path opacity="0.7" d="M1466.43 81.0102C1462.16 80.3494 1457.92 79.8301 1453.71 79.2636C1440.76 77.6114 1427.38 75.912 1414.67 71.4746C1388.06 62.1749 1362.45 40.7904 1338.54 7.93477C1336.19 4.72474 1333.92 1.4675 1331.68 -1.78974C1330.95 -2.82828 1330.23 -3.86682 1329.54 -4.85815H1326.75C1327.92 -3.20593 1329.06 -1.55371 1330.23 0.14572C1332.47 3.40296 1334.75 6.6602 1337.12 9.91744C1361.28 43.1507 1387.23 64.7713 1414.18 74.1653C1427.07 78.6499 1440.55 80.3966 1453.54 82.0488C1457.78 82.6153 1462.12 83.1817 1466.43 83.7954V81.0102Z" fill="url(#paint11_linear_1124_3075)"/>
<path opacity="0.7" d="M-127.897 466.732C-126.242 464.75 -124.588 462.72 -122.934 460.737C-114.077 450.069 -106.426 440.816 -99.1538 429.251C-93.3295 419.998 -88.0221 410.085 -82.5423 398C-79.9575 392.335 -77.4417 386.387 -74.788 380.062C-71.5139 372.225 -68.102 364.153 -64.4489 356.411C-57.7284 342.108 -50.6289 330.542 -42.8401 321.101C-20.5765 294.146 9.26909 282.486 38.1152 271.204C50.5567 266.341 64.3422 261.526 80.2644 256.381C88.5012 253.69 97.0482 251.519 106.112 249.205C119.794 245.712 133.959 242.124 146.952 236.649C153.121 234.052 159.186 231.078 166.045 227.349C177.418 221.165 187.102 214.32 197.372 207.097C203.128 203.038 209.09 198.836 215.604 194.588C231.939 183.872 251.79 172.826 276.26 160.835C278.259 159.844 280.189 158.852 282.119 157.861L283.738 157.011C299.936 148.703 313.653 138.27 326.921 128.168C353.562 107.87 378.789 88.6566 419.87 90.12C466.637 91.725 503.858 114.29 548.765 150.214C556.071 156.067 563.377 162.299 571.097 168.907C587.812 183.211 605.113 198.034 623.206 209.363C646.159 223.667 668.285 230.229 690.652 229.473C730.216 228.151 745.484 203.038 761.613 176.413C771.021 160.93 780.706 144.927 795.801 132.606C799.178 129.868 802.762 127.555 806.416 125.714C819.546 119.246 833.366 117.311 846.738 115.423C864.28 112.968 880.823 110.655 893.471 98.3339C902.604 89.5063 910.772 80.1122 919.422 70.1989C937.274 49.7585 955.747 28.5628 983.042 12.6071C1011.96 -4.34002 1043.53 -7.1724 1082.44 3.63786C1095.6 7.31996 1107.01 14.4009 1118 21.2458C1138.37 33.9444 1157.64 45.9348 1185.76 35.691C1193.96 32.717 1201.82 27.7131 1211.3 19.4992C1213.02 17.9886 1214.74 16.478 1216.47 14.9202C1225.08 7.27275 1233.52 -0.185856 1242.38 -4.90649H1237.18C1229.77 -0.185856 1222.63 6.1398 1215.33 12.6071C1213.6 14.1177 1211.92 15.6283 1210.19 17.1389C1200.89 25.2112 1193.2 30.0734 1185.21 33.0002C1157.77 43.008 1138.85 31.2064 1118.79 18.6967C1107.7 11.7574 1096.19 4.6292 1082.78 0.899891C1072.13 -2.07411 1062.07 -3.96237 1052.38 -4.90649H1027.22C1011.23 -3.25427 996.38 1.7024 982.181 10.0107C954.61 26.1553 936.034 47.4454 918.044 68.0274C909.428 77.8935 901.26 87.2404 892.196 96.0208C879.996 107.917 863.694 110.183 846.428 112.637C832.918 114.526 818.995 116.461 805.623 123.07C801.832 124.958 798.144 127.319 794.663 130.151C779.293 142.708 769.47 158.9 759.958 174.572C744.105 200.677 729.148 225.366 690.514 226.641C668.354 227.349 646.642 220.882 623.964 206.767C606.009 195.532 588.777 180.756 572.096 166.5C564.377 159.891 557.07 153.613 549.729 147.759C504.548 111.599 467.051 88.8926 419.87 87.2876C378.169 85.8242 352.804 105.226 325.888 125.714C312.688 135.769 299.04 146.154 282.98 154.368L281.36 155.218C279.43 156.209 277.5 157.2 275.536 158.192C250.998 170.229 231.112 181.275 214.673 192.039C208.125 196.334 202.163 200.536 196.373 204.595C186.171 211.771 176.487 218.569 165.218 224.753C158.428 228.482 152.397 231.409 146.297 233.958C133.408 239.387 119.312 242.974 105.699 246.467C96.6347 248.781 88.0532 250.952 79.7475 253.643C63.7907 258.741 49.9708 263.603 37.4949 268.466C8.44197 279.795 -21.6104 291.55 -44.2531 318.929C-52.2142 328.559 -59.3827 340.314 -66.2065 354.806C-69.9286 362.642 -73.306 370.762 -76.6146 378.598C-79.2683 384.924 -81.7497 390.872 -84.3344 396.442C-89.7797 408.385 -95.0182 418.204 -100.774 427.362C-107.977 438.786 -115.559 447.944 -124.381 458.613C-125.588 460.076 -126.794 461.493 -128 462.956V466.732H-127.897Z" fill="url(#paint12_linear_1124_3075)"/>
<path opacity="0.7" d="M1466.43 95.4554C1463.26 94.5585 1459.99 93.8504 1456.47 93.2839C1448.06 91.9149 1439.41 91.3957 1431.04 90.9236C1418.91 90.2155 1406.33 89.5074 1394.33 86.1086C1363.11 77.2337 1337.26 51.2702 1318.2 29.6497C1316.31 27.4782 1314.41 25.3067 1312.55 23.1824C1303.28 12.5138 1294.46 2.41163 1283.43 -4.85815H1278.36C1279.4 -4.29168 1280.4 -3.77241 1281.43 -3.11152C1292.77 4.06385 1301.73 14.4021 1311.24 25.3067C1313.1 27.4782 1315 29.6497 1316.93 31.774C1336.16 53.5833 1362.25 79.8301 1393.92 88.7993C1406.09 92.2454 1418.73 93.0007 1430.97 93.6616C1439.31 94.1336 1447.92 94.6057 1456.26 95.9747C1459.85 96.5412 1463.23 97.3437 1466.47 98.2406V95.4554H1466.43Z" fill="url(#paint13_linear_1124_3075)"/>
<path opacity="0.7" d="M1466.43 115.518C1462.05 112.072 1457.3 109.286 1452.09 107.398C1446.65 105.416 1440.86 104.094 1434.41 103.386C1425.87 102.442 1417.08 102.63 1408.57 102.772C1397.16 102.961 1385.34 103.197 1373.96 100.742C1346.74 94.7941 1323.37 74.873 1297.83 51.3642L1295.94 49.6176C1284.05 38.7129 1272.81 28.4219 1259.51 21.6242C1233.11 8.21758 1216.47 24.9758 1198.82 42.7254C1196.03 45.5106 1193.24 48.343 1190.38 51.081C1181.69 59.2949 1174.35 64.1571 1166.6 66.8951C1140.54 76.1004 1123.07 62.2689 1104.6 47.6349C1093.77 39.0433 1082.57 30.2158 1068.96 25.2119C1030.77 11.1916 1000.07 13.5519 972.324 32.6233C947.855 49.5232 931.14 74.5897 915.011 98.8538C907.119 110.703 898.917 122.976 890.059 133.881C877.997 148.751 861.282 151.914 843.637 155.218C831.437 157.531 818.857 159.892 807.346 166.359C803.659 168.436 800.178 170.985 797.007 173.959C782.601 187.413 774.227 204.596 766.093 221.166C752.618 248.687 739.935 274.745 700.991 275.406C680.037 275.831 659.221 268.986 637.268 254.446C614.625 239.387 593.637 218.428 573.337 198.129L567.548 192.322C528.19 153.188 491.038 116.273 442.237 108.248C402.259 101.639 377.997 126.045 352.321 151.819C339.914 164.282 327.06 177.169 312.137 186.563C309.828 188.027 307.484 189.49 305.072 190.859C286.496 201.622 265.714 211.677 245.622 221.402C227.253 230.276 210.538 238.16 191.824 244.863C184.759 247.365 178.383 249.442 172.317 251.236C159.566 255.013 146.263 257.75 133.373 260.394C124.275 262.282 115.693 264.029 107.284 266.153C90.6727 270.26 77.542 273.942 65.9277 277.719C40.2867 285.98 8.40771 296.271 -13.2355 324.5C-20.7142 334.272 -27.1589 346.31 -32.9488 361.274C-37.2912 372.462 -40.9444 384.311 -44.4597 395.735C-45.4936 399.086 -46.493 402.391 -47.5269 405.648C-52.0072 419.857 -55.9706 431.659 -60.8644 442.988C-66.5165 456.017 -73.099 467.866 -81.5771 480.329C-95.8107 501.194 -111.078 517.433 -127.862 529.376V532.492C-110.527 520.312 -94.7767 503.743 -80.0952 482.217C-71.5137 469.613 -64.8278 457.575 -59.1068 444.405C-54.144 432.981 -50.1462 421.085 -45.6314 406.781C-44.5975 403.524 -43.5981 400.219 -42.5642 396.868C-39.0489 385.491 -35.4302 373.689 -31.1222 362.596C-25.4357 347.867 -19.1288 336.066 -11.8225 326.53C9.40715 298.82 41.0104 288.623 66.4102 280.41C77.99 276.633 91.0862 272.951 107.663 268.891C116.038 266.814 124.619 265.02 133.718 263.132C146.642 260.488 159.979 257.703 172.8 253.927C178.865 252.133 185.276 250.056 192.375 247.507C211.192 240.803 227.942 232.92 246.345 223.998C266.472 214.273 287.288 204.171 305.899 193.408C308.311 191.992 310.689 190.529 313.033 189.065C328.162 179.53 341.086 166.548 353.562 154.038C378.927 128.594 402.88 104.566 442.031 110.986C490.314 118.917 527.294 155.643 566.41 194.541L572.2 200.3C592.568 220.646 613.626 241.7 636.441 256.854C658.704 271.629 679.761 278.521 701.095 278.096C741.073 277.436 754.1 250.811 767.851 222.629C775.846 206.248 784.152 189.301 798.213 176.178C801.281 173.298 804.658 170.844 808.208 168.861C819.477 162.535 831.919 160.175 843.981 157.909C861.971 154.51 878.928 151.347 891.472 135.864C900.433 124.865 908.635 112.544 916.562 100.648C932.588 76.5724 949.165 51.6947 973.324 35.078C1000.58 16.3371 1030.84 14.024 1068.51 27.8554C1081.85 32.7649 1092.91 41.4981 1103.63 49.9952C1122.48 64.9124 1140.3 79.0271 1167.15 69.5387C1175.14 66.7063 1182.66 61.7024 1191.55 53.2997C1194.44 50.5617 1197.27 47.7293 1200.06 44.8969C1217.26 27.6194 1233.46 11.286 1258.86 24.1733C1271.95 30.8294 1283.08 41.026 1294.87 51.8363L1296.77 53.5829C1322.51 77.2805 1346.08 97.3904 1373.69 103.386C1385.23 105.84 1397.12 105.652 1408.6 105.416C1417.08 105.274 1425.8 105.085 1434.28 106.029C1440.62 106.737 1446.3 108.012 1451.61 109.947C1457.02 111.93 1461.92 114.951 1466.47 118.681V115.518H1466.43Z" fill="url(#paint14_linear_1124_3075)"/>
<path opacity="0.7" d="M1466.43 154.416C1456.92 136.383 1445.82 121.891 1429.52 116.509C1415.39 111.836 1400.64 113.299 1386.37 114.715C1375.58 115.801 1364.45 116.887 1353.63 115.329C1329.75 111.883 1308.03 95.7384 1287.05 80.113C1271.02 68.1698 1254.44 55.849 1236.76 48.9096C1210.67 38.713 1196.16 55.5657 1180.79 73.4569C1171.14 84.6921 1161.15 96.2576 1147.92 100.789C1123.17 109.287 1107.11 93.5197 1090.08 76.8558C1079.61 66.5648 1068.75 55.9434 1055.07 49.6177C1017.47 32.1986 988.899 33.9452 962.397 55.3769C940.96 72.7016 926.21 101.167 911.942 128.688C904.36 143.322 896.502 158.476 887.748 171.788C875.927 189.726 858.282 193.975 841.222 198.035C826.368 201.575 810.963 205.257 799.142 217.861C785.701 232.212 778.739 250.339 771.985 267.9C760.439 298.018 750.445 324.028 711.294 324.217H710.915C663.01 324.217 620.482 280.126 585.191 236.98C582.572 233.77 579.918 230.513 577.264 227.255C543.455 185.666 508.509 142.661 464.396 129.302C425.934 117.642 402.843 147.099 378.409 178.302C366.829 193.078 354.835 208.373 341.084 218.9C295.523 253.738 227.63 264.265 167.766 273.518C141.264 277.625 116.243 281.495 94.1516 287.16C63.3755 294.996 36.3904 303.682 17.5732 330.307C1.68541 352.824 -4.587 383.839 -10.6181 413.768C-13.651 428.827 -16.7872 444.357 -21.1296 458.708C-44.0825 534.899 -83.1643 555.906 -127.933 562.232V565.017C-82.4406 558.691 -42.6694 537.543 -19.2341 459.747C-14.8572 445.254 -11.6865 429.582 -8.65372 414.476C-2.65703 384.83 3.51198 354.193 19.0551 332.195C37.4243 306.137 64.0993 297.593 94.5307 289.851C116.553 284.233 141.574 280.362 168.007 276.256C228.078 266.956 296.144 256.382 342.084 221.307C356.076 210.639 368.138 195.202 379.822 180.332C403.877 149.648 426.589 120.663 464.017 132.04C507.613 145.258 542.353 188.027 575.955 229.38C578.608 232.637 581.228 235.894 583.881 239.104C619.448 282.628 662.355 327.05 710.949 327.05H711.363C751.72 326.861 762.438 298.867 773.811 269.269C780.463 251.991 787.321 234.1 800.417 220.127C811.859 207.948 826.989 204.313 841.601 200.82C859.006 196.666 876.996 192.37 889.265 173.723C898.122 160.269 905.98 145.069 913.596 130.341C927.726 103.055 942.339 74.8731 963.396 57.8316C989.347 36.872 1017.4 35.1726 1054.38 52.3085C1067.79 58.5397 1078.51 69.0195 1088.88 79.1689C1106.28 96.2104 1122.76 112.355 1148.4 103.575C1162.11 98.9012 1172.25 87.0524 1182.1 75.6756C1197.06 58.3037 1211.16 41.9231 1236.21 51.6948C1253.65 58.5397 1270.12 70.7662 1286.08 82.6622C1307.28 98.4291 1329.16 114.715 1353.42 118.209C1364.42 119.766 1375.65 118.681 1386.51 117.595C1400.6 116.179 1415.22 114.763 1429.04 119.294C1445.65 124.77 1456.74 140.207 1466.43 159.278V154.416Z" fill="url(#paint15_linear_1124_3075)"/>
<path opacity="0.7" d="M1466.43 195.816C1462.91 190.482 1459.16 185.383 1454.85 180.71C1446.3 171.41 1437.55 165.132 1428.04 161.544C1413.94 156.163 1399.43 155.502 1385.44 154.841C1374.45 154.322 1364.11 153.85 1353.91 151.253C1332.02 145.777 1312.89 129.633 1292.63 112.544C1276.33 98.8069 1259.48 84.5978 1241.07 76.4783C1214.29 64.6767 1198.27 81.5766 1181.28 99.4206C1171.9 109.287 1162.22 119.483 1150.43 124.676C1145.57 126.8 1141.26 128.122 1137.2 128.736C1121.83 131.049 1111.11 122.788 1098.74 113.205C1096.01 111.081 1093.22 108.956 1090.26 106.832C1082.71 101.403 1073.51 95.3136 1062.51 91.4427C1040.29 83.4648 1022.71 81.3878 1007.2 84.881C994.277 87.855 982.49 94.6528 971.186 105.605C962.26 114.243 954.057 125.573 945.338 141.293C940.031 150.923 934.896 161.45 929.967 171.646C920.731 190.623 911.219 210.261 899.536 225.981C886.371 243.825 867.933 245.808 850.115 247.696C836.123 249.206 822.888 250.623 812.205 259.214C799.281 269.647 791.94 284.234 784.875 298.348C772.64 322.707 761.095 345.743 722.53 348.717C718.67 349.001 714.707 349.142 710.709 349.001C665.699 347.821 626.238 311.283 593.567 275.689C589.328 271.063 585.089 266.342 580.85 261.622L574.198 254.21C544.421 221.166 510.681 183.684 468.739 172.024C432.001 161.78 409.427 188.782 385.544 217.389C374.343 230.796 362.763 244.675 349.563 254.352C304.554 287.16 238.694 297.215 180.622 306.09C156.36 309.819 133.407 313.313 112.901 318.175C88.9141 323.934 59.0685 331.11 39.2519 356.837C38.1146 358.3 37.0462 359.811 36.0123 361.322C22.6403 381.148 16.299 407.159 10.1645 432.32C6.92488 445.632 3.58189 459.369 -0.795006 472.115C-11.9268 504.593 -26.7807 527.771 -46.2527 542.877C-70.1361 561.571 -98.0517 566.292 -127.828 568.558V571.343C-98.4997 569.077 -69.4123 564.167 -45.2532 545.285C-25.4021 529.848 -10.2725 506.292 1.03157 473.248C5.44293 460.361 8.82037 446.529 12.0944 433.17C18.16 408.292 24.4325 382.564 37.5287 363.163C38.5281 361.652 39.5965 360.189 40.6649 358.772C60.0335 333.659 89.5689 326.531 113.28 320.866C133.751 316.003 156.635 312.51 180.863 308.781C239.142 299.859 305.209 289.757 350.528 256.712C363.935 246.893 375.618 232.92 386.888 219.419C410.392 191.284 432.587 164.754 468.325 174.668C509.785 186.186 543.319 223.432 572.923 256.287L579.574 263.699C583.848 268.467 588.087 273.187 592.326 277.814C625.273 313.69 665.079 350.559 710.709 351.739C714.741 351.833 718.773 351.739 722.668 351.455C762.232 348.387 774.605 323.698 786.564 299.859C793.525 285.98 800.694 271.677 813.273 261.527C823.543 253.219 836.536 251.85 850.322 250.387C868.518 248.451 887.336 246.421 901.018 227.869C912.839 211.961 922.42 192.181 931.691 173.11C936.619 162.96 941.719 152.433 946.992 142.898C955.574 127.414 963.673 116.273 972.392 107.823C983.455 97.1075 994.966 90.4986 1007.58 87.5718C1022.81 84.1257 1040.11 86.2028 1062.07 94.0863C1072.85 97.91 1081.92 103.905 1089.36 109.287C1092.29 111.364 1095.05 113.535 1097.77 115.612C1110.45 125.431 1121.45 133.881 1137.44 131.474C1141.64 130.86 1146.09 129.491 1151.09 127.272C1163.22 121.938 1173.04 111.6 1182.55 101.545C1199.09 84.1257 1214.71 67.6507 1240.49 79.0274C1258.68 87.0525 1275.43 101.167 1291.63 114.857C1311.17 131.332 1331.33 148.374 1353.6 153.944C1363.93 156.54 1374.86 157.06 1385.44 157.532C1399.33 158.193 1413.7 158.853 1427.55 164.141C1436.79 167.634 1445.3 173.771 1453.64 182.834C1458.47 188.074 1462.6 193.833 1466.5 199.97V195.816H1466.43Z" fill="url(#paint16_linear_1124_3075)"/>
<path opacity="0.7" d="M1466.43 236.744C1462.74 232.495 1458.71 228.388 1453.96 224.329C1444.27 216.068 1435.59 210.45 1426.56 206.532C1412.81 200.631 1398.88 197.846 1385.44 195.108C1374.41 192.889 1364.04 190.812 1354.15 187.177C1334.16 179.766 1316.65 163.102 1298.08 145.4C1281.57 129.68 1264.51 113.441 1245.28 103.952C1217.5 90.2625 1199.58 107.587 1180.66 125.903C1171.94 134.306 1162.94 143.039 1152.85 148.515C1147.81 151.253 1143.78 153.094 1140.23 154.274C1126.24 158.948 1117.31 154.18 1106.04 148.185C1103.36 146.769 1100.56 145.258 1097.53 143.842C1089.85 140.16 1080.71 136.006 1069.89 133.268C1052.62 128.925 1032.5 125.337 1014.23 131.332C1001.89 135.392 990.659 143.37 979.906 155.785C971.842 165.132 964.398 177.264 956.402 193.928C952.956 201.15 949.647 208.562 946.166 216.398C935.999 239.293 925.453 262.991 911.22 280.127C896.366 297.971 876.929 297.263 858.146 296.602C845.98 296.177 834.469 295.752 825.164 300.614C812.309 307.365 804.796 318.317 796.835 329.882C784.083 348.434 770.884 367.647 733.628 373.312C729.837 373.878 725.839 374.351 721.807 374.728C675.074 378.882 634.924 346.64 601.804 314.54C596.428 309.347 591.19 304.013 585.607 298.348L578.576 291.22C546.49 258.695 513.336 225.084 472.91 214.84C437.929 205.965 415.942 230.513 392.678 256.476C381.822 268.561 370.587 281.118 357.939 289.898C313.412 320.818 249.413 330.401 192.961 338.851C171.042 342.109 150.329 345.224 131.547 349.331C108.628 354.477 80.1268 360.85 60.8271 383.461C59.7242 384.736 58.6559 386.105 57.6564 387.427C44.3534 405.129 37.4606 428.449 30.7747 450.966C27.3283 462.532 23.813 474.522 19.4016 485.616C8.06306 514.412 -6.61849 535.041 -25.4702 548.637C-52.1451 567.944 -85.0235 571.107 -116.834 574.175C-120.487 574.506 -124.174 574.883 -127.862 575.261V578.046C-124.14 577.668 -120.383 577.291 -116.696 576.913C-84.6789 573.845 -51.5937 570.635 -24.5396 551.091C-5.34333 537.213 9.61394 516.206 21.1593 486.938C25.6051 475.703 29.1549 463.665 32.6012 452.005C39.1838 429.771 46.0077 406.734 59.0005 389.409C59.9999 388.088 61.0339 386.813 62.1022 385.538C80.9884 363.446 109.18 357.12 131.857 352.022C150.605 347.915 171.283 344.799 193.168 341.542C249.792 333.045 313.998 323.462 358.835 292.306C371.69 283.384 382.994 270.733 393.954 258.553C416.872 233.015 438.515 208.892 472.531 217.484C512.474 227.633 545.456 261.008 577.37 293.344L584.4 300.473C589.983 306.137 595.256 311.472 600.633 316.664C634.028 349.048 674.626 381.573 721.945 377.372C726.012 376.994 730.01 376.522 733.835 375.956C771.849 370.196 785.91 349.709 798.282 331.676C806.071 320.346 813.446 309.583 825.853 303.069C834.779 298.395 846.083 298.82 858.042 299.245C876.343 299.906 897.055 300.661 912.495 282.109C926.97 264.737 937.585 240.851 947.82 217.767C951.301 209.931 954.575 202.519 958.022 195.344C965.914 178.916 973.255 166.973 981.147 157.815C991.658 145.683 1002.62 137.894 1014.65 133.928C1032.57 128.028 1052.42 131.615 1069.48 135.911C1080.16 138.602 1089.19 142.709 1096.81 146.344C1099.81 147.76 1102.6 149.271 1105.25 150.687C1116.42 156.635 1126.03 161.78 1140.65 156.871C1144.3 155.643 1148.4 153.802 1153.53 151.017C1163.87 145.4 1172.97 136.572 1181.76 128.075C1200.27 110.184 1217.74 93.2365 1244.55 106.454C1263.51 115.801 1280.46 131.946 1296.87 147.571C1315.58 165.368 1333.23 182.221 1353.56 189.726C1363.56 193.408 1374 195.533 1385.1 197.751C1398.47 200.442 1412.32 203.227 1425.9 209.081C1434.72 212.905 1443.31 218.475 1452.82 226.595C1458.06 231.079 1462.4 235.611 1466.36 240.332V236.744H1466.43Z" fill="url(#paint17_linear_1124_3075)"/>
<path opacity="0.7" d="M1466.43 277.152C1462.57 274.225 1458.3 271.251 1453.02 267.947L1449.89 265.964C1442.58 261.291 1434.31 256.051 1425.07 251.566C1412.6 245.571 1400.09 241.087 1388.02 236.696C1376 232.353 1364.66 228.246 1354.42 223.101C1336.26 213.99 1320.34 196.854 1303.48 178.774C1286.84 160.883 1269.61 142.425 1249.58 131.473C1220.29 115.47 1199.09 134.731 1178.59 153.33C1171.11 160.128 1163.39 167.114 1155.36 172.401C1151.26 175.092 1147.05 177.83 1143.37 179.86C1130.1 187.13 1122.83 185.289 1111.8 182.503C1109.63 181.937 1107.35 181.37 1104.87 180.851C1102.94 180.426 1100.91 179.954 1098.77 179.435C1092.5 177.972 1085.36 176.319 1077.33 175.139C1058.55 172.401 1038.73 170.324 1021.3 177.83C1009.34 182.976 998.687 192.228 988.658 206.059C979.456 218.805 972.495 234.43 967.497 246.657C965.499 251.472 963.534 256.476 961.501 261.574C950.817 288.529 939.788 316.381 922.936 334.366C906.014 352.446 884.405 348.103 865.347 344.28C855.352 342.297 845.909 340.409 838.258 342.014C824.542 344.941 816.408 353.06 806.931 362.454C793.938 375.389 779.188 390.07 744.758 397.906C740.829 398.803 736.866 399.653 732.937 400.455C684.068 410.369 641.608 380.487 610.074 353.343C603.629 347.82 597.253 341.919 590.498 335.735L588.879 334.272C585.915 331.534 582.985 328.796 580.056 326.105C548.659 296.885 516.229 266.672 477.078 257.75C443.855 250.15 422.384 272.243 399.673 295.657C389.196 306.467 378.34 317.608 366.277 325.539C322.302 354.429 260.336 363.493 205.642 371.518C185.929 374.397 167.284 377.135 150.155 380.629C128.34 385.066 101.217 390.589 82.365 410.274C81.2966 411.407 80.2627 412.54 79.2288 413.72C65.9948 429.346 58.4816 449.88 51.2443 469.754C47.66 479.62 43.9379 489.77 39.5611 499.306C27.9812 524.466 13.5065 542.547 -4.69038 554.584C-28.7805 570.54 -57.8335 574.458 -85.9214 578.235C-99.8793 580.123 -114.147 582.058 -127.933 585.504V588.337C-114.113 584.891 -99.7759 582.908 -85.7491 581.02C-57.4888 577.196 -28.2636 573.278 -3.82879 557.086C14.7127 544.812 29.4632 526.402 41.2498 500.769C45.6956 491.139 49.4177 480.895 53.0364 470.982C60.515 450.447 67.5801 431.092 80.504 415.845C81.469 414.712 82.5029 413.579 83.5368 412.493C101.975 393.233 128.822 387.757 150.431 383.367C167.559 379.873 186.17 377.183 205.849 374.256C260.68 366.231 322.853 357.12 367.139 328.041C379.408 319.968 390.333 308.733 400.879 297.876C423.246 274.839 444.372 253.124 476.734 260.488C515.436 269.316 546.281 298.017 578.919 328.418C581.848 331.156 584.812 333.894 587.741 336.632L589.361 338.096C596.116 344.327 602.526 350.228 608.971 355.751C640.815 383.131 683.688 413.295 733.213 403.24C737.142 402.438 741.105 401.588 745.068 400.691C779.946 392.761 795.558 377.23 808.103 364.767C817.339 355.562 825.3 347.631 838.534 344.799C845.875 343.241 855.18 345.082 865.037 347.065C884.509 350.983 906.565 355.373 924.176 336.585C941.339 318.222 952.506 290.134 963.293 262.943C965.292 257.892 967.291 252.888 969.255 248.073C974.218 236.035 981.042 220.599 990.071 208.089C999.859 194.588 1010.27 185.572 1021.88 180.568C1038.94 173.204 1058.52 175.281 1077.09 177.972C1085.05 179.152 1092.15 180.804 1098.39 182.267C1100.53 182.787 1102.56 183.259 1104.49 183.684C1106.97 184.203 1109.21 184.817 1111.38 185.336C1122.34 188.074 1130.24 190.104 1144.06 182.551C1147.78 180.521 1152.05 177.736 1156.19 174.998C1164.35 169.616 1172.14 162.535 1179.69 155.737C1200.68 136.666 1220.53 118.68 1248.82 134.117C1268.61 144.927 1285.7 163.243 1302.24 180.993C1319.23 199.215 1335.29 216.445 1353.73 225.744C1364.07 230.937 1375.44 235.044 1387.51 239.387C1399.57 243.73 1412.01 248.215 1424.42 254.163C1433.55 258.553 1441.79 263.84 1449.02 268.466L1452.16 270.449C1457.81 274.037 1462.33 277.199 1466.43 280.315V277.152Z" fill="url(#paint18_linear_1124_3075)"/>
<path opacity="0.7" d="M1466.43 316.995C1462.43 315.626 1457.92 314.068 1452.09 311.566C1446.37 309.064 1440.13 305.618 1433.52 301.983C1430.31 300.237 1427.04 298.396 1423.59 296.555C1416.9 293.014 1410.18 289.568 1403.6 286.169C1385.58 276.917 1368.55 268.136 1354.66 259.073C1338.29 248.357 1323.96 231.032 1308.76 212.716C1292.01 192.512 1274.71 171.647 1253.82 159.043C1222.15 140.018 1197.68 161.639 1174 182.551C1168.7 187.272 1163.18 192.134 1157.77 196.336C1155.15 198.365 1152.71 200.348 1150.47 202.189C1149.05 203.369 1147.67 204.455 1146.4 205.494C1132.3 216.729 1126.75 217.059 1113.24 217.862L1112.07 217.909C1106.87 218.239 1100.7 217.862 1093.53 217.484C1090.71 217.342 1087.78 217.154 1084.67 217.012L1084.12 216.965C1065 216.115 1045.21 215.218 1028.29 224.329C1016.57 230.607 1006.75 240.757 997.343 256.288C989.382 269.411 983.592 284.753 978.526 299.293L976.01 306.61C965.774 336.35 954.125 370.055 934.619 388.56C915.112 407.065 890.988 397.576 871.585 389.929C864.106 387.002 857.075 384.217 851.32 383.509C834.846 381.432 825.782 387.238 812.066 396.019C799.555 403.996 783.978 413.957 755.855 422.501C751.927 423.681 747.998 424.909 744.034 426.136C704.401 438.646 665.629 428.166 618.276 392.148C611.246 386.813 604.422 381.101 596.219 374.256C591.463 370.244 586.707 366.184 581.986 362.124C549.797 334.414 519.365 308.262 481.214 300.52C449.748 294.1 428.795 313.832 406.634 334.697C396.536 344.186 386.094 354.005 374.618 361.086C330.642 388.135 270.055 396.774 216.567 404.374C199.68 406.782 183.723 409.048 168.766 411.785C146.916 415.798 122.171 420.33 103.905 436.946C102.836 437.891 101.837 438.882 100.838 439.921C87.6035 453.422 79.5045 471.218 71.6468 488.401C67.9592 496.521 64.0992 504.924 59.7913 512.807C47.9702 534.333 33.7022 549.911 16.1257 560.391C-5.24182 573.09 -30.4004 577.48 -54.7318 581.681C-76.9953 585.552 -100.052 589.518 -120.109 599.95C-122.798 601.366 -125.417 602.971 -127.933 604.765V607.928C-125.176 605.945 -122.35 604.057 -119.386 602.546C-99.5691 592.255 -76.6507 588.29 -54.4905 584.466C-30.0212 580.218 -4.6904 575.828 16.9184 562.94C34.805 552.272 49.3488 536.41 61.4111 514.507C65.788 506.481 69.6479 498.032 73.37 489.865C81.4689 472.115 89.1199 455.31 102.044 442.139C103.009 441.148 103.974 440.204 105.008 439.26C122.894 423.021 147.398 418.536 169.041 414.571C183.964 411.833 199.921 409.567 216.808 407.159C270.434 399.559 331.193 390.92 375.479 363.682C387.128 356.507 397.639 346.593 407.841 337.058C429.691 316.523 450.3 297.121 481.007 303.352C518.71 311.047 548.97 337.011 580.986 364.579C585.708 368.639 590.429 372.699 595.22 376.758C603.457 383.65 610.315 389.362 617.346 394.744C665.147 431.093 704.401 441.667 744.517 429.016C748.446 427.788 752.375 426.561 756.304 425.381C784.633 416.742 800.314 406.734 812.927 398.709C826.368 390.118 835.225 384.453 851.148 386.483C856.696 387.191 863.658 389.929 871.033 392.809C890.815 400.598 915.457 410.275 935.791 391.062C955.78 372.132 967.497 338.096 977.871 308.026L980.387 300.756C985.418 286.358 991.105 271.252 998.928 258.318C1008.1 243.164 1017.68 233.251 1029.05 227.161C1045.59 218.287 1065.17 219.183 1084.09 219.986L1084.64 220.033C1087.71 220.175 1090.67 220.316 1093.46 220.505C1100.67 220.93 1106.87 221.261 1112.14 220.93L1113.31 220.883C1126.75 220.08 1132.85 219.75 1147.4 208.184C1148.71 207.146 1150.05 206.013 1151.5 204.833C1153.74 202.992 1156.15 201.009 1158.77 198.979C1164.25 194.683 1169.77 189.821 1175.11 185.1C1198.34 164.566 1222.32 143.323 1252.99 161.78C1273.6 174.149 1290.8 194.919 1307.41 214.982C1322.71 233.44 1337.19 250.906 1353.8 261.764C1367.76 270.922 1384.82 279.655 1402.91 288.954C1409.49 292.353 1416.22 295.799 1422.9 299.34C1426.31 301.134 1429.59 302.975 1432.79 304.721C1439.44 308.404 1445.72 311.897 1451.54 314.399C1457.64 317.042 1462.36 318.647 1466.5 320.063V316.995H1466.43Z" fill="url(#paint19_linear_1124_3075)"/>
<path opacity="0.7" d="M1466.43 356.129C1462.26 356.648 1457.61 356.79 1451.16 355.185C1442.27 353.013 1432.35 347.49 1422.11 341.542C1399.47 328.466 1374.38 311.047 1354.94 294.997C1340.33 282.912 1327.54 265.54 1314 247.177C1297.25 224.423 1279.91 200.914 1258.1 186.564C1222.32 163.008 1191.93 191.048 1165.08 215.784L1160.22 220.269C1156.15 223.998 1152.64 227.728 1149.47 231.221L1146.92 234.006C1135.61 246.421 1131.82 250.623 1119.31 255.107C1112.28 257.657 1102.84 258.365 1092.12 258.978L1086.71 259.262C1069 260.158 1050.66 261.103 1035.39 270.922C1024.02 278.239 1014.75 289.568 1006.17 306.657C999.034 320.866 993.934 337.577 989.695 352.117C980.389 384.17 968.81 424.106 946.374 442.847C923.559 461.966 896.746 445.019 877.136 432.651C872.518 429.724 868.141 426.986 864.453 425.145C842.224 414.004 831.403 418.961 805.279 430.857C795.388 435.389 783.05 441.006 767.024 447.143C762.889 448.748 759.029 450.306 755.238 451.911C714.122 469.519 674.455 463.052 626.619 431.046C619.451 426.278 612.282 420.896 603.666 414.335C597.187 409.378 590.708 404.185 584.435 399.181C552.763 373.926 522.849 350.039 485.524 343.383C455.817 338.096 435.345 355.421 413.668 373.784C403.983 381.998 393.954 390.448 383.098 396.679C338.537 422.124 278.639 430.243 225.806 437.466C212.365 439.307 199.648 441.006 187.516 442.989C166.769 446.34 143.231 450.117 125.585 463.618C124.551 464.421 123.552 465.223 122.587 466.026C109.284 477.402 100.461 492.461 91.9485 507.001C88.1919 513.421 84.332 520.03 80.0929 526.308C68.0651 544.199 53.9694 557.228 37.0133 566.15C18.6441 575.828 -2.55112 580.265 -23.0226 584.561C-46.5613 589.47 -70.8583 594.568 -91.1229 607.645C-106.632 617.652 -118.211 634.08 -127.896 654.19V659.241C-118.074 637.904 -106.253 620.485 -90.2613 610.194C-70.3068 597.306 -46.1133 592.255 -22.7124 587.346C-2.10308 583.05 19.161 578.566 37.7715 568.794C55.0378 559.73 69.3747 546.465 81.6093 528.244C85.8829 521.871 89.7772 515.215 93.5683 508.794C102.357 493.783 110.662 479.574 123.69 468.433C124.62 467.631 125.585 466.828 126.585 466.073C143.885 452.808 166.183 449.22 187.758 445.774C199.889 443.839 212.572 442.092 226.012 440.251C278.983 433.028 339.054 424.862 383.891 399.276C394.919 392.997 404.983 384.453 414.736 376.192C436.103 358.112 456.265 341.023 485.283 346.169C522.228 352.73 551.971 376.475 583.47 401.589C589.743 406.593 596.222 411.785 602.736 416.742C611.352 423.351 618.589 428.732 625.792 433.548C674.11 465.931 714.26 472.398 755.893 454.602C759.684 452.997 763.543 451.439 767.645 449.834C783.739 443.65 796.077 438.032 806.003 433.5C832.402 421.463 842.293 416.978 863.833 427.741C867.452 429.535 871.76 432.273 876.343 435.153C896.367 447.757 923.766 465.034 947.477 445.207C970.464 425.947 982.182 385.586 991.625 353.108C995.795 338.71 1000.86 322.188 1007.86 308.215C1016.23 291.551 1025.26 280.504 1036.29 273.423C1051.18 263.841 1069.31 262.896 1086.85 262L1092.26 261.716C1103.11 261.103 1112.66 260.395 1119.9 257.798C1132.82 253.172 1137.03 248.546 1148.26 236.178L1150.81 233.392C1153.95 229.946 1157.43 226.264 1161.43 222.582L1166.29 218.098C1192.65 193.786 1222.57 166.171 1257.27 189.066C1278.78 203.228 1295.97 226.595 1312.62 249.159C1326.27 267.664 1339.16 285.178 1353.94 297.404C1373.45 313.549 1398.68 331.015 1421.39 344.139C1431.73 350.134 1441.79 355.751 1450.85 357.97C1457.4 359.575 1462.3 359.481 1466.5 358.961V356.129H1466.43Z" fill="url(#paint20_linear_1124_3075)"/>
<path opacity="0.7" d="M1466.43 394.508C1462.16 397.198 1457.33 399.417 1450.2 398.851C1440.14 398.095 1429.11 391.864 1420.59 386.53C1401.43 374.539 1379.41 355.798 1355.15 330.968C1342.29 317.797 1331.02 300.614 1319.1 282.392C1302.38 256.854 1285.08 230.465 1262.3 214.085C1224.19 186.752 1187.17 218.144 1162.63 244.155C1159.19 247.79 1155.84 251.944 1152.5 256.854C1148.54 262.66 1145.75 267.57 1143.27 271.913C1138.44 280.41 1134.92 286.547 1126.52 292.259C1119.35 297.168 1109.28 299.292 1099.46 300.803C1096.5 301.275 1093.46 301.7 1090.43 302.125C1073.72 304.438 1056.42 306.845 1042.36 317.42C1031.29 325.728 1022.54 338.285 1014.82 356.931C1008.86 371.329 1004.89 387.143 1000.69 404.799C991.624 443.036 980.148 480.706 957.988 497.04C930.865 517.055 900.296 488.259 882.03 471.029C880.41 469.518 878.894 468.055 877.446 466.781C847.67 439.401 835.676 444.971 778.087 471.737C774.158 473.578 770.195 475.561 766.301 477.638C723.703 500.58 683.14 498.173 634.787 469.849C626.343 464.892 618.003 459.227 610.938 454.318C602.839 448.653 594.809 442.705 587.055 436.899C555.83 413.673 526.329 391.722 489.626 386.199C461.641 381.951 441.583 396.962 420.388 412.824C411.152 419.763 401.605 426.891 391.369 432.225C345.085 456.442 284.601 464.09 231.251 470.84C222.635 471.926 214.191 473.012 206.023 474.098L205.058 474.239C184.932 476.977 164.012 479.81 147.159 490.195C146.16 490.809 145.195 491.469 144.23 492.083C130.686 501.336 121.484 513.09 111.765 525.553C108.112 530.226 104.355 535.041 100.358 539.714C88.1574 553.924 74.2341 564.451 57.8294 571.862C42.7687 578.66 25.8125 582.719 9.44226 586.685C-15.7507 592.727 -41.8053 599.006 -62.2079 615.292C-89.7099 637.196 -101.324 680.814 -113.593 727.029C-118.005 743.599 -122.519 760.546 -127.896 776.879V783.488C-121.692 765.408 -116.626 746.478 -111.698 727.974C-99.5321 682.278 -88.0557 639.084 -61.2084 617.699C-41.0816 601.696 -15.2338 595.465 9.7869 589.423C26.2606 585.457 43.2857 581.35 58.4842 574.506C75.1302 567 89.2603 556.284 101.702 541.839C105.734 537.118 109.525 532.303 113.178 527.63C122.794 515.309 131.892 503.696 145.16 494.585C146.091 493.971 147.056 493.311 148.021 492.744C164.564 482.547 185.311 479.715 205.403 476.977L206.368 476.836C214.502 475.75 222.945 474.664 231.561 473.578C285.049 466.828 345.671 459.133 392.231 434.775C402.57 429.346 412.186 422.17 421.491 415.231C442.41 399.559 462.158 384.783 489.557 388.937C525.847 394.46 555.176 416.27 586.262 439.354C594.051 445.113 602.081 451.108 610.214 456.773C617.314 461.682 625.688 467.394 634.167 472.398C683.036 501.005 724.048 503.413 767.197 480.187C771.057 478.11 774.985 476.127 778.88 474.334C835.711 447.945 847.532 442.469 876.481 469.046C877.894 470.321 879.411 471.784 881.03 473.295C899.675 490.856 930.9 520.265 959.091 499.447C981.871 482.642 993.555 444.405 1002.76 405.601C1006.93 388.087 1010.82 372.415 1016.71 358.253C1024.23 340.079 1032.74 327.899 1043.46 319.827C1057.14 309.536 1074.23 307.176 1090.74 304.863C1093.81 304.438 1096.84 304.013 1099.81 303.541C1109.8 301.983 1120.07 299.812 1127.55 294.713C1136.37 288.671 1139.99 282.345 1144.99 273.565C1147.44 269.269 1150.23 264.407 1154.12 258.695C1157.4 253.927 1160.63 249.867 1164.01 246.279C1188.1 220.741 1224.39 189.868 1261.48 216.445C1283.95 232.59 1301.11 258.789 1317.72 284.139C1329.71 302.455 1341.05 319.78 1354.05 333.092C1378.41 358.064 1400.54 376.9 1419.84 388.984C1428.49 394.46 1439.76 400.786 1450.16 401.541C1457.26 402.061 1462.19 400.031 1466.5 397.482V394.508H1466.43Z" fill="url(#paint21_linear_1124_3075)"/>
<path opacity="0.7" d="M1466.43 431.989C1462.05 437.182 1457.09 441.903 1449.27 442.563C1440.86 443.272 1431.28 439.826 1419.11 431.564C1395.54 415.656 1372.69 388.654 1355.42 366.939C1344.36 353.013 1334.61 336.255 1324.3 318.458C1307.66 289.804 1290.46 260.205 1266.58 241.606C1230.67 213.66 1190.62 236.932 1165.11 268.089C1161.6 272.384 1158.5 277.105 1155.64 282.534C1151.33 290.748 1148.88 298.159 1146.71 304.674C1143.58 314.068 1140.89 322.14 1133.82 329.504C1126.65 336.916 1116.18 340.362 1106.87 342.722C1103.01 343.713 1099.05 344.563 1095.05 345.46C1079.06 348.953 1062.52 352.588 1049.45 363.918C1038.63 373.265 1030.43 387.002 1023.64 407.159C1018.4 422.69 1015.13 440.062 1011.99 456.867L1011.89 457.481C1005.75 490.006 994.761 535.135 969.809 551.28C947.58 565.678 921.663 551.657 890.577 508.464C861.593 468.197 844.568 466.119 789.322 496.332C785.428 498.456 781.465 500.816 777.536 503.365C733.491 531.925 692.066 533.53 643.162 508.7C636.062 505.112 628.204 500.533 618.417 494.349C608.767 488.212 599.289 481.65 590.122 475.278C559.242 453.799 530.086 433.547 493.899 429.015C467.534 425.758 447.89 438.409 427.108 451.863C418.389 457.481 409.36 463.334 399.848 467.819C348.91 491.8 281.913 499.07 228.08 504.97L221.704 505.678C203.439 507.661 184.587 509.691 168.768 516.961C167.803 517.386 166.838 517.858 165.908 518.33C151.743 525.505 141.473 534.758 130.582 544.529C127.343 547.409 124.103 550.383 120.657 553.31C108.353 563.837 94.6022 571.815 78.6799 577.763C67.5481 581.917 55.348 585.08 43.5269 588.148C15.9559 595.323 -12.5801 602.782 -33.3272 623.128C-56.6247 645.976 -64.965 685.346 -73.8221 727.029C-79.4397 753.465 -85.2296 780.844 -95.1552 805.25C-99.8767 816.863 -105.322 827.059 -110.595 836.926L-112.318 840.183C-119.452 853.542 -124.484 864.683 -127.896 874.738V881.63C-127.861 881.583 -127.861 881.488 -127.861 881.441C-124.518 870.159 -119.073 857.555 -110.698 841.835L-108.975 838.578C-103.668 828.664 -98.1535 818.374 -93.3975 806.619C-83.3341 781.93 -77.5098 754.409 -71.8922 727.784C-63.1384 686.573 -54.9015 647.628 -32.1899 625.347C-11.8219 605.378 16.4729 597.967 43.8371 590.839C55.6926 587.77 67.9272 584.56 79.128 580.406C95.257 574.411 109.18 566.291 121.656 555.623C125.103 552.696 128.377 549.722 131.616 546.842C142.403 537.165 152.605 528.007 166.562 520.926C167.493 520.454 168.389 519.982 169.354 519.557C184.932 512.382 203.68 510.352 221.808 508.416L228.184 507.708C282.119 501.855 349.289 494.538 400.433 470.415C410.049 465.883 419.113 460.03 427.901 454.365C448.441 441.1 467.845 428.59 493.658 431.753C529.466 436.191 558.45 456.348 589.157 477.685C598.324 484.058 607.836 490.667 617.521 496.804C627.343 503.035 635.269 507.614 642.403 511.249C691.859 536.41 733.801 534.71 778.363 505.82C782.257 503.318 786.186 500.958 790.012 498.833C847.497 467.394 861.972 472.681 889.06 510.352C920.836 554.49 947.511 568.699 970.602 553.735C996.312 537.118 1007.55 491.186 1013.78 458.142L1013.89 457.528C1017.02 440.864 1020.26 423.587 1025.43 408.292C1032.05 388.654 1040.01 375.294 1050.49 366.231C1063.21 355.232 1079.54 351.644 1095.33 348.151C1099.36 347.254 1103.36 346.404 1107.22 345.413C1116.76 343.005 1127.52 339.465 1134.99 331.676C1142.47 323.934 1145.26 315.531 1148.5 305.807C1150.64 299.387 1153.05 292.117 1157.22 284.139C1159.98 278.852 1162.98 274.273 1166.39 270.119C1191.34 239.623 1230.49 216.728 1265.51 243.966C1289.05 262.282 1306.14 291.692 1322.65 320.157C1333.02 338.001 1342.81 354.901 1353.98 368.969C1371.35 390.825 1394.33 417.969 1418.15 434.019C1430.66 442.516 1440.58 446.057 1449.34 445.301C1457.02 444.641 1462.02 440.439 1466.36 435.577V431.989H1466.43Z" fill="url(#paint22_linear_1124_3075)"/>
<path opacity="0.7" d="M1466.43 468.527C1461.81 476.836 1457.02 484.2 1448.37 486.277C1439.58 488.401 1429.55 485.191 1417.66 476.552C1394.26 459.653 1372.28 428.308 1355.7 402.911C1346.43 388.701 1338.19 372.651 1329.51 355.657C1313.03 323.509 1295.97 290.229 1270.88 269.08C1235.28 239.104 1192 257.893 1167.66 291.928C1164.22 296.696 1161.25 302.172 1158.88 308.167C1154.91 318.033 1153.22 327.191 1151.64 336.019C1149.54 347.537 1147.71 357.498 1141.27 366.656C1135.75 374.539 1127.69 379.874 1114.42 384.547C1109.87 386.152 1105.25 387.521 1100.39 388.985C1084.95 393.564 1068.96 398.284 1056.66 410.369C1046.08 420.707 1038.43 435.672 1032.53 457.387C1028.36 472.965 1025.95 490.006 1023.61 506.481L1023.09 510.116C1015.68 562.043 1001.72 594.096 981.629 605.426C946.339 625.3 913.012 568.038 903.638 550.053C877.618 500.014 857.56 484.908 800.557 520.832C796.697 523.287 792.734 526.025 788.805 528.999C742.796 563.837 701.749 569.36 651.536 547.409C643.954 544.105 635.579 539.809 625.895 534.239C614.797 527.866 603.976 520.785 593.533 513.987C562.929 494.019 534.049 475.183 498.206 471.737C473.358 469.377 453.093 480.282 433.449 490.856C425.35 495.199 417.01 499.684 408.359 503.271C354.596 525.505 288.563 532.822 243.554 536.363L236.868 536.882C221.083 538.062 204.782 539.29 190.514 543.491C189.584 543.774 188.653 544.058 187.723 544.341C171.525 549.581 159.014 556.615 145.78 564.026L141.093 566.622C128.962 573.373 115.418 578.849 99.5988 583.381C93.6021 585.08 87.4675 586.685 81.0228 588.337C49.5919 596.409 17.127 604.718 -4.30942 630.729C-24.0227 654.615 -29.5713 690.917 -35.4646 729.343C-39.876 758.186 -44.4252 788.02 -55.3502 814.078C-60.6576 826.824 -67.2058 837.54 -72.9957 846.981C-82.8178 863.031 -88.9524 873.983 -93.5016 883.566C-99.1192 895.367 -101.738 905.706 -102.531 919.348C-103.255 931.764 -101.773 945.406 -100.084 961.22C-99.7051 964.619 -99.326 968.112 -98.9813 971.747C-96.7412 993.698 -94.4666 1035.24 -104.461 1067.29C-108.149 1079.09 -113.422 1089.2 -119.832 1096.66C-122.417 1100.53 -125.139 1104.4 -127.862 1108.22V1112.23C-124.622 1107.7 -121.486 1103.22 -118.453 1098.64C-111.871 1091.04 -106.391 1080.61 -102.6 1068.38C-92.4332 1035.71 -94.7078 993.557 -96.9824 971.323C-97.3615 967.688 -97.7406 964.194 -98.0853 960.796C-99.774 945.123 -101.221 931.622 -100.532 919.537C-99.774 906.414 -97.2581 896.406 -91.8129 885.029C-87.2636 875.541 -81.198 864.683 -71.4448 848.68C-65.6204 839.145 -59.0034 828.287 -53.627 815.353C-42.5642 788.917 -37.946 758.894 -33.5002 729.815C-27.7103 691.861 -22.1961 655.984 -2.99979 632.711C18.0231 607.22 50.2467 598.959 81.3674 590.981C87.8466 589.329 93.9467 587.771 99.9779 586.024C115.9 581.492 129.582 575.969 141.817 569.124L146.504 566.528C160.255 558.833 172.11 552.177 188.171 546.984C189.067 546.701 189.997 546.418 190.928 546.135C205.058 541.981 221.29 540.753 236.971 539.573L243.657 539.054C288.77 535.513 354.941 528.196 408.911 505.82C417.63 502.233 426.039 497.701 434.173 493.311C454.472 482.406 473.703 472.068 498.034 474.381C533.497 477.78 562.206 496.521 592.603 516.347C603.08 523.192 613.901 530.273 625.068 536.693C634.786 542.264 643.23 546.607 650.846 549.958C701.646 572.145 743.175 566.575 789.701 531.312C793.595 528.385 797.49 525.647 801.315 523.24C856.216 488.59 875.378 500.533 901.915 551.516C911.496 569.974 945.649 628.557 982.319 607.881C1003.1 596.173 1017.47 563.412 1025.02 510.541L1025.54 506.906C1027.85 490.526 1030.26 473.578 1034.36 458.236C1040.08 437.041 1047.52 422.548 1057.76 412.493C1069.75 400.739 1085.5 396.066 1100.77 391.534C1105.46 390.165 1110.32 388.701 1114.9 387.096C1128.58 382.281 1136.89 376.711 1142.71 368.45C1149.54 358.725 1151.5 347.962 1153.6 336.538C1155.19 327.852 1156.81 318.93 1160.67 309.347C1162.98 303.588 1165.84 298.348 1169.15 293.722C1192.34 261.291 1235.56 242.362 1269.88 271.299C1294.63 292.117 1311.55 325.162 1327.92 357.073C1336.67 374.115 1344.91 390.259 1354.25 404.563C1370.93 430.149 1393.09 461.682 1416.77 478.818C1429.07 487.74 1439.55 491.045 1448.79 488.826C1457.13 486.843 1462.16 480.187 1466.5 472.823V468.527H1466.43Z" fill="url(#paint23_linear_1124_3075)"/>
<path opacity="0.7" d="M1447.99 532.633C1457.06 529.187 1462.09 519.699 1466.43 509.549V503.979C1461.68 515.592 1456.99 526.308 1447.44 529.943C1438.27 533.436 1428 530.698 1416.15 521.493C1398.12 507.567 1377.86 479.762 1355.91 438.834C1348.46 424.908 1341.74 410.038 1334.64 394.271C1318.34 358.064 1301.52 320.582 1275.09 296.601C1239.66 264.454 1192.17 280.599 1170.08 315.862C1166.73 321.196 1163.98 327.238 1161.94 333.847C1158.5 345.082 1157.6 356.082 1156.74 366.703C1155.67 380.062 1154.64 392.666 1148.54 403.902C1143.3 413.579 1135.03 420.518 1121.73 426.513C1116.66 428.779 1111.18 430.809 1105.91 432.792C1090.88 438.362 1075.34 444.121 1063.62 456.962C1053.21 468.386 1046.08 484.53 1041.22 507.756C1038.01 523.239 1036.36 539.903 1034.81 556.048L1034.12 562.893C1030.43 599.808 1020.33 646.59 993.244 659.76C962.33 674.819 932.588 632.522 916.459 591.783C892.231 530.415 868.313 504.876 811.586 545.521C807.726 548.306 803.797 551.422 799.868 554.82C752.55 595.796 710.607 605.19 659.704 586.354C651.605 583.333 642.92 579.462 633.202 574.364C620.691 567.849 608.663 560.438 597.015 553.31C566.618 534.616 537.909 516.961 502.343 514.695C478.735 513.184 458.436 521.823 438.757 530.131C431.589 533.153 424.179 536.315 416.666 538.959C370.967 555.009 316.066 565.206 262.13 567.661C257.306 567.897 252.412 568.038 247.552 568.18C235.662 568.557 223.393 568.935 212.089 570.304L209.401 570.635C192.514 572.9 178.177 575.78 161.427 580.312C148.4 583.805 134.615 586.59 120.416 589.328C83.7117 596.456 46.0428 606.087 24.5374 638.612C7.96033 663.678 4.8586 697.761 1.58453 733.874C-1.17257 764.511 -4.06752 796.234 -15.7163 823.189C-20.5412 834.377 -26.4345 843.629 -33.7753 854.062C-37.842 859.821 -41.633 865.061 -45.1828 869.97C-49.5597 876.013 -53.6953 881.677 -57.3829 887.106C-65.7921 899.474 -70.617 910.096 -73.4775 922.653C-77.0617 938.325 -76.7516 956.358 -76.0623 976.609C-74.9594 1008.95 -74.9939 1042.65 -82.4725 1069.94C-85.7466 1081.69 -90.2613 1091.89 -95.9823 1100.34C-105.253 1116.58 -116.316 1132.25 -127.896 1147.59V1151.46C-115.73 1135.46 -104.116 1119.08 -94.4315 1102.13C-88.5726 1093.49 -83.92 1083.01 -80.577 1070.93C-72.9605 1043.17 -72.9261 1009.13 -74.0634 976.515C-74.7527 956.547 -75.0284 938.75 -71.5475 923.502C-68.7904 911.323 -64.1034 901.032 -55.9355 888.994C-52.2823 883.613 -48.1467 877.948 -43.7698 871.906C-40.1855 866.996 -36.3945 861.709 -32.3278 855.95C-25.8831 846.792 -19.1971 836.643 -13.9931 824.558C-2.10309 797.131 0.79187 765.125 3.58344 734.205C6.82303 698.564 9.85583 664.906 26.0193 640.453C47.0767 608.636 84.332 599.1 120.691 592.019C134.89 589.281 148.71 586.496 161.806 583.003C178.487 578.518 192.789 575.638 209.608 573.372L212.296 573.042C223.531 571.673 235.766 571.295 247.621 570.918C252.515 570.776 257.409 570.635 262.234 570.398C316.342 567.944 371.38 557.7 417.217 541.603C424.765 538.959 432.209 535.796 439.378 532.728C459.78 524.089 478.976 515.922 502.239 517.386C537.427 519.652 565.963 537.212 596.188 555.765C607.871 562.94 619.933 570.351 632.478 576.913C642.3 582.011 651.019 585.929 659.187 588.951C710.711 608.022 753.101 598.486 800.971 557.086C804.866 553.735 808.76 550.619 812.551 547.928C867.796 508.322 891.059 533.2 914.702 593.058C931.175 634.788 961.813 677.935 993.934 662.357C1021.99 648.714 1032.36 600.941 1036.12 563.27L1036.81 556.425C1038.39 540.375 1040.01 523.806 1043.18 508.511C1047.9 485.899 1054.83 470.227 1064.89 459.133C1076.27 446.623 1091.64 440.959 1106.46 435.483C1111.77 433.5 1117.24 431.47 1122.38 429.204C1131.62 425.05 1143.13 418.63 1150.19 405.648C1156.6 393.847 1157.67 380.865 1158.77 367.128C1159.64 356.695 1160.5 345.885 1163.84 335.027C1165.77 328.702 1168.39 322.895 1171.63 317.797C1193.17 283.431 1239.45 267.664 1273.99 299.056C1300.04 322.707 1316.79 359.905 1332.95 395.876C1339.74 410.983 1346.77 426.655 1354.29 440.628C1376.41 481.887 1396.88 509.927 1415.15 524.042C1427.52 533.53 1438.27 536.363 1447.99 532.633Z" fill="url(#paint24_linear_1124_3075)"/>
<path opacity="0.7" d="M1413.63 568.935C1425.9 578.99 1437.24 581.492 1447.27 576.299C1457.16 571.201 1462.12 558.455 1466.43 545.237V538.392C1466.33 538.723 1466.22 539.053 1466.12 539.384C1461.36 554.301 1456.85 568.368 1446.58 573.656C1437 578.612 1426.56 576.252 1414.7 566.48C1388.99 545.426 1365.21 495.387 1356.18 474.805C1350.53 461.918 1345.12 448.087 1339.88 434.68C1323.89 393.705 1307.35 351.361 1279.4 324.075C1246.59 292.069 1194.68 299.622 1172.59 339.701C1169.35 345.601 1166.84 352.21 1165.18 359.433C1162.29 371.848 1162.19 384.547 1162.08 396.868C1161.94 412.682 1161.81 427.646 1155.98 441.053C1150.98 452.571 1142.75 460.974 1129.2 468.338C1123.72 471.312 1117.8 473.908 1112.04 476.458C1097.26 482.972 1081.99 489.723 1070.72 503.412C1060.41 516.016 1053.83 533.341 1050.04 557.936C1047.7 573.231 1046.77 589.517 1045.87 605.237C1045.66 608.683 1045.49 612.081 1045.28 615.48C1043.77 640.689 1036.84 700.735 1005 713.906C971.876 727.737 943.582 679.115 929.417 633.277C915.149 587.204 899.847 561.807 881.271 553.357C865.004 545.993 845.877 551.421 822.821 570.021C819.099 573.042 815.17 576.535 811.137 580.453C762.716 627.754 719.912 641.066 668.078 625.063C659.462 622.42 650.502 618.879 640.68 614.253C626.86 607.786 613.695 600.091 600.943 592.68C570.684 575.072 542.079 558.408 506.65 557.322C483.284 556.614 461.951 563.176 441.307 569.501C435.965 571.154 430.623 572.759 425.212 574.316C389.025 584.56 334.711 598.25 280.913 598.628C265.266 598.722 249.103 597.825 233.87 596.834L231.25 596.692C225.771 596.362 220.498 595.937 215.294 595.512C203.955 594.615 193.237 593.813 181.933 593.718C169.87 593.624 155.74 593.577 141.403 594.946C112.109 597.684 73.0963 608.824 53.5898 646.259C39.8387 672.6 38.9427 706.683 38.0811 739.633C37.2195 771.592 36.3579 804.684 24.1577 831.969C18.678 844.29 11.3717 853.873 5.6507 860.812C-0.690628 868.554 -7.03196 875.304 -13.132 881.819C-15.8547 884.698 -18.5084 887.531 -21.0587 890.363C-29.6057 899.757 -38.325 910.52 -44.1494 925.721C-50.8009 942.951 -52.3173 962.589 -52.9377 981.235C-53.11 986.428 -53.2478 991.715 -53.3857 997.097C-54.0405 1022.59 -54.6953 1048.93 -60.2785 1072.34C-63.0355 1083.77 -66.9299 1094.34 -71.8927 1103.78C-86.2641 1133.52 -106.77 1159.72 -127.724 1184.79V1188.47C-106.219 1162.79 -85.0234 1135.98 -70.2385 1105.34C-65.1723 1095.71 -61.1745 1084.85 -58.3485 1073.19C-52.662 1049.45 -52.0071 1022.87 -51.3523 997.191C-51.2145 991.81 -51.0766 986.522 -50.9043 981.377C-50.284 963.061 -48.802 943.753 -42.3228 927.042C-36.6363 912.314 -28.1238 901.787 -19.7491 892.582C-17.1988 889.749 -14.5451 886.917 -11.8224 884.037C-5.68787 877.476 0.653458 870.725 7.06372 862.936C12.8881 855.855 20.2978 846.083 25.9498 833.432C38.4602 805.486 39.3218 772.064 40.1834 739.728C41.0794 705.692 41.941 673.544 55.313 647.864C74.3714 611.326 112.764 600.422 141.61 597.731C155.878 596.409 169.939 596.409 181.967 596.503C193.237 596.598 203.921 597.448 215.259 598.297C220.463 598.722 225.771 599.1 231.25 599.477L233.87 599.619C249.103 600.61 265.266 601.507 281.016 601.413C334.952 601.035 389.439 587.298 425.695 577.054C431.106 575.544 436.482 573.892 441.824 572.239C463.295 565.63 483.56 559.399 506.685 560.107C541.734 561.146 570.132 577.715 600.254 595.229C613.04 602.687 626.239 610.382 640.128 616.897C650.019 621.523 659.049 625.11 667.734 627.754C720.188 643.946 763.474 630.445 812.413 582.672C816.41 578.801 820.305 575.355 823.958 572.381C846.497 554.254 865.073 548.872 880.754 556C898.744 564.167 913.667 589.045 927.694 634.363C942.203 681.239 971.325 730.9 1005.72 716.549C1038.74 702.859 1045.87 641.491 1047.42 615.716C1047.63 612.318 1047.83 608.871 1048.01 605.425C1048.9 589.8 1049.83 573.608 1052.14 558.455C1055.86 534.474 1062.21 517.622 1072.17 505.442C1083.13 492.13 1098.19 485.521 1112.76 479.054C1118.55 476.505 1124.52 473.861 1130.06 470.887C1139.47 465.742 1151.16 457.905 1157.84 442.422C1163.94 428.354 1164.08 413.059 1164.22 396.868C1164.32 384.783 1164.43 372.273 1167.22 360.283C1168.8 353.391 1171.21 347.065 1174.32 341.4C1195.79 302.455 1246.35 295.138 1278.33 326.341C1305.9 353.249 1322.34 395.31 1338.19 436.002C1343.43 449.408 1348.84 463.287 1354.53 476.222C1365.73 502.091 1388.47 548.353 1413.63 568.935Z" fill="url(#paint25_linear_1124_3075)"/>
<path opacity="0.7" d="M1354.56 512.146C1359.04 524.656 1395.82 623.931 1433.86 623.884C1438.07 623.884 1442.34 622.656 1446.55 619.965C1457.4 613.026 1462.12 596.362 1466.47 579.793V571.579C1466.02 573.231 1465.6 574.931 1465.16 576.583C1460.61 594.096 1456.3 610.666 1445.72 617.416C1412.87 638.47 1374.14 560.344 1356.39 510.872C1352.46 499.92 1348.67 488.543 1344.98 477.497C1329.44 430.951 1313.34 382.801 1283.67 351.692C1262.2 329.174 1229.11 322.329 1203.23 335.028C1184.76 344.091 1172.39 361.888 1168.39 385.161C1166.08 398.662 1166.73 412.966 1167.36 426.797C1168.18 445.207 1169.01 462.579 1163.43 478.346C1155.12 501.714 1137.13 510.872 1118.07 520.549C1103.56 527.913 1088.61 535.56 1077.82 550.006C1058.07 576.488 1057.35 616.85 1056.66 655.889C1056.59 660.044 1056.52 664.151 1056.42 668.258C1055.93 688.604 1051.63 756.014 1016.71 768.241C981.837 780.467 954.817 725.661 942.307 674.961C928.28 618.124 910.669 586.118 888.509 577.102C869.623 569.407 847.359 579.226 822.27 606.276C763.957 669.155 715.122 682.656 648.021 654.426C632.96 648.1 618.727 640.217 604.976 632.57C575.027 616 546.732 600.28 511.786 600.28C511.441 600.28 511.096 600.28 510.752 600.28C475.702 600.611 441.79 608.069 409.015 615.339C359.215 626.338 307.691 637.762 252.894 623.034C244.003 620.626 235.007 617.747 226.288 614.914C205.472 608.164 183.932 601.177 162.186 600.894C134.235 600.564 98.4277 614.253 82.4365 654.19C71.3391 681.9 72.6143 714.898 73.8205 746.809C75.0957 779.759 76.3709 813.795 63.7571 841.033C54.383 861.284 38.8054 874.172 23.7103 886.634C9.47673 898.436 -5.27374 910.615 -15.1304 929.12C-28.778 954.659 -30.6735 987.042 -32.5001 1018.39C-33.6029 1037.32 -34.7403 1056.86 -38.4279 1074.94C-50.4213 1133.81 -87.6076 1173.79 -123.519 1212.5C-125.001 1214.06 -126.414 1215.66 -127.896 1217.22V1220.76C-126.035 1218.73 -124.174 1216.7 -122.278 1214.67C-86.0912 1175.68 -48.6636 1135.41 -36.4634 1075.7C-32.7414 1057.38 -31.5696 1037.69 -30.4667 1018.62C-28.5712 986.24 -26.7791 955.697 -13.5106 930.772C-3.8952 912.74 10.6485 900.702 24.7442 889.042C40.0116 876.391 55.8305 863.314 65.4458 842.544C78.4042 814.55 77.0946 780.042 75.8194 746.667C74.6132 715.134 73.3725 682.514 84.1941 655.512C99.5305 617.228 133.684 603.679 160.979 603.679C161.358 603.679 161.772 603.679 162.151 603.679C183.691 604.01 205.093 610.949 225.84 617.652C234.559 620.485 243.589 623.412 252.515 625.819C307.657 640.642 359.353 629.171 409.36 618.124C442.066 610.902 475.875 603.396 510.786 603.113C511.131 603.113 511.441 603.113 511.786 603.113C546.318 603.113 574.441 618.691 604.218 635.213C618.003 642.861 632.306 650.744 647.435 657.117C714.398 685.299 765.405 671.232 823.545 608.494C848.049 582.059 869.726 572.429 887.923 579.793C909.428 588.526 926.591 619.965 940.377 675.905C953.163 727.69 980.941 783.63 1017.2 770.979C1053.49 758.28 1057.9 689.264 1058.42 668.399C1058.52 664.339 1058.59 660.185 1058.66 656.031C1059.35 617.558 1060.04 577.763 1079.2 552.036C1089.67 537.968 1104.46 530.462 1118.73 523.192C1138.16 513.279 1156.53 503.932 1165.18 479.574C1171.01 463.193 1170.15 444.594 1169.32 426.655C1168.7 413.013 1168.04 398.945 1170.28 385.822C1174.11 363.493 1186 346.404 1203.82 337.671C1229.11 325.256 1261.41 331.959 1282.36 353.958C1311.65 384.642 1327.61 432.462 1343.05 478.677C1346.81 489.723 1350.63 501.147 1354.56 512.146Z" fill="url(#paint26_linear_1124_3075)"/>
<path opacity="0.7" d="M-8.51576 10.6726C1.0307 7.22652 8.95736 1.79779 15.8156 -4.85831H11.9212C5.89008 0.476011 -1.03712 4.8662 -9.06718 7.74579C-31.8822 15.9597 -55.5243 7.27373 -78.3738 -1.17621C-81.7512 -2.45079 -85.1631 -3.67815 -88.6095 -4.90552H-97.7769C-91.47 -2.92285 -85.1631 -0.609737 -78.9597 1.70338C-55.8 10.2949 -31.8132 19.1697 -8.51576 10.6726Z" fill="url(#paint27_linear_1124_3075)"/>
<path opacity="0.7" d="M21.9838 5.85769C30.1861 3.45017 37.458 -0.279135 43.9716 -4.85815H39.0433C33.7359 -1.60091 27.946 1.04264 21.5357 2.9309C21.4324 2.9781 21.3634 2.9781 21.26 3.02531C1.30552 8.73728 -19.5106 3.45017 -39.6374 -1.69533C-43.842 -2.82828 -48.0466 -3.86682 -52.2856 -4.85815H-68.4491C-58.9716 -3.58358 -49.4251 -1.17606 -40.051 1.23147C-19.614 6.42417 1.6157 11.8529 21.9838 5.85769Z" fill="url(#paint28_linear_1124_3075)"/>
<path opacity="0.7" d="M752.548 18.0841C762.026 25.7787 773.261 29.5552 783.428 28.4223C785.289 28.2334 787.081 27.8558 788.804 27.3837C795.524 25.4483 801.314 21.3885 805.657 15.3933C809.655 9.87015 812.308 3.11964 814.859 -3.44205C815.031 -3.91411 815.238 -4.38618 815.41 -4.81104H812.929C810.344 1.84506 807.897 8.12352 804.106 13.3162C799.005 20.35 791.802 24.5513 783.255 25.4955C773.571 26.5812 762.784 22.9935 753.685 15.5821C747.516 10.5782 741.589 3.68611 735.902 -4.81104H732.904C739.073 4.77186 745.586 12.4665 752.548 18.0841Z" fill="url(#paint29_linear_1124_3075)"/>
<path opacity="0.7" d="M-127.899 304.249C-124.625 300.331 -121.695 296.13 -119.076 291.551C-98.0877 254.777 -104.739 209.695 -111.184 166.123C-117.146 125.762 -123.315 84.0785 -107.358 49.2874C-95.9165 24.3152 -75.4795 6.3296 -51.0103 -0.090467C-34.4677 -4.43345 -17.1669 -2.21475 1.09892 0.0983582C18.0551 2.26985 35.5971 4.53576 52.4499 0.99528C58.998 -0.326499 65.0981 -2.35637 70.8535 -4.90552H62.8579C59.4116 -3.72536 55.8618 -2.73402 52.1397 -1.97872C35.5627 1.51455 18.1585 -0.751357 1.30569 -2.87564C-4.51868 -3.63095 -10.4465 -4.33904 -16.3398 -4.85831H-41.2226C-44.6689 -4.48066 -48.0809 -3.91418 -51.4238 -3.01726C-76.2722 3.49722 -97.4329 22.0021 -109.22 47.7296C-125.624 83.512 -119.386 125.856 -113.355 166.784C-107.014 209.695 -100.466 254.069 -120.834 289.757C-123.005 293.533 -125.349 297.026 -127.933 300.284V304.249H-127.899Z" fill="url(#paint30_linear_1124_3075)"/>
<path opacity="0.7" d="M-90.8166 339.606C-102.396 345.46 -115.217 348.67 -127.9 351.455V354.524C-114.976 351.738 -101.914 348.481 -90.0583 342.439C-76.2729 335.499 -65.7959 325.633 -58.076 312.368C-35.9158 274.273 -45.8758 226.217 -55.4912 179.718C-64.245 137.563 -73.24 93.9443 -59.3167 56.4152C-50.425 32.4816 -33.3655 14.2127 -11.2742 5.0547C7.37067 -2.68715 28.7382 -2.68715 49.382 -2.63994C60.4793 -2.63994 71.9557 -2.59274 82.9152 -3.7729C85.5689 -4.05614 88.1537 -4.43379 90.7729 -4.85864H20.1567C9.09384 -3.96172 -1.76223 -2.02626 -11.8946 2.17511C-34.5717 11.6164 -52.1138 30.4045 -61.2811 55.0463C-75.618 93.6139 -66.4507 137.799 -57.628 180.568C-47.7369 228.435 -38.3627 273.612 -59.8336 310.527C-67.2433 323.32 -77.4102 332.856 -90.8166 339.606Z" fill="url(#paint31_linear_1124_3075)"/>
<path opacity="0.7" d="M-79.6146 369.157C-96.1916 371.046 -113.044 372.981 -127.933 379.165V382.186C-113.424 376.002 -96.7086 374.067 -79.4423 372.131C-48.2526 368.638 -15.96 365.003 2.89163 333.139C26.2236 293.721 13.6098 244.863 0.272385 193.077C-11.0662 149.128 -22.8183 103.669 -11.3074 63.4487C-0.658134 26.4861 26.0857 3.63826 68.3727 -4.85889H55.7246C19.6755 5.57372 -3.48417 28.0912 -13.3063 62.4102C-25.1274 103.621 -13.2374 149.648 -1.76097 194.116C11.3697 245.052 23.8111 293.155 1.23737 331.251C-17.0629 362.124 -48.8384 365.711 -79.6146 369.157Z" fill="url(#paint32_linear_1124_3075)"/>
<path opacity="0.7" d="M1448.92 465.128C1452.75 451.249 1459.12 439.306 1466.46 428.307V423.823C1458.26 435.766 1451.09 448.7 1446.89 464.09C1437.65 497.748 1444.65 534.002 1451.4 569.029C1457.78 602.168 1464.4 636.393 1457.26 668.352C1447.16 713.67 1413.11 738.453 1384.13 746.714C1383.72 746.856 1383.3 746.95 1382.89 747.045C1359.97 753.276 1336.12 752.379 1313.03 751.576C1303.31 751.246 1293.25 750.868 1283.39 751.01C1222.43 752.048 1169.42 779.9 1118.1 806.808C1084.54 824.416 1049.87 842.638 1012.85 853.589C1012.51 853.684 1012.13 853.778 1011.78 853.92C975.148 864.4 942.753 856.422 908.461 847.925C892.573 844.007 876.134 839.947 859.04 837.775C783.392 828.192 731.49 858.64 679.932 942.904C658.185 978.45 636.749 995.256 616.209 992.943C591.981 990.205 568.649 962.022 544.938 906.838C522.984 855.761 484.419 804.778 447.991 829.231C411.529 853.731 418.008 928.364 420.834 950.646C421.385 954.989 421.971 959.426 422.591 963.863C428.106 1004.93 433.792 1047.37 417.629 1080.51C408.771 1098.59 394.297 1111.1 380.304 1123.14C361.246 1139.57 343.256 1155.05 338.017 1183.56C334.502 1202.73 338.396 1222.18 342.187 1241.01C345.048 1255.27 348.012 1270.04 347.771 1284.63C347.322 1309.46 337.466 1331.27 319.958 1345.95C295.11 1366.77 259.75 1369.51 233.937 1352.56C197.888 1328.86 173.177 1282.98 149.294 1238.56C143.573 1227.94 137.68 1216.94 131.717 1206.5C124.928 1194.61 69.8204 1100.38 29.3945 1111.95C24.9142 1113.22 20.6062 1115.82 16.5739 1119.97C5.6834 1131.16 3.65004 1151.56 1.68561 1171.24C-1.69184 1205.09 -4.8625 1237.05 -47.7699 1231.29C-76.9951 1227.37 -103.773 1194.84 -114.388 1150.38C-132.447 1074.7 -108.254 1002.62 -84.8873 932.896C-80.0279 918.404 -74.9962 903.392 -70.5504 888.9C-53.353 832.583 -30.2278 726.038 -68.8617 644.89C-80.4415 620.579 -96.5705 600.988 -112.183 582.058C-117.387 575.733 -122.66 569.36 -127.795 562.704V566.763C-123.108 572.759 -118.317 578.565 -113.63 584.277C-98.1214 603.065 -82.0958 622.514 -70.6883 646.495C-32.6058 726.463 -55.5242 831.969 -72.5493 887.72C-76.9607 902.165 -81.7511 916.468 -86.8517 931.622C-110.425 1001.86 -134.756 1074.47 -116.456 1151.27C-105.6 1196.83 -78.0635 1230.15 -47.9766 1234.21C-3.00146 1240.26 0.479385 1205.37 3.85683 1171.62C5.85573 1151.65 7.75124 1132.77 17.8836 1122.34C49.349 1090.05 103.147 1161.19 129.96 1208.35C135.887 1218.78 141.781 1229.73 147.502 1240.35C171.557 1285.06 196.406 1331.27 232.972 1355.3C259.44 1372.67 295.661 1369.89 321.096 1348.55C339.258 1333.3 349.528 1310.64 349.976 1284.73C350.252 1269.67 347.219 1254.7 344.324 1240.21C340.464 1220.9 336.777 1202.68 340.154 1184.27C345.186 1156.94 362.797 1141.74 381.476 1125.64C395.675 1113.41 410.357 1100.76 419.455 1082.12C436.136 1047.99 430.346 1004.89 424.763 963.25C424.177 958.812 423.591 954.422 423.005 950.079C420.213 928.317 413.872 855.478 448.956 831.874C484.04 808.318 521.571 858.31 543.042 908.302C567.167 964.383 591.016 993.037 616.036 995.869C637.335 998.277 659.392 981.094 681.621 944.792C733.351 860.293 783.013 831.119 858.868 840.749C875.858 842.921 892.263 846.933 908.117 850.851C942.615 859.349 975.217 867.421 1012.27 856.799C1012.61 856.705 1012.99 856.611 1013.33 856.469C1050.49 845.517 1085.26 827.248 1118.9 809.593C1170.01 782.78 1222.84 755.022 1283.43 753.984C1293.25 753.795 1303.28 754.173 1313 754.55C1336.19 755.4 1360.21 756.25 1383.34 749.971C1413.08 741.852 1448.85 716.408 1459.4 669.154C1466.7 636.393 1460.02 601.743 1453.54 568.18C1446.82 533.625 1439.93 497.889 1448.92 465.128Z" fill="url(#paint33_linear_1124_3075)"/>
<path d="M1449.95 465.648C1453.61 452.335 1459.5 441.053 1466.46 430.479V421.604C1457.85 433.972 1450.26 447.426 1445.85 463.523C1436.48 497.654 1443.51 534.097 1450.33 569.36C1456.67 602.263 1463.26 636.299 1456.23 667.832C1446.13 713.151 1411.56 737.698 1382.68 745.534C1359.9 751.718 1336.09 750.869 1313.06 750.019C1303.31 749.688 1293.25 749.311 1283.36 749.452C1222.22 750.491 1169.07 778.39 1117.69 805.345C1084.16 822.953 1049.52 841.127 1012.61 852.032C975.94 862.889 943.13 854.864 908.632 846.367C892.71 842.449 876.271 838.389 859.108 836.218C783.046 826.588 730.903 857.177 679.035 941.866C657.529 976.987 636.403 993.651 616.242 991.338C592.703 988.647 569.026 959.946 545.832 905.989C523.638 854.345 484.556 802.89 447.438 827.815C410.286 852.787 416.8 928.27 419.695 950.835C420.246 955.178 420.832 959.615 421.453 964.053C426.932 1004.84 432.584 1046.99 416.628 1079.61C407.908 1097.46 393.537 1109.83 379.648 1121.82C361.244 1137.68 342.255 1154.06 336.913 1183.14C333.329 1202.68 337.258 1222.37 341.083 1241.34C343.944 1255.5 346.873 1270.19 346.632 1284.54C346.218 1308.85 336.499 1330.19 319.336 1344.58C294.798 1365.17 259.852 1367.86 234.349 1351.1C198.541 1327.59 173.899 1281.8 150.085 1237.57C144.364 1226.94 138.471 1215.95 132.509 1205.47C125.685 1193.48 70.1636 1098.59 29.0484 1110.39C24.4302 1111.71 19.9844 1114.36 15.8487 1118.65C4.57909 1130.22 2.51128 1150.9 0.512375 1170.96C-2.79613 1204.05 -5.89789 1235.3 -47.7369 1229.68C-76.5486 1225.81 -102.948 1193.71 -113.39 1149.81C-131.311 1074.7 -107.221 1002.9 -83.9238 933.463C-79.0644 918.97 -74.0327 903.959 -69.5869 889.419C-52.2861 832.866 -29.092 725.755 -68.0016 643.993C-79.6503 619.493 -95.8483 599.855 -111.529 580.878C-116.975 574.269 -122.489 567.519 -127.9 560.58V568.794C-123.454 574.458 -118.905 579.981 -114.459 585.41C-99.0189 604.151 -83.0622 623.506 -71.7236 647.345C-33.9169 726.746 -56.7319 831.686 -73.6881 887.153C-78.0994 901.551 -82.8899 915.855 -87.9561 931.008C-111.598 1001.53 -136.067 1074.42 -117.595 1151.75C-106.601 1197.87 -78.6853 1231.62 -48.1849 1235.73C-2.1758 1241.91 1.58073 1204.66 4.8548 1171.81C6.81923 1152.12 8.68028 1133.57 18.468 1123.52C49.2441 1091.89 102.456 1162.51 129.028 1209.24C134.955 1219.63 140.849 1230.63 146.535 1241.2C170.66 1286.05 195.612 1332.4 232.419 1356.57C259.197 1374.18 295.867 1371.35 321.577 1349.78C340.084 1334.25 350.492 1311.16 350.974 1284.73C351.25 1269.48 348.217 1254.37 345.288 1239.79C341.462 1220.67 337.844 1202.63 341.152 1184.65C346.08 1157.88 363.519 1142.87 381.992 1126.96C396.294 1114.64 411.044 1101.9 420.281 1083.01C437.202 1048.36 431.378 1004.98 425.76 963.061C425.175 958.624 424.589 954.234 424.003 949.891C421.246 928.365 414.939 856.422 449.368 833.291C483.797 810.207 520.777 859.679 542.041 909.104C566.338 965.658 590.497 994.501 615.862 997.427C637.54 999.882 659.907 982.51 682.378 945.831C733.832 861.804 783.253 832.772 858.66 842.307C875.616 844.479 891.986 848.491 907.805 852.409C942.751 861.048 975.698 869.026 1013.47 858.027C1050.73 847.028 1085.53 828.759 1119.21 811.057C1172.56 783.016 1222.98 756.58 1283.36 755.542C1293.18 755.353 1303.17 755.731 1312.89 756.108C1336.15 756.958 1360.21 757.808 1383.47 751.529C1413.7 743.316 1449.71 717.541 1460.36 669.674C1467.77 636.488 1461.02 601.602 1454.54 567.897C1447.61 531.878 1441.06 497.937 1449.95 465.648Z" fill="url(#paint34_linear_1124_3075)"/>
</g>
</g>
<defs>
<linearGradient id="paint0_linear_1124_3075" x1="-40.6025" y1="-4.90649" x2="-40.6025" y2="212.904" gradientUnits="userSpaceOnUse">
<stop stop-color="#6A35FF" stop-opacity="0.74"/>
<stop offset="1" stop-color="#6A35FF" stop-opacity="0.15"/>
</linearGradient>
<linearGradient id="paint1_linear_1124_3075" x1="79.6791" y1="-4.85864" x2="79.6791" y2="241.37" gradientUnits="userSpaceOnUse">
<stop stop-color="#6A35FF" stop-opacity="0.74"/>
<stop offset="1" stop-color="#6A35FF" stop-opacity="0.15"/>
</linearGradient>
<linearGradient id="paint2_linear_1124_3075" x1="114.571" y1="-4.85864" x2="114.571" y2="268.089" gradientUnits="userSpaceOnUse">
<stop stop-color="#6A35FF" stop-opacity="0.74"/>
<stop offset="1" stop-color="#6A35FF" stop-opacity="0.15"/>
</linearGradient>
<linearGradient id="paint3_linear_1124_3075" x1="1448.18" y1="-4.90552" x2="1448.18" y2="25.3066" gradientUnits="userSpaceOnUse">
<stop stop-color="#6A35FF" stop-opacity="0.74"/>
<stop offset="1" stop-color="#6A35FF" stop-opacity="0.15"/>
</linearGradient>
<linearGradient id="paint4_linear_1124_3075" x1="630.184" y1="-4.85815" x2="630.184" y2="35.0019" gradientUnits="userSpaceOnUse">
<stop stop-color="#6A35FF" stop-opacity="0.74"/>
<stop offset="1" stop-color="#6A35FF" stop-opacity="0.15"/>
</linearGradient>
<linearGradient id="paint5_linear_1124_3075" x1="338.051" y1="-5" x2="338.051" y2="297.215" gradientUnits="userSpaceOnUse">
<stop stop-color="#6A35FF" stop-opacity="0.74"/>
<stop offset="1" stop-color="#6A35FF" stop-opacity="0.15"/>
</linearGradient>
<linearGradient id="paint6_linear_1124_3075" x1="1430.9" y1="-4.85815" x2="1430.9" y2="49.7124" gradientUnits="userSpaceOnUse">
<stop stop-color="#6A35FF" stop-opacity="0.74"/>
<stop offset="1" stop-color="#6A35FF" stop-opacity="0.15"/>
</linearGradient>
<linearGradient id="paint7_linear_1124_3075" x1="409.221" y1="-4.81177" x2="409.221" y2="339.323" gradientUnits="userSpaceOnUse">
<stop stop-color="#6A35FF" stop-opacity="0.74"/>
<stop offset="1" stop-color="#6A35FF" stop-opacity="0.15"/>
</linearGradient>
<linearGradient id="paint8_linear_1124_3075" x1="1414.1" y1="-4.85815" x2="1414.1" y2="68.6422" gradientUnits="userSpaceOnUse">
<stop stop-color="#6A35FF" stop-opacity="0.74"/>
<stop offset="1" stop-color="#6A35FF" stop-opacity="0.15"/>
</linearGradient>
<linearGradient id="paint9_linear_1124_3075" x1="1177.75" y1="-4.90552" x2="1177.75" y2="6.64894" gradientUnits="userSpaceOnUse">
<stop stop-color="#6A35FF" stop-opacity="0.74"/>
<stop offset="1" stop-color="#6A35FF" stop-opacity="0.15"/>
</linearGradient>
<linearGradient id="paint10_linear_1124_3075" x1="427.641" y1="-4.90649" x2="427.641" y2="401.163" gradientUnits="userSpaceOnUse">
<stop stop-color="#6A35FF" stop-opacity="0.74"/>
<stop offset="1" stop-color="#6A35FF" stop-opacity="0.15"/>
</linearGradient>
<linearGradient id="paint11_linear_1124_3075" x1="1396.59" y1="-4.85815" x2="1396.59" y2="83.7954" gradientUnits="userSpaceOnUse">
<stop stop-color="#6A35FF" stop-opacity="0.74"/>
<stop offset="1" stop-color="#6A35FF" stop-opacity="0.15"/>
</linearGradient>
<linearGradient id="paint12_linear_1124_3075" x1="557.191" y1="-4.90649" x2="557.191" y2="466.733" gradientUnits="userSpaceOnUse">
<stop stop-color="#6A35FF" stop-opacity="0.74"/>
<stop offset="1" stop-color="#6A35FF" stop-opacity="0.15"/>
</linearGradient>
<linearGradient id="paint13_linear_1124_3075" x1="1372.41" y1="-4.85815" x2="1372.41" y2="98.2406" gradientUnits="userSpaceOnUse">
<stop stop-color="#6A35FF" stop-opacity="0.74"/>
<stop offset="1" stop-color="#6A35FF" stop-opacity="0.15"/>
</linearGradient>
<linearGradient id="paint14_linear_1124_3075" x1="669.302" y1="16.2375" x2="669.302" y2="532.492" gradientUnits="userSpaceOnUse">
<stop stop-color="#6A35FF" stop-opacity="0.74"/>
<stop offset="1" stop-color="#6A35FF" stop-opacity="0.15"/>
</linearGradient>
<linearGradient id="paint15_linear_1124_3075" x1="669.248" y1="37.7922" x2="669.248" y2="565.017" gradientUnits="userSpaceOnUse">
<stop stop-color="#6A35FF" stop-opacity="0.74"/>
<stop offset="1" stop-color="#6A35FF" stop-opacity="0.15"/>
</linearGradient>
<linearGradient id="paint16_linear_1124_3075" x1="669.335" y1="72.5522" x2="669.335" y2="571.343" gradientUnits="userSpaceOnUse">
<stop stop-color="#6A35FF" stop-opacity="0.74"/>
<stop offset="1" stop-color="#6A35FF" stop-opacity="0.15"/>
</linearGradient>
<linearGradient id="paint17_linear_1124_3075" x1="669.284" y1="99.031" x2="669.284" y2="578.046" gradientUnits="userSpaceOnUse">
<stop stop-color="#6A35FF" stop-opacity="0.74"/>
<stop offset="1" stop-color="#6A35FF" stop-opacity="0.15"/>
</linearGradient>
<linearGradient id="paint18_linear_1124_3075" x1="669.248" y1="125.511" x2="669.248" y2="588.337" gradientUnits="userSpaceOnUse">
<stop stop-color="#6A35FF" stop-opacity="0.74"/>
<stop offset="1" stop-color="#6A35FF" stop-opacity="0.15"/>
</linearGradient>
<linearGradient id="paint19_linear_1124_3075" x1="669.283" y1="151.708" x2="669.283" y2="607.928" gradientUnits="userSpaceOnUse">
<stop stop-color="#6A35FF" stop-opacity="0.74"/>
<stop offset="1" stop-color="#6A35FF" stop-opacity="0.15"/>
</linearGradient>
<linearGradient id="paint20_linear_1124_3075" x1="669.302" y1="177.685" x2="669.302" y2="659.241" gradientUnits="userSpaceOnUse">
<stop stop-color="#6A35FF" stop-opacity="0.74"/>
<stop offset="1" stop-color="#6A35FF" stop-opacity="0.15"/>
</linearGradient>
<linearGradient id="paint21_linear_1124_3075" x1="669.302" y1="203.525" x2="669.302" y2="783.488" gradientUnits="userSpaceOnUse">
<stop stop-color="#6A35FF" stop-opacity="0.74"/>
<stop offset="1" stop-color="#6A35FF" stop-opacity="0.15"/>
</linearGradient>
<linearGradient id="paint22_linear_1124_3075" x1="669.268" y1="229.089" x2="669.268" y2="881.63" gradientUnits="userSpaceOnUse">
<stop stop-color="#6A35FF" stop-opacity="0.74"/>
<stop offset="1" stop-color="#6A35FF" stop-opacity="0.15"/>
</linearGradient>
<linearGradient id="paint23_linear_1124_3075" x1="669.319" y1="254.089" x2="669.319" y2="1112.23" gradientUnits="userSpaceOnUse">
<stop stop-color="#6A35FF" stop-opacity="0.74"/>
<stop offset="1" stop-color="#6A35FF" stop-opacity="0.15"/>
</linearGradient>
<linearGradient id="paint24_linear_1124_3075" x1="669.268" y1="279.27" x2="669.268" y2="1151.46" gradientUnits="userSpaceOnUse">
<stop stop-color="#6A35FF" stop-opacity="0.74"/>
<stop offset="1" stop-color="#6A35FF" stop-opacity="0.15"/>
</linearGradient>
<linearGradient id="paint25_linear_1124_3075" x1="669.354" y1="304.161" x2="669.354" y2="1188.47" gradientUnits="userSpaceOnUse">
<stop stop-color="#6A35FF" stop-opacity="0.74"/>
<stop offset="1" stop-color="#6A35FF" stop-opacity="0.15"/>
</linearGradient>
<linearGradient id="paint26_linear_1124_3075" x1="669.285" y1="328.7" x2="669.285" y2="1220.76" gradientUnits="userSpaceOnUse">
<stop stop-color="#6A35FF" stop-opacity="0.74"/>
<stop offset="1" stop-color="#6A35FF" stop-opacity="0.15"/>
</linearGradient>
<linearGradient id="paint27_linear_1124_3075" x1="-40.9806" y1="-4.90552" x2="-40.9806" y2="14.1133" gradientUnits="userSpaceOnUse">
<stop stop-color="#6A35FF" stop-opacity="0.74"/>
<stop offset="1" stop-color="#6A35FF" stop-opacity="0.15"/>
</linearGradient>
<linearGradient id="paint28_linear_1124_3075" x1="-12.2387" y1="-4.85815" x2="-12.2387" y2="8.48718" gradientUnits="userSpaceOnUse">
<stop stop-color="#6A35FF" stop-opacity="0.74"/>
<stop offset="1" stop-color="#6A35FF" stop-opacity="0.15"/>
</linearGradient>
<linearGradient id="paint29_linear_1124_3075" x1="774.157" y1="-4.81104" x2="774.157" y2="28.6199" gradientUnits="userSpaceOnUse">
<stop stop-color="#6A35FF" stop-opacity="0.74"/>
<stop offset="1" stop-color="#6A35FF" stop-opacity="0.15"/>
</linearGradient>
<linearGradient id="paint30_linear_1124_3075" x1="-28.5399" y1="-4.90552" x2="-28.5399" y2="304.249" gradientUnits="userSpaceOnUse">
<stop stop-color="#6A35FF" stop-opacity="0.74"/>
<stop offset="1" stop-color="#6A35FF" stop-opacity="0.15"/>
</linearGradient>
<linearGradient id="paint31_linear_1124_3075" x1="-18.5633" y1="-4.85864" x2="-18.5633" y2="354.524" gradientUnits="userSpaceOnUse">
<stop stop-color="#6A35FF" stop-opacity="0.74"/>
<stop offset="1" stop-color="#6A35FF" stop-opacity="0.15"/>
</linearGradient>
<linearGradient id="paint32_linear_1124_3075" x1="-29.78" y1="-4.85889" x2="-29.78" y2="382.186" gradientUnits="userSpaceOnUse">
<stop stop-color="#6A35FF" stop-opacity="0.74"/>
<stop offset="1" stop-color="#6A35FF" stop-opacity="0.15"/>
</linearGradient>
<linearGradient id="paint33_linear_1124_3075" x1="669.335" y1="423.823" x2="669.335" y2="1366.66" gradientUnits="userSpaceOnUse">
<stop stop-color="#6A35FF" stop-opacity="0.74"/>
<stop offset="1" stop-color="#6A35FF" stop-opacity="0.15"/>
</linearGradient>
<linearGradient id="paint34_linear_1124_3075" x1="669.281" y1="421.604" x2="669.281" y2="1368.09" gradientUnits="userSpaceOnUse">
<stop stop-color="#6A35FF" stop-opacity="0.74"/>
<stop offset="1" stop-color="#6A35FF" stop-opacity="0.15"/>
</linearGradient>
</defs>
</svg>
