<svg width="89" height="104" viewBox="0 0 89 104" fill="none" xmlns="http://www.w3.org/2000/svg">
<path d="M85.6499 30.1299L85.45 30.3199C85.1414 30.5955 84.8064 30.84 84.45 31.0499L84.7499 30.7899C85.073 30.6033 85.3748 30.382 85.6499 30.1299Z" fill="#FF405D"/>
<path d="M88.14 25.6799L88.08 25.9499C88.1665 25.5693 88.2101 25.1802 88.21 24.7899L88.28 24.3999C88.2763 24.8302 88.2294 25.259 88.14 25.6799Z" fill="#FF405D"/>
<path d="M84.74 30.7899L84.44 31.0499L79.96 33.6299L80.09 33.4799L84.74 30.7899Z" fill="#FF405D"/>
<path d="M88.1899 18.2099L88.2599 17.8099L88.2799 24.3999L88.2099 24.7899L88.1899 18.2099Z" fill="#FF405D"/>
<path d="M76.49 40.3599L75.16 39.5899L75.34 34.7399L76.67 35.5099L76.49 40.3599Z" fill="#FF1F41"/>
<path d="M77.21 39.06L76.49 40.36L76.67 35.5099L77.36 35.08L77.21 39.06Z" fill="#FF405D"/>
<path d="M85.8101 14.5699L87.1401 15.3399C86.7004 15.1381 86.215 15.0568 85.7335 15.1042C85.2521 15.1517 84.7919 15.3262 84.4001 15.6099L83.0701 14.8399C83.4606 14.5533 83.921 14.3769 84.403 14.3294C84.8851 14.2819 85.3711 14.365 85.8101 14.5699Z" fill="#FF1F41"/>
<path d="M84.7 16.2199L84.4 15.6099C86.52 14.3799 88.25 15.3699 88.26 17.8099L88.19 18.2099C88.19 15.9999 86.62 15.1099 84.7 16.2199Z" fill="#FF405D"/>
<path d="M77.36 35.08L76.67 35.5099C74.74 36.3699 73.24 35.36 73.24 33.08H73.91C73.92 35.1 75.27 36 77.36 35.08Z" fill="#FF405D"/>
<path d="M74.36 35.5499L73.03 34.7799C72.6405 34.5051 72.3313 34.1312 72.1345 33.6971C71.9376 33.2629 71.8601 32.7841 71.91 32.3099L73.24 33.0799C73.1901 33.5541 73.2676 34.0329 73.4645 34.4671C73.6614 34.9013 73.9705 35.2751 74.36 35.5499Z" fill="#FF1F41"/>
<path d="M73.24 33.0899L71.91 32.3099L71.89 25.7299L73.22 26.4999L73.24 33.0899Z" fill="#FF1F41"/>
<path d="M73.92 33.0399L73.24 33.09L73.22 26.5L73.9 26.46L73.92 33.0399Z" fill="#FF405D"/>
<path d="M77.06 19.8499L75.73 19.0799L83.07 14.8399L84.4 15.6099L77.06 19.8499Z" fill="#FF1F41"/>
<path d="M77.36 20.4599L77.0601 19.8499L84.4001 15.6099L84.7001 16.2199L77.36 20.4599Z" fill="#FF405D"/>
<path d="M72 24.4499V24.2999V24.1799C72.3706 22.5685 73.2214 21.1075 74.44 19.9899L74.64 19.8099C73.311 21.054 72.3905 22.6719 72 24.4499Z" fill="#FF405D"/>
<path d="M84.7 16.2199C86.62 15.1099 88.19 15.9999 88.19 18.2199V24.7999C88.128 26.0033 87.781 27.1748 87.1777 28.2179C86.5745 29.261 85.7321 30.1459 84.72 30.7999L80.07 33.4899L77.19 39.0599L77.34 35.0599C75.25 35.9899 73.9 35.0599 73.89 33.0599V26.4699C73.951 25.2674 74.2963 24.0965 74.8978 23.0534C75.4993 22.0104 76.3397 21.125 77.35 20.4699L84.7 16.2199Z" fill="#FF5F76"/>
<path d="M73.9 26.4599H73.22C73.2885 25.1268 73.6723 23.8289 74.3399 22.6729C75.0074 21.5169 75.9396 20.5357 77.06 19.8099L77.36 20.4199C76.3444 21.0789 75.5007 21.9707 74.8989 23.0211C74.2971 24.0716 73.9547 25.2505 73.9 26.4599Z" fill="#FF405D"/>
<path d="M73.22 26.5L71.89 25.7299C71.9586 24.3968 72.3424 23.099 73.0099 21.9429C73.6774 20.7869 74.6097 19.8057 75.73 19.08L77.06 19.85C75.9396 20.5758 75.0074 21.5569 74.3399 22.7129C73.6724 23.8689 73.2886 25.1668 73.22 26.5Z" fill="#FF1F41"/>
<path d="M81.36 27.9L82.08 28.33C81.9445 28.2721 81.796 28.2517 81.6499 28.2711C81.5039 28.2905 81.3657 28.3488 81.25 28.44L80.52 28.02C80.6381 27.93 80.7774 27.8717 80.9244 27.8507C81.0714 27.8297 81.2214 27.8466 81.36 27.9Z" fill="#FF1F41"/>
<mask id="mask0_1124_3071" style="mask-type:luminance" maskUnits="userSpaceOnUse" x="80" y="27" width="3" height="2">
<path d="M81.36 27.9L82.08 28.33C81.9445 28.2721 81.796 28.2517 81.6499 28.2711C81.5039 28.2905 81.3657 28.3488 81.25 28.44L80.52 28.02C80.6381 27.93 80.7774 27.8717 80.9244 27.8507C81.0714 27.8297 81.2214 27.8466 81.36 27.9Z" fill="white"/>
</mask>
<g mask="url(#mask0_1124_3071)">
<path d="M81.25 28.44L80.52 28.02C80.6381 27.93 80.7774 27.8717 80.9244 27.8507C81.0714 27.8297 81.2214 27.8466 81.36 27.9L82.08 28.33C81.9445 28.2721 81.796 28.2517 81.6499 28.2711C81.5039 28.2905 81.3657 28.3488 81.25 28.44Z" fill="#FF1F41"/>
</g>
<path d="M80.44 31.14L79.72 30.71C79.6035 30.6236 79.5124 30.5075 79.4561 30.3738C79.3998 30.2401 79.3804 30.0937 79.4 29.95C79.4094 29.5601 79.517 29.1789 79.7127 28.8415C79.9085 28.5042 80.1861 28.2216 80.52 28.02L81.25 28.44C80.9149 28.6411 80.6358 28.9233 80.4383 29.2606C80.2408 29.5978 80.1314 29.9794 80.12 30.37C80.1037 30.515 80.1245 30.6617 80.1805 30.7964C80.2364 30.9311 80.3257 31.0493 80.44 31.14Z" fill="#FF1F41"/>
<mask id="mask1_1124_3071" style="mask-type:luminance" maskUnits="userSpaceOnUse" x="79" y="28" width="3" height="4">
<path d="M80.44 31.14L79.72 30.71C79.6035 30.6236 79.5124 30.5075 79.4561 30.3738C79.3998 30.2401 79.3804 30.0937 79.4 29.95C79.4094 29.5601 79.517 29.1789 79.7127 28.8415C79.9085 28.5042 80.1861 28.2216 80.52 28.02L81.25 28.44C80.9149 28.6411 80.6358 28.9233 80.4383 29.2606C80.2408 29.5978 80.1314 29.9794 80.12 30.37C80.1037 30.515 80.1245 30.6617 80.1805 30.7964C80.2364 30.9311 80.3257 31.0493 80.44 31.14Z" fill="white"/>
</mask>
<g mask="url(#mask1_1124_3071)">
<path d="M80.44 31.14L79.72 30.71C79.6035 30.6236 79.5124 30.5075 79.4561 30.3738C79.3998 30.2401 79.3804 30.0937 79.4 29.95C79.4094 29.5601 79.517 29.1789 79.7127 28.8415C79.9085 28.5042 80.1861 28.2216 80.52 28.02L81.25 28.44C80.9149 28.6411 80.6358 28.9233 80.4383 29.2606C80.2408 29.5978 80.1314 29.9794 80.12 30.37C80.1037 30.515 80.1245 30.6617 80.1805 30.7964C80.2364 30.9311 80.3257 31.0493 80.44 31.14Z" fill="#FF1F41"/>
</g>
<path d="M81.25 28.44C81.92 28.05 82.39 28.3 82.39 29.06C82.3905 29.4626 82.2866 29.8585 82.0886 30.209C81.8906 30.5595 81.6051 30.8527 81.26 31.06C80.6 31.44 80.13 31.18 80.12 30.4C80.1263 30.0042 80.2334 29.6166 80.4312 29.2737C80.6289 28.9308 80.9107 28.6439 81.25 28.44Z" fill="#FCFCFC"/>
<path d="M80.88 22.92L81.61 23.34C81.71 23.4 81.76 23.5401 81.77 23.7701C81.77 24.9701 80.38 25.94 80.38 28.04L79.66 27.62C79.66 25.52 81.04 24.5501 81.04 23.3501C81 23.1201 81 23 80.88 22.92Z" fill="#FF1F41"/>
<mask id="mask2_1124_3071" style="mask-type:luminance" maskUnits="userSpaceOnUse" x="79" y="22" width="3" height="7">
<path d="M80.88 22.92L81.61 23.34C81.71 23.4 81.76 23.5401 81.77 23.7701C81.77 24.9701 80.38 25.94 80.38 28.04L79.66 27.62C79.66 25.52 81.04 24.5501 81.04 23.3501C81 23.1201 81 23 80.88 22.92Z" fill="white"/>
</mask>
<g mask="url(#mask2_1124_3071)">
<path d="M80.38 28.0001L79.66 27.5801C79.66 25.4801 81.04 24.5101 81.04 23.3101C81.04 23.0801 80.98 22.9401 80.88 22.8801L81.61 23.3001C81.71 23.3601 81.76 23.5001 81.77 23.7301C81.77 24.9301 80.38 25.9001 80.38 28.0001Z" fill="#FF1F41"/>
</g>
<path d="M82.73 20.28L83.45 20.7C82.99 20.43 82.26 20.57 81.31 21.12C80.4322 21.6244 79.7046 22.3534 79.202 23.2322C78.6993 24.1109 78.4398 25.1077 78.45 26.12L77.73 25.7C77.7177 24.6873 77.9763 23.6897 78.4792 22.8106C78.982 21.9314 79.7108 21.2028 80.59 20.7C81.53 20.15 82.27 20 82.73 20.28Z" fill="#FF1F41"/>
<mask id="mask3_1124_3071" style="mask-type:luminance" maskUnits="userSpaceOnUse" x="77" y="20" width="7" height="7">
<path d="M82.73 20.28L83.45 20.7C82.99 20.43 82.26 20.57 81.31 21.12C80.4322 21.6244 79.7046 22.3534 79.202 23.2322C78.6993 24.1109 78.4398 25.1077 78.45 26.12L77.73 25.7C77.7177 24.6873 77.9763 23.6897 78.4792 22.8106C78.982 21.9314 79.7108 21.2028 80.59 20.7C81.53 20.15 82.27 20 82.73 20.28Z" fill="white"/>
</mask>
<g mask="url(#mask3_1124_3071)">
<path d="M78.45 26.13L77.73 25.71C77.7177 24.6973 77.9763 23.6997 78.4792 22.8206C78.982 21.9415 79.7108 21.2128 80.59 20.71C81.53 20.16 82.27 20.02 82.73 20.29L83.45 20.71C82.99 20.44 82.26 20.58 81.31 21.13C80.4322 21.6344 79.7046 22.3634 79.202 23.2422C78.6993 24.121 78.4398 25.1177 78.45 26.13Z" fill="#FF1F41"/>
</g>
<path d="M81.09 23.45C80.8223 23.616 80.6071 23.8543 80.469 24.1374C80.331 24.4205 80.2759 24.7369 80.31 25.05L78.45 26.13C78.4397 25.1177 78.6993 24.1209 79.2019 23.2422C79.7046 22.3634 80.4322 21.6344 81.31 21.13C82.98 20.13 83.99 20.47 84 22.04C84 24.04 82.19 25.46 82.19 27.04L80.38 28.04C80.38 25.94 81.77 24.97 81.77 23.77C81.76 23.28 81.52 23.2 81.09 23.45Z" fill="#FCFCFC"/>
<path d="M69.91 44.38C70.91 44.38 72.5 47 72.63 49.89C72.76 52.78 73.4 58.71 73.15 59.7C72.9 60.69 70.15 60.56 69.56 58.62C68.97 56.68 69.91 44.38 69.91 44.38Z" fill="#75A5FF"/>
<path d="M72.46 56.71C72.9073 57.6473 73.1428 58.6715 73.15 59.71C73.02 60.9 70.8 67.17 69.78 67.81C68.76 68.45 66.78 66.81 67.4 64.3C68.2667 61.7068 69.3057 59.1745 70.51 56.72L72.46 56.71Z" fill="#75A5FF"/>
<path d="M61.53 100.32C61.7 100.32 62.25 101.32 62.25 101.32L62.16 102.4C61.9026 102.678 61.5713 102.878 61.2048 102.975C60.8383 103.073 60.4517 103.064 60.09 102.95C59.6923 102.874 59.3146 102.717 58.9807 102.488C58.6468 102.259 58.3639 101.964 58.15 101.62L58.04 101.32C57.5437 101.017 56.9936 100.814 56.42 100.72C55.9369 100.667 55.4693 100.518 55.045 100.281C54.6207 100.043 54.2484 99.7236 53.95 99.34C53.755 99.0959 53.6103 98.8155 53.5245 98.5151C53.4387 98.2147 53.4134 97.9003 53.45 97.59C53.4439 97.4087 53.4872 97.2292 53.5753 97.0707C53.6634 96.9122 53.7929 96.7806 53.95 96.69C54.43 96.53 61.53 100.32 61.53 100.32Z" fill="#2E3442"/>
<path d="M68.06 101.63C66.2674 102.54 64.2853 103.014 62.275 103.014C60.2646 103.014 58.2826 102.54 56.49 101.63C53.28 99.78 53.26 96.7799 56.49 94.9499C58.2787 94.0575 60.2519 93.5971 62.2509 93.6058C64.2499 93.6145 66.219 94.092 68 95C71.23 96.8 71.24 99.79 68.06 101.63Z" fill="#EEF1F5"/>
<path d="M69.0599 96.66C69.1599 96.82 69.69 97.28 69.73 97.66C69.7396 98.0576 69.7195 98.4554 69.67 98.85C69.392 99.0705 69.067 99.2239 68.7201 99.2985C68.3733 99.373 68.014 99.3667 67.67 99.28C66.28 99.1 65.8 97.22 65.48 97.01C65.16 96.8 64.61 96.13 64.14 96.01C63.67 95.89 62.75 94.67 62.45 94.28C62.3107 94.1377 62.2143 93.9591 62.1718 93.7645C62.1294 93.57 62.1426 93.3674 62.2099 93.18C62.3599 92.9 62.2999 92.7 62.9599 92.55C63.6199 92.4 69.0599 96.66 69.0599 96.66Z" fill="#2E3442"/>
<path d="M58.4699 96.9999C57.1242 96.7387 55.7657 96.5484 54.3999 96.4299C54.1842 96.5403 54.0062 96.7124 53.8886 96.9244C53.7711 97.1363 53.7193 97.3785 53.7399 97.6199C53.7163 97.8724 53.7469 98.1271 53.8297 98.3668C53.9125 98.6065 54.0455 98.8258 54.2199 99.0099C54.8182 99.5978 55.5647 100.013 56.3799 100.21C57.2999 100.38 59.6599 101.94 60.3099 101.98C60.6223 102.046 60.9479 102.003 61.232 101.857C61.516 101.711 61.7413 101.472 61.8699 101.18C61.9791 100.38 61.9791 99.5696 61.8699 98.7699C61.8799 98.6699 58.4699 96.9999 58.4699 96.9999Z" fill="#40485C"/>
<path d="M69.0901 93.45C69.1095 94.3599 69.2065 95.2666 69.3801 96.16C69.54 96.6739 69.5877 97.2161 69.5201 97.75C69.2232 98.0651 68.8211 98.2605 68.3899 98.2992C67.9587 98.3379 67.5283 98.2172 67.1801 97.96C65.7801 97.2 65.8901 96.19 64.9001 95.6C63.952 95.1023 63.1544 94.36 62.5901 93.45C62.5386 93.3595 62.5063 93.2594 62.4951 93.156C62.4839 93.0525 62.4941 92.9478 62.5251 92.8484C62.556 92.749 62.607 92.657 62.675 92.5782C62.7429 92.4993 62.8264 92.4353 62.9201 92.39C63.5898 92.3675 64.26 92.4144 64.9201 92.53C65.2046 92.7148 65.4983 92.885 65.8001 93.04L67.6201 92.43L69.0901 93.45Z" fill="#40485C"/>
<path d="M69.27 61.64C69.33 62.78 69.96 64.25 70.16 67.37C70.3209 69.5306 70.1249 71.703 69.58 73.8C69.24 75.13 69.33 80.47 69.05 81.72C68.77 82.97 64.81 82.63 64.34 81.72C63.87 80.81 62.34 70.56 62.18 69.2C62.02 67.84 63.24 60.48 63.24 60.48L69.27 61.64Z" fill="#4D5C85"/>
<path d="M68.11 79.14C68.5658 79.9412 68.8836 80.8134 69.05 81.72C69.5129 83.1104 69.8116 84.5502 69.9401 86.01C70.0224 89.2758 69.7812 92.5417 69.2201 95.76C68.8801 96.92 65.5901 96.56 65.3401 94.87C65.0901 93.18 64.0701 80.74 64.0701 80.74L68.11 79.14Z" fill="#4D5C85"/>
<path d="M66.84 62.5599C66.89 63.4199 67.61 69.8099 67.14 71.3299C66.67 72.8499 64.81 73.8299 64.56 74.4099C63.5093 78.0649 62.8621 81.824 62.63 85.6199C58.36 86.7299 57.48 86.8099 57.09 83.8799C56.6189 79.8446 56.4985 75.7761 56.73 71.7199C57.03 68.7199 56.84 63.0299 57.25 62.4199C57.66 61.8099 66.84 62.5599 66.84 62.5599Z" fill="#516A87"/>
<path d="M62.3201 79.72C62.5365 80.864 62.647 82.0256 62.6501 83.19C62.7101 84.3 63.02 88.01 62.96 89.65C62.9 91.29 62.19 99.07 61.96 99.65C61.73 100.23 58.7401 100.56 58.1601 99.65C57.7816 98.7677 57.6205 97.8075 57.6901 96.85C57.6901 96.85 57.0201 83.44 57.0001 83.19C56.9801 82.94 62.3201 79.72 62.3201 79.72Z" fill="#516A87"/>
<path d="M59 100.12H59.27C59.27 100.03 58.84 90.77 58.53 85.45C58.22 80.13 59.26 67.28 59.27 67.15H59C59 67.28 58 80.15 58.27 85.48C58.54 90.81 59 100 59 100.12Z" fill="#5E7A9C"/>
<path d="M63.51 74.7C62.7053 74.513 61.931 74.2134 61.21 73.81C60.97 73.5 61.13 70.81 61.21 70.01V69.89L66.35 69.6V69.75C66.35 69.75 66.06 72.37 66.02 72.9C65.98 73.43 64.02 74.49 63.64 74.69H63.59L63.51 74.7ZM61.44 70.14C61.3181 71.3068 61.3181 72.4831 61.44 73.65C62.1077 73.9978 62.8166 74.2598 63.55 74.43C64.63 73.89 65.73 73.17 65.75 72.89C65.75 72.42 66 70.45 66.06 69.89L61.44 70.14Z" fill="#5E7A9C"/>
<path d="M69.22 72.8699L67.4 72.32V72.1499C67.4 70.9999 67.51 68.78 67.5 68.57V68.41L67.65 68.35C68.5029 67.9788 69.282 67.4571 69.95 66.81L70.31 66.45V66.96C70.3726 68.362 70.3191 69.7668 70.15 71.16C69.9805 71.7464 69.691 72.2912 69.3 72.7599L69.22 72.8699ZM67.58 72.19L69.16 72.66C69.5348 72.2127 69.8109 71.6913 69.97 71.13C70.1406 69.7536 70.1908 68.365 70.12 66.9799V66.88L70.05 66.95C69.3637 67.6156 68.5647 68.1539 67.69 68.5399C67.69 68.8099 67.59 72 67.59 72.13L67.58 72.19ZM69.13 72.57L67.67 72.1199V72.05C67.67 71.77 67.76 69.22 67.76 68.64H67.82C68.5823 68.2964 69.2872 67.8377 69.91 67.28L70.06 67.1499V67.34C70.1166 68.6188 70.0631 69.9002 69.9 71.17C69.7521 71.6896 69.5041 72.1754 69.17 72.6L69.13 72.57ZM67.85 71.99L69.07 72.36C69.3707 71.9688 69.5947 71.5244 69.73 71.05C69.8836 69.8565 69.9372 68.6523 69.89 67.45C69.3041 67.959 68.6472 68.3801 67.94 68.7C67.94 69.34 67.86 71.51 67.85 72V71.99Z" fill="#5E7A9C"/>
<path d="M69.8099 62.64C69.9117 63.4558 69.9452 64.2787 69.9099 65.1C69.7899 65.47 67.9099 67.68 64.0999 68.18C60.2899 68.68 57.0999 67.18 56.9399 66.8C56.7799 66.42 57.7499 64.29 57.7499 64.29L69.8099 62.64Z" fill="#2E3442"/>
<path d="M68.66 66.67H69.44C69.44 66.67 69.32 63.22 69.24 62.86L68.47 63.02C68.52 63.31 68.65 66.42 68.66 66.67Z" fill="#4D5C85"/>
<path d="M66.8371 65.0777L66.0488 65.1296L66.2645 68.4025L67.0528 68.3506L66.8371 65.0777Z" fill="#516A87"/>
<path d="M61.81 65.75H61.02V69.02H61.81V65.75Z" fill="#516A87"/>
<path d="M55.75 73.2899C55.75 73.5799 55.82 74.7299 55.82 74.7299C55.82 74.7299 56.06 74.8999 55.91 75.0399C55.76 75.1799 55.38 75.0399 55.38 75.0399L55.16 74.6899L54.97 75.2999C55.2931 75.4061 55.5995 75.5576 55.88 75.7499C55.903 75.7876 55.9152 75.8308 55.9152 75.8749C55.9152 75.919 55.903 75.9623 55.88 75.9999L56.19 76.1299C56.19 76.1299 56.34 76.4699 56.12 76.6199C55.8316 76.7488 55.5119 76.7905 55.2 76.7399C55.04 76.7399 54.28 76.5499 54.13 76.3299C53.8239 75.8029 53.5789 75.2426 53.4 74.6599C53.4986 73.8584 53.6968 73.0724 53.99 72.3199L55.75 73.2899Z" fill="#FFA698"/>
<path d="M65.85 66.1199C67.31 65.5599 69.42 64.1199 69.61 63.5099C69.8 62.8999 70.87 57.5099 71.56 54.6299C72.1281 51.8395 72.0769 48.9584 71.41 46.1899C71.2827 45.6423 70.9806 45.1511 70.5495 44.7903C70.1183 44.4295 69.5815 44.2187 69.02 44.1899C68.78 44.1899 66.02 44.9999 65.5 45.0799C63.92 45.7227 62.409 46.5234 60.99 47.4699C59.91 48.2199 56.78 49.5699 56.64 50.2899C56.5 51.0099 56.9 63.8299 56.99 64.6599C57.08 65.4899 60.52 67.9999 65.85 66.1199Z" fill="#5E8FFF"/>
<path d="M57.71 50.23C58.4169 50.864 58.9899 51.6329 59.3952 52.4916C59.8005 53.3503 60.0299 54.2813 60.07 55.23C60.15 57 59.5001 65.13 58.8901 65.9C58.2801 66.67 55.98 65.6 55.65 64.52C55.32 63.44 55.39 56.39 55.59 54.68C55.79 52.97 55.97 50.78 56.59 50.25C57 49.85 57.71 50.23 57.71 50.23Z" fill="#75A5FF"/>
<path d="M58.06 62.83C58.86 64.02 59.27 64.68 59.06 65.5C58.85 66.32 56.58 73.11 56.11 73.5C55.64 73.89 53.59 74 53.67 72.15C53.75 70.3 55.59 62.65 55.59 62.65L58.06 62.83Z" fill="#75A5FF"/>
<path d="M66.18 42.29C65.9904 42.8151 65.9104 43.3735 65.9448 43.9307C65.9792 44.4879 66.1273 45.0322 66.38 45.53C64.7095 46.28 62.9245 46.7432 61.1 46.9C61.1775 46.2356 61.1775 45.5644 61.1 44.9C60.95 44.61 60.01 44.67 59.53 43.96C59.05 43.25 59.15 39.44 59.18 38.79C59.21 38.14 59.18 36.55 59.83 36.13C60.48 35.71 66.18 42.29 66.18 42.29Z" fill="#FFA698"/>
<path d="M65.22 43.9999C64.01 44.2399 62.92 44.5499 62.3 43.3999C61.68 42.2499 61.22 40.7399 60.63 40.5399C60.04 40.3399 60.13 41.7899 60.12 41.8499C60.11 41.9099 59.62 41.6199 59.59 41.4599C59.56 41.2999 59.59 40.0099 59.5 39.5699C59.3668 39.1817 59.2632 38.7839 59.19 38.3799C59.1697 37.6224 59.23 36.8648 59.37 36.1199C59.8519 35.4276 60.5165 34.8825 61.2898 34.5453C62.063 34.2081 62.9147 34.092 63.75 34.2099C66.27 34.5199 66.9 35.7699 66.9 35.7699C66.9 35.7699 68.22 36.1599 68.29 38.1599C68.2848 39.6125 67.7918 41.0212 66.89 42.1599C66.56 42.5299 66.12 43.5099 65.95 43.6799C65.7306 43.8345 65.4823 43.9433 65.22 43.9999Z" fill="#202459"/>
<path d="M60.05 40.6199C60.31 40.4999 60.62 40.8999 60.63 41.4299C60.6838 41.9723 60.6119 42.5198 60.42 43.0299C60.23 43.2199 60.05 42.7599 60.03 42.3999C60.01 42.0399 59.49 40.9999 60.05 40.6199Z" fill="#FFA698"/>
<path d="M64.29 45.05C64.9092 44.8654 65.4986 44.5926 66.04 44.24C66.17 44.18 66.89 45.53 66.89 45.53C66.2967 45.9932 65.6167 46.3332 64.89 46.53C63.54 46.94 62.26 47.33 61.79 47.45C61.4428 47.5628 61.1078 47.7102 60.79 47.89C60.85 47.89 60.71 46.46 60.93 46.15C61.954 45.5373 63.102 45.1615 64.29 45.05Z" fill="#75A5FF"/>
<path d="M48.0673 83.6277C48.0955 78.4031 40.7805 74.1281 31.7287 74.0791C22.6769 74.0301 15.316 78.2258 15.2878 83.4503C15.2595 88.6748 22.5745 92.9499 31.6263 92.9988C40.6781 93.0478 48.039 88.8522 48.0673 83.6277Z" fill="#007AA6"/>
<path d="M48.07 34.91H15.28V83.54C15.28 85.95 16.92 88.37 20.12 90.21C26.54 93.92 36.92 93.94 43.31 90.21C46.51 88.36 48.1 85.93 48.07 83.5V34.91Z" fill="url(#paint0_linear_1124_3071)"/>
<path d="M17.29 70C17.0875 69.9974 16.8942 69.9151 16.752 69.771C16.6097 69.6269 16.53 69.4325 16.53 69.23V60.7C16.5286 60.5994 16.5473 60.4995 16.5849 60.4061C16.6225 60.3127 16.6783 60.2278 16.749 60.1561C16.8197 60.0845 16.9039 60.0276 16.9968 59.9888C17.0897 59.95 17.1893 59.93 17.29 59.93C17.3915 59.9287 17.4922 59.9477 17.5862 59.9859C17.6802 60.0241 17.7657 60.0808 17.8374 60.1525C17.9092 60.2243 17.9659 60.3097 18.0041 60.4038C18.0423 60.4978 18.0613 60.5985 18.06 60.7V69.23C18.06 69.4342 17.9788 69.6301 17.8344 69.7745C17.69 69.9189 17.4942 70 17.29 70Z" fill="url(#paint1_linear_1124_3071)"/>
<path d="M45.87 75.41C45.6657 75.41 45.4699 75.3289 45.3255 75.1845C45.1811 75.0401 45.1 74.8442 45.1 74.64V69.71C45.1 69.6094 45.1199 69.5097 45.1588 69.4169C45.1976 69.324 45.2544 69.2398 45.3261 69.1691C45.3977 69.0984 45.4827 69.0426 45.576 69.005C45.6694 68.9674 45.7693 68.9487 45.87 68.95C46.0715 68.95 46.2649 69.0301 46.4074 69.1726C46.5499 69.3151 46.63 69.5085 46.63 69.71V74.64C46.63 74.8425 46.5502 75.0369 46.408 75.181C46.2657 75.3251 46.0724 75.4074 45.87 75.41Z" fill="url(#paint2_linear_1124_3071)"/>
<path d="M37.29 84.8199C37.0875 84.82 36.8932 84.7402 36.7491 84.598C36.6049 84.4557 36.5226 84.2624 36.52 84.0599V78.8399C36.5226 78.6365 36.6046 78.4422 36.7484 78.2983C36.8923 78.1545 37.0866 78.0725 37.29 78.0699C37.4935 78.0725 37.6878 78.1545 37.8316 78.2983C37.9755 78.4422 38.0574 78.6365 38.06 78.8399V84.0599C38.0574 84.2624 37.9751 84.4557 37.831 84.598C37.6869 84.7402 37.4925 84.82 37.29 84.8199Z" fill="url(#paint3_linear_1124_3071)"/>
<path d="M23.52 86.9C23.3175 86.9 23.1232 86.8202 22.979 86.678C22.8349 86.5357 22.7526 86.3424 22.75 86.14V80.36C22.7526 80.1566 22.8345 79.9622 22.9784 79.8184C23.1222 79.6745 23.3166 79.5926 23.52 79.59C23.7234 79.5926 23.9178 79.6745 24.0616 79.8184C24.2055 79.9622 24.2874 80.1566 24.29 80.36V86.14C24.2874 86.3424 24.2051 86.5357 24.061 86.678C23.9169 86.8202 23.7225 86.9 23.52 86.9Z" fill="url(#paint4_linear_1124_3071)"/>
<path d="M23.52 76.63C23.3175 76.63 23.1232 76.5503 22.979 76.408C22.8349 76.2658 22.7526 76.0725 22.75 75.87V71.13C22.7526 70.9266 22.8345 70.7322 22.9784 70.5884C23.1222 70.4445 23.3166 70.3626 23.52 70.36C23.7234 70.3626 23.9178 70.4445 24.0616 70.5884C24.2055 70.7322 24.2874 70.9266 24.29 71.13V75.87C24.2874 76.0725 24.2051 76.2658 24.061 76.408C23.9169 76.5503 23.7225 76.63 23.52 76.63Z" fill="url(#paint5_linear_1124_3071)"/>
<path d="M42.6001 63.5599C42.6001 63.1347 42.2553 62.7899 41.83 62.7899C41.4048 62.7899 41.0601 63.1347 41.0601 63.5599V66.6199C41.0601 67.0452 41.4048 67.3899 41.83 67.3899C42.2553 67.3899 42.6001 67.0452 42.6001 66.6199V63.5599Z" fill="url(#paint6_linear_1124_3071)"/>
<path d="M46.6299 47C46.4284 47 46.2351 46.9199 46.0925 46.7774C45.95 46.6349 45.8699 46.4416 45.8699 46.24V46.07C45.8686 45.9694 45.8873 45.8694 45.9249 45.7761C45.9625 45.6827 46.0183 45.5977 46.089 45.5261C46.1597 45.4545 46.2439 45.3976 46.3368 45.3588C46.4296 45.32 46.5293 45.3 46.6299 45.3C46.7314 45.2986 46.8322 45.3177 46.9262 45.3559C47.0202 45.3941 47.1056 45.4508 47.1774 45.5225C47.2492 45.5943 47.3058 45.6797 47.3441 45.7737C47.3823 45.8678 47.4013 45.9685 47.3999 46.07V46.24C47.3999 46.3406 47.38 46.4403 47.3412 46.5332C47.3023 46.626 47.2455 46.7103 47.1738 46.781C47.1022 46.8517 47.0172 46.9074 46.9239 46.945C46.8305 46.9826 46.7306 47.0013 46.6299 47Z" fill="url(#paint7_linear_1124_3071)"/>
<path d="M46.74 40.7799C46.9426 40.7953 47.1309 40.8901 47.2639 41.0437C47.3969 41.1973 47.4638 41.3972 47.45 41.5999L47.35 43.1299C47.3346 43.3325 47.2398 43.5208 47.0862 43.6538C46.9326 43.7868 46.7327 43.8537 46.53 43.8399C46.4292 43.8336 46.3307 43.8073 46.2402 43.7625C46.1497 43.7176 46.0691 43.6552 46.0029 43.5789C45.9368 43.5025 45.8866 43.4138 45.8552 43.3178C45.8238 43.2219 45.8118 43.1206 45.82 43.0199L45.92 41.4999C45.9264 41.3987 45.9526 41.2998 45.9973 41.2088C46.042 41.1178 46.1042 41.0365 46.1804 40.9696C46.2566 40.9027 46.3453 40.8515 46.4413 40.819C46.5373 40.7864 46.6388 40.7731 46.74 40.7799Z" fill="url(#paint8_linear_1124_3071)"/>
<path d="M17.29 75.42C17.0875 75.4174 16.8942 75.3351 16.752 75.191C16.6097 75.0469 16.53 74.8525 16.53 74.65V73.12C16.5286 73.0194 16.5473 72.9195 16.5849 72.8261C16.6225 72.7328 16.6783 72.6478 16.749 72.5762C16.8197 72.5045 16.9039 72.4477 16.9968 72.4088C17.0897 72.37 17.1893 72.35 17.29 72.35C17.3915 72.3487 17.4922 72.3677 17.5862 72.4059C17.6802 72.4441 17.7657 72.5008 17.8374 72.5726C17.9092 72.6443 17.9659 72.7298 18.0041 72.8238C18.0423 72.9178 18.0613 73.0185 18.06 73.12V74.65C18.06 74.8542 17.9788 75.0501 17.8344 75.1945C17.69 75.3389 17.4942 75.42 17.29 75.42Z" fill="url(#paint9_linear_1124_3071)"/>
<path d="M28.9301 20.09L28.8601 20.18L28.8001 20.25C28.0924 21.163 27.2209 21.9362 26.2301 22.53L26.6601 22.1C27.5349 21.5766 28.3046 20.895 28.9301 20.09Z" fill="#8473FF"/>
<path d="M30.6 17.15L30.52 17.35C30.9136 16.3975 31.1272 15.3803 31.15 14.35L31.31 13.75C31.2848 14.9174 31.0441 16.0701 30.6 17.15Z" fill="#44CAFA"/>
<path d="M31.1201 5.61002L31.2801 5.02002L31.3101 13.73L31.1501 14.33L31.1201 5.61002Z" fill="#44CAFA"/>
<path d="M26.6601 22.1L26.2301 22.53L15.5401 28.71L15.3901 28.61L26.6601 22.1Z" fill="#44CAFA"/>
<path d="M15.39 28.61L15.54 28.71L15.41 36.1L15.29 34.66L15.39 28.61Z" fill="#44CAFA"/>
<path d="M15.4101 36.1L13.5201 35L8.82007 30.4L10.7101 31.49L15.4101 36.1Z" fill="#21B7ED"/>
<path d="M15.2901 34.66L15.4101 36.1L10.7101 31.49L11.4401 30.89L15.2901 34.66Z" fill="#44CAFA"/>
<path d="M27.91 0.650013L29.8 1.75002C29.2189 1.4788 28.5757 1.36822 27.9373 1.42977C27.2989 1.49132 26.6887 1.72276 26.17 2.10003L24.28 1.00002C24.7996 0.6247 25.4096 0.394461 26.0476 0.332951C26.6855 0.27144 27.3284 0.380869 27.91 0.650013Z" fill="#21B7ED"/>
<path d="M26.6 3.00001L26.17 2.06001C28.99 0.440011 31.27 1.74001 31.28 4.98001L31.12 5.57002C31.12 2.75002 29.09 1.60001 26.6 3.00001Z" fill="#44CAFA"/>
<path d="M11.4401 30.89L10.7101 31.49L7.32007 33.45L7.76007 33.02L11.4401 30.89Z" fill="#44CAFA"/>
<path d="M3.70012 33.8L1.8101 32.71C1.29557 32.3446 0.88677 31.8498 0.625107 31.2755C0.363443 30.7012 0.258229 30.068 0.320114 29.44L2.2101 30.53C2.14507 31.1583 2.24887 31.7926 2.51079 32.3674C2.77271 32.9423 3.18329 33.4368 3.70012 33.8Z" fill="#21B7ED"/>
<path d="M7.7601 33L7.3201 33.43C4.5101 35.05 2.22008 33.75 2.21008 30.51L3.21008 30.42C3.24008 33.3 5.2701 34.45 7.7601 33Z" fill="#44CAFA"/>
<path d="M3.24005 30.44L2.21005 30.53L2.19006 21.82L3.21005 21.73L3.24005 30.44Z" fill="#44CAFA"/>
<path d="M2.21005 30.53L0.320068 29.44L0.300049 20.72L2.19006 21.82L2.21005 30.53Z" fill="#21B7ED"/>
<path d="M7.27011 13.01L5.38013 11.92L24.2801 1L26.1701 2.10001L7.27011 13.01Z" fill="#21B7ED"/>
<path d="M7.70004 13.95L7.27002 13.01L26.17 2.10004L26.61 3.03003L7.70004 13.95Z" fill="#44CAFA"/>
<path d="M1 17.3C1.39371 16.3172 1.9294 15.3974 2.59 14.57C1.94658 15.409 1.41231 16.3264 1 17.3Z" fill="#8473FF"/>
<path d="M26.6 3C29.09 1.56 31.12 2.71001 31.12 5.57001V14.29C31.0396 15.848 30.5908 17.3647 29.8102 18.7154C29.0297 20.0662 27.9397 21.2124 26.63 22.06L15.36 28.57L15.26 34.57L11.41 30.8L7.76001 33C5.27001 34.43 3.23999 33.28 3.23999 30.42V21.71C3.32785 20.1654 3.77722 18.6631 4.55188 17.3239C5.32654 15.9847 6.40487 14.8462 7.70001 14L26.6 3Z" fill="#73D8FF"/>
<path d="M3.21008 21.73L2.21008 21.82C2.30159 20.0549 2.80958 18.3364 3.6925 16.8052C4.57543 15.274 5.80824 13.9735 7.2901 13.01L7.72009 13.95C6.40645 14.7975 5.31265 15.9447 4.52863 17.2972C3.7446 18.6497 3.2927 20.1689 3.21008 21.73Z" fill="#44CAFA"/>
<path d="M2.19006 21.8201L0.300049 20.72C0.390715 18.9561 0.898421 17.2387 1.78149 15.709C2.66457 14.1792 3.89785 12.8807 5.38007 11.92L7.27005 13.01C5.78819 13.9735 4.55541 15.274 3.67249 16.8052C2.78956 18.3364 2.28157 20.0549 2.19006 21.8201Z" fill="#21B7ED"/>
<path d="M13.66 22.1199L14.75 22.7499C14.6772 22.7178 14.5973 22.7054 14.5182 22.7142C14.4392 22.723 14.3639 22.7526 14.3 22.7999L13.22 22.1699C13.2819 22.1225 13.3555 22.0927 13.433 22.0839C13.5106 22.0751 13.589 22.0876 13.66 22.1199Z" fill="#21B7ED"/>
<path d="M13.85 24.3999L12.77 23.7799C12.7009 23.7265 12.647 23.6559 12.6137 23.5752C12.5804 23.4945 12.5687 23.4065 12.58 23.3199C12.5851 23.0906 12.6461 22.8661 12.7576 22.6657C12.8691 22.4653 13.0278 22.2951 13.22 22.1699L14.3 22.7999C14.1078 22.9251 13.9491 23.0953 13.8376 23.2957C13.726 23.4961 13.6651 23.7206 13.66 23.9499C13.6485 24.0351 13.66 24.1217 13.6935 24.2009C13.7269 24.2801 13.7809 24.3488 13.85 24.3999Z" fill="#21B7ED"/>
<path d="M14.3 22.7999C14.68 22.5799 14.93 22.7999 14.94 23.2099C14.9377 23.4384 14.8778 23.6626 14.766 23.8619C14.6541 24.0611 14.4939 24.229 14.3 24.3499C13.92 24.5699 13.66 24.3499 13.66 23.9499C13.6651 23.7206 13.7261 23.496 13.8376 23.2956C13.9491 23.0953 14.1079 22.9251 14.3 22.7999Z" fill="white"/>
<path d="M13.8401 19.9999L12.7601 19.3699C12.6918 19.3181 12.6383 19.2493 12.605 19.1703C12.5716 19.0913 12.5596 19.005 12.5701 18.9199C12.5734 18.6903 12.6336 18.4651 12.7453 18.2644C12.857 18.0637 13.0167 17.8938 13.2101 17.7699C13.271 17.7209 13.3442 17.6893 13.4217 17.6787C13.4993 17.6682 13.5782 17.679 13.6501 17.71L14.7301 18.3399C14.6582 18.309 14.5792 18.2982 14.5017 18.3088C14.4242 18.3193 14.351 18.3508 14.2901 18.3999C14.0961 18.5232 13.9359 18.6929 13.8241 18.8937C13.7124 19.0946 13.6525 19.3201 13.6501 19.5499C13.6396 19.635 13.6517 19.7214 13.685 19.8003C13.7183 19.8793 13.7718 19.9481 13.8401 19.9999Z" fill="#21B7ED"/>
<path d="M14.29 19.9999C13.91 20.2099 13.65 19.9999 13.65 19.5999C13.6525 19.3701 13.7123 19.1445 13.8241 18.9437C13.9359 18.7429 14.096 18.5732 14.29 18.4499C14.67 18.2299 14.92 18.4499 14.93 18.8599C14.9259 19.088 14.8653 19.3116 14.7536 19.5105C14.6419 19.7095 14.4826 19.8776 14.29 19.9999Z" fill="white"/>
<path d="M11.86 25.63L10.77 25L9.98999 22.82L11.07 23.45L11.86 25.63Z" fill="#21B7ED"/>
<path d="M8.69 23.98L7.60999 23.36L9.79999 22.09L10.88 22.72L8.69 23.98Z" fill="#21B7ED"/>
<path d="M10.88 22.72L9.79996 22.09L9.07996 20.11L10.16 20.73L10.88 22.72Z" fill="#21B7ED"/>
<path d="M10.1599 20.73L9.07993 20.11C8.91993 19.65 8.80995 19.22 8.69995 18.8L9.77994 19.43C9.88994 19.85 9.99994 20.28 10.1599 20.73Z" fill="#21B7ED"/>
<path d="M9.22992 18.8L8.1499 18.17L9.27991 17.51L10.3599 18.14L9.22992 18.8Z" fill="#21B7ED"/>
<path d="M6.78998 28.55L5.70996 27.92L8.14996 18.17L9.22998 18.8L6.78998 28.55Z" fill="#21B7ED"/>
<path d="M10.36 18.14L12.86 25.05L11.86 25.63L11.07 23.45L8.5 24.94L7.76001 27.99L6.76001 28.55L9.20001 18.8L10.36 18.14ZM8.69 24L10.88 22.74L10.16 20.74C10 20.29 9.89 19.86 9.78 19.44C9.67 20 9.56001 20.58 9.42001 21.16L8.70999 23.98L8.69 24Z" fill="white"/>
<path d="M26 15.3999L26.7 15.81C26.6194 15.7744 26.531 15.7603 26.4434 15.7691C26.3558 15.7779 26.2719 15.8092 26.2 15.86L25.5 15.4499C25.5719 15.3992 25.6558 15.3679 25.7434 15.3591C25.831 15.3503 25.9194 15.3644 26 15.3999Z" fill="#21B7ED"/>
<path d="M18 23L17.3 22.59C17.2291 22.54 17.1731 22.4718 17.1379 22.3926C17.1027 22.3133 17.0896 22.226 17.1 22.14L17.8 22.55C17.7927 22.6357 17.8072 22.722 17.8421 22.8007C17.8771 22.8794 17.9314 22.9479 18 23Z" fill="#21B7ED"/>
<path d="M17.75 22.59L17.05 22.18L17.04 21.15L17.74 21.55L17.75 22.59Z" fill="#21B7ED"/>
<path d="M18.45 20.34L17.75 19.9299L25.5 15.45L26.2 15.86L18.45 20.34Z" fill="#21B7ED"/>
<path d="M17.74 21.5499L17.04 21.1499C17.0546 20.9063 17.1253 20.6694 17.2468 20.4577C17.3682 20.2461 17.5371 20.0654 17.74 19.9299L18.45 20.3399C18.2449 20.4716 18.0737 20.6498 17.9503 20.86C17.8269 21.0703 17.7549 21.3066 17.74 21.5499Z" fill="#21B7ED"/>
<path d="M26.2 15.8599C26.59 15.6399 26.91 15.8599 26.91 16.2599V17.2599C26.8986 17.5042 26.8292 17.7424 26.7074 17.9545C26.5857 18.1667 26.4152 18.3468 26.21 18.4799L18.45 22.9999C18.06 23.2199 17.75 22.9999 17.75 22.5999V21.5999C17.7649 21.3566 17.8369 21.1202 17.9603 20.91C18.0836 20.6998 18.2548 20.5216 18.46 20.3899L26.2 15.8599Z" fill="white"/>
<path d="M28 8.67002L28.71 9.08002C28.6328 9.03426 28.5447 9.0101 28.455 9.0101C28.3653 9.0101 28.2772 9.03426 28.2 9.08002L27.5 8.68001C27.574 8.63145 27.6601 8.60477 27.7486 8.603C27.837 8.60123 27.9242 8.62446 28 8.67002Z" fill="#21B7ED"/>
<path d="M17.94 17.49L17.2301 17.08C17.1607 17.0286 17.1059 16.9602 17.0708 16.8813C17.0358 16.8025 17.0217 16.7159 17.03 16.63L17.7301 17.04C17.7207 17.127 17.7353 17.215 17.7723 17.2943C17.8093 17.3736 17.8673 17.4413 17.94 17.49Z" fill="#21B7ED"/>
<path d="M17.73 17.04L17.03 16.63V15.6L17.73 16.01V17.04Z" fill="#21B7ED"/>
<path d="M18.43 14.79L17.73 14.38L27.54 8.72003L28.25 9.13004L18.43 14.79Z" fill="#21B7ED"/>
<path d="M17.73 16L17.03 15.59C17.043 15.346 17.1132 15.1085 17.2347 14.8966C17.3563 14.6847 17.526 14.5043 17.73 14.37L18.43 14.78C18.226 14.9143 18.0563 15.0947 17.9347 15.3066C17.8131 15.5185 17.743 15.756 17.73 16Z" fill="#21B7ED"/>
<path d="M28.24 9.11997C28.63 8.89997 28.95 9.11998 28.95 9.52998V10.53C28.9386 10.773 28.8691 11.0097 28.7473 11.2202C28.6255 11.4308 28.455 11.609 28.25 11.74L18.44 17.41C18.05 17.64 17.73 17.46 17.73 17.01V16.01C17.743 15.766 17.8131 15.5285 17.9347 15.3166C18.0562 15.1047 18.2259 14.9243 18.43 14.79L28.24 9.11997Z" fill="white"/>
<path d="M44.2199 62.4299C44.1544 62.4513 44.0839 62.4522 44.0178 62.4325C43.9518 62.4129 43.8932 62.3736 43.85 62.3199L41.4299 59.9199C40.2013 58.6964 39.0427 57.4043 37.9599 56.0499L36.9599 54.7899C36.5029 54.0716 36.2761 53.2307 36.3099 52.3799C36.3099 51.4999 36.55 50.8799 36.88 50.7299C36.9481 50.7064 37.0209 50.6995 37.0923 50.7099C37.1636 50.7204 37.2314 50.7478 37.29 50.7899L37.48 50.9199C38.3745 51.5401 39.1701 52.2919 39.8399 53.1499C40.1666 53.5566 40.4999 53.9966 40.8399 54.4699L44.29 59.6899C44.6193 60.3015 44.7454 61.002 44.6499 61.6899C44.5299 62.0999 44.3899 62.3599 44.2199 62.4299Z" fill="#CFD0E0"/>
<path d="M46.75 58.32L43.31 53.1C43.0023 52.6155 42.6685 52.1481 42.31 51.7C41.6039 50.7858 40.7606 49.9863 39.81 49.33L39.62 49.21C39.4805 49.1025 39.3052 49.0524 39.13 49.07L37.26 49.28C37.4342 49.272 37.6063 49.3211 37.75 49.42L37.94 49.55C38.8926 50.2038 39.7363 51.0036 40.44 51.92C40.7985 52.3647 41.1323 52.8287 41.44 53.31L44.89 58.53C45.5135 59.6927 45.7549 61.0223 45.58 62.33C45.47 63.11 45.2 63.6 44.87 63.74L46.74 63.52C47.07 63.38 47.33 62.89 47.45 62.12C47.6274 60.8111 47.3822 59.4797 46.75 58.32Z" fill="url(#paint10_linear_1124_3071)"/>
<path d="M44.89 58.53L41.44 53.31C41.1323 52.8287 40.7985 52.3647 40.44 51.92C39.7363 51.0036 38.8926 50.2038 37.94 49.55L37.75 49.42C37.6574 49.3487 37.5478 49.3029 37.432 49.2871C37.3162 49.2714 37.1983 49.2861 37.09 49.33C36.55 49.56 36.16 50.57 36.16 52C36.1051 53.3873 36.4749 54.7584 37.22 55.93L38.22 57.19C39.3228 58.5677 40.5013 59.883 41.75 61.13L44.17 63.52C44.2507 63.626 44.3625 63.7042 44.4898 63.7436C44.6171 63.7831 44.7535 63.7818 44.88 63.74C45.21 63.6 45.48 63.11 45.59 62.33C45.7618 61.0212 45.5169 59.6916 44.89 58.53ZM43.89 62.32L41.47 59.92C40.2413 58.6964 39.0828 57.4044 38 56.05L37 54.79C36.5429 54.0716 36.3162 53.2308 36.35 52.38C36.35 51.5 36.59 50.88 36.92 50.73C36.9882 50.7064 37.061 50.6995 37.1323 50.71C37.2037 50.7204 37.2715 50.7479 37.33 50.79L37.52 50.92C38.4145 51.5401 39.2102 52.292 39.88 53.15C40.2067 53.5566 40.54 53.9966 40.88 54.47L44.33 59.69C44.6594 60.3015 44.7855 61.002 44.69 61.69C44.63 62.1 44.49 62.36 44.32 62.43C44.282 62.4538 44.2396 62.4698 44.1953 62.4772C44.1511 62.4846 44.1058 62.4831 44.0621 62.4728C44.0184 62.4626 43.9772 62.4439 43.9408 62.4176C43.9044 62.3914 43.8735 62.3582 43.85 62.32H43.89Z" fill="#CFD0E0"/>
<path d="M40.36 55.22C40.36 56.48 39.29 70.63 29.87 70.63C20.45 70.63 19.26 55.74 19.26 55.23L40.36 55.22Z" fill="url(#paint11_linear_1124_3071)"/>
<path d="M32.76 52.7199C31.8266 53.1855 30.7959 53.4228 29.7528 53.4124C28.7097 53.402 27.684 53.1441 26.76 52.6599C25.13 51.6599 25.17 50.1399 26.84 49.1999C27.7733 48.7335 28.804 48.4958 29.8473 48.5062C30.8905 48.5166 31.9163 48.775 32.84 49.2599C34.47 50.2299 34.43 51.7799 32.76 52.7199Z" fill="#C0BACA"/>
<path d="M40.2599 54.39C40.1965 54.1154 40.1164 53.8449 40.0199 53.58C39.9197 53.2967 39.8028 53.0196 39.6699 52.75C39.1882 51.7354 38.5082 50.8275 37.6699 50.08C37.2045 49.6684 36.7024 49.3002 36.1699 48.98C35.9699 48.86 35.6799 48.71 35.4699 48.6L34.8999 48.33C34.4199 48.12 34.0299 48 33.6399 47.87C33.5899 47.87 33.1199 47.71 32.4099 47.57C32.0033 47.4891 31.5927 47.429 31.1799 47.39H30.5699H29.9599H29.3499C28.9699 47.39 28.4999 47.45 28.1199 47.49C28.1199 47.49 27.5199 47.56 26.8799 47.7L26.2099 47.87L25.6099 48.06C25.3899 48.13 25.0999 48.25 24.8899 48.34C24.6799 48.43 24.4799 48.52 24.3099 48.6C24.0508 48.7155 23.8002 48.8491 23.5599 49C22.832 49.4126 22.1598 49.9167 21.5599 50.5C21.3203 50.745 21.0934 51.002 20.8799 51.27C20.7799 51.41 20.6299 51.6 20.5299 51.75C20.4299 51.9 20.1999 52.29 20.0699 52.52C19.9299 52.7668 19.8095 53.0243 19.7099 53.29C19.5899 53.61 19.4499 54.05 19.3599 54.39C18.9099 56.19 19.8699 58.1 22.2399 59.51C26.2999 61.94 32.9799 62.01 37.1499 59.66C39.6699 58.2 40.6999 56.25 40.2599 54.39ZM32.7599 52.72C31.8265 53.1856 30.7958 53.4229 29.7527 53.4125C28.7096 53.4021 27.6839 53.1442 26.7599 52.66C25.1299 51.66 25.1699 50.14 26.8399 49.2C27.7732 48.7336 28.8039 48.4959 29.8472 48.5063C30.8904 48.5167 31.9162 48.7751 32.8399 49.26C34.4699 50.23 34.4299 51.78 32.7599 52.72Z" fill="url(#paint12_linear_1124_3071)"/>
<path d="M35.2 54.4699C33.5212 55.3189 31.6663 55.7612 29.785 55.7612C27.9037 55.7612 26.0488 55.3189 24.37 54.4699C21.37 52.7399 21.37 49.9399 24.37 48.2199C26.0488 47.371 27.9037 46.9287 29.785 46.9287C31.6663 46.9287 33.5212 47.371 35.2 48.2199C38.17 49.9999 38.18 52.7499 35.2 54.4699Z" fill="#D4D5E6"/>
<path d="M23 52.12C23.2645 52.2856 23.5383 52.4359 23.82 52.57C24.2339 52.7789 24.6616 52.9593 25.1 53.11C25.3 53.19 25.56 53.27 25.76 53.33C26.13 53.43 26.63 53.55 27 53.63C27.2 53.63 27.46 53.72 27.66 53.74L28.3 53.82L28.95 53.87H29.6C29.79 53.87 30.05 53.87 30.25 53.87H30.91L32.2 53.71L32.88 53.57C33.07 53.52 33.32 53.47 33.51 53.41L34.24 53.19C34.5 53.1 34.84 52.97 35.09 52.86C35.34 52.75 35.87 52.5 36.19 52.32C36.51 52.14 36.82 51.94 37.08 51.77C37.34 51.6 37.49 51.48 37.66 51.34C37.83 51.2 38.21 50.86 38.44 50.64C37.9289 51.139 37.3498 51.5631 36.72 51.9C32.72 54.14 26.36 54.07 22.52 51.76C22.0102 51.459 21.5371 51.1 21.11 50.69L21.75 51.27L22.07 51.52C22.35 51.7 22.72 52 23 52.12Z" fill="url(#paint13_linear_1124_3071)"/>
<path d="M30.92 53.85C36.22 53.85 41.74 48.58 41.74 44.99C41.7658 43.1315 41.5233 41.2791 41.02 39.49C39.89 35.69 18.78 37.57 18.36 40.27C18.26 40.93 18.23 41.4 18.21 41.56C18.07 42.36 17.21 46.8999 20.48 50.0399C23.75 53.1799 26.9 53.85 30.92 53.85Z" fill="url(#paint14_linear_1124_3071)"/>
<path d="M41.17 40.05C41.1032 39.7512 41.0163 39.4572 40.91 39.17C40.8031 38.8635 40.6796 38.5631 40.54 38.27C40.2849 37.7454 39.9802 37.2465 39.63 36.78C39.2446 36.2649 38.8091 35.7893 38.33 35.36C37.82 34.9121 37.2712 34.5106 36.69 34.16C36.47 34.03 36.16 33.86 35.92 33.74L35.3 33.45C34.78 33.23 34.35 33.09 33.94 32.96C33.88 32.96 33.36 32.78 32.59 32.62C32.09 32.52 31.59 32.46 31.26 32.43C30.93 32.4 30.79 32.38 30.59 32.38H29.93C29.73 32.38 29.46 32.38 29.26 32.38C28.84 32.38 28.33 32.45 27.92 32.49C27.92 32.49 27.26 32.57 26.57 32.73L25.84 32.91L25.19 33.11C24.95 33.19 24.63 33.32 24.4 33.41L23.77 33.7C23.4896 33.8294 23.2159 33.9729 22.95 34.13C22.61 34.35 22.15 34.64 21.83 34.89C21.4806 35.1646 21.1468 35.4584 20.83 35.77C20.5676 36.0358 20.3206 36.3162 20.09 36.61L19.71 37.13C19.55 37.38 19.35 37.72 19.2 37.97C19.0532 38.2404 18.9262 38.5212 18.82 38.81C18.6691 39.2029 18.5389 39.6034 18.43 40.01C17.95 42.01 18.99 44.01 21.57 45.59C25.99 48.23 33.26 48.3 37.81 45.75C40.53 44.2 41.66 42.08 41.17 40.05Z" fill="url(#paint15_linear_1124_3071)"/>
<path d="M41.6 43.8899C41.6465 44.4329 41.606 44.9798 41.48 45.5099C40.8688 47.1655 39.629 48.5131 38.03 49.2599C34.3929 51.0718 30.264 51.6476 26.27 50.8999C25.02 50.6199 24.55 50.5199 23.94 45.1799C23.86 43.6799 24.37 43.5699 24.83 43.6399C28.8629 44.8664 33.2116 44.5087 36.99 42.6399C39.18 41.4299 40.26 39.7899 40.21 38.1699V38.0599C40.2771 38.0921 40.3355 38.1402 40.38 38.1999C41.1625 39.9961 41.5774 41.9308 41.6 43.8899Z" fill="#003447"/>
<path d="M31.47 46C30.9651 46.0993 30.5149 46.3822 30.2065 46.7941C29.898 47.206 29.7532 47.7176 29.8 48.23C29.7992 48.4315 29.8193 48.6326 29.86 48.83C30.3754 48.634 30.9191 48.5226 31.47 48.5C32.0157 48.4677 32.5629 48.5252 33.09 48.67C33.1298 48.4725 33.1499 48.2715 33.15 48.07C33.15 46.92 32.4 46 31.47 46Z" fill="#00BBFF"/>
<path d="M38.06 43.75C37.6774 44.2063 37.4237 44.7565 37.3253 45.3438C37.2268 45.931 37.2871 46.5339 37.5 47.09C37.7839 46.6872 38.1202 46.324 38.5 46.01C38.8299 45.7386 39.2059 45.5286 39.61 45.39C39.607 45.1948 39.5836 45.0004 39.54 44.81C39.35 43.74 38.67 43.26 38.06 43.75Z" fill="#00BBFF"/>
<path d="M20.3 61.1299L20.1201 62.1999L18.3101 60.8599L18.4901 59.7899L20.3 61.1299Z" fill="url(#paint16_linear_1124_3071)"/>
<path d="M18.49 59.79L18.31 60.86C17.722 60.387 17.2659 59.7704 16.9856 59.0698C16.7054 58.3691 16.6104 57.608 16.71 56.86C16.7327 56.2659 16.9508 55.6959 17.3305 55.2385C17.7102 54.781 18.2303 54.4617 18.81 54.33C19.2368 54.2712 19.6715 54.3264 20.07 54.49L19.57 55.87C19.3278 55.7652 19.061 55.7306 18.8 55.77C18.4431 55.8478 18.1223 56.0425 17.8886 56.3233C17.655 56.6041 17.5217 56.9549 17.51 57.32C17.4446 57.7814 17.5005 58.2518 17.6723 58.685C17.8442 59.1182 18.126 59.499 18.49 59.79Z" fill="url(#paint17_linear_1124_3071)"/>
<path d="M19.5701 55.91L20.0701 54.53L20.4201 54.68L19.9201 56.05L19.5701 55.91Z" fill="url(#paint18_linear_1124_3071)"/>
<path d="M26.54 65.29L26.47 66.43C24.281 65.1318 22.1614 63.7198 20.12 62.2L20.3 61.13C22.3071 62.6231 24.3899 64.0116 26.54 65.29Z" fill="url(#paint19_linear_1124_3071)"/>
<path d="M19.92 56.0499L20.42 54.6799C22.0415 55.3403 23.5708 56.2075 24.97 57.2599C25.5948 57.7188 26.1956 58.2095 26.77 58.7299L25.91 59.8799C25.3728 59.3858 24.8086 58.9217 24.22 58.4899C22.8961 57.4974 21.4511 56.6774 19.92 56.0499Z" fill="url(#paint20_linear_1124_3071)"/>
<path d="M30.92 67.8899L30.85 69.0299L26.47 66.4299L26.54 65.2899L30.92 67.8899Z" fill="url(#paint21_linear_1124_3071)"/>
<path d="M31.63 68L32.2 69.27C31.7298 69.3366 31.2513 69.2338 30.85 68.98L30.92 67.85C31.1332 67.9781 31.3832 68.0309 31.63 68Z" fill="url(#paint22_linear_1124_3071)"/>
<path d="M25.91 59.88L26.77 58.73L32.81 64.21L31.96 65.35L25.91 59.88Z" fill="url(#paint23_linear_1124_3071)"/>
<path d="M31.63 67.9999C31.3832 68.0309 31.1332 67.9781 30.92 67.8499L26.54 65.2499C24.3899 63.9715 22.3071 62.583 20.3 61.0899L18.49 59.7499C18.1287 59.4649 17.8469 59.0915 17.6718 58.6659C17.4966 58.2403 17.434 57.7768 17.49 57.3199C17.5017 56.9548 17.6349 56.604 17.8686 56.3232C18.1023 56.0424 18.4231 55.8477 18.78 55.7699C19.041 55.7306 19.3077 55.7652 19.55 55.8699L19.9 56.0099C21.4311 56.6374 22.8761 57.4574 24.2 58.4499C24.7886 58.8817 25.3528 59.3457 25.89 59.8399L31.89 65.3099C32.1529 65.5625 32.3371 65.8856 32.4205 66.2405C32.5039 66.5953 32.4829 66.9667 32.36 67.3099C32.3033 67.4755 32.2073 67.6248 32.0801 67.745C31.953 67.8652 31.7985 67.9527 31.63 67.9999Z" fill="url(#paint24_linear_1124_3071)"/>
<path d="M34.0701 63.8599L28.0001 58.3899C27.4201 57.8599 26.8201 57.3899 26.2101 56.9099C24.8037 55.8629 23.2718 54.9962 21.6501 54.3299L21.3101 54.1899C20.9093 54.0216 20.4701 53.9663 20.0401 54.0299L19.8101 54.0799L18.55 54.4199H18.7901C19.2168 54.3611 19.6515 54.4163 20.05 54.5799L20.4001 54.7299C22.0215 55.3903 23.5509 56.2575 24.9501 57.3099C25.5748 57.7688 26.1756 58.2594 26.7501 58.7799L32.7501 64.2599C33.254 64.7367 33.6077 65.3504 33.7676 66.0255C33.9275 66.7006 33.8866 67.4077 33.6501 68.0599C33.5458 68.3596 33.3717 68.6302 33.1422 68.8492C32.9126 69.0683 32.6342 69.2297 32.33 69.3199L33.58 68.9799C33.8853 68.8887 34.1644 68.7258 34.394 68.5049C34.6236 68.284 34.7971 68.0115 34.9001 67.7099C35.1559 67.0577 35.2136 66.3445 35.0659 65.6597C34.9183 64.9749 34.5719 64.3488 34.0701 63.8599Z" fill="url(#paint25_linear_1124_3071)"/>
<path d="M32 65.35L32.85 64.21C33.354 64.6868 33.7077 65.3004 33.8676 65.9755C34.0275 66.6506 33.9866 67.3578 33.75 68.0099C33.6339 68.3397 33.4334 68.6333 33.1685 68.8614C32.9035 69.0895 32.5834 69.2441 32.24 69.31L31.67 68.0399C31.8513 68.0031 32.0201 67.9203 32.1602 67.7995C32.3002 67.6786 32.4069 67.5239 32.47 67.35C32.5929 67.0068 32.6139 66.6354 32.5305 66.2805C32.4471 65.9257 32.2629 65.6025 32 65.35Z" fill="url(#paint26_linear_1124_3071)"/>
<path d="M37.29 74.25C37.0858 74.25 36.8899 74.1689 36.7455 74.0245C36.6011 73.8801 36.52 73.6842 36.52 73.48V70.42C36.5226 70.2166 36.6046 70.0223 36.7484 69.8784C36.8923 69.7346 37.0866 69.6526 37.29 69.65C37.4935 69.6526 37.6878 69.7346 37.8316 69.8784C37.9755 70.0223 38.0574 70.2166 38.06 70.42V73.48C38.06 73.6842 37.9789 73.8801 37.8345 74.0245C37.6901 74.1689 37.4943 74.25 37.29 74.25Z" fill="url(#paint27_linear_1124_3071)"/>
<defs>
<linearGradient id="paint0_linear_1124_3071" x1="31.68" y1="80.94" x2="31.68" y2="35.42" gradientUnits="userSpaceOnUse">
<stop stop-color="#57D8FF"/>
<stop offset="0.56" stop-color="#46D7FF"/>
<stop offset="1" stop-color="#40D6FF"/>
</linearGradient>
<linearGradient id="paint1_linear_1124_3071" x1="17.29" y1="70.04" x2="17.29" y2="59.97" gradientUnits="userSpaceOnUse">
<stop stop-color="#57D8FF"/>
<stop offset="0.54" stop-color="#4DD7FF"/>
<stop offset="1" stop-color="#40D6FF"/>
</linearGradient>
<linearGradient id="paint2_linear_1124_3071" x1="45.87" y1="75.41" x2="45.87" y2="68.95" gradientUnits="userSpaceOnUse">
<stop stop-color="#57D8FF"/>
<stop offset="0.54" stop-color="#4DD7FF"/>
<stop offset="1" stop-color="#40D6FF"/>
</linearGradient>
<linearGradient id="paint3_linear_1124_3071" x1="37.29" y1="84.8199" x2="37.29" y2="78.0699" gradientUnits="userSpaceOnUse">
<stop stop-color="#57D8FF"/>
<stop offset="0.96" stop-color="#4DD7FF"/>
<stop offset="1" stop-color="#4CD7FF"/>
</linearGradient>
<linearGradient id="paint4_linear_1124_3071" x1="23.52" y1="86.9" x2="23.52" y2="79.59" gradientUnits="userSpaceOnUse">
<stop stop-color="#57D8FF"/>
<stop offset="0.96" stop-color="#4DD7FF"/>
<stop offset="1" stop-color="#4CD7FF"/>
</linearGradient>
<linearGradient id="paint5_linear_1124_3071" x1="23.52" y1="76.63" x2="23.52" y2="70.36" gradientUnits="userSpaceOnUse">
<stop stop-color="#4BD8FF"/>
<stop offset="1" stop-color="#46D7FF"/>
</linearGradient>
<linearGradient id="paint6_linear_1124_3071" x1="41.8301" y1="67.3899" x2="41.8301" y2="62.7899" gradientUnits="userSpaceOnUse">
<stop stop-color="#57D8FF"/>
<stop offset="0.79" stop-color="#4DD7FF"/>
<stop offset="1" stop-color="#49D7FF"/>
</linearGradient>
<linearGradient id="paint7_linear_1124_3071" x1="46.6299" y1="47.03" x2="46.6299" y2="45.33" gradientUnits="userSpaceOnUse">
<stop stop-color="#57D8FF"/>
<stop offset="0.79" stop-color="#4DD7FF"/>
<stop offset="1" stop-color="#49D7FF"/>
</linearGradient>
<linearGradient id="paint8_linear_1124_3071" x1="57.885" y1="44.2225" x2="57.6701" y2="47.2925" gradientUnits="userSpaceOnUse">
<stop stop-color="#57D8FF"/>
<stop offset="0.79" stop-color="#4DD7FF"/>
<stop offset="1" stop-color="#49D7FF"/>
</linearGradient>
<linearGradient id="paint9_linear_1124_3071" x1="17.29" y1="75.42" x2="17.29" y2="72.35" gradientUnits="userSpaceOnUse">
<stop stop-color="#57D8FF"/>
<stop offset="0.79" stop-color="#4DD7FF"/>
<stop offset="1" stop-color="#49D7FF"/>
</linearGradient>
<linearGradient id="paint10_linear_1124_3071" x1="42.37" y1="63.74" x2="42.37" y2="49.07" gradientUnits="userSpaceOnUse">
<stop offset="0.12" stop-color="#D2D3E5"/>
<stop offset="0.28" stop-color="#EAE9F2"/>
</linearGradient>
<linearGradient id="paint11_linear_1124_3071" x1="19.26" y1="62.92" x2="40.36" y2="62.92" gradientUnits="userSpaceOnUse">
<stop offset="0.37" stop-color="#CACCDE"/>
<stop offset="0.97" stop-color="#EAE9F2"/>
</linearGradient>
<linearGradient id="paint12_linear_1124_3071" x1="26.0099" y1="61.63" x2="34.0199" y2="47.76" gradientUnits="userSpaceOnUse">
<stop stop-color="#CACCDE"/>
<stop offset="0.56" stop-color="#EAE9F2"/>
</linearGradient>
<linearGradient id="paint13_linear_1124_3071" x1="28.19" y1="52.26" x2="44.5" y2="52.26" gradientUnits="userSpaceOnUse">
<stop offset="0.24" stop-color="#A8A4B5"/>
<stop offset="1" stop-color="#DBD3E2"/>
</linearGradient>
<linearGradient id="paint14_linear_1124_3071" x1="19.9" y1="66.02" x2="36.78" y2="27.86" gradientUnits="userSpaceOnUse">
<stop offset="0.37" stop-color="#CACCDE"/>
<stop offset="0.97" stop-color="#EAE9F2"/>
</linearGradient>
<linearGradient id="paint15_linear_1124_3071" x1="25.66" y1="47.94" x2="34.38" y2="32.83" gradientUnits="userSpaceOnUse">
<stop stop-color="#CACCDE"/>
<stop offset="0.56" stop-color="#EAE9F2"/>
</linearGradient>
<linearGradient id="paint16_linear_1124_3071" x1="18.2201" y1="62.6799" x2="23.2901" y2="54.7899" gradientUnits="userSpaceOnUse">
<stop stop-color="#CACCDE"/>
<stop offset="1" stop-color="#DFDEEE"/>
</linearGradient>
<linearGradient id="paint17_linear_1124_3071" x1="15.84" y1="61.15" x2="20.91" y2="53.26" gradientUnits="userSpaceOnUse">
<stop stop-color="#CACCDE"/>
<stop offset="1" stop-color="#DFDEEE"/>
</linearGradient>
<linearGradient id="paint18_linear_1124_3071" x1="16.12" y1="61.33" x2="21.18" y2="53.44" gradientUnits="userSpaceOnUse">
<stop stop-color="#CACCDE"/>
<stop offset="1" stop-color="#DFDEEE"/>
</linearGradient>
<linearGradient id="paint19_linear_1124_3071" x1="22.37" y1="65.35" x2="27.44" y2="57.46" gradientUnits="userSpaceOnUse">
<stop stop-color="#CACCDE"/>
<stop offset="1" stop-color="#DFDEEE"/>
</linearGradient>
<linearGradient id="paint20_linear_1124_3071" x1="19.31" y1="63.38" x2="24.3701" y2="55.49" gradientUnits="userSpaceOnUse">
<stop stop-color="#CACCDE"/>
<stop offset="1" stop-color="#DFDEEE"/>
</linearGradient>
<linearGradient id="paint21_linear_1124_3071" x1="27.67" y1="68.7499" x2="32.74" y2="60.8599" gradientUnits="userSpaceOnUse">
<stop stop-color="#CACCDE"/>
<stop offset="1" stop-color="#DFDEEE"/>
</linearGradient>
<linearGradient id="paint22_linear_1124_3071" x1="30.36" y1="70.47" x2="35.4199" y2="62.58" gradientUnits="userSpaceOnUse">
<stop stop-color="#CACCDE"/>
<stop offset="1" stop-color="#DFDEEE"/>
</linearGradient>
<linearGradient id="paint23_linear_1124_3071" x1="25.82" y1="67.56" x2="30.89" y2="59.67" gradientUnits="userSpaceOnUse">
<stop stop-color="#CACCDE"/>
<stop offset="1" stop-color="#DFDEEE"/>
</linearGradient>
<linearGradient id="paint24_linear_1124_3071" x1="22.77" y1="65.5999" x2="27.83" y2="57.7099" gradientUnits="userSpaceOnUse">
<stop stop-color="#CACCDE"/>
<stop offset="1" stop-color="#DFDEEE"/>
</linearGradient>
<linearGradient id="paint25_linear_1124_3071" x1="26.3001" y1="68.8399" x2="27.3001" y2="54.4799" gradientUnits="userSpaceOnUse">
<stop offset="0.12" stop-color="#D2D3E5"/>
<stop offset="0.3" stop-color="#EAE9F2"/>
</linearGradient>
<linearGradient id="paint26_linear_1124_3071" x1="30.4" y1="70.4999" x2="35.47" y2="62.61" gradientUnits="userSpaceOnUse">
<stop stop-color="#CACCDE"/>
<stop offset="1" stop-color="#DFDEEE"/>
</linearGradient>
<linearGradient id="paint27_linear_1124_3071" x1="37.29" y1="74.25" x2="37.29" y2="69.65" gradientUnits="userSpaceOnUse">
<stop stop-color="#57D8FF"/>
<stop offset="0.96" stop-color="#4DD7FF"/>
<stop offset="1" stop-color="#4CD7FF"/>
</linearGradient>
</defs>
</svg>
