<svg width="82" height="99" viewBox="0 0 82 99" fill="none" xmlns="http://www.w3.org/2000/svg">
<path d="M21.17 98.22L12.46 93.19L62.31 64.42L71.0099 69.44L21.17 98.22Z" fill="#EEF1F5"/>
<path d="M37.42 73.29L56.52 84.29C56.6571 84.3689 56.771 84.4826 56.8501 84.6195C56.9293 84.7564 56.971 84.9118 56.971 85.07C56.971 85.2282 56.9293 85.3836 56.8501 85.5205C56.771 85.6574 56.6571 85.7711 56.52 85.85L41.08 94.85C40.5145 95.1765 39.873 95.3484 39.22 95.3484C38.567 95.3484 37.9255 95.1765 37.36 94.85L18.26 83.85C18.1231 83.7697 18.0096 83.655 17.9307 83.5173C17.8518 83.3796 17.8103 83.2237 17.8103 83.065C17.8103 82.9063 17.8518 82.7504 17.9307 82.6127C18.0096 82.4749 18.1231 82.3603 18.26 82.28L33.7 73.28C34.2661 72.954 34.9081 72.7833 35.5613 72.785C36.2145 72.7868 36.8557 72.961 37.42 73.29Z" fill="#EEF1F5"/>
<path d="M22.5201 81.2L36.5201 73.0299C37.0865 72.7006 37.73 72.5271 38.3851 72.5271C39.0403 72.5271 39.6838 72.7006 40.2501 73.0299L57.5601 83.0299L59.8001 83.1499V84.8499C59.8013 85.0082 59.7602 85.1639 59.6811 85.3011C59.602 85.4382 59.4877 85.5517 59.3501 85.6299L43.9201 94.6299C43.3538 94.9593 42.7103 95.1328 42.0551 95.1328C41.4 95.1328 40.7565 94.9593 40.1901 94.6299L21.0901 83.6299C20.9532 83.5509 20.8396 83.4372 20.7606 83.3003C20.6816 83.1633 20.64 83.008 20.6401 82.8499V81.0999L22.5201 81.2Z" fill="url(#paint0_linear_1124_3074)"/>
<path d="M40.2899 71.33L59.39 82.33C59.527 82.4089 59.6409 82.5225 59.7201 82.6595C59.7993 82.7964 59.841 82.9518 59.841 83.11C59.841 83.2682 59.7993 83.4235 59.7201 83.5605C59.6409 83.6974 59.527 83.8111 59.39 83.89L43.96 92.89C43.3926 93.2164 42.7495 93.3882 42.095 93.3882C41.4404 93.3882 40.7973 93.2164 40.2299 92.89L21.13 81.89C20.9929 81.8111 20.879 81.6974 20.7998 81.5605C20.7206 81.4235 20.679 81.2682 20.679 81.11C20.679 80.9518 20.7206 80.7964 20.7998 80.6595C20.879 80.5225 20.9929 80.4089 21.13 80.33L36.56 71.33C37.1263 71.0006 37.7698 70.8271 38.425 70.8271C39.0801 70.8271 39.7236 71.0006 40.2899 71.33Z" fill="#E6E6FA"/>
<path d="M29.9101 59.85L25.3101 84.28L43.9501 73.44L48.5601 49.01L29.9101 59.85Z" fill="url(#paint1_linear_1124_3074)"/>
<path d="M29.18 57.76L24.3 83.7L25.3 84.28L29.91 59.85C29.4353 59.3175 29.1658 58.6332 29.15 57.92C29.1551 57.8659 29.1651 57.8123 29.18 57.76Z" fill="#9C9CD8"/>
<path d="M46.0899 47.49C46.2506 47.4169 46.4278 47.3877 46.6034 47.4052C46.779 47.4228 46.9469 47.4865 47.0899 47.59C47.4868 47.8646 47.8137 48.2283 48.0447 48.652C48.2757 49.0757 48.4042 49.5477 48.4199 50.03C48.4301 50.191 48.3987 50.352 48.3286 50.4974C48.2585 50.6427 48.1523 50.7676 48.0199 50.86L29.3699 61.69C29.5036 61.6014 29.6112 61.4786 29.6815 61.3344C29.7519 61.1903 29.7824 61.0299 29.7699 60.87C29.7615 60.3862 29.6361 59.9116 29.4045 59.4867C29.1729 59.0618 28.842 58.6993 28.4399 58.43C28.2969 58.3265 28.1291 58.2628 27.9534 58.2452C27.7778 58.2277 27.6006 58.2569 27.4399 58.33L46.0899 47.49Z" fill="#848B92"/>
<path d="M28.4499 58.42C27.7499 58.02 27.1599 58.26 27.0499 58.99C27.0446 59.0432 27.0446 59.0968 27.0499 59.15C27.0652 59.8585 27.3309 60.5387 27.7999 61.07C27.9632 61.2714 28.1593 61.4437 28.3799 61.58H28.4399C29.1899 62.01 29.8099 61.68 29.8299 60.85C29.8165 60.3672 29.689 59.8944 29.4578 59.4703C29.2267 59.0462 28.8984 58.6829 28.4999 58.41L28.4499 58.42Z" fill="#9FA7B0"/>
<path d="M15.4102 34.93L15.5302 75.73L69.8002 44.4L69.6801 3.59998L15.4102 34.93Z" fill="#2462E0"/>
<path d="M69.9399 1.85999C70.3599 1.61999 70.6799 1.86 70.6799 2.28L70.8099 45.65L14.5299 78.14L14.3999 34.77C14.4171 34.5131 14.4938 34.2637 14.624 34.0416C14.7541 33.8194 14.9342 33.6306 15.1499 33.49L69.9399 1.85999ZM15.5299 75.73L69.7999 44.4L69.6799 3.60001L15.4099 34.93L15.5299 75.73Z" fill="#404040"/>
<path d="M70.0001 1.42001C70.5601 1.09001 71.0001 1.35 71.0001 2L71.1301 50.85C71.1117 51.1995 71.0117 51.5399 70.838 51.8438C70.6644 52.1477 70.4219 52.4067 70.1301 52.6L15.2301 84.3C14.6601 84.63 14.2301 84.36 14.2301 83.72L14.1001 34.87C14.1169 34.5187 14.2162 34.1764 14.3899 33.8706C14.5637 33.5648 14.807 33.3043 15.1001 33.11L70.0001 1.42001ZM14.5301 78.14L70.8101 45.65L70.6801 2.27999C70.6801 1.81999 70.3601 1.61998 69.9401 1.85998L15.1501 33.49C14.9344 33.6306 14.7543 33.8194 14.6241 34.0416C14.494 34.2637 14.4173 34.5131 14.4001 34.77L14.5301 78.14Z" fill="#C1C1E8"/>
<path d="M14.1899 32.58L69.0899 0.890048C69.1917 0.812887 69.3129 0.765475 69.44 0.753116C69.5672 0.740757 69.6952 0.763929 69.8099 0.820041L70.7199 1.35004C70.6052 1.29393 70.4772 1.27076 70.35 1.28311C70.2229 1.29547 70.1017 1.34289 69.9999 1.42005L15.0899 33.11C14.7968 33.3043 14.5535 33.5649 14.3798 33.8706C14.2061 34.1764 14.1068 34.5188 14.0899 34.87L14.2199 83.72C14.2057 83.8455 14.2262 83.9724 14.2791 84.087C14.3319 84.2016 14.4153 84.2995 14.5199 84.37L13.6099 83.85C13.506 83.7764 13.4235 83.6765 13.3708 83.5605C13.3181 83.4446 13.2971 83.3167 13.3099 83.19L13.1799 34.34C13.1994 33.9882 13.3009 33.6459 13.4763 33.3403C13.6517 33.0347 13.8961 32.7744 14.1899 32.58Z" fill="url(#paint2_linear_1124_3074)"/>
<path d="M44.4 64C44.3756 64.4508 44.2452 64.8896 44.0193 65.2805C43.7934 65.6715 43.4785 66.0036 43.1001 66.25C42.3801 66.66 41.8 66.33 41.8 65.51C41.8245 65.0591 41.9549 64.6204 42.1808 64.2294C42.4067 63.8384 42.7216 63.5063 43.1001 63.26C43.8201 62.83 44.4 63.16 44.4 64Z" fill="#404040"/>
<path d="M44.0801 64.17C44.0588 64.5107 43.9571 64.8414 43.7832 65.1352C43.6094 65.429 43.3684 65.6773 43.0801 65.86C42.5401 66.17 42.0801 65.92 42.0801 65.3C42.1014 64.9593 42.2031 64.6285 42.3769 64.3348C42.5507 64.041 42.7917 63.7926 43.0801 63.61C43.6401 63.3 44.0801 63.55 44.0801 64.17Z" fill="#C1C1E8"/>
<path d="M70.38 41.8499L67.77 42.1499C67.8391 42.1392 67.9064 42.119 67.97 42.0899L70.57 41.7999L70.38 41.8499Z" fill="#E0E9F0"/>
<path d="M54.5299 33.81C55.3939 34.3582 56.0868 35.1377 56.5299 36.06L56.6999 36.44C57.3938 37.9291 57.9592 39.4747 58.3899 41.06C58.5499 41.68 58.6799 42.27 58.7799 42.84L59.8299 49.15C59.9299 49.71 59.5199 49.86 58.8999 49.5C58.2312 49.0928 57.7094 48.4834 57.4099 47.76L55.7599 43.05C54.9599 40.78 54.2799 38.55 53.7599 36.4L53.2499 34.48C53.0599 33.74 53.3899 33.38 54.0699 33.59C54.1399 33.7 54.3699 33.72 54.5299 33.81Z" fill="#CFD0E0"/>
<path d="M61.3399 49.57L60.2899 43.26C60.1799 42.65 60.0499 42.02 59.8799 41.37C59.4186 39.6936 58.8199 38.0581 58.0899 36.48L57.9099 36.1C57.1772 34.5931 56.0332 33.3243 54.6099 32.44C54.3663 32.2965 54.1082 32.1792 53.8399 32.09C52.7199 31.73 52.1799 32.32 52.4999 33.53L52.9999 35.44C53.5799 37.64 54.2765 39.8967 55.0899 42.21L56.7399 46.92C57.3109 48.2966 58.3011 49.4583 59.5699 50.24C60.7499 50.92 61.5199 50.63 61.3399 49.57ZM58.9299 49.5C58.2612 49.0928 57.7394 48.4834 57.4399 47.76L55.7899 43.05C54.9899 40.78 54.3099 38.55 53.7899 36.4L53.2799 34.48C53.0899 33.74 53.4199 33.38 54.0999 33.59C54.1899 33.7 54.4199 33.72 54.5799 33.81C55.4439 34.3582 56.1368 35.1377 56.5799 36.06L56.7499 36.44C57.4438 37.9291 58.0092 39.4747 58.4399 41.06C58.5999 41.68 58.7299 42.27 58.8299 42.84L59.8799 49.15C59.9999 49.71 59.5499 49.86 58.9299 49.5Z" fill="#CFD0E0"/>
<path d="M62.9099 48.18L61.8499 41.87C61.7499 41.26 61.6099 40.63 61.4399 39.98C60.9877 38.2975 60.3887 36.6578 59.6499 35.08L59.4799 34.7C58.7466 33.1962 57.6025 31.9307 56.1799 31.05C55.9342 30.9011 55.6726 30.7804 55.3999 30.69C55.2148 30.6054 55.0112 30.5693 54.8083 30.585C54.6054 30.6008 54.4098 30.6678 54.2399 30.78L52.6699 32.18C52.8397 32.0633 53.0374 31.9935 53.2428 31.9777C53.4483 31.9619 53.6542 32.0006 53.8399 32.09C54.1082 32.1791 54.3663 32.2964 54.6099 32.44C56.0332 33.3242 57.1773 34.5931 57.9099 36.1L58.0899 36.48C58.8199 38.0581 59.4186 39.6936 59.8799 41.37C60.0499 42.02 60.1799 42.65 60.2899 43.26L61.3399 49.57C61.3844 49.7209 61.3903 49.8805 61.3571 50.0342C61.3239 50.188 61.2527 50.3309 61.1499 50.45L62.7099 49.05C62.8144 48.9339 62.8875 48.7931 62.9225 48.6409C62.9575 48.4887 62.9532 48.3301 62.9099 48.18Z" fill="url(#paint3_linear_1124_3074)"/>
<path d="M58.31 38.6C58.31 40.01 57.12 55.79 46.6 55.79C36.08 55.79 34.77 39.18 34.77 38.61L58.31 38.6Z" fill="url(#paint4_linear_1124_3074)"/>
<path d="M49.8299 35.81C48.7922 36.322 47.6485 36.5825 46.4915 36.5703C45.3345 36.5581 44.1965 36.2737 43.1699 35.74C41.3599 34.66 41.3999 32.93 43.2699 31.88C44.3075 31.3681 45.4512 31.1076 46.6082 31.1198C47.7652 31.132 48.9032 31.4164 49.9298 31.9501C51.7398 33.0001 51.6999 34.76 49.8299 35.81Z" fill="#C0BACA"/>
<path d="M58.1901 37.67C58.1201 37.4 58.0201 37.0299 57.9301 36.7699C57.8401 36.5099 57.6701 36.1199 57.5401 35.8399C57.2832 35.3047 56.9751 34.7957 56.6201 34.3199C56.2201 33.7954 55.7715 33.3099 55.2801 32.8699C54.7602 32.4077 54.1977 31.9959 53.6001 31.64C53.3701 31.5 53.0601 31.3299 52.8201 31.2099L52.1801 30.9099C51.7224 30.7163 51.2551 30.5461 50.7801 30.3999C50.7201 30.3999 50.1901 30.2199 49.4001 30.0599C48.8801 29.9599 48.3401 29.8899 48.0301 29.8599L47.3501 29.8099H46.6701H46.0001C45.5417 29.8213 45.0844 29.8581 44.6301 29.92C44.6301 29.92 43.9501 29.9999 43.2401 30.1599L42.4901 30.3499L41.8301 30.5599C41.5801 30.6399 41.2601 30.7599 41.0201 30.8599L40.3701 31.1499C40.0851 31.284 39.808 31.4343 39.5401 31.5999C39.1801 31.8199 38.7201 32.1199 38.3901 32.3699C38.041 32.6555 37.7072 32.9593 37.3901 33.2799C37.1154 33.55 36.8582 33.8372 36.6201 34.14C36.5101 34.3 36.3401 34.51 36.2401 34.67C36.1401 34.83 35.8701 35.2699 35.7201 35.5299C35.5667 35.8068 35.433 36.0942 35.3201 36.39C35.1801 36.75 35.0301 37.2399 34.9201 37.6199C34.4301 39.6199 35.5001 41.7599 38.1401 43.3299C42.6701 46.0399 50.1401 46.1199 54.7801 43.4999C57.5301 41.9299 58.6901 39.75 58.1901 37.67ZM49.8301 35.8099C48.7924 36.3219 47.6488 36.5824 46.4917 36.5702C45.3347 36.558 44.1968 36.2736 43.1701 35.7399C41.3601 34.6599 41.4001 32.9299 43.2701 31.8799C44.3078 31.368 45.4514 31.1075 46.6084 31.1197C47.7655 31.1319 48.9034 31.4163 49.9301 31.95C51.7401 33 51.7001 34.7599 49.8301 35.8099Z" fill="url(#paint5_linear_1124_3074)"/>
<g style="mix-blend-mode:multiply">
<path d="M49.2599 55.42C48.3958 55.6715 47.4998 55.7962 46.5999 55.79C38.5999 55.79 35.9499 46.27 35.1099 41.39C36.6699 40.21 36.1799 38.02 37.1099 37.49L37.7299 37.14C38.6645 37.5993 39.5379 38.1738 40.3299 38.85C42.0999 41.07 40.9299 48.29 42.0799 51.73C42.9999 54.69 45.9999 55.62 49.2599 55.42Z" fill="#EBEBEB"/>
</g>
<path d="M52.5499 37.7699C50.6778 38.7188 48.6086 39.2132 46.5099 39.2132C44.4111 39.2132 42.3419 38.7188 40.4699 37.7699C37.1199 35.8299 37.1099 32.7099 40.4699 30.7699C42.3419 29.8211 44.4111 29.3267 46.5099 29.3267C48.6086 29.3267 50.6778 29.8211 52.5499 30.7699C55.8599 32.7199 55.8799 35.8499 52.5499 37.7699Z" fill="#D4D5E6"/>
<path d="M39.0001 35.15C39.2947 35.329 39.5984 35.4926 39.9101 35.64C40.3711 35.8781 40.8491 36.082 41.3401 36.25C41.5601 36.33 41.8601 36.43 42.0801 36.49C42.4901 36.6 43.0801 36.74 43.4601 36.83C43.6801 36.88 43.9801 36.93 44.2001 36.96L44.9201 37.04L45.6401 37.1H46.3601H47.0001C47.2301 37.1 47.5301 37.1 47.7501 37.1C48.1801 37.1 48.7501 36.99 49.1801 36.92C49.4101 36.92 49.7201 36.82 49.9501 36.77L50.6401 36.59L51.4601 36.34C51.7501 36.25 52.1301 36.09 52.4101 35.97C52.6901 35.85 53.2801 35.57 53.6401 35.37C54.0001 35.17 54.3401 34.95 54.6401 34.76C54.8617 34.6113 55.0753 34.4511 55.2801 34.28C55.5501 34.06 55.9001 33.74 56.1601 33.5C55.5879 34.056 54.9418 34.5305 54.2401 34.91C49.7701 37.4 42.6801 37.33 38.3901 34.75C37.8209 34.4139 37.2938 34.011 36.8201 33.55C37.0301 33.75 37.3201 34.01 37.5401 34.2L37.8901 34.48C38.2101 34.68 38.6301 35 39.0001 35.15Z" fill="url(#paint6_linear_1124_3074)"/>
<path d="M47.7799 37.07C53.6899 37.07 59.8499 31.2 59.8499 27.19C59.8738 25.1152 59.601 23.0476 59.0399 21.05C57.7799 16.81 34.2299 18.91 33.7599 21.93C33.6399 22.66 33.6199 23.18 33.5899 23.36C33.4399 24.26 32.4799 29.36 36.1199 32.82C39.7599 36.28 43.2899 37.07 47.7799 37.07Z" fill="url(#paint7_linear_1124_3074)"/>
<path d="M59.22 21.67C59.14 21.38 59.03 20.98 58.93 20.67C58.83 20.36 58.65 19.96 58.51 19.67C58.2247 19.0923 57.8901 18.5402 57.51 18.02C57.0776 17.4425 56.5885 16.9099 56.05 16.43C55.4824 15.931 54.8698 15.4858 54.22 15.1C53.97 14.94 53.63 14.76 53.37 14.63C53.11 14.5 52.88 14.4 52.67 14.31C52.1745 14.0943 51.667 13.9074 51.15 13.75C50.6569 13.6003 50.1562 13.4768 49.65 13.38C49.08 13.27 48.49 13.19 48.16 13.16L47.42 13.1H46.68H45.93C45.47 13.1 44.93 13.17 44.44 13.22C43.9322 13.2786 43.4281 13.3655 42.93 13.48L42.11 13.69L41.39 13.91C41.12 14 40.77 14.14 40.51 14.25L39.8 14.57C39.4898 14.7101 39.1892 14.8704 38.9 15.05C38.51 15.29 38 15.62 37.64 15.9C37.2454 16.2087 36.8712 16.5427 36.52 16.9C36.2249 17.1965 35.9477 17.5104 35.69 17.84C35.56 18.01 35.38 18.24 35.27 18.42C35.16 18.6 34.86 19.07 34.7 19.35C34.5365 19.6537 34.3929 19.9677 34.27 20.29C34.12 20.68 33.95 21.22 33.84 21.62C33.3 23.82 34.46 26.13 37.34 27.85C42.27 30.8 50.34 30.85 55.46 28.03C58.49 26.31 59.76 23.94 59.22 21.67Z" fill="url(#paint8_linear_1124_3074)"/>
<path d="M59.6899 26C59.7385 26.6064 59.6947 27.2167 59.5599 27.81C58.8745 29.6544 57.4918 31.1556 55.7099 31.99C51.6502 34.0164 47.039 34.6591 42.5799 33.82C41.1899 33.51 40.6699 33.39 39.9899 27.44C39.8899 25.77 40.4699 25.64 40.9899 25.73C45.3199 27.06 50.8299 26.73 54.5599 24.61C56.9999 23.25 58.1998 21.43 58.1498 19.61V19.49C58.2272 19.5192 58.2935 19.5716 58.3398 19.64C59.2103 21.6485 59.6693 23.8111 59.6899 26Z" fill="#003447"/>
<path d="M48.39 28.36C47.825 28.4692 47.3207 28.7845 46.9751 29.2447C46.6296 29.7048 46.4674 30.277 46.52 30.85C46.5224 31.0718 46.5458 31.2927 46.59 31.51C47.168 31.2984 47.7751 31.177 48.39 31.15C48.9958 31.1099 49.6041 31.1707 50.19 31.33C50.2395 31.1102 50.263 30.8853 50.26 30.66C50.26 29.34 49.43 28.3 48.39 28.36Z" fill="#00BBFF"/>
<path d="M55.7401 25.8C55.3636 26.2317 55.0992 26.7494 54.9701 27.3075C54.841 27.8656 54.8513 28.4469 55.0001 29C55.0387 29.1917 55.0956 29.3792 55.1701 29.56C55.4944 29.1106 55.8779 28.707 56.3101 28.36C56.6812 28.0533 57.1047 27.8162 57.5601 27.66C57.5482 27.4451 57.5215 27.2312 57.4801 27.02C57.1801 25.79 56.4201 25.26 55.7401 25.8Z" fill="#00BBFF"/>
<path d="M36.4699 38.88C36.8963 39.1727 37.2425 39.5679 37.4766 40.0291C37.7107 40.4904 37.8253 41.003 37.8099 41.52V42C37.8019 44.0156 37.5942 46.0254 37.1899 48C37.0336 48.7939 36.8332 49.5784 36.5899 50.35L33.9999 58.73C33.9693 58.8872 33.9014 59.0347 33.802 59.1601C33.7025 59.2856 33.5744 59.3853 33.4284 59.4509C33.2824 59.5166 33.1228 59.5462 32.9629 59.5374C32.8031 59.5285 32.6477 59.4814 32.5099 59.4C32.1807 59.1732 31.9207 58.8599 31.7583 58.4946C31.596 58.1293 31.5377 57.7263 31.5899 57.33L32.3099 51.25C32.6599 48.3 33.1199 45.41 33.7099 42.58L34.2299 40.07C34.4299 39.07 35.1099 38.54 35.9099 38.69C35.9999 38.81 36.2999 38.79 36.4699 38.88Z" fill="url(#paint9_linear_1124_3074)"/>
<path d="M37.11 37.41C36.852 37.2529 36.5673 37.1444 36.27 37.09C34.97 36.84 33.86 37.76 33.53 39.34L33.01 41.85C32.42 44.73 31.94 47.67 31.59 50.67L30.87 56.75C30.774 57.504 30.8863 58.2698 31.1948 58.9644C31.5033 59.659 31.9962 60.2558 32.62 60.69C32.8824 60.8516 33.1804 60.9462 33.4879 60.9655C33.7954 60.9849 34.1029 60.9284 34.3834 60.801C34.6639 60.6735 34.9088 60.4791 35.0965 60.2349C35.2843 59.9906 35.4091 59.7039 35.46 59.4L38 51C38.25 50.19 38.46 49.36 38.64 48.5C39.0578 46.4223 39.2755 44.3093 39.29 42.19V41.71C39.3185 40.8676 39.1337 40.0317 38.7525 39.2799C38.3714 38.5282 37.8064 37.8849 37.11 37.41ZM37.19 47.97C37.0337 48.7639 36.8334 49.5484 36.59 50.32L34 58.73C33.9694 58.8872 33.9016 59.0347 33.8021 59.1601C33.7027 59.2856 33.5746 59.3853 33.4286 59.451C33.2826 59.5166 33.1229 59.5462 32.9631 59.5374C32.8032 59.5285 32.6479 59.4814 32.51 59.4C32.1809 59.1732 31.9208 58.8599 31.7585 58.4946C31.5962 58.1293 31.5379 57.7263 31.59 57.33L32.31 51.25C32.66 48.3 33.12 45.41 33.71 42.58L34.23 40.07C34.43 39.07 35.11 38.54 35.91 38.69C35.97 38.81 36.26 38.79 36.43 38.88C36.8572 39.1721 37.2038 39.5671 37.438 40.0285C37.6722 40.4899 37.7864 41.0028 37.77 41.52V42C37.7752 44.0143 37.581 46.0241 37.19 48V47.97Z" fill="url(#paint10_linear_1124_3074)"/>
<path d="M38.6801 36.9999C38.4177 36.8517 38.1346 36.7438 37.8401 36.6799C37.5114 36.6013 37.1688 36.6013 36.8401 36.6799L35.2701 37.1099C35.5988 37.0317 35.9413 37.0317 36.2701 37.1099C36.5673 37.1643 36.852 37.2728 37.1101 37.4299C37.8083 37.9037 38.3752 38.5464 38.7581 39.2982C39.1411 40.0501 39.3275 40.8866 39.3001 41.7299V42.2099C39.2856 44.3292 39.0679 46.4422 38.6501 48.5199C38.4701 49.3799 38.2601 50.2099 38.0101 51.0199L35.4601 59.4199C35.3794 59.7702 35.2101 60.0939 34.9685 60.3601C34.7268 60.6262 34.421 60.8259 34.0801 60.9399L35.6401 60.5099C35.9775 60.3964 36.2799 60.1978 36.5181 59.9333C36.7564 59.6688 36.9224 59.3473 37.0001 58.9999L39.5501 50.5899C39.7901 49.7833 40.0001 48.9533 40.1801 48.0999C40.6072 46.0203 40.825 43.903 40.8301 41.7799V41.2999C40.8564 40.4611 40.6737 39.6289 40.2984 38.8783C39.9231 38.1277 39.3669 37.4822 38.6801 36.9999Z" fill="url(#paint11_linear_1124_3074)"/>
<path d="M80.07 20.41L79.99 20.51C79.5783 21.0439 79.0693 21.4952 78.49 21.84L78.74 21.59C79.2536 21.2839 79.7049 20.8836 80.07 20.41Z" fill="#36D954"/>
<path d="M81 18.7001V18.8101C81.2287 18.2506 81.3541 17.6543 81.37 17.05L81.46 16.7001C81.4349 17.3899 81.2788 18.0686 81 18.7001Z" fill="#5BF06D"/>
<path d="M81.3501 11.95L81.4501 11.61L81.4601 16.7L81.3701 17.05L81.3501 11.95Z" fill="#36D954"/>
<path d="M78.71 10.45L78.46 9.89996C80.1 8.94996 81.46 9.70995 81.46 11.6099L81.36 11.95C81.35 10.28 80.16 9.60997 78.71 10.45Z" fill="#36D954"/>
<path d="M79.4701 9.05001L80.5801 9.69003C80.2399 9.53381 79.8642 9.47093 79.4916 9.50784C79.1191 9.54474 78.7631 9.68009 78.4601 9.90002L77.3501 9.26003C77.6531 9.0401 78.0091 8.90473 78.3816 8.86782C78.7542 8.83092 79.1299 8.89379 79.4701 9.05001Z" fill="#16B333"/>
<path d="M78.7399 21.5901L78.4899 21.8401L70.1899 26.6401L70.2699 26.4901L78.7399 21.5901Z" fill="#36D954"/>
<path d="M67.47 32.49L66.36 31.85L66.26 27.63L67.37 28.27L67.47 32.49Z" fill="#16B333"/>
<path d="M68.0401 31.2701L67.4701 32.4901L67.3701 28.2701L67.9601 27.8201L68.0401 31.2701Z" fill="#36D954"/>
<path d="M67.9601 27.8201L67.3701 28.2701L65.8501 29.1401L66.1101 28.8901L67.9601 27.8201Z" fill="#36D954"/>
<path d="M63.74 29.35L62.63 28.71C62.3309 28.493 62.0934 28.2018 61.9409 27.8652C61.7883 27.5286 61.726 27.158 61.76 26.79L62.87 27.44C62.8316 27.807 62.892 28.1776 63.045 28.5135C63.198 28.8493 63.4379 29.1381 63.74 29.35Z" fill="#16B333"/>
<path d="M66.1101 28.89L65.8501 29.14C64.2101 30.09 62.8501 29.33 62.8501 27.44L63.4501 27.38C63.4701 29.05 64.6501 29.73 66.1101 28.89Z" fill="#36D954"/>
<path d="M63.4701 27.38L62.8701 27.44L62.8501 22.34L63.4501 22.29L63.4701 27.38Z" fill="#36D954"/>
<path d="M62.87 27.4401L61.76 26.8L61.75 21.7001L62.85 22.3401L62.87 27.4401Z" fill="#16B333"/>
<path d="M65.82 17.2L64.72 16.56L77.35 9.26001L78.46 9.89999L65.82 17.2Z" fill="#16B333"/>
<path d="M66.0701 17.74L65.8201 17.2L78.4601 9.90002L78.7101 10.45L66.0701 17.74Z" fill="#36D954"/>
<path d="M62.1599 19.7001C62.3927 19.1255 62.7059 18.5868 63.0899 18.1001H63.1699C62.7639 18.5864 62.4243 19.1244 62.1599 19.7001Z" fill="#16B333"/>
<path d="M78.7099 10.4501C80.1599 9.61006 81.3499 10.2801 81.3499 11.9501V17.05C81.3008 17.9606 81.0369 18.8466 80.5798 19.6357C80.1227 20.4247 79.4854 21.0944 78.7199 21.59L70.2499 26.49L67.9999 31.27L67.9199 27.8201L66.0699 28.8901C64.6099 29.7301 63.4299 29.0501 63.4299 27.3801V22.2901C63.4791 21.3781 63.743 20.4907 64.2 19.7001C64.657 18.9094 65.2943 18.2378 66.0599 17.74L78.7099 10.4501Z" fill="#5BF06D"/>
<path d="M63.4501 22.29H62.8501C62.9103 21.2576 63.2134 20.254 63.7347 19.3609C64.256 18.4677 64.9808 17.7102 65.8501 17.15L66.1101 17.69C65.3323 18.1893 64.685 18.8673 64.2223 19.6675C63.7596 20.4676 63.4949 21.3668 63.4501 22.29Z" fill="#36D954"/>
<path d="M62.85 22.3401L61.75 21.7001C61.8062 20.6667 62.1077 19.6616 62.6293 18.7678C63.151 17.874 63.8779 17.1172 64.75 16.5601L65.85 17.2001C64.9807 17.7603 64.2559 18.5177 63.7346 19.4109C63.2133 20.304 62.9102 21.3077 62.85 22.3401Z" fill="#16B333"/>
<path d="M1.40004 52.29L0.550049 51.8L27.95 35.98L28.8 36.47L1.40004 52.29Z" fill="#2E3344"/>
<path d="M1.44005 75.0601L0.590042 74.5701L0.550049 51.8L1.40004 52.2901L1.44005 75.0601Z" fill="#404040"/>
<path d="M1.40004 52.29L0.550049 51.8L0.540039 48.23L1.38005 48.72L1.40004 52.29Z" fill="#2AC1F7"/>
<path d="M1.38005 48.72L0.540039 48.23L27.94 32.41L28.79 32.9L1.38005 48.72Z" fill="#73D8FF"/>
<path d="M28.7901 32.9L28.8001 36.47L1.40012 52.29L1.38013 48.72L28.7901 32.9Z" fill="#45CEFF"/>
<path d="M28.8401 59.24L28.8002 36.47L1.40015 52.29L1.44016 75.06L28.8401 59.24Z" fill="#545454"/>
<path d="M6.24988 62.07L6.81989 62.4C6.76303 62.3694 6.69945 62.3533 6.63487 62.3533C6.57029 62.3533 6.50673 62.3694 6.44987 62.4L5.87988 62.07C5.93673 62.0394 6.0003 62.0233 6.06488 62.0233C6.12946 62.0233 6.19303 62.0394 6.24988 62.07Z" fill="#CBD2DE"/>
<path d="M4.14991 65L3.58992 64.67C3.53717 64.6339 3.49531 64.5841 3.46887 64.5259C3.44243 64.4677 3.43242 64.4034 3.43992 64.34L3.99992 64.66C3.99372 64.7247 4.00426 64.79 4.03053 64.8495C4.05679 64.9091 4.09789 64.9609 4.14991 65Z" fill="#CBD2DE"/>
<path d="M3.99994 64.7L3.43994 64.38V64.12L3.99994 64.45V64.7Z" fill="#CBD2DE"/>
<path d="M4.51996 63.55L3.94995 63.22L5.87996 62.11L6.44995 62.44L4.51996 63.55Z" fill="#CBD2DE"/>
<path d="M3.99994 64.45L3.42993 64.12C3.43986 63.9397 3.49212 63.7642 3.58246 63.6079C3.6728 63.4515 3.79869 63.3186 3.94994 63.22L4.51994 63.55C4.36869 63.6486 4.24279 63.7815 4.15245 63.9379C4.06211 64.0942 4.00987 64.2697 3.99994 64.45Z" fill="#CBD2DE"/>
<path d="M6.45 62.44C6.49967 62.3993 6.56045 62.3745 6.62442 62.3688C6.68839 62.3631 6.75261 62.3768 6.8087 62.4081C6.86479 62.4393 6.91017 62.4868 6.93893 62.5442C6.9677 62.6016 6.97853 62.6664 6.97 62.7301V63C6.96093 63.1792 6.90896 63.3535 6.81847 63.5084C6.72797 63.6633 6.60161 63.7942 6.45 63.8901L4.52 65C4.23 65.16 4 65.0001 4 64.7001V64.4501C4.00993 64.2697 4.06217 64.0943 4.15251 63.9379C4.24285 63.7816 4.36875 63.6487 4.52 63.55L6.45 62.44Z" fill="white"/>
<path d="M8.91005 60.5399L9.48004 60.8699C9.42414 60.8364 9.36021 60.8188 9.29504 60.8188C9.22988 60.8188 9.16595 60.8364 9.11005 60.8699L8.54004 60.5399C8.59594 60.5065 8.65989 60.4888 8.72505 60.4888C8.79021 60.4888 8.85415 60.5065 8.91005 60.5399Z" fill="#FF1F41"/>
<path d="M8.06004 62.78L7.50004 62.45C7.44646 62.4148 7.40393 62.3651 7.37739 62.3067C7.35085 62.2483 7.34138 62.1835 7.35005 62.12L7.91004 62.45C7.90464 62.5133 7.91559 62.5768 7.94186 62.6346C7.96813 62.6924 8.00883 62.7425 8.06004 62.78Z" fill="#FF1F41"/>
<path d="M7.90985 62.45L7.34985 62.12L7.33984 61.86L7.90985 62.19V62.45Z" fill="#FF1F41"/>
<path d="M8.42986 61.2999L7.85986 60.9699L8.53986 60.5699L9.10986 60.8999L8.42986 61.2999Z" fill="#FF1F41"/>
<path d="M7.9101 62.19L7.3501 61.86C7.35725 61.6815 7.40734 61.5075 7.49612 61.3525C7.58491 61.1976 7.70976 61.0664 7.86009 60.97L8.43008 61.3C8.27847 61.3958 8.15211 61.5267 8.06161 61.6816C7.97112 61.8365 7.91917 62.0108 7.9101 62.19Z" fill="#FF1F41"/>
<path d="M9.11015 60.8999C9.39015 60.7399 9.63016 60.9 9.63016 61.2V61.4599C9.6187 61.6385 9.56572 61.812 9.47545 61.9665C9.38518 62.121 9.2601 62.2523 9.11015 62.35L8.43015 62.7399C8.15015 62.9099 7.91016 62.74 7.91016 62.45V62.19C7.91923 62.0108 7.97118 61.8364 8.06168 61.6816C8.15217 61.5267 8.27853 61.3958 8.43015 61.2999L9.11015 60.8999Z" fill="#FF5F76"/>
<path d="M7.80019 58.21L8.36018 58.54C8.30428 58.5065 8.24035 58.4888 8.17519 58.4888C8.11002 58.4888 8.04609 58.5065 7.99019 58.54L7.43018 58.21C7.48607 58.1765 7.55003 58.1588 7.61519 58.1588C7.68035 58.1588 7.74429 58.1765 7.80019 58.21Z" fill="#FF8400"/>
<path d="M4.14006 62.07L3.58006 61.74C3.52811 61.7032 3.48685 61.6532 3.4605 61.5953C3.43415 61.5373 3.42364 61.4734 3.43006 61.41L3.99007 61.74C3.98466 61.8033 3.99561 61.8669 4.02188 61.9247C4.04815 61.9824 4.08885 62.0325 4.14006 62.07Z" fill="#FF8400"/>
<path d="M3.99019 61.74L3.43018 61.41V61.15L3.99019 61.48V61.74Z" fill="#FF8400"/>
<path d="M4.50993 60.58L3.93994 60.26L7.42993 58.24L7.98994 58.57L4.50993 60.58Z" fill="#FF8400"/>
<path d="M3.99994 61.48L3.43994 61.15C3.44872 60.9719 3.4995 60.7985 3.58813 60.6438C3.67677 60.4891 3.80075 60.3576 3.94994 60.26L4.51994 60.59C4.36833 60.6859 4.24197 60.8167 4.15147 60.9716C4.06098 61.1265 4.00901 61.3009 3.99994 61.48Z" fill="#FF8400"/>
<path d="M8.00015 58.57C8.29015 58.41 8.52015 58.57 8.52015 58.87V59.13C8.50907 59.3075 8.45729 59.4801 8.36886 59.6344C8.28043 59.7887 8.15769 59.9207 8.01014 60.02L4.52015 62.02C4.47048 62.0607 4.4097 62.0855 4.34573 62.0912C4.28176 62.0969 4.21754 62.0832 4.16145 62.052C4.10536 62.0207 4.05998 61.9732 4.03122 61.9158C4.00245 61.8584 3.99162 61.7937 4.00015 61.73V61.47C4.00922 61.2908 4.06119 61.1165 4.15168 60.9616C4.24217 60.8067 4.36854 60.6758 4.52015 60.58L8.00015 58.57Z" fill="#FFB30F"/>
<path d="M6.2301 56.14L6.80011 56.47C6.74421 56.4365 6.68027 56.4189 6.61511 56.4189C6.54995 56.4189 6.486 56.4365 6.4301 56.47L5.86011 56.14C5.91601 56.1066 5.97994 56.0889 6.0451 56.0889C6.11027 56.0889 6.1742 56.1066 6.2301 56.14Z" fill="#FF8400"/>
<path d="M4.14005 59.1001L3.57006 58.7701C3.5181 58.7332 3.47684 58.6833 3.45049 58.6253C3.42414 58.5673 3.41363 58.5034 3.42005 58.4401L3.98004 58.7701C3.97358 58.8345 3.98512 58.8994 4.01337 58.9577C4.04162 59.016 4.08546 59.0652 4.14005 59.1001Z" fill="#FF8400"/>
<path d="M3.97992 58.7701L3.41992 58.4401V58.1801L3.97992 58.5101V58.7701Z" fill="#FF8400"/>
<path d="M4.49994 57.62L3.92993 57.29L5.86993 56.17L6.42993 56.5L4.49994 57.62Z" fill="#FF8400"/>
<path d="M3.99994 58.51L3.43994 58.18C3.44872 58.002 3.4995 57.8285 3.58813 57.6738C3.67677 57.5191 3.80075 57.3876 3.94994 57.29L4.51994 57.62C4.36833 57.7159 4.24197 57.8468 4.15147 58.0016C4.06098 58.1565 4.00901 58.3309 3.99994 58.51Z" fill="#FF8400"/>
<path d="M6.42998 56.5001C6.71998 56.3401 6.94998 56.5 6.94998 56.8V57.06C6.93853 57.2386 6.88556 57.4121 6.79529 57.5666C6.70502 57.7211 6.57992 57.8524 6.42998 57.9501L4.49998 59.06C4.21998 59.23 3.98998 59.06 3.97998 58.77V58.5101C3.98905 58.3309 4.04102 58.1565 4.13152 58.0017C4.22201 57.8468 4.34837 57.7159 4.49998 57.62L6.42998 56.5001Z" fill="#FFB30F"/>
<path d="M11.87 55.86L12.43 56.19C12.376 56.1563 12.3136 56.1385 12.25 56.1385C12.1864 56.1385 12.124 56.1563 12.07 56.19L11.5 55.86C11.5559 55.8265 11.6198 55.8088 11.685 55.8088C11.7502 55.8088 11.8141 55.8265 11.87 55.86Z" fill="#CBD2DE"/>
<path d="M9.77009 58.82L9.21009 58.49C9.15551 58.4552 9.11165 58.4059 9.0834 58.3477C9.05515 58.2894 9.04363 58.2245 9.05009 58.16L9.62008 58.49C9.61366 58.5534 9.62417 58.6173 9.65052 58.6753C9.67687 58.7333 9.71813 58.7832 9.77009 58.82Z" fill="#CBD2DE"/>
<path d="M9.62004 58.49L9.05005 58.16V57.9L9.62004 58.23V58.49Z" fill="#CBD2DE"/>
<path d="M10.1301 57.34L9.57007 57.01L11.5001 55.89L12.0701 56.22L10.1301 57.34Z" fill="#CBD2DE"/>
<path d="M9.62004 58.23L9.05005 57.9C9.05912 57.7208 9.11108 57.5465 9.20157 57.3916C9.29206 57.2368 9.41844 57.1059 9.57005 57.01L10.1301 57.34C9.98086 57.4376 9.85687 57.5691 9.76823 57.7238C9.6796 57.8785 9.62882 58.0519 9.62004 58.23Z" fill="#CBD2DE"/>
<path d="M12.0701 56.22C12.3501 56.06 12.5801 56.22 12.5801 56.52V56.78C12.5706 56.9579 12.5194 57.1311 12.4309 57.2856C12.3423 57.4402 12.2188 57.5718 12.0701 57.67L10.1401 58.78C9.85012 58.95 9.62012 58.78 9.62012 58.49V58.23C9.62889 58.052 9.67967 57.8785 9.76831 57.7238C9.85695 57.5691 9.98094 57.4376 10.1301 57.34L12.0701 56.22Z" fill="white"/>
<path d="M25.37 45.09L25.93 45.4201C25.8741 45.3866 25.8102 45.3689 25.745 45.3689C25.6798 45.3689 25.6159 45.3866 25.56 45.4201L25 45.1C25.055 45.065 25.1184 45.0456 25.1836 45.0438C25.2488 45.0421 25.3132 45.058 25.37 45.09Z" fill="#FF8400"/>
<path d="M23.2699 48.05L22.6999 47.72C22.648 47.6832 22.6067 47.6332 22.5804 47.5753C22.554 47.5173 22.5435 47.4534 22.5499 47.39L23.1199 47.72C23.1135 47.7834 23.124 47.8473 23.1504 47.9052C23.1767 47.9632 23.218 48.0132 23.2699 48.05Z" fill="#FF8400"/>
<path d="M23.1198 47.72L22.5498 47.39V47.13L23.1198 47.46V47.72Z" fill="#FF8400"/>
<path d="M23.6298 46.57L23.0698 46.24L24.9998 45.13L25.5598 45.45L23.6298 46.57Z" fill="#FF8400"/>
<path d="M23.1198 47.46L22.5498 47.13C22.5613 46.9514 22.6142 46.778 22.7045 46.6235C22.7948 46.469 22.9199 46.3377 23.0698 46.24L23.6298 46.57C23.4806 46.6676 23.3566 46.7991 23.268 46.9538C23.1794 47.1085 23.1286 47.2819 23.1198 47.46Z" fill="#FF8400"/>
<path d="M25.5599 45.45C25.8499 45.29 26.0799 45.45 26.0799 45.75V46C26.0727 46.1784 26.0226 46.3525 25.9339 46.5074C25.8451 46.6624 25.7202 46.7936 25.5699 46.89L23.6399 48C23.3499 48.16 23.1199 48 23.1199 47.7V47.44C23.1286 47.2619 23.1794 47.0885 23.2681 46.9338C23.3567 46.7791 23.4807 46.6476 23.6299 46.55L25.5599 45.45Z" fill="#FFB30F"/>
<path d="M11.8602 52.89L12.4202 53.22C12.3662 53.1863 12.3039 53.1685 12.2402 53.1685C12.1766 53.1685 12.1142 53.1863 12.0602 53.22L11.4902 52.89C11.5461 52.8566 11.6101 52.8389 11.6752 52.8389C11.7404 52.8389 11.8043 52.8566 11.8602 52.89Z" fill="#FF8400"/>
<path d="M8.21012 56.7501L7.64011 56.4201C7.58815 56.3833 7.54689 56.3333 7.52054 56.2754C7.49419 56.2174 7.4837 56.1534 7.49012 56.0901L8.06011 56.4201C8.0526 56.4836 8.06261 56.5478 8.08905 56.606C8.1155 56.6642 8.15737 56.714 8.21012 56.7501Z" fill="#FF8400"/>
<path d="M8.06023 56.4201L7.49023 56.0901V55.8301L8.06023 56.1601V56.4201Z" fill="#FF8400"/>
<path d="M8.57001 55.2701L8 54.9401L11.49 52.9301L12.06 53.2501L8.57001 55.2701Z" fill="#FF8400"/>
<path d="M8.06023 56.1601L7.49023 55.83C7.4993 55.6509 7.55126 55.4766 7.64175 55.3217C7.73225 55.1668 7.85861 55.0359 8.01022 54.9401L8.57024 55.2701C8.41811 55.3645 8.29185 55.4953 8.20282 55.6506C8.11379 55.806 8.06479 55.9811 8.06023 56.1601Z" fill="#FF8400"/>
<path d="M12.0601 53.2501C12.3401 53.0901 12.5701 53.25 12.5801 53.55V53.81C12.5702 53.989 12.5179 54.163 12.4275 54.3178C12.337 54.4726 12.2111 54.6036 12.0601 54.7001L8.57007 56.7001C8.29007 56.8701 8.06006 56.7001 8.06006 56.4101V56.15C8.06463 55.971 8.11363 55.796 8.20265 55.6406C8.29168 55.4853 8.41794 55.3545 8.57007 55.2601L12.0601 53.2501Z" fill="#FFB30F"/>
<path d="M4.88002 53.94L5.45001 54.27C5.39316 54.2393 5.32959 54.2233 5.26501 54.2233C5.20044 54.2233 5.13687 54.2393 5.08002 54.27L4.51001 53.94C4.56686 53.9093 4.63044 53.8933 4.69502 53.8933C4.7596 53.8933 4.82317 53.9093 4.88002 53.94Z" fill="#FF1F41"/>
<path d="M4.13004 56.13L3.56003 55.8C3.50808 55.7631 3.46682 55.7132 3.44046 55.6552C3.41411 55.5972 3.40362 55.5333 3.41004 55.47L3.98003 55.8C3.97136 55.8635 3.98085 55.9282 4.00739 55.9866C4.03393 56.045 4.07645 56.0947 4.13004 56.13Z" fill="#FF1F41"/>
<path d="M3.98015 55.8L3.41016 55.47V55.21L3.97015 55.54L3.98015 55.8Z" fill="#FF1F41"/>
<path d="M4.48994 54.65L3.92993 54.32L4.50993 53.98L5.07994 54.31L4.48994 54.65Z" fill="#FF1F41"/>
<path d="M3.99994 55.5399L3.42993 55.2099C3.439 55.0308 3.49098 54.8564 3.58147 54.7016C3.67196 54.5467 3.79832 54.4158 3.94994 54.3199L4.50993 54.6499C4.3596 54.7463 4.23475 54.8776 4.14597 55.0325C4.05718 55.1874 4.00709 55.3615 3.99994 55.5399Z" fill="#FF1F41"/>
<path d="M5.07999 54.31C5.12966 54.2693 5.19044 54.2445 5.25441 54.2388C5.31838 54.2331 5.38258 54.2468 5.43867 54.2781C5.49477 54.3093 5.54016 54.3568 5.56892 54.4142C5.59769 54.4717 5.60852 54.5364 5.59999 54.6001V54.86C5.59092 55.0392 5.53895 55.2135 5.44846 55.3684C5.35796 55.5233 5.2316 55.6542 5.07999 55.75L4.49998 56.09C4.20998 56.26 3.97998 56.09 3.97998 55.8V55.5401C3.98713 55.3616 4.03722 55.1875 4.12601 55.0326C4.21479 54.8777 4.33966 54.7464 4.48999 54.65L5.07999 54.31Z" fill="#FF5F76"/>
<path d="M17.42 52.65L17.9901 52.98C17.9342 52.9466 17.8702 52.9289 17.805 52.9289C17.7399 52.9289 17.6759 52.9466 17.62 52.98L17.05 52.65C17.1063 52.6176 17.1701 52.6005 17.235 52.6005C17.3 52.6005 17.3638 52.6176 17.42 52.65Z" fill="#CBD2DE"/>
<path d="M13.8401 56.4701L13.2801 56.1401C13.2265 56.1048 13.184 56.0551 13.1574 55.9967C13.1309 55.9383 13.1214 55.8736 13.1301 55.8101L13.6901 56.1401C13.6847 56.2033 13.6956 56.2669 13.7219 56.3247C13.7482 56.3825 13.7889 56.4325 13.8401 56.4701Z" fill="#CBD2DE"/>
<path d="M13.6901 56.1401L13.1301 55.8101V55.55L13.6901 55.8801V56.1401Z" fill="#CBD2DE"/>
<path d="M14.2101 54.9901L13.6401 54.6601L17.0501 52.6901L17.6201 53.0201L14.2101 54.9901Z" fill="#CBD2DE"/>
<path d="M13.6901 55.88L13.1201 55.55C13.1292 55.3709 13.1812 55.1965 13.2717 55.0417C13.3621 54.8868 13.4885 54.7559 13.6401 54.66L14.2101 54.99C14.0585 55.0859 13.9321 55.2168 13.8416 55.3716C13.7512 55.5265 13.6992 55.7009 13.6901 55.88Z" fill="#CBD2DE"/>
<path d="M17.6202 53.0001C17.9002 52.8301 18.1402 53.0001 18.1402 53.2901V53.55C18.1311 53.7292 18.0791 53.9036 17.9886 54.0584C17.8982 54.2133 17.7718 54.3442 17.6202 54.4401L14.2102 56.4401C13.9202 56.6101 13.6902 56.4401 13.6902 56.1501V55.8901C13.6993 55.7109 13.7512 55.5366 13.8417 55.3817C13.9322 55.2268 14.0586 55.0959 14.2102 55.0001L17.6202 53.0001Z" fill="white"/>
<path d="M21.3002 47.44L21.8702 47.77C21.8143 47.7365 21.7503 47.7188 21.6852 47.7188C21.62 47.7188 21.5561 47.7365 21.5002 47.77L20.9302 47.44C20.9861 47.4065 21.05 47.3888 21.1152 47.3888C21.1803 47.3888 21.2443 47.4065 21.3002 47.44Z" fill="#CBD2DE"/>
<path d="M13.8301 53.5L13.2701 53.17C13.2165 53.1347 13.174 53.085 13.1474 53.0266C13.1209 52.9682 13.1114 52.9035 13.1201 52.84L13.6801 53.17C13.6736 53.2333 13.6842 53.2973 13.7105 53.3552C13.7369 53.4132 13.7781 53.4631 13.8301 53.5Z" fill="#CBD2DE"/>
<path d="M13.6801 53.17L13.1201 52.84V52.58L13.6801 52.91V53.17Z" fill="#CBD2DE"/>
<path d="M14.2001 52.02L13.6301 51.69L20.9301 47.48L21.5001 47.8L14.2001 52.02Z" fill="#CBD2DE"/>
<path d="M13.6801 52.9099L13.1201 52.5799C13.1289 52.4019 13.1797 52.2284 13.2683 52.0737C13.3569 51.919 13.4809 51.7875 13.6301 51.6899L14.2001 52.0199C14.0485 52.1158 13.9221 52.2467 13.8316 52.4016C13.7412 52.5564 13.6892 52.7308 13.6801 52.9099Z" fill="#CBD2DE"/>
<path d="M21.5002 47.8C21.7802 47.64 22.0102 47.8 22.0202 48.1V48.36C22.0087 48.5385 21.9558 48.712 21.8655 48.8665C21.7752 49.021 21.6501 49.1523 21.5002 49.25L14.2002 53.46C13.9202 53.63 13.6802 53.46 13.6802 53.17V52.91C13.6892 52.7308 13.7412 52.5565 13.8317 52.4016C13.9222 52.2467 14.0486 52.1158 14.2002 52.02L21.5002 47.8Z" fill="white"/>
<path d="M26.66 59.62L26.02 59.25L26.91 59.64L27.55 60.01L26.66 59.62Z" fill="#CBD2DE"/>
<path d="M22.5902 66.23L21.9502 65.86L21.6902 64.67L22.3302 65.05L22.5902 66.23Z" fill="#CBD2DE"/>
<path d="M22.0001 62.8401L21.3601 62.4701C21.5618 62.564 21.7849 62.6025 22.0064 62.5814C22.2279 62.5603 22.4398 62.4804 22.6201 62.3501L23.2701 62.7201C23.0887 62.8523 22.875 62.9332 22.6516 62.9543C22.4281 62.9754 22.2031 62.936 22.0001 62.8401Z" fill="#CBD2DE"/>
<mask id="mask0_1124_3074" style="mask-type:luminance" maskUnits="userSpaceOnUse" x="21" y="62" width="3" height="1">
<path d="M22.0001 62.8401L21.3601 62.4701C21.5618 62.564 21.7849 62.6025 22.0064 62.5814C22.2279 62.5603 22.4398 62.4804 22.6201 62.3501L23.2701 62.7201C23.0887 62.8523 22.875 62.9332 22.6516 62.9543C22.4281 62.9754 22.2031 62.936 22.0001 62.8401Z" fill="white"/>
</mask>
<g mask="url(#mask0_1124_3074)">
<path d="M22.0001 62.8401L21.3601 62.4701C21.5618 62.564 21.7849 62.6025 22.0064 62.5814C22.2279 62.5603 22.4398 62.4804 22.6201 62.3501L23.2701 62.7201C23.0898 62.8504 22.8779 62.9303 22.6564 62.9514C22.4349 62.9725 22.2118 62.934 22.0101 62.8401H22.0001Z" fill="#CBD2DE"/>
</g>
<path d="M23.9001 58.14L24.5502 58.51C24.7268 58.6347 24.8671 58.8042 24.9567 59.001C25.0463 59.1978 25.082 59.4149 25.0602 59.63C25.0315 60.2449 24.8581 60.8443 24.554 61.3795C24.2499 61.9148 23.8237 62.3706 23.3102 62.71L22.6602 62.34C23.1761 62.0023 23.6047 61.5471 23.9106 61.0117C24.2166 60.4763 24.3912 59.876 24.4202 59.26C24.442 59.0438 24.4053 58.8257 24.3138 58.6287C24.2223 58.4316 24.0794 58.2628 23.9001 58.14Z" fill="#CBD2DE"/>
<mask id="mask1_1124_3074" style="mask-type:luminance" maskUnits="userSpaceOnUse" x="22" y="58" width="4" height="5">
<path d="M23.9001 58.14L24.5502 58.51C24.7268 58.6347 24.8671 58.8042 24.9567 59.001C25.0463 59.1978 25.082 59.4149 25.0602 59.63C25.0315 60.2449 24.8581 60.8443 24.554 61.3795C24.2499 61.9148 23.8237 62.3706 23.3102 62.71L22.6602 62.34C23.1761 62.0023 23.6047 61.5471 23.9106 61.0117C24.2166 60.4763 24.3912 59.876 24.4202 59.26C24.442 59.0438 24.4053 58.8257 24.3138 58.6287C24.2223 58.4316 24.0794 58.2628 23.9001 58.14Z" fill="white"/>
</mask>
<g mask="url(#mask1_1124_3074)">
<path d="M23.3102 62.71L22.6602 62.34C23.1761 62.0023 23.6047 61.5471 23.9106 61.0117C24.2166 60.4763 24.3912 59.876 24.4202 59.26C24.442 59.0438 24.4053 58.8257 24.3138 58.6287C24.2223 58.4316 24.0794 58.2628 23.9001 58.14L24.5502 58.51C24.7268 58.6347 24.8671 58.8042 24.9567 59.001C25.0463 59.1978 25.082 59.4149 25.0602 59.63C25.0315 60.2449 24.8581 60.8443 24.554 61.3795C24.2499 61.9148 23.8237 62.3706 23.3102 62.71Z" fill="#CBD2DE"/>
</g>
<path d="M25.63 56.4101L24.99 56.0401L26.11 54.9501L26.75 55.33L25.63 56.4101Z" fill="#CBD2DE"/>
<path d="M24.2401 56.31L23.6001 55.93C24.0599 55.7837 24.5572 55.8085 25.0001 56L25.6401 56.37C25.1959 56.1818 24.6987 56.1605 24.2401 56.31Z" fill="#CBD2DE"/>
<mask id="mask2_1124_3074" style="mask-type:luminance" maskUnits="userSpaceOnUse" x="23" y="55" width="3" height="2">
<path d="M24.2401 56.31L23.6001 55.93C24.0599 55.7837 24.5572 55.8085 25.0001 56L25.6401 56.37C25.1959 56.1818 24.6987 56.1605 24.2401 56.31Z" fill="white"/>
</mask>
<g mask="url(#mask2_1124_3074)">
<path d="M24.2401 56.31L23.6001 55.93C24.0599 55.7837 24.5572 55.8085 25.0001 56L25.6401 56.37C25.2037 56.1711 24.7104 56.1356 24.2501 56.27L24.2401 56.31Z" fill="#CBD2DE"/>
</g>
<path d="M19.8202 66L19.1802 65.63C18.8455 65.3671 18.5839 65.0228 18.4202 64.63L19.0602 65.01C19.2269 65.3983 19.4881 65.7386 19.8202 66Z" fill="#CBD2DE"/>
<mask id="mask3_1124_3074" style="mask-type:luminance" maskUnits="userSpaceOnUse" x="18" y="64" width="2" height="2">
<path d="M19.8202 66L19.1802 65.63C18.8455 65.3671 18.5839 65.0228 18.4202 64.63L19.0602 65.01C19.2269 65.3983 19.4881 65.7386 19.8202 66Z" fill="white"/>
</mask>
<g mask="url(#mask3_1124_3074)">
<path d="M19.8202 66L19.1802 65.63C18.8455 65.3671 18.5839 65.0228 18.4202 64.63L19.0602 65.01C19.2254 65.4019 19.4868 65.7459 19.8202 66.01V66Z" fill="#CBD2DE"/>
</g>
<path d="M19.0602 64.9901L18.4202 64.61L19.2902 63.1901L19.9302 63.5601L19.0602 64.9901Z" fill="#CBD2DE"/>
<path d="M19.9302 63.5601L19.2902 63.1901C19.2244 62.9081 19.1909 62.6196 19.1902 62.3301C19.1909 61.9952 19.2176 61.6608 19.2702 61.3301L19.9202 61.7001C19.8596 62.03 19.8295 62.3647 19.8302 62.7001C19.8309 62.9896 19.8644 63.2781 19.9302 63.5601Z" fill="#CBD2DE"/>
<mask id="mask4_1124_3074" style="mask-type:luminance" maskUnits="userSpaceOnUse" x="19" y="61" width="1" height="3">
<path d="M19.9302 63.5601L19.2902 63.1901C19.2244 62.9081 19.1909 62.6196 19.1902 62.3301C19.1909 61.9952 19.2176 61.6608 19.2702 61.3301L19.9202 61.7001C19.8596 62.03 19.8295 62.3647 19.8302 62.7001C19.8309 62.9896 19.8644 63.2781 19.9302 63.5601Z" fill="white"/>
</mask>
<g mask="url(#mask4_1124_3074)">
<path d="M19.9302 63.5601L19.2902 63.1901C19.2244 62.9081 19.1909 62.6196 19.1902 62.3301C19.1909 61.9952 19.2176 61.6608 19.2702 61.3301L19.9202 61.7001C19.8596 62.03 19.8295 62.3647 19.8302 62.7001C19.8309 62.9896 19.8644 63.2781 19.9302 63.5601Z" fill="#CBD2DE"/>
</g>
<path d="M20.89 59.1901L20.25 58.8201C20.6224 58.1814 21.0836 57.5989 21.62 57.0901L22.26 57.4701C21.7238 57.9753 21.2625 58.5545 20.89 59.1901Z" fill="#CBD2DE"/>
<mask id="mask5_1124_3074" style="mask-type:luminance" maskUnits="userSpaceOnUse" x="20" y="57" width="3" height="3">
<path d="M20.89 59.1901L20.25 58.8201C20.6224 58.1814 21.0836 57.5989 21.62 57.0901L22.26 57.4701C21.7238 57.9753 21.2625 58.5545 20.89 59.1901Z" fill="white"/>
</mask>
<g mask="url(#mask5_1124_3074)">
<path d="M20.89 59.1901L20.25 58.8201C20.6224 58.1814 21.0836 57.5989 21.62 57.0901L22.26 57.4701C21.7238 57.9753 21.2625 58.5545 20.89 59.1901Z" fill="#CBD2DE"/>
</g>
<path d="M22.4901 56L21.8501 55.63C22.085 55.4418 22.336 55.2745 22.6001 55.13C22.8275 54.9954 23.0648 54.8784 23.3101 54.78L23.9501 55.15C23.7048 55.2484 23.4675 55.3654 23.2401 55.5C22.9818 55.6539 22.7315 55.8208 22.4901 56Z" fill="#CBD2DE"/>
<mask id="mask6_1124_3074" style="mask-type:luminance" maskUnits="userSpaceOnUse" x="21" y="54" width="3" height="2">
<path d="M22.4901 56L21.8501 55.63C22.085 55.4418 22.336 55.2745 22.6001 55.13C22.8275 54.9954 23.0648 54.8784 23.3101 54.78L23.9501 55.15C23.7048 55.2484 23.4675 55.3654 23.2401 55.5C22.9818 55.6539 22.7315 55.8208 22.4901 56Z" fill="white"/>
</mask>
<g mask="url(#mask6_1124_3074)">
<path d="M22.4901 56L21.8501 55.63C22.085 55.4418 22.336 55.2745 22.6001 55.13C22.8275 54.9954 23.0648 54.8784 23.3101 54.78L23.9501 55.15C23.7048 55.2484 23.4675 55.3654 23.2401 55.5C22.9818 55.6539 22.7315 55.8208 22.4901 56Z" fill="#CBD2DE"/>
</g>
<path d="M22.2601 57.47L21.6201 57.09L21.8501 55.62L22.4901 55.99L22.2601 57.47Z" fill="#CBD2DE"/>
<path d="M19.7601 59.4301L19.1101 59.0601L20.2501 58.8201L20.8901 59.1901L19.7601 59.4301Z" fill="#CBD2DE"/>
<path d="M19.0001 61.3401L18.3501 60.9701C18.5311 60.3113 18.7756 59.6716 19.0801 59.0601L19.7301 59.4301C19.423 60.0405 19.1784 60.6804 19.0001 61.3401Z" fill="#CBD2DE"/>
<mask id="mask7_1124_3074" style="mask-type:luminance" maskUnits="userSpaceOnUse" x="18" y="59" width="2" height="3">
<path d="M19.0001 61.3401L18.3501 60.9701C18.5311 60.3113 18.7756 59.6716 19.0801 59.0601L19.7301 59.4301C19.423 60.0405 19.1784 60.6804 19.0001 61.3401Z" fill="white"/>
</mask>
<g mask="url(#mask7_1124_3074)">
<path d="M19.0001 61.3401L18.3501 60.9701C18.5311 60.3113 18.7756 59.6716 19.0801 59.0601L19.7301 59.4301C19.423 60.0405 19.1784 60.6804 19.0001 61.3401Z" fill="#CBD2DE"/>
</g>
<path d="M26.66 59.62L27.55 60.01C27.3717 60.6697 27.1272 61.3096 26.82 61.92L25.69 62.16C25.3134 62.7955 24.8488 63.3746 24.31 63.88L24.08 65.36C23.8421 65.5392 23.5951 65.7061 23.34 65.86C23.1104 65.9875 22.8733 66.1011 22.63 66.2L22.37 65.02C21.9078 65.1443 21.4169 65.1055 20.98 64.91L19.82 66C19.4867 65.7358 19.2253 65.3919 19.06 65L19.93 63.57C19.8643 63.288 19.8308 62.9995 19.83 62.71C19.8293 62.3746 19.8594 62.0399 19.92 61.71L19.03 61.32C19.2083 60.6603 19.4529 60.0204 19.76 59.41L20.89 59.17C21.2625 58.5344 21.7238 57.9552 22.26 57.45L22.49 55.97C22.7314 55.7907 22.9817 55.6239 23.24 55.47C23.4674 55.3354 23.7048 55.2183 23.95 55.12L24.21 56.31C24.6704 56.1756 25.1637 56.2111 25.6 56.41L26.72 55.33C27.0547 55.5929 27.3163 55.9372 27.48 56.33L26.61 57.75C26.6758 58.032 26.7093 58.3205 26.71 58.61C26.7248 58.9475 26.708 59.2856 26.66 59.62ZM23.31 62.71C23.8236 62.3706 24.2498 61.9148 24.5538 61.3795C24.8579 60.8443 25.0314 60.2449 25.06 59.63C25.06 58.52 24.26 58.07 23.28 58.63C22.7652 58.9689 22.3375 59.4244 22.0317 59.9595C21.7259 60.4947 21.5506 61.0944 21.52 61.71C21.52 62.82 22.33 63.27 23.3 62.71H23.31Z" fill="white"/>
<path d="M18.2201 61.34L17.5801 60.97L18.1401 61.21L18.7801 61.59L18.2201 61.34Z" fill="#CBD2DE"/>
<path d="M15.6501 65.52L15.0101 65.15L14.8401 64.4L15.4901 64.77L15.6501 65.52Z" fill="#CBD2DE"/>
<path d="M15.54 62.9101L15.03 62.61C15.1165 62.6501 15.2119 62.6666 15.3068 62.6578C15.4016 62.649 15.4924 62.6153 15.57 62.5601L16.08 62.8501C16.0034 62.9069 15.913 62.9424 15.8181 62.9529C15.7233 62.9635 15.6273 62.9487 15.54 62.9101Z" fill="#CBD2DE"/>
<mask id="mask8_1124_3074" style="mask-type:luminance" maskUnits="userSpaceOnUse" x="15" y="62" width="2" height="1">
<path d="M15.54 62.9101L15.03 62.61C15.1165 62.6501 15.2119 62.6666 15.3068 62.6578C15.4016 62.649 15.4924 62.6153 15.57 62.5601L16.08 62.8501C16.0034 62.9069 15.913 62.9424 15.8181 62.9529C15.7233 62.9635 15.6273 62.9487 15.54 62.9101Z" fill="white"/>
</mask>
<g mask="url(#mask8_1124_3074)">
<path d="M15.54 62.9101L15.03 62.61C15.1165 62.6501 15.2119 62.6666 15.3068 62.6578C15.4016 62.649 15.4924 62.6153 15.57 62.5601L16.08 62.8501C16.0024 62.9053 15.9116 62.939 15.8168 62.9478C15.7219 62.9565 15.6264 62.9401 15.54 62.9001V62.9101Z" fill="#CBD2DE"/>
</g>
<path d="M16.1001 60.76L16.6101 61.06C16.6881 61.1119 16.7506 61.1838 16.7911 61.2683C16.8316 61.3528 16.8485 61.4467 16.8401 61.54C16.8256 61.8028 16.7492 62.0584 16.6171 62.2861C16.485 62.5138 16.301 62.707 16.0801 62.85L15.5701 62.56C15.7901 62.4137 15.9733 62.2183 16.1051 61.9893C16.237 61.7603 16.314 61.5038 16.3301 61.24C16.3375 61.1468 16.3201 61.0533 16.2797 60.969C16.2393 60.8847 16.1773 60.8126 16.1001 60.76Z" fill="#CBD2DE"/>
<mask id="mask9_1124_3074" style="mask-type:luminance" maskUnits="userSpaceOnUse" x="15" y="60" width="2" height="3">
<path d="M16.1001 60.76L16.6101 61.06C16.6881 61.1119 16.7506 61.1838 16.7911 61.2683C16.8316 61.3528 16.8485 61.4467 16.8401 61.54C16.8256 61.8028 16.7492 62.0584 16.6171 62.2861C16.485 62.5138 16.301 62.707 16.0801 62.85L15.5701 62.56C15.7901 62.4137 15.9733 62.2183 16.1051 61.9893C16.237 61.7603 16.314 61.5038 16.3301 61.24C16.3375 61.1468 16.3201 61.0533 16.2797 60.969C16.2393 60.8847 16.1773 60.8126 16.1001 60.76Z" fill="white"/>
</mask>
<g mask="url(#mask9_1124_3074)">
<path d="M16.0801 62.85L15.5701 62.56C15.7901 62.4137 15.9733 62.2183 16.1051 61.9893C16.237 61.7603 16.314 61.5038 16.3301 61.24C16.3375 61.1468 16.3201 61.0533 16.2797 60.969C16.2393 60.8847 16.1773 60.8126 16.1001 60.76L16.6101 61.06C16.6881 61.1119 16.7506 61.1838 16.7911 61.2683C16.8316 61.3528 16.8485 61.4467 16.8401 61.54C16.8256 61.8028 16.7492 62.0584 16.6171 62.2861C16.485 62.5138 16.301 62.707 16.0801 62.85Z" fill="#CBD2DE"/>
</g>
<path d="M17.5699 59.31L16.9299 58.94L17.6399 58.25L18.2799 58.63L17.5699 59.31Z" fill="#CBD2DE"/>
<path d="M16.69 59.2501L16.05 58.87C16.3426 58.79 16.6538 58.8148 16.93 58.9401L17.5701 59.3101C17.294 59.1829 16.9808 59.1615 16.69 59.2501Z" fill="#CBD2DE"/>
<mask id="mask10_1124_3074" style="mask-type:luminance" maskUnits="userSpaceOnUse" x="16" y="58" width="2" height="2">
<path d="M16.69 59.2501L16.05 58.87C16.3426 58.79 16.6538 58.8148 16.93 58.9401L17.5701 59.3101C17.294 59.1829 16.9808 59.1615 16.69 59.2501Z" fill="white"/>
</mask>
<g mask="url(#mask10_1124_3074)">
<path d="M16.69 59.2501L16.05 58.87C16.3426 58.79 16.6538 58.8148 16.93 58.9401L17.5701 59.3101C17.294 59.1829 16.9808 59.1615 16.69 59.2501Z" fill="#CBD2DE"/>
</g>
<path d="M13.9 65.39L13.25 65.02C13.0376 64.8434 12.8726 64.6165 12.77 64.36L13.42 64.73C13.5155 64.9904 13.6817 65.219 13.9 65.39Z" fill="#CBD2DE"/>
<mask id="mask11_1124_3074" style="mask-type:luminance" maskUnits="userSpaceOnUse" x="12" y="64" width="2" height="2">
<path d="M13.9 65.39L13.25 65.02C13.0376 64.8434 12.8726 64.6165 12.77 64.36L13.42 64.73C13.5155 64.9904 13.6817 65.219 13.9 65.39Z" fill="white"/>
</mask>
<g mask="url(#mask11_1124_3074)">
<path d="M13.9 65.39L13.25 65.02C13.0376 64.8434 12.8726 64.6165 12.77 64.36L13.42 64.73C13.5155 64.9904 13.6817 65.219 13.9 65.39Z" fill="#CBD2DE"/>
</g>
<path d="M13.42 64.73L12.78 64.36L13.33 63.46L13.97 63.83L13.42 64.73Z" fill="#CBD2DE"/>
<path d="M14 63.83L13.36 63.4601C13.3152 63.2835 13.2917 63.1022 13.29 62.9201C13.2907 62.712 13.3108 62.5044 13.3501 62.3L13.9901 62.6801C13.9508 62.881 13.9307 63.0853 13.93 63.2901C13.936 63.4719 13.9594 63.6527 14 63.83Z" fill="#CBD2DE"/>
<mask id="mask12_1124_3074" style="mask-type:luminance" maskUnits="userSpaceOnUse" x="13" y="62" width="1" height="2">
<path d="M14 63.83L13.36 63.4601C13.3152 63.2835 13.2917 63.1022 13.29 62.9201C13.2907 62.712 13.3108 62.5044 13.3501 62.3L13.9901 62.6801C13.9508 62.881 13.9307 63.0853 13.93 63.2901C13.936 63.4719 13.9594 63.6527 14 63.83Z" fill="white"/>
</mask>
<g mask="url(#mask12_1124_3074)">
<path d="M14 63.83L13.36 63.4601C13.3152 63.2835 13.2917 63.1022 13.29 62.9201C13.2907 62.712 13.3108 62.5044 13.3501 62.3L13.9901 62.6801C13.9508 62.881 13.9307 63.0853 13.93 63.2901C13.936 63.4719 13.9594 63.6527 14 63.83Z" fill="#CBD2DE"/>
</g>
<path d="M14.5699 61.07L13.9299 60.7C14.164 60.2954 14.4572 59.9279 14.7999 59.61L15.4399 59.98C15.0996 60.3001 14.8066 60.6671 14.5699 61.07Z" fill="#CBD2DE"/>
<mask id="mask13_1124_3074" style="mask-type:luminance" maskUnits="userSpaceOnUse" x="13" y="59" width="3" height="3">
<path d="M14.5699 61.07L13.9299 60.7C14.164 60.2954 14.4572 59.9279 14.7999 59.61L15.4399 59.98C15.0996 60.3001 14.8066 60.6671 14.5699 61.07Z" fill="white"/>
</mask>
<g mask="url(#mask13_1124_3074)">
<path d="M14.5699 61.07L13.9299 60.7C14.164 60.2954 14.4572 59.9279 14.7999 59.61L15.4399 59.98C15.0996 60.3001 14.8066 60.6671 14.5699 61.07Z" fill="#CBD2DE"/>
</g>
<path d="M15.59 59.05L14.95 58.68C15.0978 58.5609 15.255 58.4539 15.42 58.36C15.5659 58.2786 15.7161 58.2052 15.8699 58.14L16.5099 58.52C16.3543 58.5811 16.2038 58.6547 16.06 58.74C15.8953 58.8307 15.7382 58.9344 15.59 59.05Z" fill="#CBD2DE"/>
<mask id="mask14_1124_3074" style="mask-type:luminance" maskUnits="userSpaceOnUse" x="14" y="58" width="3" height="2">
<path d="M15.59 59.05L14.95 58.68C15.0978 58.5609 15.255 58.4539 15.42 58.36C15.5659 58.2786 15.7161 58.2052 15.8699 58.14L16.5099 58.52C16.3543 58.5811 16.2038 58.6547 16.06 58.74C15.8953 58.8307 15.7382 58.9344 15.59 59.05Z" fill="white"/>
</mask>
<g mask="url(#mask14_1124_3074)">
<path d="M15.59 59.05L14.95 58.68C15.0978 58.5609 15.255 58.4539 15.42 58.36C15.5659 58.2786 15.7161 58.2052 15.8699 58.14L16.5099 58.52C16.3543 58.5811 16.2038 58.6547 16.06 58.74C15.895 58.8339 15.7378 58.9409 15.59 59.06V59.05Z" fill="#CBD2DE"/>
</g>
<path d="M15.44 59.9799L14.8 59.6099L14.95 58.6799L15.59 59.0499L15.44 59.9799Z" fill="#CBD2DE"/>
<path d="M13.86 61.2199L13.22 60.8499L13.93 60.7L14.57 61.0699L13.86 61.2199Z" fill="#CBD2DE"/>
<path d="M13.39 62.43L12.75 62.06C12.8647 61.643 13.0188 61.2379 13.21 60.85L13.86 61.22C13.6613 61.6057 13.5038 62.0112 13.39 62.43Z" fill="#CBD2DE"/>
<mask id="mask15_1124_3074" style="mask-type:luminance" maskUnits="userSpaceOnUse" x="12" y="60" width="2" height="3">
<path d="M13.39 62.43L12.75 62.06C12.8647 61.643 13.0188 61.2379 13.21 60.85L13.86 61.22C13.6613 61.6057 13.5038 62.0112 13.39 62.43Z" fill="white"/>
</mask>
<g mask="url(#mask15_1124_3074)">
<path d="M13.39 62.43L12.75 62.06C12.8647 61.643 13.0188 61.2379 13.21 60.85L13.86 61.22C13.6613 61.6057 13.5038 62.0112 13.39 62.43Z" fill="#CBD2DE"/>
</g>
<path d="M18.2199 61.34L18.7799 61.59C18.6679 62.0046 18.5138 62.4067 18.3199 62.79L17.6099 62.95C17.3701 63.3507 17.0775 63.7173 16.7399 64.04L16.5899 64.97C16.4396 65.0857 16.2827 65.1926 16.1199 65.29C15.9795 65.3753 15.8324 65.4488 15.6799 65.51L15.5199 64.76C15.2287 64.844 14.9171 64.8228 14.6399 64.7L13.9299 65.38C13.7116 65.209 13.5454 64.9804 13.4499 64.72L13.9999 63.82C13.9593 63.6427 13.9358 63.4618 13.9299 63.28C13.9305 63.0752 13.9506 62.871 13.9899 62.67L13.4199 62.42C13.5337 62.0013 13.6912 61.5957 13.8899 61.21L14.5999 61.06C14.8366 60.6571 15.1295 60.2901 15.4699 59.97L15.6199 59.04C15.7678 58.9209 15.9249 58.8139 16.0899 58.72C16.2338 58.6347 16.3842 58.5611 16.5399 58.5L16.6999 59.25C16.9907 59.1615 17.3039 59.1828 17.5799 59.31L18.2899 58.63C18.5029 58.802 18.6682 59.0258 18.7699 59.28L18.2199 60.19C18.2619 60.3669 18.282 60.5482 18.2799 60.73C18.2844 60.935 18.2643 61.1398 18.2199 61.34ZM16.0799 62.85C16.3009 62.707 16.4849 62.5138 16.617 62.2861C16.749 62.0584 16.8254 61.8028 16.8399 61.54C16.8399 61.06 16.4899 60.87 16.0699 61.11C15.8495 61.2551 15.6666 61.4504 15.5363 61.6798C15.4059 61.9093 15.3318 62.1664 15.3199 62.43C15.3199 62.91 15.6599 63.1 16.0799 62.86V62.85Z" fill="white"/>
<defs>
<linearGradient id="paint0_linear_1124_3074" x1="20.6801" y1="83.8099" x2="59.8501" y2="83.8099" gradientUnits="userSpaceOnUse">
<stop offset="0.52" stop-color="#9C9CD8"/>
<stop offset="0.6" stop-color="#C1C1E8"/>
</linearGradient>
<linearGradient id="paint1_linear_1124_3074" x1="41.6701" y1="74.84" x2="37.2501" y2="67.19" gradientUnits="userSpaceOnUse">
<stop offset="0.03" stop-color="#B5B5E8"/>
<stop offset="0.57" stop-color="#9595D4"/>
</linearGradient>
<linearGradient id="paint2_linear_1124_3074" x1="6.17993" y1="79.56" x2="56.1799" y2="-7.04997" gradientUnits="userSpaceOnUse">
<stop offset="0.4" stop-color="#7070BD"/>
<stop offset="0.44" stop-color="#8D8DC6"/>
</linearGradient>
<linearGradient id="paint3_linear_1124_3074" x1="63.9399" y1="48.83" x2="53.6899" y2="31.08" gradientUnits="userSpaceOnUse">
<stop offset="0.73" stop-color="#D7D8E8"/>
<stop offset="0.93" stop-color="#EAE9F2"/>
</linearGradient>
<linearGradient id="paint4_linear_1124_3074" x1="34.77" y1="47.2" x2="58.31" y2="47.2" gradientUnits="userSpaceOnUse">
<stop offset="0.37" stop-color="#CACCDE"/>
<stop offset="0.97" stop-color="#EAE9F2"/>
</linearGradient>
<linearGradient id="paint5_linear_1124_3074" x1="42.3001" y1="45.7499" x2="51.2401" y2="30.2699" gradientUnits="userSpaceOnUse">
<stop stop-color="#CACCDE"/>
<stop offset="0.56" stop-color="#EAE9F2"/>
</linearGradient>
<linearGradient id="paint6_linear_1124_3074" x1="44.7201" y1="35.3" x2="62.9201" y2="35.3" gradientUnits="userSpaceOnUse">
<stop offset="0.24" stop-color="#A8A4B5"/>
<stop offset="1" stop-color="#DBD3E2"/>
</linearGradient>
<linearGradient id="paint7_linear_1124_3074" x1="35.4799" y1="50.65" x2="54.31" y2="8.07998" gradientUnits="userSpaceOnUse">
<stop offset="0.37" stop-color="#CACCDE"/>
<stop offset="0.97" stop-color="#EAE9F2"/>
</linearGradient>
<linearGradient id="paint8_linear_1124_3074" x1="41.9" y1="30.48" x2="51.64" y2="13.62" gradientUnits="userSpaceOnUse">
<stop stop-color="#CACCDE"/>
<stop offset="0.56" stop-color="#EAE9F2"/>
</linearGradient>
<linearGradient id="paint9_linear_1124_3074" x1="37.2299" y1="63.67" x2="32.3799" y2="36.34" gradientUnits="userSpaceOnUse">
<stop stop-color="#CACCDE"/>
<stop offset="1" stop-color="#DFDEEE"/>
</linearGradient>
<linearGradient id="paint10_linear_1124_3074" x1="35.88" y1="61.67" x2="34.15" y2="35.51" gradientUnits="userSpaceOnUse">
<stop stop-color="#CACCDE"/>
<stop offset="1" stop-color="#DFDEEE"/>
</linearGradient>
<linearGradient id="paint11_linear_1124_3074" x1="41.4401" y1="57.2099" x2="31.2101" y2="39.4999" gradientUnits="userSpaceOnUse">
<stop offset="0.68" stop-color="#DBDBEA"/>
<stop offset="0.81" stop-color="#EAE9F2"/>
</linearGradient>
</defs>
</svg>
