<svg width="79" height="113" viewBox="0 0 79 113" fill="none" xmlns="http://www.w3.org/2000/svg">
<g style="mix-blend-mode:multiply">
<path d="M0.0799561 93.45L34.49 73.58L68.35 93.14L33.94 113L0.0799561 93.45Z" fill="#D5DEFB"/>
</g>
<path d="M33.9399 111.45V109.25L65.4899 91.04V93.24L33.9399 111.45Z" fill="#222C3D"/>
<path d="M33.9399 109.25L2.93994 91.35L34.4899 73.14L65.4899 91.04L33.9399 109.25Z" fill="url(#paint0_linear_1122_3070)"/>
<path d="M2.93994 91.35V93.55L33.9399 111.45V109.25L2.93994 91.35Z" fill="#263245"/>
<path d="M41.4399 105.85L42.3799 105.31L43.95 109.8L43.0099 110.34L41.4399 105.85Z" fill="#388CA6"/>
<path d="M41.44 105.85L42.38 105.31L39.31 103.53L38.37 103.6V104.08L41.44 105.85Z" fill="#388CA6"/>
<path d="M44.75 111.35L45.69 110.8V110.33L43.95 109.8L43.01 110.34L44.75 111.35Z" fill="#388CA6"/>
<path d="M41.8101 105.58L42.7501 105.04L44.3201 109.53L43.3801 110.08L41.8101 105.58Z" fill="#6A9DAE"/>
<path d="M41.81 105.58L42.75 105.04L39.31 103.06L38.37 103.6L41.81 105.58Z" fill="#81C0D4"/>
<path d="M44.75 110.87L45.69 110.33L44.32 109.53L43.38 110.08L44.75 110.87Z" fill="#81C0D4"/>
<path d="M43.51 104.65L44.45 104.11L46.02 108.6L45.08 109.14L43.51 104.65Z" fill="#388CA6"/>
<path d="M43.5099 104.65L44.45 104.11L41.3799 102.33L40.4399 102.4V102.88L43.5099 104.65Z" fill="#388CA6"/>
<path d="M46.82 110.15L47.76 109.6V109.13L46.02 108.6L45.08 109.14L46.82 110.15Z" fill="#388CA6"/>
<path d="M43.87 104.38L44.82 103.84L46.39 108.33L45.44 108.88L43.87 104.38Z" fill="#6A9DAE"/>
<path d="M43.8699 104.38L44.8199 103.84L41.3799 101.86L40.4399 102.4L43.8699 104.38Z" fill="#81C0D4"/>
<path d="M46.8199 109.67L47.7599 109.13L46.39 108.33L45.4399 108.88L46.8199 109.67Z" fill="#81C0D4"/>
<path d="M45.58 103.45L46.52 102.9L48.1 107.4L47.15 107.94L45.58 103.45Z" fill="#388CA6"/>
<path d="M45.58 103.45L46.52 102.9L43.45 101.13L42.51 101.2V101.67L45.58 103.45Z" fill="#388CA6"/>
<path d="M48.89 108.94L49.83 108.4V107.92L48.1 107.4L47.15 107.94L48.89 108.94Z" fill="#388CA6"/>
<path d="M45.9399 103.18L46.89 102.64L48.4599 107.13L47.5099 107.67L45.9399 103.18Z" fill="#6A9DAE"/>
<path d="M45.94 103.18L46.89 102.64L43.45 100.65L42.51 101.2L45.94 103.18Z" fill="#81C0D4"/>
<path d="M48.89 108.47L49.83 107.92L48.46 107.13L47.51 107.67L48.89 108.47Z" fill="#81C0D4"/>
<path d="M47.65 102.25L48.59 101.7L50.16 106.19L49.22 106.74L47.65 102.25Z" fill="#388CA6"/>
<path d="M47.65 102.25L48.59 101.7L45.52 99.9299L44.58 99.9999V100.47L47.65 102.25Z" fill="#388CA6"/>
<path d="M50.96 107.74L51.9 107.2V106.72L50.16 106.19L49.22 106.74L50.96 107.74Z" fill="#388CA6"/>
<path d="M48.01 101.98L48.96 101.43L50.53 105.93L49.58 106.47L48.01 101.98Z" fill="#6A9DAE"/>
<path d="M48.01 101.98L48.96 101.43L45.52 99.45L44.58 100L48.01 101.98Z" fill="#81C0D4"/>
<path d="M50.96 107.27L51.9 106.72L50.53 105.93L49.58 106.47L50.96 107.27Z" fill="#81C0D4"/>
<path d="M49.72 101.04L50.66 100.5L52.23 104.99L51.29 105.54L49.72 101.04Z" fill="#388CA6"/>
<path d="M49.72 101.04L50.66 100.5L47.59 98.73L46.65 98.79V99.27L49.72 101.04Z" fill="#388CA6"/>
<path d="M53.03 106.54L53.97 106V105.52L52.23 104.99L51.29 105.54L53.03 106.54Z" fill="#388CA6"/>
<path d="M50.08 100.78L51.03 100.23L52.6 104.73L51.65 105.27L50.08 100.78Z" fill="#6A9DAE"/>
<path d="M50.08 100.78L51.03 100.23L47.59 98.25L46.65 98.79L50.08 100.78Z" fill="#81C0D4"/>
<path d="M53.03 106.06L53.97 105.52L52.6 104.73L51.65 105.27L53.03 106.06Z" fill="#81C0D4"/>
<path d="M51.79 99.8399L52.73 99.2999L54.3 103.79L53.36 104.34L51.79 99.8399Z" fill="#388CA6"/>
<path d="M51.79 99.84L52.73 99.3L49.66 97.53L48.72 97.59V98.07L51.79 99.84Z" fill="#388CA6"/>
<path d="M55.1 105.34L56.04 104.8V104.32L54.3 103.79L53.36 104.34L55.1 105.34Z" fill="#388CA6"/>
<path d="M52.15 99.58L53.1 99.03L54.67 103.53L53.72 104.07L52.15 99.58Z" fill="#6A9DAE"/>
<path d="M52.15 99.5799L53.1 99.0299L49.66 97.0499L48.72 97.5899L52.15 99.5799Z" fill="#81C0D4"/>
<path d="M55.1 104.86L56.04 104.32L54.67 103.53L53.72 104.07L55.1 104.86Z" fill="#81C0D4"/>
<path d="M53.86 98.64L54.8 98.1L56.37 102.59L55.43 103.13L53.86 98.64Z" fill="#388CA6"/>
<path d="M53.86 98.6399L54.8 98.0999L51.73 96.3199L50.79 96.3899V96.8699L53.86 98.6399Z" fill="#388CA6"/>
<path d="M57.17 104.14L58.1099 103.59V103.12L56.3699 102.59L55.4299 103.13L57.17 104.14Z" fill="#388CA6"/>
<path d="M54.22 98.37L55.17 97.83L56.74 102.32L55.79 102.87L54.22 98.37Z" fill="#6A9DAE"/>
<path d="M54.22 98.37L55.17 97.83L51.73 95.85L50.79 96.39L54.22 98.37Z" fill="#81C0D4"/>
<path d="M57.17 103.66L58.11 103.12L56.74 102.32L55.79 102.87L57.17 103.66Z" fill="#81C0D4"/>
<path d="M55.9299 97.44L56.8699 96.89L58.4399 101.39L57.4999 101.93L55.9299 97.44Z" fill="#388CA6"/>
<path d="M55.93 97.44L56.87 96.89L53.8 95.12L52.86 95.19V95.67L55.93 97.44Z" fill="#388CA6"/>
<path d="M59.24 102.94L60.18 102.39V101.92L58.44 101.39L57.5 101.93L59.24 102.94Z" fill="#388CA6"/>
<path d="M56.29 97.17L57.24 96.63L58.81 101.12L57.86 101.67L56.29 97.17Z" fill="#6A9DAE"/>
<path d="M56.29 97.17L57.24 96.63L53.8 94.64L52.86 95.19L56.29 97.17Z" fill="#81C0D4"/>
<path d="M59.24 102.46L60.18 101.92L58.81 101.12L57.86 101.67L59.24 102.46Z" fill="#81C0D4"/>
<path d="M58 96.2399L58.94 95.6899L60.51 100.19L59.57 100.73L58 96.2399Z" fill="#388CA6"/>
<path d="M57.9999 96.2399L58.9399 95.6899L55.8699 93.9199L54.9299 93.9899V94.4599L57.9999 96.2399Z" fill="#388CA6"/>
<path d="M61.3101 101.73L62.2501 101.19V100.71L60.5101 100.19L59.5701 100.73L61.3101 101.73Z" fill="#388CA6"/>
<path d="M58.36 95.9699L59.31 95.4199L60.88 99.9199L59.93 100.46L58.36 95.9699Z" fill="#6A9DAE"/>
<path d="M58.3599 95.9699L59.3099 95.4199L55.8699 93.4399L54.9299 93.9899L58.3599 95.9699Z" fill="#81C0D4"/>
<path d="M61.3099 101.26L62.2499 100.71L60.8799 99.9199L59.9299 100.46L61.3099 101.26Z" fill="#81C0D4"/>
<path d="M60.0701 95.03L61.0101 94.49L62.58 98.98L61.6401 99.53L60.0701 95.03Z" fill="#388CA6"/>
<path d="M60.07 95.03L61.01 94.49L57.94 92.72L57 92.78V93.26L60.07 95.03Z" fill="#388CA6"/>
<path d="M63.38 100.53L64.32 99.99V99.51L62.58 98.98L61.64 99.53L63.38 100.53Z" fill="#388CA6"/>
<path d="M60.4299 94.77L61.3799 94.22L62.95 98.72L61.9999 99.26L60.4299 94.77Z" fill="#6A9DAE"/>
<path d="M60.43 94.77L61.38 94.22L57.94 92.24L57 92.78L60.43 94.77Z" fill="#81C0D4"/>
<path d="M63.38 100.06L64.32 99.51L62.95 98.72L62 99.26L63.38 100.06Z" fill="#81C0D4"/>
<path d="M28.13 105.92L27.19 105.37L25.62 109.87L26.56 110.41L28.13 105.92Z" fill="#388CA6"/>
<path d="M28.1299 105.92L27.1899 105.37L30.2599 103.6L31.2 103.67V104.14L28.1299 105.92Z" fill="#388CA6"/>
<path d="M24.82 111.42L23.88 110.87V110.39L25.62 109.87L26.56 110.41L24.82 111.42Z" fill="#388CA6"/>
<path d="M27.77 105.65L26.83 105.11L25.26 109.6L26.2 110.14L27.77 105.65Z" fill="#6A9DAE"/>
<path d="M27.77 105.65L26.83 105.11L30.26 103.12L31.2 103.67L27.77 105.65Z" fill="#81C0D4"/>
<path d="M24.82 110.94L23.88 110.39L25.26 109.6L26.2 110.14L24.82 110.94Z" fill="#81C0D4"/>
<path d="M26.0601 104.72L25.1201 104.17L23.55 108.67L24.4901 109.21L26.0601 104.72Z" fill="#388CA6"/>
<path d="M26.06 104.72L25.12 104.17L28.19 102.4L29.13 102.47V102.94L26.06 104.72Z" fill="#388CA6"/>
<path d="M22.7501 110.21L21.8101 109.67V109.19L23.55 108.67L24.4901 109.21L22.7501 110.21Z" fill="#388CA6"/>
<path d="M25.7 104.45L24.7599 103.91L23.1899 108.4L24.1299 108.94L25.7 104.45Z" fill="#6A9DAE"/>
<path d="M25.7 104.45L24.76 103.91L28.19 101.92L29.13 102.47L25.7 104.45Z" fill="#81C0D4"/>
<path d="M22.7501 109.74L21.8101 109.19L23.1901 108.4L24.1301 108.94L22.7501 109.74Z" fill="#81C0D4"/>
<path d="M23.99 103.51L23.05 102.97L21.48 107.46L22.42 108.01L23.99 103.51Z" fill="#388CA6"/>
<path d="M23.9901 103.51L23.05 102.97L26.1201 101.2L27.0601 101.27V101.74L23.9901 103.51Z" fill="#388CA6"/>
<path d="M20.69 109.01L19.74 108.47V107.99L21.48 107.46L22.42 108.01L20.69 109.01Z" fill="#388CA6"/>
<path d="M23.63 103.25L22.69 102.7L21.12 107.2L22.06 107.74L23.63 103.25Z" fill="#6A9DAE"/>
<path d="M23.6299 103.25L22.6899 102.7L26.1199 100.72L27.0599 101.27L23.6299 103.25Z" fill="#81C0D4"/>
<path d="M20.69 108.53L19.74 107.99L21.12 107.2L22.06 107.74L20.69 108.53Z" fill="#81C0D4"/>
<path d="M21.92 102.31L20.98 101.77L19.41 106.26L20.35 106.81L21.92 102.31Z" fill="#388CA6"/>
<path d="M21.92 102.31L20.98 101.77L24.05 100L24.99 100.06V100.54L21.92 102.31Z" fill="#388CA6"/>
<path d="M18.62 107.81L17.67 107.27V106.79L19.41 106.26L20.35 106.81L18.62 107.81Z" fill="#388CA6"/>
<path d="M21.5601 102.05L20.6201 101.5L19.05 106L19.9901 106.54L21.5601 102.05Z" fill="#6A9DAE"/>
<path d="M21.56 102.05L20.62 101.5L24.05 99.52L24.99 100.06L21.56 102.05Z" fill="#81C0D4"/>
<path d="M18.62 107.33L17.67 106.79L19.05 106L19.99 106.54L18.62 107.33Z" fill="#81C0D4"/>
<path d="M19.85 101.11L18.91 100.57L17.34 105.06L18.28 105.61L19.85 101.11Z" fill="#388CA6"/>
<path d="M19.85 101.11L18.91 100.57L21.98 98.79L22.92 98.86V99.34L19.85 101.11Z" fill="#388CA6"/>
<path d="M16.55 106.61L15.6 106.06V105.59L17.34 105.06L18.28 105.61L16.55 106.61Z" fill="#388CA6"/>
<path d="M19.49 100.84L18.55 100.3L16.98 104.79L17.92 105.34L19.49 100.84Z" fill="#6A9DAE"/>
<path d="M19.4901 100.84L18.55 100.3L21.9801 98.3199L22.9201 98.8599L19.4901 100.84Z" fill="#81C0D4"/>
<path d="M16.55 106.13L15.6 105.59L16.98 104.79L17.92 105.34L16.55 106.13Z" fill="#81C0D4"/>
<path d="M17.78 99.91L16.84 99.36L15.27 103.86L16.21 104.4L17.78 99.91Z" fill="#388CA6"/>
<path d="M17.78 99.91L16.84 99.36L19.91 97.59L20.85 97.66V98.14L17.78 99.91Z" fill="#388CA6"/>
<path d="M14.48 105.41L13.53 104.86V104.39L15.27 103.86L16.21 104.4L14.48 105.41Z" fill="#388CA6"/>
<path d="M17.42 99.64L16.48 99.1L14.91 103.59L15.85 104.14L17.42 99.64Z" fill="#6A9DAE"/>
<path d="M17.42 99.64L16.48 99.1L19.91 97.11L20.85 97.66L17.42 99.64Z" fill="#81C0D4"/>
<path d="M14.48 104.93L13.53 104.39L14.91 103.59L15.85 104.14L14.48 104.93Z" fill="#81C0D4"/>
<path d="M15.7099 98.71L14.7699 98.16L13.2 102.66L14.14 103.2L15.7099 98.71Z" fill="#388CA6"/>
<path d="M15.71 98.71L14.77 98.16L17.84 96.39L18.79 96.46V96.93L15.71 98.71Z" fill="#388CA6"/>
<path d="M12.41 104.2L11.46 103.66V103.18L13.2 102.66L14.14 103.2L12.41 104.2Z" fill="#388CA6"/>
<path d="M15.35 98.44L14.41 97.9L12.84 102.39L13.78 102.93L15.35 98.44Z" fill="#6A9DAE"/>
<path d="M15.35 98.44L14.41 97.9L17.84 95.91L18.79 96.46L15.35 98.44Z" fill="#81C0D4"/>
<path d="M12.41 103.73L11.46 103.18L12.84 102.39L13.78 102.93L12.41 103.73Z" fill="#81C0D4"/>
<path d="M13.64 97.5L12.7 96.96L11.13 101.45L12.07 102L13.64 97.5Z" fill="#388CA6"/>
<path d="M13.64 97.4999L12.7 96.9599L15.7699 95.1899L16.7099 95.2599V95.7299L13.64 97.4999Z" fill="#388CA6"/>
<path d="M10.34 103L9.39001 102.46V101.98L11.13 101.45L12.07 102L10.34 103Z" fill="#388CA6"/>
<path d="M13.28 97.2399L12.34 96.6899L10.77 101.19L11.71 101.73L13.28 97.2399Z" fill="#6A9DAE"/>
<path d="M13.28 97.24L12.34 96.69L15.77 94.71L16.71 95.26L13.28 97.24Z" fill="#81C0D4"/>
<path d="M10.34 102.53L9.39001 101.98L10.77 101.19L11.71 101.73L10.34 102.53Z" fill="#81C0D4"/>
<path d="M11.5701 96.3L10.6301 95.76L9.06006 100.25L10.0001 100.8L11.5701 96.3Z" fill="#388CA6"/>
<path d="M11.57 96.3L10.63 95.76L13.7 93.99L14.64 94.05V94.53L11.57 96.3Z" fill="#388CA6"/>
<path d="M8.27005 101.8L7.32007 101.26V100.78L9.06006 100.25L10.0001 100.8L8.27005 101.8Z" fill="#388CA6"/>
<path d="M11.2099 96.04L10.2699 95.49L8.69995 99.99L9.63995 100.53L11.2099 96.04Z" fill="#6A9DAE"/>
<path d="M11.21 96.04L10.27 95.49L13.7 93.51L14.64 94.05L11.21 96.04Z" fill="#81C0D4"/>
<path d="M8.27005 101.32L7.32007 100.78L8.70007 99.99L9.64008 100.53L8.27005 101.32Z" fill="#81C0D4"/>
<path d="M9.5 95.0999L8.56 94.5599L6.98999 99.0499L7.92999 99.5999L9.5 95.0999Z" fill="#388CA6"/>
<path d="M9.50006 95.1L8.56006 94.56L11.6301 92.78L12.5701 92.85V93.33L9.50006 95.1Z" fill="#388CA6"/>
<path d="M6.20001 100.6L5.25 100.05V99.5799L6.98999 99.0499L7.92999 99.5999L6.20001 100.6Z" fill="#388CA6"/>
<path d="M9.14001 94.83L8.20001 94.29L6.63 98.78L7.57001 99.33L9.14001 94.83Z" fill="#6A9DAE"/>
<path d="M9.13995 94.8299L8.19995 94.2899L11.6299 92.3099L12.5699 92.8499L9.13995 94.8299Z" fill="#81C0D4"/>
<path d="M6.20001 100.12L5.25 99.58L6.63 98.78L7.57001 99.33L6.20001 100.12Z" fill="#81C0D4"/>
<path d="M24.82 78.62L25.58 77.97V77.49L23.26 77.24V77.72L24.82 78.62Z" fill="#388CA6"/>
<path d="M24.64 78.04L25.58 77.49L24.21 76.7L23.26 77.24L24.64 78.04Z" fill="#81C0D4"/>
<path d="M24.64 78.04L24.82 78.62L26.91 76.29L26.73 75.7L24.64 78.04Z" fill="#388CA6"/>
<path d="M24.8201 78.62L25.7601 78.07L27.8501 75.74L26.9101 76.29L24.8201 78.62Z" fill="#2C6E82"/>
<path d="M30.16 78.16L31.1 77.62V77.14L26.73 75.7V76.18L30.16 78.16Z" fill="#388CA6"/>
<path d="M30.16 77.69L31.1 77.14L27.67 75.16L26.73 75.7L30.16 77.69Z" fill="#81C0D4"/>
<path d="M22.7499 79.8199L23.5099 79.1699V78.6899L21.1899 78.4399V78.9199L22.7499 79.8199Z" fill="#388CA6"/>
<path d="M22.5699 79.24L23.5099 78.69L22.14 77.9L21.1899 78.44L22.5699 79.24Z" fill="#81C0D4"/>
<path d="M22.5701 79.24L22.7501 79.82L24.8401 77.49L24.6601 76.91L22.5701 79.24Z" fill="#388CA6"/>
<path d="M22.75 79.8199L23.69 79.2799L25.78 76.9399L24.84 77.4899L22.75 79.8199Z" fill="#2C6E82"/>
<path d="M28.09 79.37L29.04 78.82V78.34L24.66 76.91V77.38L28.09 79.37Z" fill="#388CA6"/>
<path d="M28.09 78.89L29.04 78.34L25.6 76.36L24.66 76.91L28.09 78.89Z" fill="#81C0D4"/>
<path d="M20.68 81.02L21.44 80.37V79.9L19.12 79.65V80.12L20.68 81.02Z" fill="#388CA6"/>
<path d="M20.5 80.44L21.44 79.9L20.07 79.1L19.12 79.65L20.5 80.44Z" fill="#81C0D4"/>
<path d="M20.5 80.44L20.68 81.02L22.77 78.69L22.59 78.11L20.5 80.44Z" fill="#388CA6"/>
<path d="M20.6799 81.02L21.6199 80.48L23.7099 78.15L22.7699 78.69L20.6799 81.02Z" fill="#2C6E82"/>
<path d="M26.02 80.57L26.96 80.02V79.55L22.59 78.11V78.58L26.02 80.57Z" fill="#388CA6"/>
<path d="M26.02 80.0899L26.96 79.5499L23.53 77.5599L22.59 78.1099L26.02 80.0899Z" fill="#81C0D4"/>
<path d="M18.61 82.22L19.3701 81.58V81.1L17.0601 80.85V81.33L18.61 82.22Z" fill="#388CA6"/>
<path d="M18.4301 81.6399L19.3701 81.0999L18.0001 80.3099L17.0601 80.8499L18.4301 81.6399Z" fill="#81C0D4"/>
<path d="M18.4299 81.6399L18.6099 82.2199L20.7 79.8899L20.5199 79.3099L18.4299 81.6399Z" fill="#388CA6"/>
<path d="M18.61 82.22L19.55 81.68L21.64 79.35L20.7 79.89L18.61 82.22Z" fill="#2C6E82"/>
<path d="M23.95 81.7699L24.89 81.2299V80.7499L20.52 79.3099V79.7899L23.95 81.7699Z" fill="#388CA6"/>
<path d="M23.95 81.29L24.89 80.75L21.46 78.77L20.52 79.31L23.95 81.29Z" fill="#81C0D4"/>
<path d="M16.54 83.4299L17.3 82.7799V82.2999L14.99 82.0499V82.5299L16.54 83.4299Z" fill="#388CA6"/>
<path d="M16.36 82.84L17.3 82.3L15.93 81.51L14.99 82.05L16.36 82.84Z" fill="#81C0D4"/>
<path d="M16.36 82.84L16.54 83.43L18.63 81.09L18.45 80.51L16.36 82.84Z" fill="#388CA6"/>
<path d="M16.54 83.4299L17.48 82.8799L19.57 80.5499L18.63 81.0899L16.54 83.4299Z" fill="#2C6E82"/>
<path d="M21.8799 82.97L22.8199 82.43V81.95L18.45 80.51V80.99L21.8799 82.97Z" fill="#388CA6"/>
<path d="M21.8799 82.5L22.8199 81.95L19.39 79.97L18.45 80.51L21.8799 82.5Z" fill="#81C0D4"/>
<path d="M14.47 84.63L15.23 83.98V83.5L12.92 83.25V83.73L14.47 84.63Z" fill="#388CA6"/>
<path d="M14.29 84.05L15.23 83.5L13.86 82.71L12.92 83.25L14.29 84.05Z" fill="#81C0D4"/>
<path d="M14.29 84.05L14.47 84.63L16.56 82.3L16.38 81.72L14.29 84.05Z" fill="#388CA6"/>
<path d="M14.47 84.63L15.41 84.08L17.5 81.75L16.56 82.3L14.47 84.63Z" fill="#2C6E82"/>
<path d="M19.81 84.17L20.75 83.63V83.15L16.38 81.72V82.19L19.81 84.17Z" fill="#388CA6"/>
<path d="M19.81 83.6999L20.75 83.1499L17.32 81.1699L16.38 81.7199L19.81 83.6999Z" fill="#81C0D4"/>
<path d="M12.4 85.83L13.16 85.18V84.7L10.85 84.45V84.93L12.4 85.83Z" fill="#388CA6"/>
<path d="M12.22 85.25L13.16 84.7L11.79 83.91L10.85 84.45L12.22 85.25Z" fill="#81C0D4"/>
<path d="M12.22 85.2499L12.4 85.8299L14.49 83.4999L14.31 82.9199L12.22 85.2499Z" fill="#388CA6"/>
<path d="M12.4 85.83L13.34 85.28L15.43 82.95L14.49 83.5L12.4 85.83Z" fill="#2C6E82"/>
<path d="M17.7401 85.3799L18.6901 84.8299V84.3599L14.3101 82.9199V83.3899L17.7401 85.3799Z" fill="#388CA6"/>
<path d="M17.7401 84.9L18.6901 84.36L15.2501 82.37L14.3101 82.92L17.7401 84.9Z" fill="#81C0D4"/>
<path d="M10.33 87.03L11.09 86.38V85.91L8.77002 85.66V86.13L10.33 87.03Z" fill="#388CA6"/>
<path d="M10.15 86.45L11.09 85.91L9.72003 85.11L8.77002 85.66L10.15 86.45Z" fill="#81C0D4"/>
<path d="M10.15 86.45L10.33 87.03L12.42 84.7L12.24 84.12L10.15 86.45Z" fill="#388CA6"/>
<path d="M10.33 87.03L11.27 86.49L13.36 84.16L12.42 84.7L10.33 87.03Z" fill="#2C6E82"/>
<path d="M15.67 86.58L16.62 86.03V85.56L12.24 84.12V84.59L15.67 86.58Z" fill="#388CA6"/>
<path d="M15.67 86.0999L16.62 85.5599L13.18 83.5699L12.24 84.1199L15.67 86.0999Z" fill="#81C0D4"/>
<path d="M8.25998 88.23L9.01996 87.58V87.11L6.70996 86.86V87.33L8.25998 88.23Z" fill="#388CA6"/>
<path d="M8.07996 87.6499L9.01996 87.1099L7.64996 86.3099L6.70996 86.8599L8.07996 87.6499Z" fill="#81C0D4"/>
<path d="M8.07996 87.6499L8.25998 88.2299L10.35 85.8999L10.17 85.3199L8.07996 87.6499Z" fill="#388CA6"/>
<path d="M8.26001 88.23L9.20001 87.69L11.29 85.36L10.35 85.9L8.26001 88.23Z" fill="#2C6E82"/>
<path d="M13.6 87.7799L14.55 87.2299V86.7599L10.17 85.3199V85.7999L13.6 87.7799Z" fill="#388CA6"/>
<path d="M13.6 87.3L14.55 86.76L11.11 84.78L10.17 85.32L13.6 87.3Z" fill="#81C0D4"/>
<path d="M6.19 89.4399L6.95001 88.7899V88.3099L4.64001 88.0599V88.5399L6.19 89.4399Z" fill="#388CA6"/>
<path d="M6.01001 88.85L6.95001 88.31L5.57999 87.52L4.64001 88.06L6.01001 88.85Z" fill="#81C0D4"/>
<path d="M6.01001 88.85L6.19 89.44L8.28 87.1L8.10001 86.52L6.01001 88.85Z" fill="#388CA6"/>
<path d="M6.18994 89.4399L7.12994 88.8899L9.21994 86.5599L8.27994 87.0999L6.18994 89.4399Z" fill="#2C6E82"/>
<path d="M11.53 88.98L12.48 88.44V87.96L8.09998 86.52V87L11.53 88.98Z" fill="#388CA6"/>
<path d="M11.53 88.5L12.48 87.96L9.03998 85.98L8.09998 86.52L11.53 88.5Z" fill="#81C0D4"/>
<path d="M44.34 78.5499L43.58 77.8999V77.4199L45.89 77.1699V77.6499L44.34 78.5499Z" fill="#388CA6"/>
<path d="M44.52 77.97L43.58 77.42L44.95 76.63L45.89 77.17L44.52 77.97Z" fill="#81C0D4"/>
<path d="M44.52 77.97L44.34 78.55L42.25 76.22L42.43 75.64L44.52 77.97Z" fill="#388CA6"/>
<path d="M44.3401 78.5499L43.3901 78.0099L41.3101 75.6699L42.2501 76.2199L44.3401 78.5499Z" fill="#2C6E82"/>
<path d="M39.0001 78.1L38.05 77.55V77.08L42.4301 75.64V76.11L39.0001 78.1Z" fill="#388CA6"/>
<path d="M39.0001 77.62L38.05 77.08L41.4901 75.09L42.4301 75.64L39.0001 77.62Z" fill="#81C0D4"/>
<path d="M46.41 79.75L45.65 79.1V78.63L47.96 78.38V78.85L46.41 79.75Z" fill="#388CA6"/>
<path d="M46.59 79.17L45.65 78.63L47.02 77.83L47.96 78.38L46.59 79.17Z" fill="#81C0D4"/>
<path d="M46.5901 79.17L46.4101 79.75L44.3201 77.42L44.5001 76.84L46.5901 79.17Z" fill="#388CA6"/>
<path d="M46.41 79.75L45.46 79.21L43.38 76.88L44.32 77.42L46.41 79.75Z" fill="#2C6E82"/>
<path d="M41.07 79.3L40.12 78.75V78.28L44.5 76.84V77.31L41.07 79.3Z" fill="#388CA6"/>
<path d="M41.07 78.82L40.12 78.28L43.56 76.29L44.5 76.84L41.07 78.82Z" fill="#81C0D4"/>
<path d="M48.48 80.95L47.72 80.3V79.83L50.03 79.58V80.06L48.48 80.95Z" fill="#388CA6"/>
<path d="M48.66 80.37L47.72 79.83L49.09 79.03L50.03 79.58L48.66 80.37Z" fill="#81C0D4"/>
<path d="M48.66 80.37L48.48 80.95L46.39 78.62L46.57 78.04L48.66 80.37Z" fill="#388CA6"/>
<path d="M48.4799 80.95L47.5399 80.41L45.4399 78.08L46.39 78.62L48.4799 80.95Z" fill="#2C6E82"/>
<path d="M43.14 80.5L42.1899 79.95V79.48L46.5699 78.04V78.52L43.14 80.5Z" fill="#388CA6"/>
<path d="M43.14 80.02L42.1899 79.48L45.6299 77.5L46.5699 78.04L43.14 80.02Z" fill="#81C0D4"/>
<path d="M50.55 82.16L49.79 81.51V81.03L52.1 80.78V81.26L50.55 82.16Z" fill="#388CA6"/>
<path d="M50.73 81.57L49.79 81.03L51.16 80.24L52.1 80.78L50.73 81.57Z" fill="#81C0D4"/>
<path d="M50.73 81.57L50.55 82.16L48.46 79.82L48.64 79.24L50.73 81.57Z" fill="#388CA6"/>
<path d="M50.55 82.16L49.61 81.61L47.51 79.28L48.46 79.82L50.55 82.16Z" fill="#2C6E82"/>
<path d="M45.21 81.7L44.26 81.16V80.68L48.64 79.24V79.72L45.21 81.7Z" fill="#388CA6"/>
<path d="M45.21 81.22L44.26 80.68L47.7 78.7L48.64 79.24L45.21 81.22Z" fill="#81C0D4"/>
<path d="M52.62 83.36L51.86 82.71V82.23L54.17 81.98V82.46L52.62 83.36Z" fill="#388CA6"/>
<path d="M52.8 82.7799L51.86 82.2299L53.23 81.4399L54.17 81.9799L52.8 82.7799Z" fill="#81C0D4"/>
<path d="M52.8 82.7799L52.62 83.3599L50.53 81.0299L50.71 80.4399L52.8 82.7799Z" fill="#388CA6"/>
<path d="M52.62 83.36L51.68 82.81L49.58 80.48L50.53 81.03L52.62 83.36Z" fill="#2C6E82"/>
<path d="M47.27 82.8999L46.33 82.3599V81.8799L50.71 80.4399V80.9199L47.27 82.8999Z" fill="#388CA6"/>
<path d="M47.27 82.43L46.33 81.88L49.77 79.9L50.71 80.44L47.27 82.43Z" fill="#81C0D4"/>
<path d="M54.6899 84.5599L53.9299 83.9099V83.4299L56.2399 83.1799V83.6599L54.6899 84.5599Z" fill="#388CA6"/>
<path d="M54.8699 83.98L53.9299 83.43L55.2999 82.64L56.2399 83.18L54.8699 83.98Z" fill="#81C0D4"/>
<path d="M54.87 83.98L54.69 84.56L52.6 82.23L52.78 81.65L54.87 83.98Z" fill="#388CA6"/>
<path d="M54.69 84.5599L53.74 84.0199L51.65 81.6799L52.6 82.2299L54.69 84.5599Z" fill="#2C6E82"/>
<path d="M49.35 84.11L48.4 83.56V83.08L52.78 81.65V82.12L49.35 84.11Z" fill="#388CA6"/>
<path d="M49.35 83.63L48.4 83.08L51.84 81.1L52.78 81.65L49.35 83.63Z" fill="#81C0D4"/>
<path d="M56.76 85.76L56 85.11V84.64L58.31 84.39V84.86L56.76 85.76Z" fill="#388CA6"/>
<path d="M56.94 85.18L56 84.64L57.37 83.84L58.31 84.39L56.94 85.18Z" fill="#81C0D4"/>
<path d="M56.94 85.18L56.76 85.76L54.67 83.43L54.85 82.85L56.94 85.18Z" fill="#388CA6"/>
<path d="M56.76 85.76L55.81 85.22L53.73 82.89L54.67 83.43L56.76 85.76Z" fill="#2C6E82"/>
<path d="M51.42 85.31L50.47 84.76V84.29L54.85 82.85V83.32L51.42 85.31Z" fill="#388CA6"/>
<path d="M51.42 84.8299L50.47 84.2899L53.91 82.2999L54.85 82.8499L51.42 84.8299Z" fill="#81C0D4"/>
<path d="M58.83 86.96L58.0701 86.31V85.84L60.3801 85.59V86.06L58.83 86.96Z" fill="#388CA6"/>
<path d="M59.0101 86.38L58.0701 85.84L59.4401 85.04L60.3801 85.59L59.0101 86.38Z" fill="#81C0D4"/>
<path d="M59.01 86.3799L58.83 86.9599L56.74 84.6299L56.92 84.0499L59.01 86.3799Z" fill="#388CA6"/>
<path d="M58.83 86.96L57.88 86.42L55.79 84.09L56.74 84.63L58.83 86.96Z" fill="#2C6E82"/>
<path d="M53.49 86.5099L52.54 85.9599V85.4899L56.92 84.0499V84.5299L53.49 86.5099Z" fill="#388CA6"/>
<path d="M53.49 86.03L52.54 85.49L55.98 83.5L56.92 84.05L53.49 86.03Z" fill="#81C0D4"/>
<path d="M60.9 88.16L60.13 87.52V87.04L62.45 86.79V87.27L60.9 88.16Z" fill="#388CA6"/>
<path d="M61.08 87.58L60.13 87.04L61.51 86.25L62.45 86.79L61.08 87.58Z" fill="#81C0D4"/>
<path d="M61.08 87.58L60.9001 88.16L58.8101 85.83L58.9901 85.25L61.08 87.58Z" fill="#388CA6"/>
<path d="M60.9 88.16L59.95 87.62L57.86 85.29L58.81 85.83L60.9 88.16Z" fill="#2C6E82"/>
<path d="M55.56 87.71L54.61 87.17V86.69L58.99 85.25V85.73L55.56 87.71Z" fill="#388CA6"/>
<path d="M55.56 87.23L54.61 86.69L58.05 84.71L58.99 85.25L55.56 87.23Z" fill="#81C0D4"/>
<path d="M62.9699 89.37L62.2 88.72V88.24L64.5199 87.99V88.47L62.9699 89.37Z" fill="#388CA6"/>
<path d="M63.1499 88.78L62.2 88.24L63.5799 87.45L64.5199 87.99L63.1499 88.78Z" fill="#81C0D4"/>
<path d="M63.15 88.78L62.97 89.37L60.88 87.03L61.06 86.45L63.15 88.78Z" fill="#388CA6"/>
<path d="M62.9699 89.37L62.0199 88.82L59.9299 86.49L60.8799 87.03L62.9699 89.37Z" fill="#2C6E82"/>
<path d="M57.6199 88.91L56.6799 88.37V87.89L61.0599 86.45V86.93L57.6199 88.91Z" fill="#388CA6"/>
<path d="M57.6199 88.44L56.6799 87.89L60.1199 85.91L61.0599 86.45L57.6199 88.44Z" fill="#81C0D4"/>
<path d="M32.48 103.68L12.89 92.37L12.87 88.73L32.36 77.48L36.61 77.49L56.27 88.84L56.29 92.4L36.74 103.69L32.48 103.68Z" fill="#009FD1"/>
<path d="M32.71 102.5L14.34 91.89L14.33 89.01L32.59 78.46L36.38 78.47L54.82 89.11L54.84 91.92L36.5 102.51L32.71 102.5Z" fill="#8E8F91"/>
<path d="M36.24 100.27L36.5 102.51L54.84 91.9199L53.5 90.3099L36.24 100.27Z" fill="#A4A5A8"/>
<path d="M32.98 100.26L15.67 90.28L15.66 88.39L32.86 78.46L36.12 78.47L53.49 88.5L53.5 90.31L36.24 100.27L32.98 100.26Z" fill="#D8D9DD"/>
<path d="M15.66 88.39L14.33 89.01L14.34 91.89L15.67 90.28L15.66 88.39Z" fill="#7F8082"/>
<path d="M32.98 100.26L32.71 102.5L36.5 102.51L36.24 100.27L32.98 100.26Z" fill="#A4A5A8"/>
<path d="M53.5 90.31L54.84 91.92L54.82 89.11L53.49 88.5L53.5 90.31Z" fill="#A4A5A8"/>
<path d="M13.7 92.08V27.78L32.5599 38.67V102.97L13.7 92.08Z" fill="url(#paint1_linear_1122_3070)"/>
<path d="M36.6601 102.98V38.6699H32.5601V102.97L36.6601 102.98Z" fill="url(#paint2_linear_1122_3070)"/>
<path d="M36.66 102.98V38.6699L55.48 27.8099V92.1099L36.66 102.98Z" fill="url(#paint3_linear_1122_3070)"/>
<path d="M43.75 50.9999C44.7723 51.6355 45.5939 52.5472 46.12 53.6299L46.32 54.0699C47.139 55.8167 47.8081 57.6299 48.32 59.4899C48.51 60.2099 48.67 60.9099 48.78 61.5799L50 68.9999C50.11 69.6499 49.64 69.8299 48.91 69.4099C48.129 68.9265 47.5202 68.2092 47.17 67.3599L45.23 61.8499C44.3 59.1799 43.49 56.5699 42.83 54.0499L42.23 51.7999C42 50.9299 42.4 50.5099 43.23 50.7999C43.29 50.8999 43.56 50.9299 43.75 50.9999Z" fill="#CFD0E0"/>
<path d="M51.7199 69.5099L50.4899 62.1099C50.3699 61.3999 50.2099 60.6599 50.0099 59.8999C49.4716 57.9313 48.7691 56.0112 47.9099 54.1599L47.7099 53.7099C46.8449 51.9498 45.5043 50.4672 43.8399 49.4299C43.5527 49.2599 43.2475 49.1224 42.9299 49.0199C41.6199 48.5999 40.9899 49.2899 41.3599 50.6999L41.9999 52.9999C42.6799 55.5699 43.4999 58.2199 44.4499 60.9299L46.39 66.4499C47.057 68.0597 48.2154 69.4176 49.7 70.3299C51 71.0799 51.9299 70.7499 51.7199 69.5099ZM48.8999 69.4299C48.1189 68.9464 47.5101 68.2291 47.1599 67.3799L45.2199 61.8699C44.2899 59.1999 43.4799 56.5899 42.8199 54.0699L42.2199 51.8199C41.9899 50.9499 42.3899 50.5299 43.2199 50.8199C43.3199 50.9399 43.5899 50.9699 43.7799 51.0799C44.8022 51.7155 45.6239 52.6272 46.1499 53.7099L46.3499 54.1499C47.1689 55.8967 47.838 57.7099 48.3499 59.5699C48.5399 60.2899 48.6999 60.9899 48.8099 61.6599L49.9999 68.9999C50.0999 69.6699 49.6299 69.8499 48.8999 69.4299Z" fill="#CFD0E0"/>
<path d="M53.5601 67.87L52.33 60.48C52.2045 59.7321 52.0409 58.9912 51.8401 58.26C51.3054 56.2915 50.6063 54.3714 49.7501 52.5199L49.55 52.08C48.6878 50.318 47.3465 48.8347 45.6801 47.7999C45.3952 47.623 45.0895 47.4819 44.7701 47.38C44.5513 47.2799 44.3105 47.2375 44.0707 47.2567C43.8309 47.276 43.6001 47.3563 43.4001 47.49L41.5701 49.1199C41.7683 48.986 41.9981 48.9063 42.2367 48.8887C42.4753 48.8712 42.7144 48.9164 42.9301 49.02C43.2477 49.1225 43.5529 49.26 43.8401 49.4299C45.5044 50.4672 46.8451 51.9499 47.7101 53.7099L47.9101 54.16C48.7659 56.0115 49.465 57.9316 50.0001 59.9C50.2001 60.66 50.3601 61.4 50.4801 62.11L51.7101 69.51C51.7599 69.6817 51.7659 69.8633 51.7274 70.038C51.689 70.2127 51.6074 70.3749 51.4901 70.51L53.3201 68.8799C53.4409 68.7448 53.5261 68.5817 53.568 68.4054C53.6099 68.229 53.6072 68.045 53.5601 67.87Z" fill="url(#paint4_linear_1122_3070)"/>
<path d="M48.17 56.65C48.17 58.3 46.78 76.8 34.46 76.8C22.14 76.8 20.58 57.33 20.58 56.66L48.17 56.65Z" fill="url(#paint5_linear_1122_3070)"/>
<path d="M48 55.56C47.92 55.24 47.8 54.81 47.69 54.5C47.58 54.19 47.38 53.74 47.23 53.42C46.9258 52.7914 46.5642 52.1921 46.1499 51.63C45.6812 51.0152 45.1556 50.446 44.5799 49.93C43.9604 49.3877 43.2907 48.9056 42.5799 48.49C42.3099 48.33 41.94 48.13 41.66 47.99L40.91 47.64C40.3738 47.4124 39.8264 47.2122 39.2699 47.04C39.1999 47.04 38.58 46.83 37.66 46.65C37.05 46.53 36.4099 46.44 36.0499 46.41L35.25 46.35H34.4599H33.66C33.15 46.35 32.5399 46.43 32.0499 46.48C32.0499 46.48 31.26 46.57 30.42 46.76C30.16 46.82 29.8099 46.91 29.5499 46.99C29.2899 47.07 28.9999 47.16 28.7699 47.23C28.5399 47.3 28.0999 47.47 27.7699 47.59C27.4399 47.71 27.24 47.83 27.01 47.93C26.78 48.03 26.32 48.28 26.01 48.45C25.7 48.62 25.01 49.06 24.66 49.36C24.2394 49.6894 23.8387 50.0433 23.4599 50.42C23.1368 50.7317 22.8361 51.0659 22.5599 51.42C22.4299 51.61 22.2299 51.85 22.1099 52.04C21.9899 52.23 21.67 52.74 21.5 53.04C21.3232 53.3635 21.1662 53.6974 21.03 54.04C20.87 54.47 20.69 55.04 20.57 55.48C19.99 57.85 21.2399 60.34 24.3299 62.18C29.6399 65.36 38.3299 65.45 43.8399 62.38C47.2599 60.55 48.62 58 48 55.56ZM38.2 53.38C36.9836 53.9816 35.6424 54.288 34.2854 54.2741C32.9284 54.2602 31.5938 53.9264 30.39 53.3C28.27 52.03 28.32 50 30.51 48.78C31.7239 48.176 33.0637 47.8684 34.4196 47.8823C35.7754 47.8962 37.1086 48.2313 38.3099 48.86C40.4699 50.13 40.4199 52.15 38.2399 53.38H38.2Z" fill="url(#paint6_linear_1122_3070)"/>
<g style="mix-blend-mode:multiply">
<path d="M37.51 76.37C36.5199 76.6618 35.4922 76.8066 34.46 76.8C25.3 76.8 22.2 65.8 21.24 60.23C22.806 59.0735 24.4351 58.0052 26.12 57.03L26.83 56.62C26.9741 56.7394 27.1019 56.8772 27.21 57.03C29.14 59.66 27.91 68.17 29.21 72.13C30.36 75.53 33.72 76.6 37.51 76.37Z" fill="#EBEBEB"/>
</g>
<path d="M41.42 55.6699C39.2274 56.7821 36.8035 57.3617 34.345 57.3617C31.8864 57.3617 29.4625 56.7821 27.2699 55.6699C23.3399 53.3999 23.3199 49.7399 27.2699 47.4899C29.4636 46.3754 31.8894 45.7944 34.35 45.7944C36.8105 45.7944 39.2363 46.3754 41.43 47.4899C45.3 49.7599 45.32 53.4199 41.42 55.6699Z" fill="#D4D5E6"/>
<path d="M25.48 52.5999C25.8 52.7899 26.22 53.0299 26.55 53.1899C27.38 53.5699 27.38 53.5699 28.23 53.8999C28.49 53.9899 28.83 54.1099 29.1 54.1799C29.58 54.3099 30.22 54.4699 30.71 54.5699C30.9973 54.6345 31.2877 54.6845 31.58 54.7199L32.42 54.8199L33.26 54.8899H34.11H35H35.87C36.38 54.8899 37.05 54.7499 37.55 54.6699C37.82 54.6699 38.18 54.5599 38.45 54.4999L39.26 54.2899C39.55 54.2099 39.94 54.0899 40.26 53.9899C40.58 53.8899 41.04 53.7099 41.37 53.5699C41.7 53.4299 42.37 53.0899 42.8 52.8599C43.23 52.6299 43.62 52.3699 43.96 52.1399C44.2238 51.9679 44.4776 51.7809 44.72 51.5799C45.04 51.3199 45.44 50.9499 45.72 50.6699C45.0531 51.3207 44.2993 51.876 43.48 52.3199C38.24 55.2399 29.93 55.1499 24.9 52.1299C24.2107 51.7325 23.5727 51.2523 23 50.6999L23.84 51.4499C23.9731 51.5684 24.1134 51.6786 24.26 51.7799C24.62 52.0499 25.11 52.3699 25.48 52.5999Z" fill="url(#paint7_linear_1122_3070)"/>
<path d="M35.83 54.86C42.76 54.86 50 48 50 43.28C50.0309 40.8475 49.7144 38.423 49.06 36.08C47.58 31.08 19.98 33.57 19.43 37.08C19.3 37.94 19.27 38.55 19.23 38.76C19.05 39.81 17.93 45.76 22.23 49.85C26.53 53.94 30.58 54.86 35.83 54.86Z" fill="url(#paint8_linear_1122_3070)"/>
<path d="M49.23 36.81C49.1412 36.4198 49.0276 36.0357 48.89 35.66C48.7499 35.2574 48.5863 34.8634 48.4 34.48C48.0721 33.7957 47.6768 33.1459 47.22 32.54C46.7118 31.8659 46.1391 31.243 45.51 30.68C44.8483 30.0927 44.1316 29.5703 43.37 29.12C43.08 28.94 42.68 28.72 42.37 28.57L41.56 28.19C40.9773 27.9368 40.3795 27.7197 39.77 27.54C39.1881 27.3624 38.5973 27.2155 38 27.1C37.34 26.97 36.65 26.89 36.26 26.85C35.87 26.81 35.65 26.79 35.39 26.78H34.52H33.65C33.1 26.78 32.43 26.86 31.9 26.92C31.305 26.9925 30.7143 27.096 30.13 27.23L29.13 27.47L28.28 27.74C27.97 27.84 27.55 28.01 27.28 28.13C27.01 28.25 26.7 28.39 26.46 28.5C26.0931 28.6702 25.736 28.8604 25.39 29.07C24.94 29.35 24.34 29.74 23.92 30.07C23.4584 30.4239 23.0207 30.8081 22.61 31.22C22.2554 31.5667 21.9215 31.934 21.61 32.32C21.46 32.53 21.25 32.79 21.12 33C20.99 33.21 20.64 33.77 20.45 34.1C20.261 34.4526 20.094 34.8166 19.95 35.19C19.77 35.65 19.57 36.28 19.44 36.76C18.81 39.33 20.17 42.04 23.54 44.06C29.32 47.52 38.84 47.61 44.79 44.27C48.39 42.24 49.87 39.46 49.23 36.81Z" fill="url(#paint9_linear_1122_3070)"/>
<path d="M49.7999 41.84C49.8525 42.5473 49.7986 43.2586 49.64 43.95C49.08 45.78 47.64 47.47 45.13 48.85C40.9 51.21 35 51.92 29.74 51C28.11 50.63 27.5 50.49 26.74 43.51C26.63 41.51 27.31 41.41 27.9 41.51C32.98 43.07 39.43 42.65 43.81 40.21C46.67 38.61 48.07 36.48 48.02 34.36V34.21C48.1085 34.2532 48.1843 34.3187 48.24 34.4C49.2511 36.751 49.7815 39.2807 49.7999 41.84Z" fill="#003447"/>
<path d="M37.05 47.6999H36.43C36.2821 47.7198 36.1316 47.7063 35.9896 47.6605C35.8476 47.6146 35.7177 47.5375 35.6093 47.4349C35.501 47.3323 35.4169 47.2068 35.3634 47.0675C35.3099 46.9282 35.2882 46.7787 35.3 46.6299V46.0499C35.2876 45.7006 35.4074 45.3594 35.6353 45.0944C35.8633 44.8293 36.1827 44.6599 36.53 44.6199H36.73C36.9102 44.617 37.0891 44.651 37.2556 44.7199C37.4222 44.7887 37.5728 44.8909 37.6984 45.0202C37.8239 45.1495 37.9217 45.3031 37.9856 45.4716C38.0495 45.6401 38.0782 45.8199 38.07 45.9999V46.5999C38.12 47.3899 37.79 47.6399 37.05 47.6999Z" fill="#00BBFF"/>
<path d="M46.14 44.38L45.9999 44.45C45.4999 44.71 45 44.59 44.89 43.81L44.79 43.24C44.701 42.9133 44.7043 42.5684 44.7996 42.2436C44.895 41.9187 45.0785 41.6267 45.3299 41.4L45.4599 41.32C45.9399 41.03 46.46 41.41 46.64 42.19L46.76 42.78C46.8622 43.0769 46.8559 43.4005 46.7425 43.6933C46.629 43.9862 46.4156 44.2294 46.14 44.38Z" fill="#00BBFF"/>
<path d="M40.77 49.05L40.59 48.4C41.4892 48.1727 42.3661 47.8648 43.21 47.48L43.55 48.06C42.6519 48.4655 41.7222 48.7966 40.77 49.05Z" fill="#00BBFF"/>
<path d="M22.58 56.9999C23.0799 57.3419 23.4857 57.8042 23.7601 58.3442C24.0345 58.8842 24.1685 59.4845 24.15 60.0899V60.6599C24.1381 63.0111 23.897 65.3556 23.43 67.6599C23.23 68.5999 23 69.5199 22.73 70.4199L19.73 80.2699C19.6885 80.4484 19.6054 80.6144 19.4874 80.7545C19.3694 80.8946 19.2199 81.0048 19.0511 81.076C18.8823 81.1472 18.6991 81.1774 18.5164 81.1642C18.3337 81.151 18.1568 81.0947 18 80.9999C17.6145 80.7323 17.3093 80.3646 17.1172 79.9365C16.9251 79.5083 16.8535 79.0358 16.91 78.5699L17.76 71.4399C18.17 67.9899 18.76 64.5999 19.4 61.2899L20.01 58.3399C20.24 57.1999 21.01 56.5399 22.01 56.7199C22 56.8899 22.38 56.8699 22.58 56.9999Z" fill="url(#paint10_linear_1122_3070)"/>
<path d="M23.33 55.25C23.0214 55.0679 22.6828 54.9426 22.33 54.88C20.81 54.59 19.5 55.66 19.12 57.52L18.51 60.46C17.81 63.83 17.25 67.28 16.84 70.79L16 77.92C15.8915 78.8031 16.026 79.6991 16.389 80.5114C16.752 81.3238 17.3297 82.0217 18.06 82.53C18.3688 82.7229 18.7207 82.8362 19.0841 82.8597C19.4474 82.8831 19.811 82.816 20.142 82.6644C20.4731 82.5127 20.7613 82.2813 20.9809 81.9908C21.2004 81.7003 21.3444 81.3598 21.4 81L24.4 71.15C24.68 70.15 24.93 69.22 25.14 68.23C25.635 65.7908 25.8895 63.3089 25.9 60.82V60.26C25.924 59.2767 25.7014 58.3031 25.2525 57.428C24.8035 56.5529 24.1426 55.8041 23.33 55.25ZM23.43 67.63C23.23 68.57 23 69.49 22.73 70.39L19.73 80.24C19.6924 80.421 19.612 80.5904 19.4956 80.7341C19.3792 80.8777 19.2301 80.9915 19.0609 81.0658C18.8916 81.1402 18.707 81.173 18.5224 81.1616C18.3379 81.1501 18.1588 81.0947 18 81C17.6145 80.7324 17.3093 80.3647 17.1172 79.9365C16.9252 79.5083 16.8535 79.0359 16.91 78.57L17.76 71.44C18.17 67.99 18.76 64.6 19.4 61.29L20.01 58.34C20.24 57.2 21.01 56.54 22.01 56.72C22.08 56.86 22.42 56.84 22.62 56.95C23.1199 57.292 23.5257 57.7543 23.8001 58.2942C24.0745 58.8342 24.2086 59.4346 24.19 60.04V60.61C24.1663 62.9692 23.9118 65.3204 23.43 67.63Z" fill="url(#paint11_linear_1122_3070)"/>
<path d="M25.16 54.75C24.8515 54.5679 24.5128 54.4426 24.16 54.38C23.7956 54.2894 23.4145 54.2894 23.05 54.38L21.21 54.87C21.5785 54.7846 21.9616 54.7846 22.33 54.87C22.6828 54.9326 23.0215 55.0579 23.33 55.24C24.1412 55.7932 24.8012 56.5403 25.2501 57.4136C25.6989 58.2868 25.9223 59.2584 25.9 60.24V60.8C25.8895 63.2889 25.635 65.7708 25.14 68.21C24.93 69.21 24.68 70.21 24.4 71.13L21.4 80.98C21.3063 81.39 21.1077 81.7686 20.8237 82.0789C20.5398 82.3891 20.1801 82.6204 19.78 82.75L21.61 82.26C22.0104 82.1278 22.3699 81.8945 22.6537 81.5826C22.9375 81.2708 23.136 80.891 23.23 80.48L26.23 70.63C26.52 69.63 26.77 68.71 26.97 67.71C27.4684 65.2711 27.7263 62.7892 27.74 60.3V59.74C27.7595 58.7592 27.5338 57.789 27.0833 56.9176C26.6327 56.0462 25.9716 55.3011 25.16 54.75Z" fill="url(#paint12_linear_1122_3070)"/>
<path d="M73.7901 26.8599L73.4501 27.1599C72.941 27.6133 72.3883 28.0153 71.8 28.3599L72.3 27.9399C72.8309 27.6296 73.33 27.2679 73.7901 26.8599Z" fill="#44CAFA"/>
<path d="M77.87 19.5499L77.78 19.99C77.9142 19.3689 77.9813 18.7353 77.98 18.1L78.1 17.45C78.0961 18.156 78.019 18.8598 77.87 19.5499Z" fill="#44CAFA"/>
<path d="M72.3 27.9399L71.8 28.3599L64.23 32.7299L64.45 32.4799L72.3 27.9399Z" fill="#44CAFA"/>
<path d="M77.95 7.29996L78.0699 6.64996L78.0999 17.45L77.9799 18.1L77.95 7.29996Z" fill="#44CAFA"/>
<path d="M58.54 43.7599L56.36 42.4999L56.65 34.5399L58.83 35.7999L58.54 43.7599Z" fill="#21B7ED"/>
<path d="M59.73 41.62L58.54 43.76L58.83 35.8L59.97 35.09L59.73 41.62Z" fill="#44CAFA"/>
<path d="M74.05 1.32994L76.2301 2.59994C75.0801 1.92994 73.4901 2.02994 71.7301 3.03994L69.55 1.76994C71.31 0.759942 72.9 0.669942 74.05 1.32994Z" fill="#21B7ED"/>
<path d="M72.23 3.99994L71.73 2.99994C75.22 0.999937 78.06 2.59994 78.07 6.60994L77.95 7.25994C77.94 3.67994 75.38 2.21994 72.23 3.99994Z" fill="#44CAFA"/>
<path d="M60 35.0899L58.86 35.7999C55.7 37.2199 53.24 35.5599 53.23 31.7999L54.35 31.7299C54.33 35.1299 56.55 36.6299 60 35.0899Z" fill="#44CAFA"/>
<path d="M55.05 35.8799L52.87 34.6099C51.73 33.9499 51.03 32.5499 51.03 30.6099L53.2 31.8799C53.21 33.8199 53.91 35.2199 55.05 35.8799Z" fill="#21B7ED"/>
<path d="M53.2 31.83L51.03 30.5599L51 19.7599L53.17 21.0199L53.2 31.83Z" fill="#21B7ED"/>
<path d="M54.32 31.76L53.2 31.83L53.17 21.02L54.29 20.96L54.32 31.76Z" fill="#44CAFA"/>
<path d="M59.47 10.12L57.29 8.85997L69.55 1.77997L71.73 3.03997L59.47 10.12Z" fill="#21B7ED"/>
<path d="M59.97 11.1199L59.47 10.1199L71.73 3.03992L72.23 4.03992L59.97 11.1199Z" fill="#44CAFA"/>
<path d="M51.22 17.6599V17.4199L51.27 17.2199C51.8663 14.5764 53.2631 12.181 55.27 10.3599L55.6 10.0599C53.401 12.0889 51.8731 14.7401 51.22 17.6599Z" fill="#44CAFA"/>
<path d="M72.23 3.99994C75.38 2.17994 77.94 3.63994 77.95 7.25994V18.0599C77.8455 20.0316 77.2765 21.9507 76.2894 23.6607C75.3023 25.3708 73.9251 26.8233 72.27 27.8999L64.42 32.4399L59.7 41.5799L59.94 35.0499C56.52 36.5899 54.3 35.0499 54.29 31.7199V20.9199C54.4017 18.9519 54.9772 17.0382 55.9695 15.335C56.9619 13.6319 58.343 12.1875 60 11.1199L72.23 3.99994Z" fill="#73D8FF"/>
<path d="M54.29 20.9999L53.17 21.0599C53.2867 18.8751 53.9183 16.7488 55.0131 14.8545C56.108 12.9603 57.6352 11.3516 59.47 10.1599L59.97 11.1599C58.3133 12.2348 56.9347 13.6869 55.9474 15.3973C54.9601 17.1077 54.3922 19.0277 54.29 20.9999Z" fill="#44CAFA"/>
<path d="M53.17 20.9999L51 19.7599C51.1167 17.5737 51.7482 15.4461 52.843 13.5502C53.9378 11.6543 55.4649 10.0438 57.3 8.84991L59.48 10.1199C57.6459 11.3086 56.1184 12.9135 55.0219 14.8042C53.9254 16.6948 53.2909 18.8177 53.17 20.9999Z" fill="#21B7ED"/>
<path d="M64.61 27.23L63.4201 26.54C63.3001 26.4565 63.2147 26.332 63.1801 26.19L64.3801 26.88C64.392 26.9511 64.4187 27.0189 64.4583 27.0792C64.4978 27.1394 64.5495 27.1908 64.61 27.23Z" fill="#21B7ED"/>
<path d="M64.38 26.88L63.19 26.19L62.74 24.81L63.93 25.5L64.38 26.88Z" fill="#21B7ED"/>
<path d="M59.8801 29.94L58.6901 29.25C58.6288 29.2081 58.5829 29.1473 58.5594 29.0769C58.536 29.0064 58.5362 28.9303 58.5601 28.86L59.7501 29.55C59.7262 29.6203 59.726 29.6964 59.7494 29.7669C59.7729 29.8373 59.8188 29.8981 59.8801 29.94Z" fill="#21B7ED"/>
<path d="M61.73 25.4L60.54 24.71L62.4 23.63L63.6 24.33L61.73 25.4Z" fill="#21B7ED"/>
<path d="M63.6001 24.33L62.4001 23.63L61.4801 20.47L62.6701 21.16L63.6001 24.33Z" fill="#21B7ED"/>
<path d="M59.7501 29.55L58.5601 28.86L60.86 18.29L62.05 18.98L59.7501 29.55Z" fill="#21B7ED"/>
<path d="M61.8501 17.19L63.0501 17.88C62.9843 17.8524 62.9123 17.8435 62.8417 17.8541C62.7712 17.8646 62.7049 17.8944 62.6501 17.94C62.485 18.0547 62.3462 18.2032 62.2427 18.3755C62.1393 18.5479 62.0736 18.7403 62.0501 18.94L60.8601 18.25C60.878 18.0419 60.941 17.8402 61.0446 17.6589C61.1482 17.4776 61.29 17.321 61.4601 17.2C61.5185 17.1642 61.5853 17.1445 61.6538 17.1427C61.7222 17.141 61.79 17.1573 61.8501 17.19Z" fill="#21B7ED"/>
<path d="M65.59 26.18C65.5873 26.3812 65.5336 26.5786 65.434 26.7535C65.3343 26.9283 65.1918 27.0751 65.02 27.18C64.65 27.4 64.46 27.18 64.38 26.87L63.93 25.49L61.41 27L61 28.85C60.9686 29.0601 60.8958 29.262 60.786 29.4439C60.6761 29.6259 60.5313 29.7843 60.36 29.91C60.03 30.1 59.71 29.91 59.79 29.55L62.05 19C62.0735 18.8003 62.1392 18.6079 62.2426 18.4355C62.3461 18.2631 62.4849 18.1147 62.65 18C63.04 17.77 63.19 18 63.27 18.33L65.59 26.18ZM61.73 25.4L63.6 24.33L62.67 21.16L61.75 25.39L61.73 25.4Z" fill="white"/>
<path d="M72.8101 20.14L74.0001 20.83C73.9272 20.8014 73.8479 20.7929 73.7706 20.8052C73.6933 20.8175 73.6206 20.8502 73.5601 20.9L72.3701 20.2C72.432 20.1528 72.5051 20.1224 72.5822 20.1119C72.6593 20.1014 72.7379 20.1111 72.8101 20.14Z" fill="#21B7ED"/>
<path d="M71.8101 21.9L70.6201 21.2099L72.3701 20.2L73.5601 20.9L71.8101 21.9Z" fill="#21B7ED"/>
<path d="M68.8801 23.6L67.6901 22.9L69.4401 21.9L70.6301 22.59L68.8801 23.6Z" fill="#21B7ED"/>
<path d="M68.4501 25L67.2601 24.31C67.1601 24.25 67.1001 24.12 67.1001 23.9C67.1039 23.6966 67.1602 23.4976 67.2636 23.3224C67.367 23.1472 67.5139 23.0016 67.6901 22.9L68.8801 23.6C68.7019 23.6993 68.5533 23.8443 68.4496 24.02C68.3459 24.1958 68.2909 24.3959 68.2901 24.6C68.2901 24.84 68.3501 25 68.4501 25Z" fill="#21B7ED"/>
<path d="M72.7801 10.8899L73.9701 11.5899C73.8976 11.562 73.8193 11.5528 73.7424 11.5633C73.6654 11.5738 73.5924 11.6036 73.5301 11.6499L72.3401 10.9999C72.3991 10.9475 72.47 10.9101 72.5466 10.891C72.6232 10.8718 72.7033 10.8715 72.7801 10.8899Z" fill="#21B7ED"/>
<path d="M70.63 22.59L69.44 21.9L69.41 14.02L70.61 14.71L70.63 22.59Z" fill="#21B7ED"/>
<path d="M68.86 14.35L67.67 13.66L72.34 10.96L73.53 11.65L68.86 14.35Z" fill="#21B7ED"/>
<path d="M68.4201 15.7799L67.2301 15.0899C67.1401 15.0399 67.0801 14.9099 67.0701 14.6799C67.0739 14.4753 67.1313 14.2753 67.2366 14.0998C67.3419 13.9244 67.4913 13.7796 67.6701 13.6799L68.86 14.3699C68.6825 14.4701 68.5345 14.6152 68.4309 14.7908C68.3274 14.9664 68.2719 15.1661 68.2701 15.3699C68.2701 15.5999 68.3301 15.7299 68.4201 15.7799Z" fill="#21B7ED"/>
<path d="M73.53 11.65C73.84 11.48 74.13 11.5 74.13 11.99C74.1234 12.1928 74.0659 12.3906 73.9628 12.5654C73.8597 12.7401 73.7143 12.8861 73.54 12.99L71.79 13.99V21.87L73.54 20.87C73.85 20.69 74.13 20.72 74.13 21.21C74.1272 21.4136 74.0713 21.6129 73.9678 21.7883C73.8644 21.9637 73.7169 22.109 73.54 22.21L68.89 25C68.58 25.18 68.29 25.15 68.29 24.66C68.2908 24.4559 68.3459 24.2558 68.4496 24.08C68.5532 23.9043 68.7018 23.7593 68.88 23.66L70.63 22.66V14.78L68.88 15.78C68.57 15.95 68.29 15.93 68.29 15.44C68.2919 15.2361 68.3473 15.0364 68.4509 14.8608C68.5545 14.6853 68.7025 14.5401 68.88 14.44L73.53 11.65Z" fill="white"/>
<defs>
<linearGradient id="paint0_linear_1122_3070" x1="26.3299" y1="104.85" x2="42.0999" y2="77.53" gradientUnits="userSpaceOnUse">
<stop stop-color="#485D80"/>
<stop offset="0.81" stop-color="#4A689B"/>
<stop offset="1" stop-color="#4B6BA2"/>
</linearGradient>
<linearGradient id="paint1_linear_1122_3070" x1="9.20995" y1="89.49" x2="37.05" y2="41.26" gradientUnits="userSpaceOnUse">
<stop stop-color="#5CD8FF"/>
<stop offset="0.1" stop-color="#58D8FF"/>
<stop offset="0.62" stop-color="#46D6FF"/>
<stop offset="1" stop-color="#40D6FF"/>
</linearGradient>
<linearGradient id="paint2_linear_1122_3070" x1="34.6101" y1="102.98" x2="34.6101" y2="38.6699" gradientUnits="userSpaceOnUse">
<stop stop-color="#5CD8FF"/>
<stop offset="0.1" stop-color="#58D8FF"/>
<stop offset="0.62" stop-color="#46D6FF"/>
<stop offset="1" stop-color="#40D6FF"/>
</linearGradient>
<linearGradient id="paint3_linear_1122_3070" x1="59.99" y1="89.4999" x2="32.1501" y2="41.2799" gradientUnits="userSpaceOnUse">
<stop stop-color="#5CD8FF"/>
<stop offset="0.1" stop-color="#58D8FF"/>
<stop offset="0.62" stop-color="#46D6FF"/>
<stop offset="1" stop-color="#40D6FF"/>
</linearGradient>
<linearGradient id="paint4_linear_1122_3070" x1="54.7801" y1="68.64" x2="42.7601" y2="47.84" gradientUnits="userSpaceOnUse">
<stop offset="0.73" stop-color="#DEDEEB"/>
<stop offset="0.93" stop-color="#EAE9F2"/>
</linearGradient>
<linearGradient id="paint5_linear_1122_3070" x1="20.58" y1="66.72" x2="48.17" y2="66.72" gradientUnits="userSpaceOnUse">
<stop offset="0.37" stop-color="#CACCDE"/>
<stop offset="0.97" stop-color="#EAE9F2"/>
</linearGradient>
<linearGradient id="paint6_linear_1122_3070" x1="29.41" y1="65.03" x2="39.88" y2="46.89" gradientUnits="userSpaceOnUse">
<stop stop-color="#CACCDE"/>
<stop offset="0.56" stop-color="#EAE9F2"/>
</linearGradient>
<linearGradient id="paint7_linear_1122_3070" x1="32.25" y1="52.7799" x2="53.58" y2="52.7799" gradientUnits="userSpaceOnUse">
<stop offset="0.24" stop-color="#A8A4B5"/>
<stop offset="1" stop-color="#DBD3E2"/>
</linearGradient>
<linearGradient id="paint8_linear_1122_3070" x1="21.42" y1="70.77" x2="43.49" y2="20.88" gradientUnits="userSpaceOnUse">
<stop offset="0.37" stop-color="#CACCDE"/>
<stop offset="0.97" stop-color="#EAE9F2"/>
</linearGradient>
<linearGradient id="paint9_linear_1122_3070" x1="28.94" y1="47.13" x2="40.35" y2="27.37" gradientUnits="userSpaceOnUse">
<stop stop-color="#CACCDE"/>
<stop offset="0.56" stop-color="#EAE9F2"/>
</linearGradient>
<linearGradient id="paint10_linear_1122_3070" x1="23.47" y1="86.0299" x2="17.78" y2="53.9899" gradientUnits="userSpaceOnUse">
<stop stop-color="#CACCDE"/>
<stop offset="1" stop-color="#DFDEEE"/>
</linearGradient>
<linearGradient id="paint11_linear_1122_3070" x1="21.89" y1="83.69" x2="19.86" y2="53.03" gradientUnits="userSpaceOnUse">
<stop stop-color="#CACCDE"/>
<stop offset="1" stop-color="#DFDEEE"/>
</linearGradient>
<linearGradient id="paint12_linear_1122_3070" x1="28.4" y1="78.46" x2="16.41" y2="57.7" gradientUnits="userSpaceOnUse">
<stop offset="0.68" stop-color="#DEDEEB"/>
<stop offset="0.81" stop-color="#EAE9F2"/>
</linearGradient>
</defs>
</svg>
