<svg width="72" height="70" viewBox="0 0 72 70" fill="none" xmlns="http://www.w3.org/2000/svg">
<path d="M42.6169 62.1934C42.6361 58.6533 37.682 55.7566 31.5518 55.7234C25.4215 55.6902 20.4364 58.5332 20.4172 62.0732C20.3981 65.6133 25.3521 68.51 31.4824 68.5432C37.6127 68.5764 42.5978 65.7335 42.6169 62.1934Z" fill="#EEF1F5"/>
<path opacity="0.56" d="M63 1.70996L63.26 1.85995C68.26 4.74995 71.1 8.59997 71.32 12.69L71.38 37.12C71.16 33.03 68.3 29.18 63.32 26.29L63.06 26.14C62.024 25.5411 60.9519 25.0068 59.85 24.54L59.79 0.0999756C60.8903 0.574163 61.962 1.11172 63 1.70996Z" fill="url(#paint0_linear_1124_3073)"/>
<path d="M71.27 12.69L71.33 37.12L71.56 37.11L71.49 12.68L71.27 12.69Z" fill="#2197FF"/>
<path d="M59.87 0L59.74 0.100006C60.8572 0.57243 61.9458 1.11001 63 1.70999L63.26 1.85999C68.26 4.74999 71.1 8.6 71.32 12.69H71.54C71.32 8.57 68.44 4.68999 63.42 1.76999L63.16 1.63C62.098 1.01925 60.9993 0.474868 59.87 0Z" fill="#A2FFFF"/>
<path d="M52.6001 27.6699C53.0954 27.9689 53.5324 28.3551 53.8901 28.8099C54.6101 29.7099 54.8901 30.6299 54.5101 30.9299L51.7501 33.1699C50.3881 34.2625 48.901 35.189 47.3201 35.9299L45.8801 36.5899C45.633 36.6524 45.375 36.6579 45.1255 36.6059C44.876 36.5539 44.6416 36.4459 44.4401 36.2899C44.0501 36.0699 43.3601 35.3499 43.2301 35.3499C41.9201 34.0699 41.1601 32.4299 41.5801 31.7599L41.7301 31.5199C42.3426 30.5141 43.2407 29.7134 44.3101 29.2199C44.7883 29.0027 45.2876 28.8351 45.8001 28.7199L51.6901 27.4299C52.0124 27.3973 52.3357 27.4825 52.6001 27.6699Z" fill="#CFD0E0"/>
<path d="M55.1501 28C54.4717 27.1378 53.6455 26.403 52.7101 25.83C52.2042 25.4806 51.5926 25.318 50.9801 25.37L45.0901 26.66C44.5462 26.7807 44.0166 26.9583 43.5101 27.19C42.3776 27.7136 41.427 28.5631 40.7801 29.63L40.6301 29.87C39.9601 30.96 41.1801 33.61 43.3101 35.71C43.9096 36.3022 44.5816 36.8163 45.3101 37.24C45.6404 37.4918 46.0226 37.6673 46.4289 37.7538C46.8353 37.8402 47.2557 37.8355 47.6601 37.74L49.0901 37.07C50.7031 36.3221 52.2179 35.3784 53.6001 34.26L56.3401 32C57.0001 31.47 56.5301 29.73 55.1501 28ZM51.7501 33.15C50.3881 34.2425 48.901 35.169 47.3201 35.91L45.8801 36.57C45.633 36.6325 45.375 36.6379 45.1255 36.5859C44.876 36.534 44.6416 36.4259 44.4401 36.27C44.0501 36.05 43.3601 35.33 43.2301 35.33C41.9201 34.05 41.1601 32.41 41.5801 31.74L41.7301 31.5C42.3426 30.4941 43.2407 29.6935 44.3101 29.2C44.7883 28.9827 45.2876 28.8152 45.8001 28.7L51.6901 27.41C52.0124 27.3773 52.3357 27.4626 52.6001 27.65C53.0954 27.9489 53.5324 28.3352 53.8901 28.79C54.6101 29.69 54.8901 30.61 54.5101 30.91L51.7501 33.15Z" fill="#CFD0E0"/>
<path d="M57.23 26.17C56.5516 25.3079 55.7255 24.5731 54.79 24C54.2847 23.6487 53.6736 23.4826 53.06 23.53L47.17 24.83C46.6262 24.9507 46.0966 25.1283 45.59 25.36C45.0302 25.6212 44.5087 25.9576 44.04 26.36L42 28.22C42.4687 27.8176 42.9902 27.4812 43.55 27.22C44.0566 26.9884 44.5862 26.8107 45.13 26.69L51 25.39C51.6126 25.3381 52.2242 25.5007 52.73 25.85C53.6567 26.4191 54.4758 27.1468 55.15 28C56.51 29.69 57.03 31.41 56.36 32L58.44 30.15C59.11 29.58 58.59 27.86 57.23 26.17Z" fill="url(#paint1_linear_1124_3073)"/>
<path d="M47.0501 39.8099C47.0501 41.6699 45.4701 62.6199 31.5201 62.6199C17.5701 62.6199 15.8101 40.5699 15.8101 39.8199L47.0501 39.8099Z" fill="url(#paint2_linear_1124_3073)"/>
<path d="M35.8001 36.1C34.4291 36.7775 32.9174 37.1216 31.3881 37.1042C29.8589 37.0868 28.3554 36.7085 27.0001 36C24.5901 34.57 24.6501 32.28 27.1201 30.89C28.496 30.2059 30.0144 29.8574 31.5509 29.8731C33.0874 29.8887 34.5984 30.268 35.9601 30.98C38.3301 32.42 38.2801 34.71 35.8001 36.1Z" fill="#C0BACA"/>
<path d="M46.9001 38.57C46.8101 38.21 46.6701 37.73 46.5401 37.38C46.3908 36.9618 46.2206 36.5512 46.0301 36.15C45.6864 35.4448 45.2745 34.7749 44.8001 34.15C44.2708 33.4381 43.6674 32.7845 43.0001 32.2C42.3075 31.5904 41.5612 31.0448 40.7701 30.57C40.4701 30.39 40.0501 30.17 39.7701 30L38.9301 29.61C38.3233 29.3486 37.7023 29.1216 37.0701 28.93C36.9901 28.93 36.2901 28.69 35.2401 28.48C34.5501 28.35 33.8301 28.25 33.4301 28.22C33.0301 28.19 32.8001 28.16 32.5201 28.15H31.6201C31.3501 28.15 30.9901 28.15 30.7101 28.15C30.1501 28.15 29.4501 28.23 28.9001 28.29C28.9001 28.29 28.0001 28.4 27.0601 28.61C26.7601 28.68 26.3601 28.78 26.0601 28.87L25.1801 29.14C24.8501 29.25 24.4201 29.42 24.1001 29.55L23.2501 29.93C22.8697 30.1102 22.4992 30.3105 22.1401 30.53C21.6701 30.81 21.0501 31.22 20.6101 31.53C20.1338 31.9032 19.6797 32.3039 19.2501 32.73C18.8931 33.0922 18.5592 33.4763 18.2501 33.88C18.0901 34.09 17.8701 34.36 17.7301 34.58C17.5901 34.8 17.2401 35.38 17.0401 35.72C16.8433 36.0903 16.6663 36.4709 16.5101 36.86C16.3301 37.34 16.1301 37.99 15.9901 38.49C15.3301 41.16 16.7501 43.98 20.2501 46.08C26.2501 49.67 36.1501 49.77 42.3301 46.3C46.0001 44.22 47.5601 41.33 46.9001 38.57ZM35.8001 36.1C34.429 36.7775 32.9173 37.1216 31.3881 37.1042C29.8589 37.0869 28.3554 36.7085 27.0001 36C24.5901 34.57 24.6501 32.28 27.1201 30.89C28.496 30.206 30.0144 29.8575 31.5509 29.8731C33.0874 29.8888 34.5984 30.2681 35.9601 30.98C38.3301 32.42 38.2801 34.71 35.8001 36.1Z" fill="url(#paint3_linear_1124_3073)"/>
<g style="mix-blend-mode:multiply">
<path d="M35 62.12C33.8572 62.4567 32.6714 62.6251 31.48 62.62C21 62.62 17.39 50 16.27 43.51C18.34 41.95 17.68 39.04 18.9 38.33L19.71 37.86C20.7336 38.5112 21.6856 39.2688 22.55 40.12C24.89 43.06 23.97 52.67 25.49 57.23C26.8 61.16 30.67 62.39 35 62.12Z" fill="#EBEBEB"/>
</g>
<path d="M39.41 38.7C35 41.25 27.82 41.24 23.41 38.7C19 36.16 18.95 32 23.36 29.45C27.77 26.9 34.95 26.91 39.36 29.45C43.77 31.99 43.82 36.15 39.41 38.7Z" fill="#D4D5E6"/>
<path d="M21.3601 35.22C21.7201 35.44 22.2 35.71 22.57 35.89C23.1854 36.1975 23.8201 36.4647 24.4701 36.69C24.7601 36.8 25.1501 36.93 25.4701 37.01C26.0201 37.16 26.75 37.34 27.3 37.46C27.59 37.52 27.99 37.59 28.3 37.62L29.3 37.74C29.59 37.74 29.97 37.8 30.3 37.81H31.3H32.3C32.6 37.81 32.99 37.81 33.3 37.76C33.87 37.7 34.6301 37.6 35.2001 37.52C35.5001 37.47 35.91 37.39 36.2 37.32L37.13 37.08L38.2201 36.75C38.6001 36.62 39.1001 36.42 39.4801 36.26C39.8601 36.1 40.62 35.73 41.1 35.47C41.58 35.21 42.0301 34.91 42.4101 34.65C42.7073 34.4512 42.9943 34.2376 43.27 34.01C43.63 33.72 44.09 33.3 44.43 33.01C43.671 33.7444 42.8167 34.3734 41.89 34.88C35.96 38.19 26.55 38.09 20.89 34.67C20.1347 34.2219 19.4334 33.6884 18.8 33.08C19.08 33.35 19.47 33.69 19.8 33.94L20.2701 34.31C20.6194 34.6297 20.9831 34.9334 21.3601 35.22Z" fill="url(#paint4_linear_1124_3073)"/>
<path d="M33.0801 37.78C40.9201 37.78 49.0801 29.98 49.0801 24.67C49.1144 21.9155 48.7506 19.1705 48.0001 16.52C46.3301 10.89 15.0801 13.68 14.4601 17.68C14.3001 18.68 14.2701 19.35 14.2301 19.58C14.0301 20.77 12.7501 27.49 17.5901 32.14C22.4301 36.79 27.1301 37.78 33.0801 37.78Z" fill="url(#paint5_linear_1124_3073)"/>
<path d="M48.2499 17.35C48.1499 16.96 47.9999 16.43 47.8699 16.04C47.7399 15.65 47.4999 15.1 47.3099 14.71C46.9383 13.9335 46.4893 13.1965 45.9699 12.51C45.3962 11.7491 44.7498 11.0457 44.0399 10.41C43.2901 9.74592 42.4799 9.15336 41.6199 8.64001C41.2508 8.41386 40.8703 8.20689 40.4799 8.01999C40.2099 7.87999 39.8399 7.71 39.5599 7.59C38.9068 7.30811 38.2392 7.06111 37.5599 6.85001C36.9036 6.64683 36.2358 6.48318 35.5599 6.35999C34.8099 6.20999 34.0199 6.11001 33.5599 6.07001C33.0999 6.03001 32.8699 5.99999 32.5599 5.98999H31.5599H30.5599C29.9399 5.98999 29.1799 6.07999 28.5599 6.14999C28.5599 6.14999 27.5599 6.27 26.5599 6.5C26.2299 6.57 25.7999 6.67999 25.4799 6.76999L24.4799 7.07001C24.1199 7.19001 23.6499 7.37999 23.3099 7.51999C22.9699 7.65999 22.6499 7.81 22.3799 7.94C21.9653 8.13136 21.5614 8.34499 21.1699 8.57999C20.6499 8.89999 19.9799 9.34001 19.5099 9.70001C19.0195 10.1 18.5584 10.5344 18.1299 11C17.7274 11.3855 17.35 11.7964 16.9999 12.23C16.8299 12.46 16.5999 12.76 16.4399 13C16.2799 13.24 15.9099 13.87 15.6899 14.25C15.4697 14.6453 15.2792 15.0565 15.1199 15.48C14.9199 16 14.6999 16.72 14.5499 17.26C13.8299 20.17 15.3699 23.26 19.1899 25.52C25.7399 29.43 36.4999 29.52 43.2399 25.76C47.2999 23.5 48.9999 20.35 48.2499 17.35Z" fill="url(#paint6_linear_1124_3073)"/>
<path d="M48.8901 23C48.948 23.8012 48.8873 24.6065 48.7101 25.39C48.0801 27.47 46.4201 29.39 43.6001 30.94C38.8101 33.61 32.1101 34.42 26.1801 33.38C24.3301 32.96 23.6401 32.81 22.7401 24.91C22.6201 22.68 23.3801 22.52 24.0601 22.63C29.8101 24.4 37.0601 23.92 42.0601 21.15C45.2901 19.35 46.8801 16.93 46.8201 14.53V14.37C46.9208 14.4161 47.0098 14.4845 47.0801 14.57C48.2356 17.2325 48.8508 20.0979 48.8901 23Z" fill="#003447"/>
<path d="M33.67 30.22C33.4404 30.2327 33.2108 30.1956 32.997 30.111C32.7831 30.0264 32.5902 29.8965 32.4314 29.7301C32.2727 29.5638 32.1519 29.365 32.0774 29.1474C32.0029 28.9298 31.9765 28.6987 32 28.47V27.82C31.9877 27.2876 32.1781 26.7704 32.5327 26.3731C32.8873 25.9758 33.3796 25.728 33.91 25.68H34.12C34.6315 25.6659 35.129 25.8484 35.51 26.19C35.7213 26.3855 35.8906 26.622 36.0075 26.885C36.1244 27.148 36.1865 27.4321 36.19 27.72V28.4C36.2266 28.6344 36.21 28.8741 36.1412 29.1013C36.0725 29.3284 35.9535 29.5371 35.7931 29.7119C35.6327 29.8868 35.4349 30.0233 35.2145 30.1112C34.9941 30.1991 34.7568 30.2363 34.52 30.22H33.82H33.67ZM34.18 26.72H33.91C33.6522 26.7591 33.4179 26.8919 33.2518 27.093C33.0858 27.2941 32.9997 27.5494 33.01 27.81V28.47C32.9904 28.6624 33.044 28.8552 33.16 29.01C33.3289 29.1278 33.536 29.1778 33.74 29.15H34.43C35.03 29.1 35.13 29 35.11 28.43V27.74C35.1061 27.5933 35.0732 27.4488 35.0131 27.3149C34.9531 27.181 34.867 27.0604 34.76 26.96C34.6838 26.8838 34.5934 26.8235 34.4939 26.7823C34.3944 26.7411 34.2877 26.7199 34.18 26.72Z" fill="#00BBFF"/>
<path d="M44.09 26.67C43.9101 26.6679 43.7327 26.6269 43.57 26.5499C43.3592 26.4283 43.1808 26.2575 43.0502 26.052C42.9196 25.8465 42.8407 25.6125 42.82 25.37L42.7 24.72C42.5699 24.2455 42.582 23.7433 42.7349 23.2757C42.8878 22.8082 43.1747 22.3958 43.56 22.09L43.7 22C43.8697 21.8962 44.0619 21.8347 44.2603 21.8208C44.4587 21.8069 44.6575 21.8409 44.84 21.92C45.1074 22.0579 45.3377 22.2579 45.5117 22.5032C45.6857 22.7486 45.7983 23.0321 45.84 23.3299L46 24C46.1441 24.4522 46.1225 24.9409 45.9393 25.3788C45.7561 25.8166 45.4232 26.175 45 26.39L44.84 26.47C44.6091 26.5943 44.3522 26.6628 44.09 26.67ZM44.35 22.87C44.3173 22.861 44.2828 22.861 44.25 22.87L44.1 22.9599C43.9143 23.163 43.7837 23.4102 43.7206 23.678C43.6576 23.9459 43.6643 24.2254 43.74 24.4899L43.86 25.14C43.86 25.43 44 25.54 44.04 25.56C44.1485 25.5761 44.259 25.5511 44.35 25.4899L44.5 25.41C44.92 25.19 45.06 24.78 44.94 24.18L44.8 23.5C44.7862 23.3698 44.7442 23.2441 44.6768 23.1319C44.6095 23.0196 44.5184 22.9234 44.41 22.85L44.35 22.87Z" fill="#00BBFF"/>
<path d="M16.36 39.92C16.929 40.3055 17.3914 40.8284 17.7044 41.4402C18.0173 42.0521 18.1706 42.7331 18.15 43.42V44.06C18.1388 46.7168 17.8675 49.3661 17.34 51.97C17.11 53.04 16.85 54.08 16.54 55.1L13.16 66.25C13.1248 66.4642 13.0369 66.6663 12.9042 66.8381C12.7716 67.0099 12.5983 67.146 12.4 67.2343C12.2017 67.3225 11.9845 67.3601 11.7681 67.3437C11.5517 67.3272 11.3427 67.2573 11.16 67.1401C10.7228 66.8407 10.3766 66.4265 10.1596 65.9431C9.94256 65.4596 9.86313 64.9257 9.93002 64.4L10.93 56.33C11.39 52.4234 12.01 48.59 12.79 44.83L13.48 41.49C13.74 40.2 14.65 39.49 15.71 39.66C15.75 39.82 16.15 39.79 16.36 39.92Z" fill="url(#paint7_linear_1124_3073)"/>
<path d="M17.2199 38C16.8744 37.7947 16.4952 37.6525 16.0999 37.58C14.3799 37.25 12.8999 38.47 12.4699 40.58L11.7799 43.91C10.9899 47.72 10.3599 51.63 9.88993 55.6L8.88993 63.67C8.76365 64.6711 8.91516 65.6875 9.32788 66.6082C9.7406 67.5289 10.3986 68.3183 11.2299 68.89C12.7999 69.8 14.4199 69.07 14.9899 67.19L18.4099 56C18.7399 54.93 19.0199 53.82 19.2499 52.69C19.8177 49.9325 20.1091 47.1253 20.1199 44.31V43.67C20.1467 42.5582 19.8955 41.4573 19.3891 40.4672C18.8827 39.477 18.1371 38.629 17.2199 38ZM17.3299 52C17.0999 53.07 16.8399 54.11 16.5299 55.13L13.1499 66.28C13.1147 66.4942 13.0268 66.6963 12.8941 66.8681C12.7615 67.0399 12.5882 67.176 12.3899 67.2643C12.1916 67.3525 11.9745 67.3901 11.758 67.3736C11.5416 67.3572 11.3326 67.2872 11.1499 67.17C10.7127 66.8707 10.3665 66.4565 10.1495 65.973C9.93246 65.4896 9.85303 64.9557 9.91993 64.43L10.9199 56.36C11.3799 52.4533 11.9999 48.62 12.7799 44.86L13.4699 41.52C13.7299 40.23 14.6399 39.52 15.6999 39.69C15.7699 39.85 16.1699 39.82 16.3799 39.95C16.9489 40.3355 17.4113 40.8583 17.7243 41.4702C18.0372 42.0821 18.1905 42.7631 18.1699 43.45V44.09C18.1488 46.7478 17.8675 49.3971 17.3299 52Z" fill="url(#paint8_linear_1124_3073)"/>
<path d="M19.2902 37.39C18.9469 37.1875 18.5715 37.0454 18.1802 36.97C17.7649 36.8808 17.3354 36.8808 16.9202 36.97L14.8402 37.54C15.2541 37.4395 15.6862 37.4395 16.1002 37.54C16.4954 37.6125 16.8747 37.7547 17.2202 37.96C18.1435 38.5906 18.8938 39.4429 19.4022 40.4388C19.9106 41.4347 20.1609 42.5422 20.1302 43.66V44.3C20.1194 47.1153 19.8279 49.9225 19.2602 52.68C19.0302 53.81 18.7502 54.92 18.4202 55.99L15.0002 67.14C14.893 67.6042 14.667 68.0325 14.3445 68.3832C14.0219 68.7338 13.6138 68.9946 13.1602 69.14L15.2402 68.58C15.6919 68.4311 16.0981 68.1692 16.4201 67.8192C16.7422 67.4691 16.9694 67.0425 17.0802 66.58L20.4602 55.43C20.7902 54.35 21.0702 53.25 21.3002 52.12C21.8575 49.3609 22.1489 46.5547 22.1702 43.74V43.1C22.205 41.9834 21.9597 40.8759 21.4566 39.8785C20.9536 38.8811 20.2088 38.0256 19.2902 37.39Z" fill="url(#paint9_linear_1124_3073)"/>
<path d="M30.6301 40.86L30.6901 65.29L30.7201 65.42L30.6501 40.99L30.6301 40.86Z" fill="#33EAFF"/>
<path opacity="0.57" d="M1.12019 30.47C2.74653 32.8127 4.89681 34.7438 7.40019 36.11L7.66018 36.26C13.7102 39.77 22.0902 41.45 30.6602 40.86L30.7202 65.29C22.1802 65.88 13.8102 64.21 7.72019 60.69L7.47019 60.54C4.96189 59.1769 2.8077 57.2453 1.18019 54.9L1.00019 55L0.940186 30.57L1.12019 30.47Z" fill="url(#paint10_linear_1124_3073)"/>
<path d="M0.910156 30.52H1.12016C2.74651 32.8627 4.89678 34.7938 7.40016 36.16L7.66016 36.31C13.7102 39.82 22.0902 41.5 30.6602 40.91V41.03C28.5924 41.165 26.518 41.165 24.4502 41.03C22.4056 40.9111 20.3712 40.6572 18.3602 40.27C16.4139 39.8937 14.4985 39.3723 12.6302 38.71C10.8554 38.0843 9.14163 37.2977 7.51015 36.36L7.25016 36.21C4.72339 34.8317 2.55263 32.8835 0.910156 30.52Z" fill="#4FF4FF"/>
<path opacity="0.56" d="M57.8302 34.0001L62.1502 31.5001C63.6301 30.6601 65.0091 29.6535 66.2602 28.5001C67.328 27.5381 68.2509 26.4265 69.0002 25.2001V49.6301C68.2749 50.8773 67.3721 52.0125 66.3202 53.0001C65.0718 54.1524 63.6963 55.1589 62.2202 56.0001L57.8902 58.5001C55.5628 59.8144 53.0848 60.8419 50.5102 61.5601L50.4502 37.1301C53.0288 36.3921 55.5073 35.3409 57.8302 34.0001Z" fill="url(#paint11_linear_1124_3073)"/>
<path d="M50.3501 36.99L50.4101 61.43L50.5101 61.54L50.4401 37.11L50.3501 36.99Z" fill="#33EAFF"/>
<path d="M68.7501 25.16C67.088 27.8102 64.7608 29.9788 62.0001 31.45L57.6701 34C55.3623 35.2963 52.9038 36.3038 50.3501 37L50.4501 37.12C53.0283 36.3852 55.5067 35.3374 57.8301 34L62.1501 31.5C63.63 30.66 65.009 29.6535 66.2601 28.5C67.3279 27.538 68.2508 26.4265 69.0001 25.2L68.7501 25.16Z" fill="#4FF4FF"/>
<path d="M38.67 31.2L38.47 30.47C39.497 30.2239 40.5007 29.8893 41.47 29.47L41.86 30.12C40.8294 30.5703 39.7622 30.9317 38.67 31.2Z" fill="#00BBFF"/>
<defs>
<linearGradient id="paint0_linear_1124_3073" x1="71.33" y1="18.61" x2="59.73" y2="18.61" gradientUnits="userSpaceOnUse">
<stop stop-color="#4272FF"/>
<stop offset="0.44" stop-color="#48A5FF"/>
<stop offset="0.92" stop-color="#4FE2FF"/>
</linearGradient>
<linearGradient id="paint1_linear_1124_3073" x1="54.1" y1="33.61" x2="47.37" y2="23.99" gradientUnits="userSpaceOnUse">
<stop offset="0.6" stop-color="#EAE9F2"/>
<stop offset="0.83" stop-color="#D3D4E3"/>
</linearGradient>
<linearGradient id="paint2_linear_1124_3073" x1="15.8101" y1="51.2099" x2="47.0501" y2="51.2099" gradientUnits="userSpaceOnUse">
<stop offset="0.37" stop-color="#CACCDE"/>
<stop offset="0.97" stop-color="#EAE9F2"/>
</linearGradient>
<linearGradient id="paint3_linear_1124_3073" x1="25.8101" y1="49.3" x2="37.6601" y2="28.76" gradientUnits="userSpaceOnUse">
<stop stop-color="#CACCDE"/>
<stop offset="0.56" stop-color="#EAE9F2"/>
</linearGradient>
<linearGradient id="paint4_linear_1124_3073" x1="29.0201" y1="35.42" x2="53.1701" y2="35.42" gradientUnits="userSpaceOnUse">
<stop offset="0.24" stop-color="#A8A4B5"/>
<stop offset="1" stop-color="#DBD3E2"/>
</linearGradient>
<linearGradient id="paint5_linear_1124_3073" x1="16.7601" y1="55.79" x2="41.7402" y2="-0.689981" gradientUnits="userSpaceOnUse">
<stop offset="0.37" stop-color="#CACCDE"/>
<stop offset="0.97" stop-color="#EAE9F2"/>
</linearGradient>
<linearGradient id="paint6_linear_1124_3073" x1="25.2799" y1="29.03" x2="38.1999" y2="6.66" gradientUnits="userSpaceOnUse">
<stop stop-color="#CACCDE"/>
<stop offset="0.56" stop-color="#EAE9F2"/>
</linearGradient>
<linearGradient id="paint7_linear_1124_3073" x1="17.37" y1="72.8" x2="10.93" y2="36.54" gradientUnits="userSpaceOnUse">
<stop stop-color="#CACCDE"/>
<stop offset="1" stop-color="#DFDEEE"/>
</linearGradient>
<linearGradient id="paint8_linear_1124_3073" x1="15.5899" y1="70.15" x2="13.2899" y2="35.45" gradientUnits="userSpaceOnUse">
<stop stop-color="#CACCDE"/>
<stop offset="1" stop-color="#DFDEEE"/>
</linearGradient>
<linearGradient id="paint9_linear_1124_3073" x1="22.9602" y1="64.24" x2="9.38014" y2="40.73" gradientUnits="userSpaceOnUse">
<stop offset="0.68" stop-color="#D2D3E5"/>
<stop offset="0.81" stop-color="#EAE9F2"/>
</linearGradient>
<linearGradient id="paint10_linear_1124_3073" x1="30.6902" y1="47.94" x2="0.910186" y2="47.94" gradientUnits="userSpaceOnUse">
<stop offset="0.1" stop-color="#4996FF"/>
<stop offset="0.13" stop-color="#4998FF"/>
<stop offset="0.66" stop-color="#4DADFF"/>
<stop offset="1" stop-color="#4FB5FF"/>
</linearGradient>
<linearGradient id="paint11_linear_1124_3073" x1="69.0302" y1="43.3701" x2="50.4402" y2="43.3701" gradientUnits="userSpaceOnUse">
<stop stop-color="#4272FF"/>
<stop offset="0.07" stop-color="#447FFF"/>
<stop offset="0.34" stop-color="#48AAFF"/>
<stop offset="0.58" stop-color="#4CC9FF"/>
<stop offset="0.78" stop-color="#4EDBFF"/>
<stop offset="0.92" stop-color="#4FE2FF"/>
</linearGradient>
</defs>
</svg>
