<svg width="48" height="98" viewBox="0 0 48 98" fill="none" xmlns="http://www.w3.org/2000/svg">
<path d="M38.21 26.08L37.91 26.35C37.4042 26.8002 36.8549 27.1988 36.27 27.54L36.72 27.16C37.2547 26.8556 37.7544 26.4934 38.21 26.08Z" fill="#FF405D"/>
<path d="M42.3 18.78V19V19.06V19.18C42.4379 18.556 42.5083 17.919 42.51 17.28L42.61 16.7C42.5801 17.4023 42.4762 18.0995 42.3 18.78Z" fill="#FF405D"/>
<path d="M42.4001 6.55002L42.5002 5.96002L42.5302 16.7L42.4301 17.28L42.4001 6.55002Z" fill="#FF405D"/>
<path d="M36.6499 3.27003L36.2 2.37002C39.67 0.370021 42.49 1.98003 42.5 5.96003L42.3999 6.55003C42.3899 2.92003 39.8099 1.45003 36.6499 3.27003Z" fill="#FF405D"/>
<path d="M38.7 0.790024L40.7 1.94003C39.56 1.27003 37.98 1.37003 36.23 2.37003L34.23 1.23003C36 0.220026 37.56 0.130024 38.7 0.790024Z" fill="#FF1F41"/>
<path d="M36.7201 27.16L36.2701 27.54L9.14014 43.21L9.59013 42.83L36.7201 27.16Z" fill="#FF405D"/>
<path d="M4.67009 43.64L2.67009 42.5C1.54009 41.84 0.840088 40.45 0.840088 38.5L2.84009 39.65C2.84009 41.6 3.54009 43 4.67009 43.64Z" fill="#FF1F41"/>
<path d="M9.59009 42.8301L9.14009 43.2101C5.67009 45.2101 2.85009 43.6001 2.84009 39.6201L3.84009 39.5601C3.86009 43.1901 6.43009 44.6601 9.59009 42.8301Z" fill="#FF405D"/>
<path d="M3.84006 39.5601L2.84006 39.6201L2.81006 28.8801L3.81006 28.8201L3.84006 39.5601Z" fill="#FF405D"/>
<path d="M2.84009 39.62L0.870087 38.47L0.840088 27.7401L2.81009 28.8801L2.84009 39.62Z" fill="#FF1F41"/>
<path d="M9.0701 18.04L7.1001 16.9L34.2301 1.23004L36.2001 2.37004L9.0701 18.04Z" fill="#FF1F41"/>
<path d="M9.52007 18.94L9.07007 18.04L36.2001 2.37L36.6501 3.28L9.52007 18.94Z" fill="#FF405D"/>
<path d="M1.06006 25.65L1.15005 25.25C1.74924 22.5991 3.14502 20.1948 5.15005 18.36C3.10861 20.342 1.68759 22.8748 1.06006 25.65Z" fill="#FF405D"/>
<path d="M36.6501 3.27004C39.8101 1.45004 42.3901 2.92004 42.4001 6.55004V17.28C42.2944 19.2604 41.7221 21.1877 40.7298 22.9047C39.7374 24.6217 38.3532 26.0798 36.6901 27.16L9.56006 42.83C6.40006 44.66 3.83007 43.19 3.82007 39.56V28.82C3.9265 26.8399 4.49917 24.9129 5.49142 23.196C6.48368 21.4791 7.86746 20.0208 9.53006 18.94L36.6501 3.27004Z" fill="#FF5F76"/>
<path d="M3.81006 28.82L2.81006 28.88C2.91744 26.7004 3.54097 24.5774 4.6293 22.6858C5.71764 20.7943 7.23966 19.1883 9.07007 18L9.52007 18.9C7.85218 19.9847 6.46511 21.4493 5.47258 23.1736C4.48005 24.8979 3.9103 26.833 3.81006 28.82Z" fill="#FF405D"/>
<path d="M2.81006 28.88L0.810059 27.73C0.926031 25.5578 1.5535 23.4437 2.64134 21.56C3.72918 19.6763 5.24663 18.0762 7.07007 16.89L9.07007 18.04C7.24496 19.2244 5.72622 20.8241 4.63817 22.7082C3.55011 24.5923 2.92365 26.7073 2.81006 28.88Z" fill="#FF1F41"/>
<path d="M13.0999 32.92L14.1999 33.55C14.1267 33.5234 14.0478 33.5159 13.9709 33.5282C13.8939 33.5404 13.8213 33.572 13.7599 33.62L12.6699 32.98C12.7303 32.9337 12.8016 32.9038 12.877 32.8933C12.9524 32.8827 13.0292 32.892 13.0999 32.92Z" fill="#FF1F41"/>
<path d="M9.69986 35.96L8.60986 35.32L12.6599 32.98L13.7599 33.62L9.69986 35.96Z" fill="#FF1F41"/>
<path d="M13.1598 29.36L12.0598 28.73L12.0498 25.49L13.1498 26.12L13.1598 29.36Z" fill="#FF1F41"/>
<path d="M8.52992 38L7.42992 37.36L7.41992 32.94L8.50992 33.58L8.52992 38Z" fill="#FF1F41"/>
<path d="M9.84 31.28L8.75 30.64L12.06 28.73L13.16 29.36L9.84 31.28Z" fill="#FF1F41"/>
<path d="M12.9099 24.07L13.9999 24.7C13.6999 24.56 13.4299 24.65 12.9999 24.87L11.9099 24.24C12.2999 24.01 12.5699 23.92 12.9099 24.06V24.07Z" fill="#FF1F41"/>
<path d="M8.50982 33.58L7.41983 32.94C7.40294 32.4704 7.51877 32.0055 7.75401 31.5987C7.98925 31.1919 8.33438 30.8596 8.74983 30.64L9.83983 31.28C9.42438 31.4996 9.07925 31.8319 8.84401 32.2387C8.60877 32.6455 8.49294 33.1104 8.50982 33.58Z" fill="#FF1F41"/>
<path d="M9.08998 27.11L7.98999 26.48L11.91 24.22L13 24.85L9.08998 27.11Z" fill="#FF1F41"/>
<path d="M8.6499 28.53L7.55991 27.9C7.45991 27.84 7.3999 27.72 7.3999 27.49C7.40272 27.2864 7.45864 27.087 7.56212 26.9116C7.66559 26.7363 7.81305 26.5909 7.98991 26.49L9.0899 27.12C8.91304 27.2209 8.76559 27.3663 8.66211 27.5416C8.55863 27.717 8.50273 27.9164 8.49991 28.12C8.49991 28.35 8.5599 28.48 8.6499 28.53Z" fill="#FF1F41"/>
<path d="M13 24.85C13.39 24.63 13.66 24.54 14 24.68C14.34 24.82 14.36 25.19 14.37 25.68V28.46C14.4079 28.9599 14.2815 29.4585 14.01 29.88C13.7899 30.2753 13.4599 30.5983 13.06 30.81L9.72996 32.73V36L13.79 33.66C14.09 33.48 14.38 33.51 14.38 34C14.3792 34.204 14.3241 34.4042 14.2204 34.5799C14.1168 34.7556 13.9682 34.9006 13.79 35L8.55996 38V33.58C8.54308 33.1104 8.65891 32.6455 8.89415 32.2387C9.12939 31.8319 9.47452 31.4996 9.88997 31.28L13.21 29.36V26.12L9.14996 28.47C8.83996 28.64 8.55996 28.62 8.55996 28.13C8.56278 27.9264 8.61869 27.727 8.72217 27.5516C8.82564 27.3762 8.9731 27.2309 9.14996 27.13L13 24.85Z" fill="white"/>
<path d="M21.22 30.5001L20.12 29.8701C20.02 29.8101 19.98 29.6601 19.98 29.4401L21.07 30.0701C21.07 30.3001 21.12 30.4401 21.22 30.5001Z" fill="#FF1F41"/>
<path d="M21.07 30.0701L19.98 29.44L19.97 26.67L21.06 27.31L21.07 30.0701Z" fill="#FF1F41"/>
<path d="M21.5799 24.57L22.6799 25.2C22.6062 25.1761 22.528 25.1699 22.4515 25.1821C22.375 25.1943 22.3025 25.2244 22.2399 25.27L21.1499 24.64C21.2083 24.5901 21.2793 24.5572 21.3551 24.5449C21.4309 24.5325 21.5087 24.5412 21.5799 24.57Z" fill="#FF1F41"/>
<path d="M18.7699 27.2701L17.6799 26.6401L19.9699 25.3201L21.0599 25.9501L18.7699 27.2701Z" fill="#FF1F41"/>
<path d="M21.06 25.95L19.97 25.32L19.96 21.4L21.05 22.04L21.06 25.95Z" fill="#FF1F41"/>
<path d="M21 20.31L22.09 20.94C22 20.89 21.86 20.94 21.66 21.02C21.4818 21.1194 21.3332 21.2644 21.2295 21.4401C21.1259 21.6158 21.0708 21.816 21.07 22.02L20 21.4C20.0008 21.196 20.0558 20.9958 20.1595 20.8201C20.2632 20.6444 20.4118 20.4994 20.59 20.4C20.75 20.27 20.89 20.25 21 20.31Z" fill="#FF1F41"/>
<path d="M17.6 29.31L16.5 28.68L16.49 22.25L17.58 22.89L17.6 29.31Z" fill="#FF1F41"/>
<path d="M17.5101 21.16L18.6001 21.79C18.5101 21.79 18.3701 21.79 18.1701 21.87L17.0701 21.23C17.2801 21.12 17.4201 21.1 17.5101 21.16Z" fill="#FF1F41"/>
<path d="M18.1701 21.8701C18.6201 21.6101 18.7601 21.8701 18.7601 22.2101V27.2701L21.0501 25.9501V22.0001C21.0509 21.796 21.1059 21.5959 21.2096 21.4201C21.3133 21.2444 21.4619 21.0994 21.6401 21.0001C22.0901 20.7401 22.2301 21.0001 22.2301 21.3401V25.2501C22.5401 25.0801 22.8201 25.1001 22.8201 25.5901C22.8173 25.7937 22.7614 25.993 22.6579 26.1684C22.5544 26.3438 22.4069 26.4891 22.2301 26.5901V29.3501C22.2384 29.5559 22.1872 29.7597 22.0825 29.937C21.9779 30.1144 21.8242 30.2578 21.6401 30.3501C21.2201 30.6001 21.0501 30.4501 21.0501 30.0101V27.2501L17.5901 29.2501V22.8301C17.5968 22.6338 17.6536 22.4426 17.7551 22.2746C17.8567 22.1065 17.9995 21.9673 18.1701 21.8701Z" fill="white"/>
<path d="M17.58 22.89L16.49 22.25C16.4908 22.0472 16.5448 21.8481 16.6465 21.6726C16.7483 21.4971 16.8943 21.3514 17.07 21.25L18.17 21.89C17.9918 21.9894 17.8432 22.1343 17.7395 22.3101C17.6358 22.4858 17.5808 22.686 17.58 22.89Z" fill="#FF1F41"/>
<path d="M25.67 27.8899L24.58 27.2499C24.5265 27.2134 24.4829 27.1641 24.4532 27.1065C24.4235 27.0488 24.4087 26.9847 24.41 26.9199C24.4451 26.6201 24.5331 26.329 24.67 26.0599L25.77 26.6999C25.6332 26.9655 25.5452 27.2534 25.51 27.5499C25.5028 27.6159 25.5139 27.6825 25.5421 27.7425C25.5703 27.8025 25.6146 27.8535 25.67 27.8899Z" fill="#FF1F41"/>
<path d="M30.0499 13.9399L31.1499 14.5799C31.0872 14.5399 31.0143 14.5186 30.9399 14.5186C30.8655 14.5186 30.7926 14.5399 30.7299 14.5799L29.6399 13.9399C29.7022 13.904 29.7729 13.885 29.8449 13.885C29.9169 13.885 29.9876 13.904 30.0499 13.9399Z" fill="#FF1F41"/>
<path d="M25.7599 26.7L24.6699 26.06L29.0599 14.83L30.1499 15.47L25.7599 26.7Z" fill="#FF1F41"/>
<path d="M30.1501 15.4699L29.0601 14.8299C29.151 14.4888 29.3556 14.1889 29.6401 13.9799L30.7301 14.6199C30.4438 14.8272 30.2387 15.1278 30.1501 15.4699Z" fill="#FF1F41"/>
<path d="M30.73 14.6199C31.03 14.4399 31.31 14.5699 31.31 14.9199C31.3037 15.1262 31.2596 15.3295 31.18 15.5199L26.68 26.9999C26.59 27.3307 26.3842 27.6182 26.1 27.8099C25.8 27.9799 25.51 27.8699 25.51 27.5099C25.5452 27.2133 25.6333 26.9255 25.77 26.6599L30.15 15.4299C30.2469 15.1024 30.4512 14.8171 30.73 14.6199Z" fill="white"/>
<path d="M36.49 21.68L35.4 21.05C35.3 20.99 35.25 20.84 35.25 20.62L36.35 21.26C36.35 21.48 36.39 21.62 36.49 21.68Z" fill="#FF1F41"/>
<path d="M36.35 21.25L35.25 20.62L35.24 17.35L36.34 17.99L36.35 21.25Z" fill="#FF1F41"/>
<path d="M36.64 17.03L35.55 16.39L37.17 13.84L38.26 14.47L36.64 17.03Z" fill="#FF1F41"/>
<path d="M36.3402 18L35.2402 17.36C35.2203 17.1809 35.2376 16.9997 35.2909 16.8277C35.3443 16.6556 35.4325 16.4964 35.5502 16.36L36.6402 17C36.5227 17.1362 36.4353 17.2957 36.3836 17.468C36.3319 17.6403 36.3171 17.8216 36.3402 18Z" fill="#FF1F41"/>
<path d="M38.2602 14.47L37.1702 13.84C37.3159 13.6815 37.4239 13.4922 37.4863 13.2861C37.5486 13.0801 37.5636 12.8626 37.5302 12.65L38.6302 13.29C38.6593 13.5018 38.6412 13.7174 38.5773 13.9214C38.5133 14.1254 38.405 14.3127 38.2602 14.47Z" fill="#FF1F41"/>
<path d="M38.63 13.29L37.53 12.65V10.78L38.62 11.42L38.63 13.29Z" fill="#FF1F41"/>
<path d="M34.1601 14.4799L33.0601 13.84C33.0014 13.7961 32.9543 13.7385 32.9229 13.6723C32.8916 13.606 32.8769 13.5332 32.8801 13.46L33.9801 14.1C33.975 14.1734 33.9889 14.2469 34.0205 14.3135C34.052 14.38 34.1 14.4373 34.1601 14.4799Z" fill="#FF1F41"/>
<path d="M33.9801 14.1L32.8801 13.46V12.79L33.9701 13.42L33.9801 14.1Z" fill="#FF1F41"/>
<path d="M34.56 12.4L33.47 11.77L38.71 8.73999L39.8 9.37999L34.56 12.4Z" fill="#FF1F41"/>
<path d="M39.8 9.38V13.31C39.8156 13.4896 39.7953 13.6705 39.7404 13.8421C39.6854 14.0138 39.5969 14.1728 39.48 14.31L37.84 16.9C37.7198 17.0354 37.6285 17.194 37.5718 17.366C37.515 17.5379 37.494 17.7196 37.51 17.9V20.53C37.5171 20.7356 37.4653 20.9389 37.3608 21.116C37.2563 21.2932 37.1033 21.4368 36.92 21.53C36.49 21.78 36.33 21.63 36.33 21.2V18C36.3069 17.8216 36.3217 17.6403 36.3734 17.468C36.4251 17.2957 36.5125 17.1362 36.63 17L38.25 14.44C38.3948 14.2828 38.5031 14.0954 38.5671 13.8914C38.6311 13.6874 38.6491 13.4718 38.62 13.26V11.39L35.16 13.39C35.1444 13.5906 35.0831 13.785 34.9808 13.9584C34.8786 14.1317 34.7381 14.2793 34.57 14.39C34.19 14.6 33.98 14.39 33.98 14.05V13.37C33.9956 13.1694 34.0569 12.975 34.1591 12.8017C34.2614 12.6283 34.4019 12.4807 34.57 12.37L39.8 9.38Z" fill="white"/>
<path d="M34.0002 13.42L32.9102 12.79C32.9258 12.5893 32.987 12.395 33.0893 12.2216C33.1916 12.0483 33.3321 11.9007 33.5002 11.79L34.5901 12.42C34.4221 12.5307 34.2816 12.6783 34.1793 12.8516C34.077 13.0249 34.0158 13.2194 34.0002 13.42Z" fill="#FF1F41"/>
<path d="M34.8801 93.88C32.7097 94.9768 30.3119 95.5482 27.8801 95.5482C25.4483 95.5482 23.0505 94.9768 20.8801 93.88C16.9901 91.64 16.9701 88.01 20.8801 85.78C23.0505 84.6831 25.4483 84.1117 27.8801 84.1117C30.3119 84.1117 32.7097 84.6831 34.8801 85.78C38.7301 88 38.7501 91.65 34.8801 93.88Z" fill="#EEF1F5"/>
<path d="M37.6799 42.48L39.7399 41.29C39.3135 40.9734 38.8089 40.7791 38.2802 40.728C37.7516 40.6769 37.2191 40.771 36.7399 41L34.6799 42.19C35.1611 41.9694 35.6921 41.88 36.219 41.9309C36.7459 41.9819 37.2499 42.1713 37.6799 42.48Z" fill="url(#paint0_linear_1124_3072)"/>
<path d="M37.6799 42.4799L39.7399 41.2899C40.9554 42.0766 41.967 43.1403 42.6918 44.3936C43.4167 45.6468 43.8341 47.0541 43.9099 48.4999C43.9612 49.0146 43.8753 49.5336 43.6611 50.0043C43.4468 50.475 43.1117 50.8806 42.6899 51.1799L40.6299 52.3799C41.0525 52.0814 41.3881 51.6759 41.6025 51.205C41.8169 50.7341 41.9023 50.2147 41.8499 49.6999C41.7725 48.2531 41.3544 46.8451 40.6298 45.5904C39.9052 44.3358 38.8944 43.27 37.6799 42.4799Z" fill="url(#paint1_linear_1124_3072)"/>
<path d="M38 40.4799L38.33 40.6499L38.01 39.8999C37.37 39.8099 36.73 39.74 36.09 39.71C35.66 39.71 35.23 39.71 34.79 39.71C35.6968 40.3407 36.3935 41.229 36.79 42.2599L39.09 43.59L38.53 41.53C38.3749 41.1695 38.1979 40.8189 38 40.4799Z" fill="#919BBD"/>
<path d="M36.46 38.63C36.0554 38.4992 35.6406 38.4022 35.22 38.34V40.26C35.4401 40.3025 35.6572 40.3593 35.87 40.43C36.5945 40.683 37.2528 41.0957 37.7963 41.6375C38.3398 42.1792 38.7546 42.8363 39.01 43.56L40.75 42.82C40.3899 41.8474 39.8183 40.967 39.0764 40.2423C38.3344 39.5177 37.4408 38.967 36.46 38.63Z" fill="url(#paint2_linear_1124_3072)"/>
<path d="M37.68 42.4799C38.8945 43.27 39.9052 44.3358 40.6298 45.5904C41.3545 46.8451 41.7725 48.2531 41.85 49.6999C41.85 52.3499 39.97 53.4199 37.66 52.0899C36.4455 51.2998 35.4348 50.2341 34.7101 48.9794C33.9855 47.7248 33.5674 46.3167 33.49 44.8699C33.5 42.2199 35.38 41.1499 37.68 42.4799Z" fill="url(#paint3_linear_1124_3072)"/>
<path d="M37.63 43.75C35.92 42.75 34.53 43.56 34.52 45.53C34.5792 46.6017 34.8898 47.6444 35.4266 48.5738C35.9634 49.5032 36.7113 50.2932 37.61 50.88C39.32 51.88 40.71 51.07 40.72 49.1C40.6608 48.0284 40.3503 46.9857 39.8135 46.0562C39.2767 45.1268 38.5287 44.3368 37.63 43.75Z" fill="url(#paint4_linear_1124_3072)"/>
<path d="M36.05 43C33.56 41.56 31.53 42.71 31.53 45.58C31.6113 47.1405 32.0604 48.6597 32.8407 50.0135C33.621 51.3674 34.7105 52.5175 36.02 53.37C38.52 54.81 40.54 53.65 40.55 50.79C40.4701 49.228 40.0204 47.7074 39.2381 46.3531C38.4558 44.9988 37.3631 43.8496 36.05 43Z" fill="#5B545F"/>
<path d="M34.0798 41.92C34.5939 41.6808 35.1627 41.5834 35.7271 41.6379C36.2915 41.6924 36.831 41.8968 37.2898 42.23C38.6007 43.082 39.6917 44.2318 40.4737 45.5856C41.2557 46.9393 41.7067 48.4588 41.7898 50.02C41.8436 50.5753 41.7498 51.1349 41.5181 51.6423C41.2863 52.1497 40.9247 52.587 40.4698 52.91L39.2399 53.63C39.6952 53.308 40.0565 52.8706 40.2868 52.3626C40.517 51.8547 40.6078 51.2947 40.5499 50.74C40.4699 49.178 40.0202 47.6574 39.2379 46.3031C38.4556 44.9488 37.363 43.7996 36.0499 42.95C35.5915 42.6162 35.0525 42.4106 34.4883 42.3543C33.9241 42.2981 33.3551 42.3933 32.8398 42.63L34.0798 41.92Z" fill="url(#paint5_linear_1124_3072)"/>
<path d="M37.2499 65.55C38.2823 66.1956 39.1136 67.1169 39.6499 68.21L39.8599 68.66C40.6745 70.4293 41.3433 72.262 41.8599 74.14C42.0499 74.87 42.2 75.58 42.32 76.26L43.57 83.74C43.68 84.4 43.2 84.58 42.46 84.15C41.6725 83.664 41.0571 82.9436 40.6999 82.09L38.6999 76.51C37.7599 73.8 36.94 71.17 36.27 68.61L35.66 66.34C35.43 65.46 35.83 65.03 36.66 65.29C36.79 65.41 37.0499 65.43 37.2499 65.55Z" fill="#CFD0E0"/>
<path d="M45.32 84.24L44.07 76.75C43.95 76.03 43.79 75.29 43.58 74.51C43.0381 72.5171 42.3289 70.5735 41.46 68.7L41.26 68.26C40.3866 66.474 39.0282 64.97 37.34 63.92C37.0505 63.7451 36.7418 63.6042 36.42 63.5C35.1 63.08 34.42 63.78 34.83 65.21L35.43 67.48C36.0967 70.08 36.9234 72.7466 37.91 75.48L39.91 81.06C40.5846 82.6903 41.7571 84.0658 43.26 84.99C44.62 85.83 45.53 85.49 45.32 84.24ZM42.46 84.15C41.6726 83.664 41.0572 82.9436 40.7 82.09L38.7 76.51C37.76 73.8 36.94 71.17 36.27 68.61L35.66 66.34C35.43 65.46 35.83 65.03 36.66 65.29C36.77 65.41 37.03 65.43 37.23 65.55C38.2624 66.1956 39.0937 67.1169 39.63 68.21L39.84 68.66C40.6545 70.4293 41.3234 72.262 41.84 74.14C42.03 74.87 42.18 75.58 42.3 76.26L43.55 83.74C43.68 84.4 43.2 84.58 42.46 84.15Z" fill="#CFD0E0"/>
<path d="M47.18 82.5799L45.93 75.0999C45.8045 74.3455 45.641 73.5979 45.44 72.8599C44.8981 70.8671 44.1889 68.9235 43.32 67.0499L43.12 66.5999C42.2464 64.8168 40.8878 63.316 39.2 62.2699C38.9126 62.091 38.6034 61.9498 38.28 61.8499C38.0608 61.7466 37.8186 61.7015 37.5769 61.719C37.3352 61.7365 37.102 61.8161 36.9 61.9499L35 63.6099C35.2 63.4717 35.4329 63.3887 35.6752 63.3694C35.9175 63.35 36.1607 63.3951 36.38 63.4999C36.7018 63.6041 37.0105 63.745 37.3 63.9199C38.9881 64.97 40.3466 66.474 41.22 68.2599L41.42 68.6999C42.2889 70.5735 42.9981 72.5171 43.54 74.5099C43.75 75.2899 43.91 76.0299 44.03 76.7499L45.28 84.2399C45.3276 84.4126 45.3315 84.5944 45.2914 84.769C45.2512 84.9436 45.1683 85.1054 45.05 85.2399L46.91 83.5899C47.0345 83.4567 47.1243 83.2949 47.1714 83.1187C47.2184 82.9426 47.2214 82.7575 47.18 82.5799Z" fill="url(#paint6_linear_1124_3072)"/>
<path d="M41.7201 71.23C41.7201 72.89 40.3101 91.61 27.8501 91.61C15.3901 91.61 13.8501 71.91 13.8501 71.23H41.7201Z" fill="url(#paint7_linear_1124_3072)"/>
<path d="M31.67 67.91C30.4428 68.5233 29.0873 68.8359 27.7154 68.822C26.3435 68.8081 24.9946 68.4681 23.78 67.83C21.63 66.55 21.68 64.5 23.89 63.26C25.1186 62.6514 26.4736 62.3414 27.8446 62.3553C29.2156 62.3692 30.564 62.7066 31.78 63.34C33.93 64.63 33.88 66.67 31.67 67.91Z" fill="#C0BACA"/>
<path d="M41.59 70.1199C41.5018 69.758 41.395 69.4009 41.27 69.0499C41.15 68.7199 40.97 68.2799 40.82 67.9599C40.5113 67.3232 40.143 66.7172 39.72 66.1499C39.2484 65.5222 38.7158 64.9427 38.13 64.4199C37.5105 63.8748 36.8408 63.3893 36.13 62.9699C35.86 62.8099 35.49 62.6099 35.2 62.4599L34.45 62.1099C33.9089 61.8777 33.3546 61.6773 32.79 61.5099C32.2518 61.3414 31.7042 61.2045 31.15 61.0999C30.54 60.9799 29.89 60.8999 29.53 60.8599L28.72 60.7999H27.92C27.67 60.7999 27.35 60.7999 27.11 60.7999C26.5647 60.813 26.0205 60.8564 25.48 60.9299C24.929 60.9957 24.3816 61.0892 23.84 61.2099C23.57 61.2699 23.21 61.3599 22.95 61.4399L22.16 61.6799C21.87 61.7799 21.48 61.9299 21.16 62.0499C20.84 62.1699 20.62 62.2899 20.39 62.3899C20.16 62.4899 19.69 62.7499 19.39 62.9199C19.09 63.0899 18.39 63.5399 18.03 63.8399C17.6005 64.1697 17.193 64.5271 16.81 64.9099C16.4865 65.2243 16.1826 65.5582 15.9 65.9099C15.76 66.0999 15.57 66.3499 15.44 66.5399C15.31 66.7299 15 67.2499 14.83 67.5399C14.6456 67.8595 14.4884 68.194 14.36 68.5399C14.1779 69.018 14.021 69.5054 13.89 69.9999C13.3 72.3899 14.56 74.9099 17.7 76.7799C23.07 79.9899 31.91 80.0799 37.43 76.9799C40.8 75.1699 42.18 72.5899 41.59 70.1199ZM31.67 67.9099C30.4428 68.5233 29.0873 68.8359 27.7154 68.822C26.3435 68.8081 24.9946 68.468 23.78 67.8299C21.63 66.5499 21.68 64.4999 23.89 63.2599C25.1186 62.6513 26.4736 62.3413 27.8446 62.3552C29.2156 62.3691 30.564 62.7065 31.78 63.3399C33.93 64.6299 33.88 66.6699 31.67 67.9099Z" fill="url(#paint8_linear_1124_3072)"/>
<g style="mix-blend-mode:multiply">
<path d="M31 91.1699C29.9768 91.4684 28.9157 91.6166 27.85 91.6099C18.41 91.6099 15.21 80.3199 14.22 74.5399C15.8225 73.3426 17.4919 72.2375 19.22 71.2299L19.96 70.8099C20.1049 70.9353 20.2357 71.0761 20.35 71.2299C22.35 73.9499 21.06 82.7199 22.42 86.7999C23.62 90.3099 27.08 91.4099 31 91.1699Z" fill="#EBEBEB"/>
</g>
<path d="M34.9001 70.24C32.6789 71.3639 30.2244 71.9495 27.7351 71.9495C25.2457 71.9495 22.7913 71.3639 20.5701 70.24C16.5701 67.95 16.5701 64.24 20.5701 61.97C22.7879 60.8407 25.2413 60.2521 27.7301 60.2521C30.2188 60.2521 32.6723 60.8407 34.8901 61.97C38.8201 64.26 38.8401 68 34.9001 70.24Z" fill="#D4D5E6"/>
<path d="M18.77 67.13C19.08 67.32 19.51 67.56 19.85 67.72C20.4024 67.9925 20.97 68.2329 21.55 68.44C21.8 68.54 22.16 68.65 22.42 68.73C22.91 68.86 23.56 69.02 24.06 69.12C24.3473 69.1845 24.6377 69.2346 24.93 69.27L25.78 69.38L26.64 69.44C26.9 69.44 27.24 69.44 27.5 69.44H28.35C28.6473 69.4383 28.9444 69.4216 29.24 69.39C29.75 69.39 30.43 69.25 30.93 69.18C31.21 69.18 31.57 69.06 31.84 69L32.67 68.79L33.67 68.49C34.02 68.38 34.47 68.2 34.8 68.06C35.13 67.92 35.8 67.58 36.25 67.34C36.7 67.1 37.08 66.84 37.42 66.61C37.6871 66.4381 37.9442 66.2511 38.19 66.05C38.51 65.78 38.92 65.41 39.19 65.12C38.5118 65.776 37.7482 66.3378 36.92 66.79C31.62 69.79 23.2 69.66 18.12 66.6C17.4474 66.2038 16.8232 65.7306 16.26 65.19L17.11 65.95L17.53 66.28C17.9286 66.5843 18.3425 66.868 18.77 67.13Z" fill="url(#paint9_linear_1124_3072)"/>
<path d="M29.24 69.41C36.24 69.41 43.55 62.41 43.55 57.69C43.5646 55.2281 43.2279 52.7767 42.55 50.41C41.05 45.41 13.12 47.87 12.55 51.41C12.42 52.28 12.39 52.9 12.35 53.11C12.17 54.17 11.03 60.18 15.35 64.33C19.67 68.48 23.92 69.41 29.24 69.41Z" fill="url(#paint10_linear_1124_3072)"/>
<path d="M42.7999 51.1499C42.7099 50.7999 42.5799 50.3299 42.4599 49.9899C42.3399 49.6499 42.1199 49.1399 41.9599 48.7899C41.2278 47.3469 40.2225 46.0598 38.9998 44.9999C38.3345 44.4023 37.6109 43.873 36.8398 43.4199C36.5398 43.2299 36.1298 43.0199 35.8398 42.8599L35.0199 42.4799C34.4331 42.2253 33.8321 42.0049 33.2198 41.8199C33.1398 41.8199 32.4598 41.5799 31.4398 41.3799C30.7598 41.2499 30.0598 41.1599 29.6698 41.1199C29.2798 41.0799 29.0498 41.0599 28.7898 41.0499H27.9099H26.9998C26.4398 41.0499 25.7698 41.1399 25.2298 41.1999C24.6282 41.2724 24.0308 41.3759 23.4398 41.5099C23.1398 41.5699 22.7598 41.6699 22.4398 41.7499L21.5798 42.0199C21.2598 42.1199 20.8398 42.2899 20.5298 42.4199C20.2198 42.5499 19.9498 42.6799 19.6998 42.7899C19.4498 42.8999 18.9398 43.1799 18.6198 43.3699C18.109 43.6766 17.615 44.0104 17.1398 44.3699C16.668 44.7301 16.2203 45.1209 15.7999 45.5399C15.4455 45.8904 15.1116 46.2611 14.7999 46.6499C14.6499 46.8499 14.4399 47.1199 14.2999 47.3399C14.1599 47.5599 13.8199 48.1099 13.6299 48.4499C13.4324 48.8047 13.2587 49.1722 13.1098 49.5499C12.9398 50.0199 12.7399 50.6599 12.5999 51.1399C11.9699 53.7399 13.3398 56.4899 16.7498 58.5199C22.5998 62.0199 32.2298 62.1199 38.2498 58.7399C41.9998 56.6499 43.4399 53.8399 42.7999 51.1499Z" fill="url(#paint11_linear_1124_3072)"/>
<g style="mix-blend-mode:multiply">
<path d="M35 42.4299C34.4133 42.1753 33.8123 41.9549 33.2 41.7699C33.12 41.7699 32.44 41.5299 31.42 41.3299C30.74 41.1999 30.04 41.1099 29.65 41.0699H29.06C28.06 41.3999 26.98 41.8299 25.74 42.3799C19.86 44.9499 14.25 50.1799 13.97 53.6799C13.8645 54.8011 14.1128 55.9271 14.68 56.8999C15.3243 57.5084 16.0355 58.0418 16.8 58.4899L17.34 57.9299C17.79 51.8299 20.52 49.5599 24.34 46.9299C28.16 44.2999 33.17 41.4799 36.79 43.4699C36.49 43.2799 36.08 43.0699 35.79 42.9099L35 42.4299Z" fill="#EBEBEB"/>
</g>
<path d="M43.3701 56.24C43.4223 56.9573 43.3684 57.6784 43.2101 58.38C42.6501 60.23 41.2101 61.93 38.6501 63.38C34.3601 65.77 28.3701 66.48 23.0801 65.55C21.4201 65.18 20.8001 65.04 20.0001 57.98C19.8901 55.98 20.5701 55.85 21.1801 55.98C26.3201 57.56 32.8401 57.13 37.2701 54.66C40.1601 53.05 41.5901 50.89 41.5301 48.74V48.59C41.6215 48.6329 41.7006 48.6983 41.7601 48.78C42.7839 51.136 43.3311 53.6714 43.3701 56.24Z" fill="#003447"/>
<path d="M15.8201 71.56C16.328 71.9055 16.7408 72.3733 17.0204 72.9203C17.3 73.4673 17.4375 74.0759 17.42 74.69V75.26C17.4059 77.6385 17.158 80.0099 16.68 82.34C16.49 83.29 16.25 84.22 15.98 85.13L12.98 95.13C12.9495 95.3201 12.8726 95.4997 12.756 95.6529C12.6394 95.8062 12.4868 95.9283 12.3117 96.0084C12.1366 96.0885 11.9445 96.1242 11.7523 96.1122C11.5601 96.1003 11.3739 96.0411 11.2101 95.94C10.8211 95.668 10.5133 95.2955 10.3195 94.8622C10.1258 94.4289 10.0534 93.9512 10.11 93.48L10.97 86.27C11.38 82.77 11.97 79.34 12.63 75.99L13.25 72.99C13.48 71.84 14.3 71.17 15.25 71.35C15.28 71.47 15.6301 71.45 15.8201 71.56Z" fill="url(#paint12_linear_1124_3072)"/>
<path d="M16.5901 69.81C16.2791 69.631 15.9415 69.5028 15.5901 69.43C14.0501 69.14 12.7301 70.23 12.3401 72.1L11.7301 75.1C11.0235 78.5067 10.4601 81.99 10.0401 85.55L9.18012 92.77C9.06751 93.6637 9.20293 94.5712 9.57156 95.3931C9.94018 96.215 10.5278 96.9197 11.2701 97.43C12.6701 98.24 14.1201 97.59 14.6301 95.91L17.6301 85.91C17.9201 84.91 18.1701 83.91 18.3801 82.91C18.8785 80.4441 19.1363 77.9357 19.1501 75.42V74.85C19.1704 73.8642 18.9474 72.8887 18.5009 72.0096C18.0544 71.1305 17.3981 70.3751 16.5901 69.81ZM16.6801 82.34C16.4901 83.29 16.2501 84.22 15.9801 85.13L12.9801 95.13C12.9496 95.3201 12.8726 95.4997 12.7561 95.653C12.6395 95.8062 12.4869 95.9283 12.3118 96.0084C12.1367 96.0885 11.9446 96.1242 11.7524 96.1123C11.5602 96.1003 11.374 96.0412 11.2101 95.94C10.8212 95.668 10.5134 95.2955 10.3196 94.8622C10.1259 94.429 10.0535 93.9512 10.1101 93.48L10.9701 86.27C11.3801 82.77 11.9701 79.34 12.6301 75.99L13.2501 72.99C13.4801 71.84 14.3001 71.17 15.2501 71.35C15.3201 71.49 15.6701 71.47 15.8601 71.58C16.3681 71.9255 16.7809 72.3933 17.0605 72.9403C17.3401 73.4873 17.4776 74.0959 17.4601 74.71V75.28C17.4315 77.6531 17.1702 80.0178 16.6801 82.34Z" fill="url(#paint13_linear_1124_3072)"/>
<path d="M18.44 69.31C18.1336 69.1216 17.7943 68.9926 17.44 68.93C17.0682 68.8445 16.6818 68.8445 16.31 68.93L14.46 69.44C14.8284 69.3543 15.2116 69.3543 15.58 69.44C15.9314 69.5128 16.269 69.6411 16.58 69.82C17.404 70.3862 18.0734 71.1493 18.5275 72.0399C18.9815 72.9306 19.2058 73.9206 19.18 74.92V75.49C19.1662 78.0057 18.9083 80.5141 18.41 82.98C18.2 83.98 17.95 84.98 17.66 85.98L14.66 95.98C14.5654 96.3961 14.3647 96.7807 14.0772 97.0962C13.7898 97.4116 13.4256 97.6472 13.02 97.78L14.88 97.28C15.2841 97.1446 15.647 96.9082 15.934 96.5932C16.221 96.2781 16.4228 95.8949 16.52 95.48L19.52 85.48C19.81 84.48 20.06 83.54 20.27 82.53C20.7624 80.0504 21.0069 77.528 21 75V74.43C21.0401 73.4299 20.8263 72.4359 20.3787 71.5407C19.9311 70.6454 19.2642 69.878 18.44 69.31Z" fill="url(#paint14_linear_1124_3072)"/>
<path d="M13.8 56.12C11.31 54.68 9.28002 55.84 9.27002 58.7C9.35396 60.261 9.80526 61.7802 10.5872 63.1338C11.3692 64.4875 12.4597 65.6374 13.77 66.49C16.26 67.93 18.29 66.78 18.3 63.91C18.2169 62.3488 17.7659 60.8294 16.9839 59.4756C16.2018 58.1218 15.1109 56.972 13.8 56.12Z" fill="#5B545F"/>
<path d="M11.8298 55.09C12.3439 54.8508 12.9127 54.7534 13.4771 54.8079C14.0415 54.8624 14.581 55.0669 15.0398 55.4C16.3507 56.2535 17.441 57.4052 18.2214 58.7609C19.0018 60.1166 19.4502 61.6378 19.5298 63.2C19.5878 63.7547 19.497 64.3148 19.2668 64.8227C19.0365 65.3306 18.6752 65.768 18.2198 66.09L16.9798 66.81C17.4378 66.4876 17.8015 66.049 18.0336 65.5392C18.2656 65.0295 18.3575 64.4671 18.2999 63.91C18.2167 62.3488 17.7657 60.8294 16.9837 59.4756C16.2017 58.1218 15.1107 56.972 13.7999 56.12C13.341 55.7869 12.8015 55.5824 12.2371 55.5279C11.6727 55.4734 11.1039 55.5708 10.5898 55.81L11.8298 55.09Z" fill="url(#paint15_linear_1124_3072)"/>
<path d="M11.3398 57.8299L13.3998 56.6399C12.9708 56.3296 12.4672 56.1384 11.9403 56.0857C11.4134 56.033 10.8819 56.1207 10.3998 56.3399L8.33984 57.5399C8.82102 57.3193 9.35201 57.2299 9.87891 57.2809C10.4058 57.3318 10.9098 57.5212 11.3398 57.8299Z" fill="#D6D3EE"/>
<path d="M11.3398 57.83L13.3998 56.64C14.6152 57.4267 15.6269 58.4903 16.3517 59.7436C17.0766 60.9969 17.494 62.4042 17.5699 63.85C17.6222 64.3648 17.5368 64.8842 17.3224 65.3551C17.108 65.826 16.7724 66.2314 16.3499 66.53L14.2898 67.73C14.7116 67.4307 15.0467 67.0251 15.261 66.5544C15.4752 66.0837 15.5611 65.5647 15.5098 65.05C15.434 63.6028 15.0166 62.1942 14.2918 60.9393C13.567 59.6844 12.5555 58.6189 11.3398 57.83Z" fill="url(#paint16_linear_1124_3072)"/>
<path d="M11.3399 57.83C12.5555 58.6189 13.5671 59.6844 14.2919 60.9393C15.0167 62.1942 15.434 63.6028 15.5099 65.05C15.5099 67.7 13.6299 68.77 11.3199 67.44C10.1054 66.6499 9.09469 65.5842 8.37006 64.3295C7.64542 63.0749 7.22735 61.6668 7.1499 60.22C7.1599 57.57 8.9999 56.5 11.3399 57.83Z" fill="url(#paint17_linear_1124_3072)"/>
<path d="M11.16 59.1799C9.44005 58.1799 8.05005 58.9899 8.05005 60.9499C8.10367 62.0229 8.41187 63.0677 8.94917 63.998C9.48648 64.9283 10.2375 65.7173 11.14 66.2999C12.85 67.2999 14.2401 66.4999 14.2401 64.5299C14.1859 63.4582 13.8786 62.4146 13.3432 61.4847C12.8078 60.5547 12.0597 59.7649 11.16 59.1799Z" fill="#00BBFF"/>
<path d="M11.1499 59.91C9.78993 59.12 8.68993 59.76 8.67993 61.32C8.72647 62.172 8.97354 63.0011 9.40102 63.7396C9.82849 64.4781 10.4243 65.1053 11.1399 65.57C12.4999 66.36 13.5999 65.73 13.6099 64.16C13.5618 63.3083 13.3141 62.4799 12.8868 61.7416C12.4594 61.0034 11.8645 60.3759 11.1499 59.91Z" fill="#E0DCF5"/>
<path d="M39.06 69.17L38.73 68.6L40.8 67.41C41.8983 66.6944 42.7948 65.7092 43.404 64.5485C44.0132 63.3879 44.3148 62.0904 44.28 60.78C44.4817 57.3778 43.9673 53.971 42.77 50.78L43.38 50.51C44.6172 53.7819 45.1488 57.2783 44.94 60.77C44.9784 62.1888 44.6497 63.5935 43.9857 64.8479C43.3216 66.1024 42.3449 67.164 41.15 67.93L39.06 69.17Z" fill="#404040"/>
<path d="M37.1001 68.36C38.0301 68 39.3501 67.97 39.5501 68.48C39.7501 68.99 38.7401 69.86 37.8201 70.22C36.9001 70.58 36.5201 70.22 36.3301 69.75C36.1401 69.28 36.1701 68.72 37.1001 68.36Z" fill="#404040"/>
<path d="M35.22 38.34C35.6406 38.4022 36.0554 38.4992 36.46 38.63C36.8728 38.7677 37.2714 38.9452 37.65 39.16L35.53 37.93C35.0975 37.6734 34.6381 37.4655 34.16 37.31C29.96 35.91 24.9 38.68 24.27 39.04C22.6521 39.8455 21.0858 40.7505 19.58 41.75C15.8043 43.9593 12.8571 47.3456 11.19 51.39C10.5264 53.0327 10.1869 54.7883 10.19 56.56C10.19 56.56 11.98 56.9 12.49 57.88C12.49 57.88 13.05 49.88 21.86 44.32C25.28 42.18 26.16 42.47 26.24 42.44H26.3H26.38C26.38 42.44 30.01 37.98 33.6 39.17C33.9492 39.2775 34.2847 39.4252 34.6 39.61H35.28L35.22 38.34Z" fill="url(#paint18_linear_1124_3072)"/>
<path d="M36.39 38.61C32.2 37.27 27.19 40.01 26.57 40.36C24.948 41.1637 23.3782 42.0689 21.87 43.07C18.1019 45.2855 15.1596 48.6702 13.49 52.71C12.8272 54.3529 12.4877 56.1084 12.49 57.88L14.38 57.79C14.4068 56.2474 14.7258 54.7238 15.32 53.3C16.8471 49.6789 19.5113 46.6531 22.91 44.68C24.3345 43.7193 25.8211 42.854 27.36 42.09H27.43H27.5C27.55 42.09 32.31 39.31 35.9 40.5C36.0405 40.5429 36.1776 40.5963 36.31 40.66C36.31 39.93 36.34 39.27 36.39 38.61Z" fill="url(#paint19_linear_1124_3072)"/>
<path d="M34.83 63.38C34.6503 63.3922 34.4698 63.3922 34.29 63.38L34.4 62.71C34.8376 62.7865 35.2875 62.7504 35.7073 62.6052C36.1272 62.46 36.5032 62.2105 36.8 61.88L37.3501 62.28C37.0481 62.651 36.6619 62.9444 36.2235 63.1357C35.7851 63.3271 35.3074 63.4108 34.83 63.38Z" fill="#00BBFF"/>
<path d="M30.2001 63H30.0001C29.7762 62.9992 29.5547 62.9537 29.3486 62.8661C29.1425 62.7785 28.956 62.6507 28.8001 62.49C28.4318 62.1134 28.227 61.6067 28.2301 61.08V60.5C28.218 60.0253 28.3869 59.5637 28.7027 59.209C29.0184 58.8543 29.4572 58.633 29.9301 58.59H30.1301C30.3569 58.581 30.5833 58.6171 30.7961 58.696C31.0089 58.775 31.204 58.8953 31.3701 59.05C31.7434 59.4102 31.9622 59.9015 31.9801 60.42V61.02C31.9896 61.2885 31.9449 61.5561 31.8487 61.807C31.7525 62.0578 31.6067 62.2867 31.4201 62.48C31.2623 62.6444 31.0729 62.7753 30.8632 62.8646C30.6536 62.954 30.428 63 30.2001 63ZM30.2001 59.52H30.0001C29.7622 59.5501 29.5451 59.6709 29.3942 59.8572C29.2433 60.0436 29.1702 60.281 29.1901 60.52V61.11C29.1867 61.2449 29.2106 61.3792 29.2604 61.5046C29.3103 61.6301 29.385 61.7442 29.4801 61.84C29.5469 61.9146 29.6285 61.9746 29.7198 62.0159C29.811 62.0572 29.9099 62.079 30.0101 62.08H30.2101C30.3169 62.0779 30.4223 62.0548 30.5201 62.0119C30.6179 61.969 30.7063 61.9072 30.7801 61.83C30.8763 61.7251 30.9506 61.6021 30.9987 61.4682C31.0468 61.3342 31.0676 61.1921 31.0601 61.05V60.44C31.0563 60.1762 30.9485 59.9246 30.7601 59.74C30.6137 59.6032 30.4204 59.528 30.2201 59.53L30.2001 59.52Z" fill="#00BBFF"/>
<path d="M39.2401 59.79C39.0726 59.7908 38.9075 59.7495 38.7601 59.67C38.5222 59.533 38.3196 59.3423 38.1685 59.1131C38.0175 58.8839 37.9221 58.6226 37.8901 58.35L37.7801 57.77C37.6782 57.3363 37.7011 56.8827 37.8462 56.4615C37.9914 56.0403 38.2527 55.6688 38.6001 55.39L38.7301 55.31C38.879 55.2191 39.0475 55.1654 39.2216 55.1532C39.3956 55.141 39.5699 55.1708 39.7301 55.24C39.9655 55.3646 40.1686 55.5425 40.3232 55.7595C40.4777 55.9766 40.5793 56.2267 40.6201 56.49L40.7401 57.1C40.8655 57.5552 40.8483 58.0379 40.691 58.4831C40.5336 58.9283 40.2437 59.3146 39.8601 59.59L39.7201 59.66C39.5717 59.7384 39.4077 59.7828 39.2401 59.79ZM39.3201 56.09H39.2201L39.0901 56.17C38.9143 56.3527 38.7874 56.5767 38.7209 56.8213C38.6545 57.066 38.6508 57.3235 38.7101 57.57L38.8201 58.15C38.8299 58.2753 38.8662 58.3972 38.9265 58.5075C38.9868 58.6178 39.0698 58.7141 39.1701 58.79C39.1914 58.8022 39.2155 58.8087 39.2401 58.8087C39.2647 58.8087 39.2888 58.8022 39.3101 58.79L39.4501 58.72C39.6394 58.5335 39.7753 58.2998 39.8439 58.0431C39.9125 57.7864 39.9111 57.516 39.8401 57.26L39.7101 56.66C39.6966 56.5437 39.6594 56.4313 39.6009 56.3299C39.5425 56.2284 39.4639 56.14 39.3701 56.07L39.3201 56.09Z" fill="#00BBFF"/>
<path d="M36.9999 69.49C37.1299 69.84 37.0899 70.17 36.9199 70.24C36.7499 70.31 36.4899 70.07 36.3599 69.73C36.2299 69.39 36.2699 69.05 36.4399 68.98C36.6099 68.91 36.8599 69.14 36.9999 69.49Z" fill="url(#paint20_linear_1124_3072)"/>
<defs>
<linearGradient id="paint0_linear_1124_3072" x1="34.7099" y1="41.6" x2="39.7399" y2="41.6" gradientUnits="userSpaceOnUse">
<stop offset="0.14" stop-color="#AABBD6"/>
<stop offset="0.2" stop-color="#AEBDD8"/>
<stop offset="0.71" stop-color="#CCCDE8"/>
<stop offset="1" stop-color="#D7D3EE"/>
</linearGradient>
<linearGradient id="paint1_linear_1124_3072" x1="43.1299" y1="50.9299" x2="38.0999" y2="42.2299" gradientUnits="userSpaceOnUse">
<stop offset="0.14" stop-color="#AABBD6"/>
<stop offset="0.2" stop-color="#AEBDD8"/>
<stop offset="0.71" stop-color="#CCCDE8"/>
<stop offset="1" stop-color="#D7D3EE"/>
</linearGradient>
<linearGradient id="paint2_linear_1124_3072" x1="12.46" y1="40.95" x2="40.75" y2="40.95" gradientUnits="userSpaceOnUse">
<stop stop-color="#D5CEEE"/>
<stop offset="0.1" stop-color="#CECAEA"/>
<stop offset="0.59" stop-color="#B0B7DC"/>
<stop offset="0.86" stop-color="#A5B0D6"/>
</linearGradient>
<linearGradient id="paint3_linear_1124_3072" x1="40.61" y1="52.3799" x2="34.72" y2="42.1799" gradientUnits="userSpaceOnUse">
<stop offset="0.14" stop-color="#AABBD6"/>
<stop offset="0.2" stop-color="#AEBDD8"/>
<stop offset="0.71" stop-color="#CCCDE8"/>
<stop offset="1" stop-color="#D7D3EE"/>
</linearGradient>
<linearGradient id="paint4_linear_1124_3072" x1="34.52" y1="47.31" x2="40.72" y2="47.31" gradientUnits="userSpaceOnUse">
<stop offset="0.14" stop-color="#AABBD6"/>
<stop offset="0.2" stop-color="#AEBDD8"/>
<stop offset="0.71" stop-color="#CCCDE8"/>
<stop offset="1" stop-color="#D7D3EE"/>
</linearGradient>
<linearGradient id="paint5_linear_1124_3072" x1="41.4298" y1="52.36" x2="35.0598" y2="41.34" gradientUnits="userSpaceOnUse">
<stop offset="0.17" stop-color="#5A545E"/>
<stop offset="0.45" stop-color="#615B66"/>
<stop offset="0.79" stop-color="#706875"/>
</linearGradient>
<linearGradient id="paint6_linear_1124_3072" x1="48.41" y1="83.3599" x2="36.25" y2="62.3099" gradientUnits="userSpaceOnUse">
<stop offset="0.73" stop-color="#D7D8E8"/>
<stop offset="0.93" stop-color="#EAE9F2"/>
</linearGradient>
<linearGradient id="paint7_linear_1124_3072" x1="13.8101" y1="81.42" x2="41.7201" y2="81.42" gradientUnits="userSpaceOnUse">
<stop offset="0.37" stop-color="#CACCDE"/>
<stop offset="0.97" stop-color="#EAE9F2"/>
</linearGradient>
<linearGradient id="paint8_linear_1124_3072" x1="22.74" y1="79.7099" x2="33.34" y2="61.3499" gradientUnits="userSpaceOnUse">
<stop stop-color="#CACCDE"/>
<stop offset="0.56" stop-color="#EAE9F2"/>
</linearGradient>
<linearGradient id="paint9_linear_1124_3072" x1="25.62" y1="67.31" x2="47.2" y2="67.31" gradientUnits="userSpaceOnUse">
<stop offset="0.24" stop-color="#A8A4B5"/>
<stop offset="1" stop-color="#DBD3E2"/>
</linearGradient>
<linearGradient id="paint10_linear_1124_3072" x1="14.65" y1="85.51" x2="36.98" y2="35.03" gradientUnits="userSpaceOnUse">
<stop offset="0.37" stop-color="#CACCDE"/>
<stop offset="0.97" stop-color="#EAE9F2"/>
</linearGradient>
<linearGradient id="paint11_linear_1124_3072" x1="22.2699" y1="61.5899" x2="33.8099" y2="41.5999" gradientUnits="userSpaceOnUse">
<stop stop-color="#CACCDE"/>
<stop offset="0.56" stop-color="#EAE9F2"/>
</linearGradient>
<linearGradient id="paint12_linear_1124_3072" x1="16.73" y1="100.95" x2="10.97" y2="68.54" gradientUnits="userSpaceOnUse">
<stop stop-color="#CACCDE"/>
<stop offset="1" stop-color="#DFDEEE"/>
</linearGradient>
<linearGradient id="paint13_linear_1124_3072" x1="15.1301" y1="98.58" x2="13.0701" y2="67.56" gradientUnits="userSpaceOnUse">
<stop stop-color="#CACCDE"/>
<stop offset="1" stop-color="#DFDEEE"/>
</linearGradient>
<linearGradient id="paint14_linear_1124_3072" x1="21.72" y1="93.3" x2="9.59001" y2="72.29" gradientUnits="userSpaceOnUse">
<stop offset="0.68" stop-color="#DBDBEA"/>
<stop offset="0.81" stop-color="#EAE9F2"/>
</linearGradient>
<linearGradient id="paint15_linear_1124_3072" x1="19.1798" y1="65.54" x2="12.8099" y2="54.52" gradientUnits="userSpaceOnUse">
<stop offset="0.17" stop-color="#5A545E"/>
<stop offset="0.45" stop-color="#615B66"/>
<stop offset="0.79" stop-color="#706875"/>
</linearGradient>
<linearGradient id="paint16_linear_1124_3072" x1="16.7999" y1="66.28" x2="11.7699" y2="57.58" gradientUnits="userSpaceOnUse">
<stop offset="0.14" stop-color="#AABBD6"/>
<stop offset="0.2" stop-color="#AEBDD8"/>
<stop offset="0.71" stop-color="#CCCDE8"/>
<stop offset="1" stop-color="#D7D3EE"/>
</linearGradient>
<linearGradient id="paint17_linear_1124_3072" x1="9.2499" y1="66.24" x2="13.4199" y2="59.03" gradientUnits="userSpaceOnUse">
<stop stop-color="#D6D0EF"/>
<stop offset="1" stop-color="#EEEBFC"/>
</linearGradient>
<linearGradient id="paint18_linear_1124_3072" x1="15.89" y1="59.86" x2="30.87" y2="33.91" gradientUnits="userSpaceOnUse">
<stop stop-color="#D1CBEC"/>
<stop offset="0.1" stop-color="#D7D2EF"/>
<stop offset="0.24" stop-color="#E8E5F9"/>
<stop offset="0.28" stop-color="#EEEBFC"/>
</linearGradient>
<linearGradient id="paint19_linear_1124_3072" x1="12.46" y1="48.06" x2="40.75" y2="48.06" gradientUnits="userSpaceOnUse">
<stop stop-color="#D5CEEE"/>
<stop offset="0.1" stop-color="#CECAEA"/>
<stop offset="0.59" stop-color="#B0B7DC"/>
<stop offset="0.86" stop-color="#A5B0D6"/>
</linearGradient>
<linearGradient id="paint20_linear_1124_3072" x1="36.2799" y1="69.61" x2="37.0599" y2="69.61" gradientUnits="userSpaceOnUse">
<stop offset="0.26" stop-color="#CACCDE"/>
<stop offset="0.6" stop-color="#CDCFE0"/>
<stop offset="0.87" stop-color="#D7D7E8"/>
<stop offset="1" stop-color="#DFDEEE"/>
</linearGradient>
</defs>
</svg>
