<svg width="68" height="93" viewBox="0 0 68 93" fill="none" xmlns="http://www.w3.org/2000/svg">
<path d="M27.48 90.3699C25.1961 91.5286 22.671 92.1325 20.11 92.1325C17.5489 92.1325 15.024 91.5286 12.74 90.3699C8.64999 88.0099 8.63 84.1999 12.69 81.8599C14.974 80.7012 17.4989 80.0974 20.06 80.0974C22.6211 80.0974 25.146 80.7012 27.43 81.8599C31.52 84.2099 31.54 87.9999 27.48 90.3699Z" fill="#EEF1F5"/>
<path d="M30.21 62.67L29.98 60.89L30.57 60.92L30.8 62.7L30.21 62.67Z" fill="url(#paint0_linear_1132_2)"/>
<path d="M27.63 53.45L28.49 52.96C28.8827 52.7337 29.3076 52.5685 29.75 52.47L28.9 52.96C28.4544 53.0584 28.0262 53.2236 27.63 53.45Z" fill="url(#paint1_linear_1132_2)"/>
<path d="M28.9 53L29.17 55C28.5572 55.142 28.0103 55.487 27.6182 55.979C27.2261 56.4709 27.0118 57.0809 27.01 57.71C26.998 58.3045 27.1504 58.8908 27.4504 59.4043C27.7503 59.9178 28.1862 60.3384 28.71 60.62C29.1021 60.8293 29.536 60.9489 29.98 60.97L30.21 62.74C29.4862 62.7143 28.778 62.5227 28.14 62.18C27.2873 61.7207 26.5777 61.0354 26.089 60.1992C25.6003 59.363 25.3516 58.4083 25.37 57.44C25.3687 56.4096 25.7172 55.4092 26.3584 54.6026C26.9997 53.796 27.8958 53.231 28.9 53Z" fill="url(#paint2_linear_1132_2)"/>
<path d="M32.1299 52.25L32.3999 54.22L29.1799 54.93L28.8999 52.96L32.1299 52.25Z" fill="url(#paint3_linear_1132_2)"/>
<path d="M30.7999 62.6999L30.5699 60.9199C34.1521 61.0552 37.7293 60.5437 41.1299 59.4099L41.9799 61.0999C40.9193 61.4546 39.8412 61.755 38.7499 61.9999C36.1402 62.5687 33.4689 62.8039 30.7999 62.6999Z" fill="url(#paint4_linear_1132_2)"/>
<path d="M43.3499 50.4199L43.4399 52.4199C39.7431 52.8186 36.071 53.4195 32.4399 54.2199L32.1599 52.2199C35.8549 51.4195 39.5903 50.8187 43.3499 50.4199Z" fill="url(#paint5_linear_1132_2)"/>
<path d="M41.98 61.0999L41.13 59.4099L52.16 55.6799L53.01 57.3699L41.98 61.0999Z" fill="url(#paint6_linear_1132_2)"/>
<path d="M51.02 49.59L51.12 51.59L43.44 52.42L43.35 50.42L51.02 49.59Z" fill="url(#paint7_linear_1132_2)"/>
<path d="M53.25 50L52.25 51.79C51.8924 51.5961 51.4843 51.5159 51.08 51.56L50.98 49.56C51.7638 49.4719 52.5558 49.6254 53.25 50Z" fill="url(#paint8_linear_1132_2)"/>
<path d="M52.29 51.82C52.5639 51.9685 52.804 52.1723 52.9951 52.4185C53.1862 52.6646 53.324 52.9478 53.3999 53.25C53.5392 53.7368 53.4887 54.2583 53.2586 54.7092C53.0285 55.1602 52.6358 55.5071 52.16 55.68L41.16 59.41C37.7593 60.5438 34.1821 61.0553 30.6 60.92H30.01C29.5659 60.8989 29.1321 60.7793 28.7399 60.57C28.2162 60.2885 27.7803 59.8678 27.4803 59.3543C27.1804 58.8409 27.028 58.2545 27.04 57.66C27.0418 57.0309 27.2561 56.4209 27.6482 55.929C28.0403 55.4371 28.5871 55.0921 29.2 54.95L32.44 54.24C36.071 53.4396 39.7432 52.8387 43.44 52.44L51.1199 51.61C51.5222 51.5598 51.9303 51.6331 52.29 51.82Z" fill="url(#paint9_linear_1132_2)"/>
<path d="M53 57.37L52.14 55.68C52.6159 55.5072 53.0085 55.1602 53.2386 54.7093C53.4687 54.2583 53.5193 53.7368 53.38 53.25C53.3041 52.9478 53.1662 52.6646 52.9752 52.4185C52.7841 52.1723 52.5439 51.9685 52.27 51.82L53.27 50.03C53.7946 50.3091 54.2545 50.6955 54.6198 51.1642C54.9851 51.6328 55.2475 52.1732 55.39 52.75C55.6587 53.6797 55.5607 54.677 55.116 55.5365C54.6714 56.396 53.914 57.0522 53 57.37Z" fill="url(#paint10_linear_1132_2)"/>
<path d="M56.2299 52.25C56.0822 51.6766 55.8176 51.14 55.4528 50.6737C55.088 50.2073 54.6308 49.8214 54.1099 49.54C53.4284 49.1704 52.6507 49.017 51.8799 49.1L44.1999 49.93C40.4359 50.3342 36.6969 50.9451 32.9999 51.76L29.7699 52.47L28.9199 52.96L32.1499 52.25C35.8542 51.4384 39.5997 50.8276 43.3699 50.42L51.0399 49.59C51.8105 49.5101 52.5874 49.6634 53.2699 50.03C53.7945 50.309 54.2544 50.6955 54.6197 51.1641C54.985 51.6328 55.2474 52.1731 55.3899 52.75C55.6176 53.5583 55.5747 54.419 55.2678 55.2007C54.9609 55.9825 54.4068 56.6424 53.6899 57.0799L54.5399 56.5799C55.2562 56.1421 55.8093 55.4817 56.1145 54.6997C56.4197 53.9177 56.4602 53.0572 56.2299 52.25Z" fill="url(#paint11_linear_1132_2)"/>
<path d="M34.4001 61.49C34.4001 63.24 32.9201 82.91 19.8201 82.91C6.72007 82.91 5.07007 62.21 5.07007 61.5L34.4001 61.49Z" fill="url(#paint12_linear_1132_2)"/>
<path d="M23.84 58C22.5471 58.6396 21.1215 58.9648 19.6792 58.9491C18.2369 58.9335 16.8187 58.5775 15.54 57.91C13.28 56.56 13.34 54.41 15.66 53.11C16.9514 52.4666 18.3769 52.1384 19.8196 52.1523C21.2623 52.1662 22.6812 52.5218 23.96 53.19C26.22 54.55 26.16 56.7 23.84 58Z" fill="#C0BACA"/>
<path d="M34.26 60.33C34.17 59.99 34.05 59.53 33.93 59.2C33.81 58.87 33.61 58.39 33.45 58.05C33.1248 57.3843 32.7363 56.7514 32.29 56.16C31.7986 55.4966 31.2388 54.8865 30.62 54.34C29.9755 53.7697 29.2791 53.2608 28.54 52.82C28.25 52.64 27.86 52.43 27.54 52.28L26.74 51.91C26.1739 51.6634 25.5927 51.453 25 51.28C24.4402 51.0986 23.869 50.955 23.29 50.85C22.64 50.72 21.96 50.64 21.58 50.6C21.2 50.56 20.99 50.54 20.73 50.54H19.88H19.03C18.5 50.54 17.85 50.62 17.32 50.67C17.32 50.67 16.48 50.77 15.6 50.98C15.31 51.04 14.94 51.13 14.66 51.21L13.83 51.47C13.53 51.57 13.12 51.73 12.83 51.85C12.54 51.97 12.26 52.11 12.02 52.22C11.6768 52.3848 11.3429 52.5684 11.02 52.77C10.5266 53.0788 10.0493 53.4126 9.58998 53.77C9.13728 54.1164 8.70645 54.4904 8.29997 54.89C7.96239 55.2311 7.6452 55.5917 7.34999 55.97C7.20999 56.16 6.99998 56.42 6.86998 56.63C6.73998 56.84 6.40999 57.38 6.21999 57.7C6.03238 58.0451 5.86868 58.4026 5.73 58.77C5.53789 59.2714 5.37102 59.782 5.23 60.3C4.62 62.81 5.95 65.46 9.23 67.42C14.87 70.8 24.16 70.89 29.96 67.63C33.43 65.63 34.88 62.92 34.26 60.33ZM23.84 58C22.5471 58.6396 21.1215 58.9648 19.6792 58.9491C18.2369 58.9335 16.8187 58.5775 15.54 57.91C13.28 56.56 13.34 54.41 15.66 53.11C16.9514 52.4666 18.3769 52.1384 19.8196 52.1523C21.2623 52.1662 22.6812 52.5218 23.96 53.19C26.22 54.55 26.16 56.7 23.84 58Z" fill="url(#paint13_linear_1132_2)"/>
<g style="mix-blend-mode:multiply">
<path d="M23.13 82.44C22.0553 82.7562 20.9403 82.9146 19.82 82.91C9.90001 82.91 6.54 71.04 5.5 64.91C7.44 63.45 6.81999 60.71 7.95999 60.05L8.73001 59.61C9.90532 60.2038 11.0035 60.9392 12 61.8C14.2 64.56 12.74 73.56 14.17 77.85C15.38 81.54 19 82.7 23.13 82.44Z" fill="#EBEBEB"/>
</g>
<path d="M27.23 60.45C24.8963 61.6334 22.3166 62.25 19.7 62.25C17.0835 62.25 14.5037 61.6334 12.17 60.45C8.00004 58.04 7.98004 54.15 12.17 51.76C14.502 50.5768 17.0801 49.9601 19.695 49.9601C22.31 49.9601 24.8881 50.5768 27.22 51.76C31.35 54.16 31.37 58.06 27.23 60.45Z" fill="#D4D5E6"/>
<path d="M10.28 57.1799C10.6479 57.4082 11.0285 57.6152 11.42 57.7999C11.9951 58.094 12.5899 58.348 13.2 58.5599C13.47 58.6599 13.84 58.7799 14.12 58.8599C14.63 58.9999 15.32 59.1699 15.84 59.2799C16.11 59.3399 16.48 59.3999 16.76 59.4399L17.65 59.5499L18.55 59.6099C18.82 59.6099 19.18 59.6099 19.45 59.6099C19.72 59.6099 20.08 59.6099 20.35 59.6099C20.62 59.6099 21 59.6099 21.28 59.5599C21.82 59.5099 22.53 59.4199 23.06 59.3399L24.06 59.1499L24.93 58.9299L25.93 58.6099C26.29 58.4999 26.76 58.3099 27.11 58.1599C27.46 58.0099 28.19 57.6499 28.64 57.4099C29.09 57.1699 29.51 56.88 29.87 56.64C30.23 56.4 30.44 56.2399 30.68 56.0499C30.92 55.8599 31.45 55.3799 31.77 55.0499C31.055 55.7373 30.2512 56.3259 29.38 56.7999C23.81 59.8999 14.97 59.7999 9.63 56.5999C8.90588 56.1855 8.23436 55.6852 7.63 55.1099C7.89 55.3599 8.25 55.6799 8.53 55.9099C8.65 56.0199 8.84 56.1599 8.97 56.2599C9.38859 56.5916 9.82598 56.8987 10.28 57.1799Z" fill="url(#paint14_linear_1132_2)"/>
<path d="M21.28 59.58C28.65 59.58 36.28 52.26 36.28 47.27C36.3113 44.6855 35.9746 42.1097 35.28 39.62C33.7 34.33 4.35997 36.95 3.76997 40.71C3.62997 41.62 3.59997 42.28 3.55997 42.49C3.36997 43.61 2.16998 49.92 6.71998 54.29C11.27 58.66 15.69 59.58 21.28 59.58Z" fill="url(#paint15_linear_1132_2)"/>
<path d="M35.5299 40.3999C35.4399 40.0299 35.3 39.53 35.17 39.17C35.04 38.81 34.8199 38.29 34.6499 37.92C34.2953 37.1922 33.8735 36.4992 33.39 35.8499C32.8526 35.1234 32.2428 34.4533 31.57 33.8499C30.8688 33.2215 30.1086 32.6623 29.2999 32.1799C28.9899 31.9899 28.56 31.7699 28.23 31.5999C27.9 31.4299 27.6299 31.31 27.3699 31.2C26.7516 30.9306 26.117 30.7002 25.4699 30.5099C24.8568 30.3152 24.2323 30.1583 23.6 30.0399C22.9 29.9099 22.1599 29.8099 21.7399 29.7699C21.4699 29.7699 21.1 29.71 20.82 29.7H19.8999H18.9999C18.4199 29.7 17.71 29.7899 17.14 29.8499C17.14 29.8499 16.22 29.9599 15.26 30.1799C14.95 30.2499 14.54 30.3499 14.26 30.4399C13.98 30.5299 13.6299 30.6299 13.3599 30.7199C13.0899 30.8099 12.58 30.9999 12.26 31.1299C11.94 31.2599 11.65 31.4099 11.38 31.5299C10.9909 31.7095 10.6135 31.9133 10.2499 32.14C9.71174 32.4621 9.19101 32.8126 8.68995 33.1899C8.19811 33.5668 7.73052 33.9743 7.28996 34.4099C6.93053 34.7769 6.59643 35.1677 6.28996 35.5799C6.12996 35.7999 5.89996 36.0799 5.75996 36.2999C5.61996 36.5199 5.25994 37.1199 5.04994 37.4699C4.84574 37.8449 4.66541 38.2323 4.50996 38.6299C4.32996 39.1199 4.11996 39.7899 3.97996 40.2999C3.30996 43.0299 4.74994 45.9199 8.33994 48.0599C14.4899 51.7299 24.6 51.8399 30.92 48.2899C34.63 46.1699 36.1999 43.2199 35.5299 40.3999Z" fill="url(#paint16_linear_1132_2)"/>
<path d="M36.13 45.74C36.1985 46.4956 36.1547 47.2572 36 48C35.41 49.94 33.86 51.73 31.21 53.21C26.71 55.72 20.41 56.47 14.85 55.5C13.11 55.1 12.46 54.96 11.61 47.5C11.5 45.41 12.21 45.26 12.85 45.37C18.25 47.02 25.11 46.57 29.76 43.98C32.76 42.28 34.3 39.98 34.24 37.75V37.6C34.3348 37.6465 34.4172 37.715 34.48 37.8C35.5497 40.3115 36.1105 43.0102 36.13 45.74Z" fill="#003447"/>
<path d="M21.84 52.48C21.6274 52.4941 21.4142 52.465 21.2131 52.3945C21.012 52.3241 20.8273 52.2137 20.67 52.07C20.514 51.9072 20.3935 51.7139 20.316 51.5022C20.2386 51.2905 20.2059 51.065 20.22 50.84V50.23C20.217 49.7356 20.3973 49.2575 20.726 48.8882C21.0547 48.5188 21.5086 48.2844 22 48.23H22.21C22.4478 48.2184 22.6856 48.255 22.9089 48.3375C23.1323 48.4199 23.3367 48.5466 23.51 48.71C23.7064 48.8959 23.864 49.1189 23.9739 49.366C24.0837 49.6132 24.1436 49.8796 24.15 50.15V50.79C24.1853 51.0092 24.1706 51.2335 24.1068 51.4462C24.043 51.6588 23.9319 51.8543 23.7818 52.0179C23.6317 52.1815 23.4465 52.3089 23.2401 52.3907C23.0337 52.4725 22.8114 52.5064 22.59 52.49H21.91L21.84 52.48ZM22.31 49.2H22.07C21.8316 49.2362 21.6142 49.3573 21.458 49.541C21.3018 49.7248 21.2173 49.9588 21.22 50.2V50.81C21.2016 50.9946 21.2514 51.1795 21.36 51.33C21.519 51.4356 21.7103 51.4816 21.9 51.46H22.55C23.12 51.41 23.2 51.32 23.19 50.78V50.14C23.1829 49.8613 23.0682 49.5961 22.87 49.4C22.7149 49.2656 22.5151 49.1942 22.31 49.2Z" fill="#00BBFF"/>
<path d="M31.62 49.14C31.4536 49.1415 31.2891 49.1038 31.14 49.03C30.941 48.9184 30.7722 48.7598 30.6485 48.5681C30.5247 48.3764 30.4497 48.1573 30.43 47.93L30.32 47.32C30.1973 46.8751 30.2076 46.4041 30.3498 45.9651C30.492 45.5261 30.7598 45.1384 31.12 44.85L31.26 44.77C31.4159 44.669 31.5946 44.6088 31.7798 44.5948C31.965 44.5808 32.1507 44.6136 32.32 44.69C32.57 44.8199 32.7855 45.0073 32.9489 45.2368C33.1123 45.4663 33.219 45.7313 33.26 46.01L33.39 46.64C33.5223 47.0631 33.5017 47.5194 33.3317 47.9288C33.1617 48.3383 32.8531 48.675 32.46 48.88L32.32 48.96C32.1051 49.0769 31.8646 49.1388 31.62 49.14ZM31.87 45.58C31.8375 45.5693 31.8025 45.5693 31.77 45.58L31.63 45.66C31.4562 45.8517 31.3338 46.0843 31.2743 46.3362C31.2149 46.588 31.2203 46.8508 31.29 47.1L31.4 47.71C31.45 47.98 31.54 48.08 31.58 48.1C31.6776 48.1173 31.778 48.0957 31.86 48.04L32 48C32.1956 47.89 32.3448 47.713 32.4201 47.5017C32.4955 47.2903 32.4919 47.0589 32.41 46.85L32.27 46.21C32.2592 46.089 32.2223 45.9719 32.1619 45.8666C32.1015 45.7613 32.019 45.6703 31.92 45.6L31.87 45.58Z" fill="#00BBFF"/>
<path d="M26.53 53.4L26.34 52.72C27.2971 52.4678 28.2306 52.1332 29.13 51.72L29.49 52.33C28.5373 52.7746 27.5467 53.1327 26.53 53.4Z" fill="#00BBFF"/>
<path d="M7.18997 61.84C7.72151 62.2048 8.15298 62.6971 8.44476 63.2719C8.73654 63.8468 8.87928 64.4857 8.85995 65.13V65.73C8.84618 68.2259 8.5883 70.7144 8.08996 73.16C7.87996 74.16 7.63997 75.16 7.34997 76.09L4.16998 86.57C4.13624 86.7688 4.05414 86.9562 3.93096 87.1158C3.80779 87.2753 3.64728 87.4022 3.46356 87.4851C3.27984 87.5681 3.07854 87.6047 2.87738 87.5916C2.67622 87.5785 2.48137 87.5161 2.30996 87.41C1.89941 87.127 1.57424 86.7368 1.36975 86.282C1.16525 85.8272 1.08923 85.325 1.14996 84.83L2.04995 77.25C2.48995 73.58 3.04995 69.97 3.79995 66.45L4.44998 63.32C4.69998 62.11 5.54997 61.41 6.53997 61.59C6.60997 61.75 6.99997 61.72 7.18997 61.84Z" fill="url(#paint17_linear_1132_2)"/>
<path d="M8.00008 60C7.67509 59.8085 7.32011 59.6732 6.95009 59.6C5.34009 59.3 3.95008 60.44 3.54008 62.41L2.89009 65.54C2.15009 69.12 1.56007 72.79 1.12007 76.54L0.220077 84.1199C0.101661 85.0589 0.243241 86.0124 0.629409 86.8764C1.01558 87.7404 1.63152 88.4819 2.41008 89.0199C3.88008 89.8799 5.41008 89.1899 5.94008 87.4299L9.12007 76.95C9.43007 75.95 9.69008 74.95 9.91008 73.85C10.4355 71.2557 10.7101 68.6168 10.7301 65.97V65.38C10.7642 64.326 10.5319 63.2804 10.0547 62.34C9.57748 61.3996 8.87083 60.5948 8.00008 60ZM8.10008 73.16C7.89008 74.16 7.65006 75.1599 7.36006 76.0899L4.18007 86.57C4.14633 86.7687 4.06426 86.9561 3.94109 87.1157C3.81791 87.2752 3.6574 87.4021 3.47368 87.4851C3.28996 87.568 3.08866 87.6046 2.8875 87.5915C2.68634 87.5784 2.49149 87.516 2.32008 87.41C1.90953 87.1269 1.58433 86.7367 1.37984 86.2819C1.17534 85.8271 1.09935 85.3249 1.16008 84.8299L2.06007 77.25C2.50007 73.58 3.06007 69.97 3.81007 66.45L4.46007 63.32C4.71007 62.11 5.56006 61.4099 6.55006 61.5899C6.62006 61.7499 6.99009 61.7199 7.20009 61.8399C7.73163 62.2047 8.16307 62.697 8.45485 63.2719C8.74663 63.8467 8.8894 64.4856 8.87007 65.13V65.73C8.85301 68.2261 8.59177 70.7147 8.09007 73.16H8.10008Z" fill="url(#paint18_linear_1132_2)"/>
<path d="M9.93997 59.47C9.61499 59.2785 9.26001 59.1433 8.88998 59.07C8.50185 58.9796 8.0981 58.9796 7.70996 59.07L5.75998 59.6C6.14811 59.5096 6.55184 59.5096 6.93997 59.6C7.31 59.6733 7.66498 59.8085 7.98996 60C8.85781 60.593 9.56266 61.3946 10.0397 62.3313C10.5167 63.2679 10.7507 64.3094 10.72 65.36V66C10.7 68.6469 10.4254 71.2857 9.89996 73.88C9.67996 74.94 9.41995 75.98 9.10995 76.98L5.92996 87.46C5.83116 87.8969 5.62077 88.3007 5.31931 88.6319C5.01784 88.9632 4.63561 89.2106 4.20996 89.35L6.20996 88.82C6.63464 88.6789 7.0159 88.4309 7.31711 88.0999C7.61832 87.769 7.82935 87.3661 7.92996 86.93L11.11 76.45C11.42 75.45 11.68 74.45 11.9 73.35C12.4254 70.7591 12.7 68.1236 12.72 65.48V64.88C12.7537 63.8165 12.5163 62.7618 12.0299 61.8153C11.5436 60.8689 10.8244 60.0618 9.93997 59.47Z" fill="url(#paint19_linear_1132_2)"/>
<path d="M66.53 5.85999V25.69C66.5117 26.0898 66.3988 26.4795 66.2006 26.8272C66.0025 27.1749 65.7247 27.4706 65.39 27.69L40.66 41.96C40.39 42.12 40.78 42.54 40.58 42.46C40.58 42.46 39.84 42.04 39.81 42.01C39.7089 41.9253 39.6298 41.8174 39.5793 41.6955C39.5288 41.5736 39.5085 41.4414 39.52 41.31V21.45C39.5421 21.0675 39.6509 20.6951 39.8379 20.3607C40.025 20.0264 40.2856 19.7389 40.6 19.52H40.66L65.39 5.25H65.45C65.5667 5.18142 65.6996 5.14526 65.835 5.14526C65.9704 5.14526 66.1033 5.18142 66.22 5.25L66.91 5.64001C67.07 5.67001 66.53 5.53999 66.53 5.85999Z" fill="#ED8600"/>
<path d="M67.22 6.25003V26.08C67.2041 26.4803 67.0923 26.871 66.8939 27.2191C66.6955 27.5671 66.4163 27.8624 66.08 28.08L41.35 42.36C40.72 42.72 40.21 42.43 40.21 41.71V21.85C40.2321 21.4676 40.3408 21.0951 40.5279 20.7608C40.715 20.4264 40.9756 20.139 41.29 19.92H41.35L66.08 5.64005H66.14C66.74 5.26005 67.22 5.55003 67.22 6.25003Z" fill="#FFD06E"/>
<path d="M41.08 40.44V41.36L40.84 41.35L40.38 41.62L40.36 40.42L41.08 40.44Z" fill="#FFD782"/>
<path d="M41.08 38.59V39.51L40.36 39.5V38.58L41.08 38.59Z" fill="#FFD782"/>
<path d="M41.08 39.51V40.44L40.36 40.42V39.5L41.08 39.51Z" fill="#366CFF"/>
<path d="M41.08 37.67V38.59L40.36 38.58V37.66L41.08 37.67Z" fill="#FF001D"/>
<path d="M41.08 36.75V37.67L40.36 37.66V36.74L41.08 36.75Z" fill="#FFD782"/>
<path d="M41.08 34.91V35.83L40.36 35.81V34.89L41.08 34.91Z" fill="#FFD782"/>
<path d="M41.08 35.8299V36.7499L40.36 36.7399V35.8099L41.08 35.8299Z" fill="#366CFF"/>
<path d="M41.08 33.99V34.91L40.36 34.89V33.97L41.08 33.99Z" fill="#FF001D"/>
<path d="M41.08 33.0699V33.9899L40.36 33.9699V33.0499L41.08 33.0699Z" fill="#FFD782"/>
<path d="M41.08 31.23V32.15L40.36 32.13V31.21L41.08 31.23Z" fill="#FFD782"/>
<path d="M41.08 32.15V33.07L40.36 33.05V32.13L41.08 32.15Z" fill="#366CFF"/>
<path d="M41.08 30.3V31.23L40.36 31.21V30.29L41.08 30.3Z" fill="#FF001D"/>
<path d="M41.08 29.38V30.3L40.36 30.29V29.37L41.08 29.38Z" fill="#FFD782"/>
<path d="M41.08 27.54V28.46L40.36 28.45V27.52L41.08 27.54Z" fill="#FFD782"/>
<path d="M41.08 28.4599V29.3799L40.36 29.3699V28.45L41.08 28.4599Z" fill="#366CFF"/>
<path d="M41.08 26.62V27.54L40.36 27.52V26.6L41.08 26.62Z" fill="#FF001D"/>
<path d="M41.08 25.7V26.6199L40.36 26.5999V25.6799L41.08 25.7Z" fill="#FFD782"/>
<path d="M41.08 23.86V24.78L40.36 24.76V23.84L41.08 23.86Z" fill="#FFD782"/>
<path d="M41.08 24.78V25.7L40.36 25.68V24.76L41.08 24.78Z" fill="#366CFF"/>
<path d="M41.08 22.94V23.86L40.36 23.84V22.92L41.08 22.94Z" fill="#FF001D"/>
<path d="M41.08 22.01V22.94L40.36 22.92V22L41.08 22.01Z" fill="#FFD782"/>
<path d="M41.08 20.17V21.09H40.48C40.6021 20.7537 40.789 20.4445 41.03 20.18L41.08 20.17Z" fill="#FFD782"/>
<path d="M41.08 21.37V22H40.36V21.75C40.3614 21.5214 40.402 21.2948 40.48 21.08H41.08V21.37Z" fill="#366CFF"/>
<path d="M41.08 20.12V20.17H41L41.08 20.12Z" fill="#FF001D"/>
<path d="M67.07 25.63V25.94C67.0626 26.1934 67.0119 26.4437 66.92 26.68V26.77L66.34 27.45L66.13 27.7V27.09L66.39 26.94V26.48L67.07 25.63Z" fill="#FFD782"/>
<path d="M67.07 23.78V24.7L66.35 25.56V24.63L67.07 23.78Z" fill="#FFD782"/>
<path d="M67.07 24.7V25.6299L66.35 26.4799V25.5599L67.07 24.7Z" fill="#366CFF"/>
<path d="M67.07 22.86V23.78L66.35 24.63V23.71L67.07 22.86Z" fill="#FF001D"/>
<path d="M67.07 21.9399V22.8599L66.35 23.7099V22.7899L67.07 21.9399Z" fill="#FFD782"/>
<path d="M67.07 20.1V21.02L66.35 21.87V20.95L67.07 20.1Z" fill="#FFD782"/>
<path d="M67.07 21.02V21.94L66.35 22.79V21.87L67.07 21.02Z" fill="#366CFF"/>
<path d="M67.07 19.1799V20.0999L66.35 20.95V20.0299L67.07 19.1799Z" fill="#FF001D"/>
<path d="M67.07 18.26V19.18L66.35 20.03V19.11L67.07 18.26Z" fill="#FFD782"/>
<path d="M67.07 16.42V17.34L66.35 18.19V17.26L67.07 16.42Z" fill="#FFD782"/>
<path d="M67.07 17.34V18.26L66.35 19.11V18.19L67.07 17.34Z" fill="#366CFF"/>
<path d="M67.07 15.5V16.42L66.35 17.26V16.34L67.07 15.5Z" fill="#FF001D"/>
<path d="M67.07 14.5699V15.4999L66.35 16.3399V15.42L67.07 14.5699Z" fill="#FFD782"/>
<path d="M67.07 12.73V13.65L66.35 14.5V13.58L67.07 12.73Z" fill="#FFD782"/>
<path d="M67.07 13.65V14.57L66.35 15.42V14.5L67.07 13.65Z" fill="#366CFF"/>
<path d="M67.07 11.8099V12.7299L66.35 13.5799V12.6599L67.07 11.8099Z" fill="#FF001D"/>
<path d="M67.07 10.89V11.81L66.35 12.66V11.74L67.07 10.89Z" fill="#FFD782"/>
<path d="M67.07 9.04993V9.96994L66.35 10.8199V9.89993L67.07 9.04993Z" fill="#FFD782"/>
<path d="M67.07 9.96997V10.89L66.35 11.74V10.82L67.07 9.96997Z" fill="#366CFF"/>
<path d="M67.07 8.13V9.04999L66.35 9.89999V8.98001L67.07 8.13Z" fill="#FF001D"/>
<path d="M67.07 7.19995V8.12994L66.35 8.97995V8.04993L67.07 7.19995Z" fill="#FFD782"/>
<path d="M66.35 7.13004V6.21002L66.82 5.66003C66.9034 5.73964 66.9688 5.8361 67.0119 5.94302C67.055 6.04994 67.0748 6.16485 67.07 6.28003L66.35 7.13004Z" fill="#FFD782"/>
<path d="M67.07 6.32004V7.20004L66.35 8.05002V7.13004L67.07 6.28003V6.32004Z" fill="#366CFF"/>
<path d="M66.82 5.66002L66.35 6.21V5.53001C66.4331 5.51693 66.518 5.52175 66.599 5.54417C66.6801 5.56659 66.7554 5.6061 66.82 5.66002Z" fill="#FF001D"/>
<path d="M66.92 26.68V26.77C66.7917 27.055 66.6196 27.3182 66.41 27.55L66.34 27.45L66.13 27.1L66.39 26.95V26.64L66.79 26.41L66.92 26.68Z" fill="#FFD782"/>
<path d="M65.61 28.0799L64.8 28.5399L64.48 28.0199L65.28 27.5599L65.61 28.0799Z" fill="#FFD782"/>
<path d="M66.37 27.55C66.2387 27.6777 66.0947 27.7917 65.94 27.89L65.61 28.08L65.28 27.56L66.09 27.09L66.3 27.44L66.37 27.55Z" fill="#366CFF"/>
<path d="M64.7999 28.54L63.9999 29.01L63.6799 28.48L64.4799 28.02L64.7999 28.54Z" fill="#FF001D"/>
<path d="M64 29.01L63.2 29.47L62.88 28.95L63.68 28.48L64 29.01Z" fill="#FFD782"/>
<path d="M62.39 29.93L61.59 30.4L61.27 29.87L62.07 29.41L62.39 29.93Z" fill="#FFD782"/>
<path d="M63.2001 29.4699L62.3901 29.9299L62.0701 29.4099L62.8801 28.95L63.2001 29.4699Z" fill="#366CFF"/>
<path d="M61.59 30.4L60.79 30.86L60.47 30.34L61.27 29.87L61.59 30.4Z" fill="#FF001D"/>
<path d="M60.79 30.86L59.99 31.32L59.67 30.8L60.47 30.34L60.79 30.86Z" fill="#FFD782"/>
<path d="M59.1901 31.79L58.3801 32.25L58.0601 31.73L58.86 31.26L59.1901 31.79Z" fill="#FFD782"/>
<path d="M59.99 31.3199L59.19 31.7899L58.86 31.2599L59.67 30.7999L59.99 31.3199Z" fill="#366CFF"/>
<path d="M58.38 32.25L57.58 32.71L57.26 32.19L58.06 31.73L58.38 32.25Z" fill="#FF001D"/>
<path d="M57.5799 32.7099L56.7799 33.1799L56.45 32.6499L57.2599 32.1899L57.5799 32.7099Z" fill="#FFD782"/>
<path d="M55.97 33.64L55.17 34.1L54.85 33.58L55.65 33.12L55.97 33.64Z" fill="#FFD782"/>
<path d="M56.78 33.18L55.97 33.64L55.65 33.12L56.45 32.65L56.78 33.18Z" fill="#366CFF"/>
<path d="M55.1701 34.1L54.3701 34.57L54.05 34.04L54.8501 33.58L55.1701 34.1Z" fill="#FF001D"/>
<path d="M54.37 34.57L53.57 35.03L53.24 34.51L54.05 34.04L54.37 34.57Z" fill="#FFD782"/>
<path d="M52.76 35.49L51.96 35.96L51.64 35.43L52.44 34.97L52.76 35.49Z" fill="#FFD782"/>
<path d="M53.5699 35.03L52.7599 35.49L52.4399 34.97L53.2399 34.51L53.5699 35.03Z" fill="#366CFF"/>
<path d="M51.96 35.9599L51.16 36.42L50.83 35.8999L51.64 35.4299L51.96 35.9599Z" fill="#FF001D"/>
<path d="M51.16 36.42L50.36 36.88L50.03 36.36L50.83 35.9L51.16 36.42Z" fill="#FFD782"/>
<path d="M49.5499 37.3499L48.7499 37.8099L48.4299 37.2899L49.2299 36.8199L49.5499 37.3499Z" fill="#FFD782"/>
<path d="M50.36 36.88L49.55 37.35L49.23 36.82L50.03 36.36L50.36 36.88Z" fill="#366CFF"/>
<path d="M48.75 37.81L47.95 38.27L47.62 37.75L48.43 37.29L48.75 37.81Z" fill="#FF001D"/>
<path d="M47.9501 38.27L47.1401 38.74L46.8201 38.21L47.6201 37.75L47.9501 38.27Z" fill="#FFD782"/>
<path d="M46.34 39.2L45.54 39.67L45.22 39.14L46.02 38.6799L46.34 39.2Z" fill="#FFD782"/>
<path d="M47.14 38.74L46.34 39.2L46.02 38.68L46.82 38.21L47.14 38.74Z" fill="#366CFF"/>
<path d="M45.54 39.67L44.74 40.13L44.41 39.6L45.22 39.14L45.54 39.67Z" fill="#FF001D"/>
<path d="M44.74 40.13L43.93 40.59L43.61 40.07L44.41 39.6L44.74 40.13Z" fill="#FFD782"/>
<path d="M43.13 41.06L42.33 41.52L42.01 41L42.81 40.53L43.13 41.06Z" fill="#FFD782"/>
<path d="M43.9301 40.5899L43.1301 41.0599L42.8101 40.5299L43.61 40.0699L43.9301 40.5899Z" fill="#366CFF"/>
<path d="M42.3299 41.52L41.5299 41.98L41.2 41.46L42.0099 41L42.3299 41.52Z" fill="#FF001D"/>
<path d="M41.5299 42C40.9899 42.31 40.5299 42.13 40.4299 41.61L41.1099 41.22V41.5L41.2299 41.43L41.5299 42Z" fill="#FFD782"/>
<path d="M66.09 26.77L41.33 41.07V19.89L66.09 5.58997V26.77Z" fill="#FFA100"/>
<g style="mix-blend-mode:multiply">
<path d="M66.08 6.39001L56.68 24.91L66.09 26.77L41.33 41.07L51.38 27.31L41.33 21.04L66.08 6.39001Z" fill="#FFDC40"/>
</g>
<path d="M54.05 24.71L66.09 26.77L41.33 41.07L54.05 24.71Z" fill="#FFAE00"/>
<g style="mix-blend-mode:multiply">
<path d="M51.91 27.46L52.94 27.97L55.66 26.48L56.5 25.13L54.05 24.71L51.91 27.46Z" fill="#FFDC40"/>
</g>
<path d="M52.94 27.59L55.56 26.08L66.08 6.38998V5.59998L41.33 19.89V21.04L52.94 27.59Z" fill="#FFB30F"/>
<g style="mix-blend-mode:multiply">
<path d="M41.29 19.92C40.9756 20.1389 40.715 20.4264 40.5279 20.7607C40.3408 21.0951 40.2321 21.4675 40.21 21.85V27.85L45.65 24.7C46.8842 23.8986 47.9116 22.8169 48.6484 21.5431C49.3852 20.2693 49.8107 18.8394 49.89 17.37V15L41.36 19.93L41.29 19.92Z" fill="#FFE2B5"/>
</g>
<path d="M48.0001 20L47.7701 20.2C47.3967 20.5325 46.9914 20.8272 46.5601 21.08L46.8901 20.8C47.2841 20.5683 47.6556 20.3005 48.0001 20Z" fill="#FF405D"/>
<path d="M51.0601 14.57V14.74V14.87C51.1632 14.4072 51.2135 13.9342 51.2101 13.46L51.2901 13.03C51.2671 13.55 51.19 14.0661 51.0601 14.57Z" fill="#FF405D"/>
<path d="M51.1301 5.48993L51.2101 5.05994L51.2301 13.0199L51.1501 13.4599L51.1301 5.48993Z" fill="#FF405D"/>
<path d="M46.87 3.05993L46.53 2.38995C49.11 0.899952 51.2 2.09993 51.21 5.05993L51.13 5.48993C51.12 2.78993 49.22 1.69993 46.87 3.05993Z" fill="#FF405D"/>
<path d="M48.3901 1.21998L49.8501 2.06999C49.3189 1.8205 48.7303 1.71855 48.1462 1.77485C47.562 1.83116 47.0038 2.04365 46.5301 2.39L45.0701 1.53999C45.5438 1.19364 46.102 0.98118 46.6862 0.924877C47.2703 0.868573 47.8589 0.970499 48.3901 1.21998Z" fill="#FF1F41"/>
<path d="M46.9201 20.79L46.5901 21.07L38.4601 25.76L38.8001 25.49L46.9201 20.79Z" fill="#FF405D"/>
<path d="M35.14 26.09L33.68 25.24C33.2082 24.905 32.8337 24.4508 32.5947 23.9237C32.3558 23.3967 32.261 22.8157 32.32 22.24L33.78 23.09C33.7231 23.6655 33.8188 24.2458 34.0576 24.7725C34.2963 25.2991 34.6697 25.7536 35.14 26.09Z" fill="#FF1F41"/>
<path d="M38.8 25.48L38.46 25.76C35.89 27.25 33.79 26.06 33.78 23.1H34.53C34.54 25.75 36.45 26.84 38.8 25.48Z" fill="#FF405D"/>
<path d="M34.53 23.06L33.78 23.1L33.76 15.13L34.51 15.08L34.53 23.06Z" fill="#FF405D"/>
<path d="M33.7801 23.1L32.3201 22.25L32.3 14.28L33.7601 15.13L33.7801 23.1Z" fill="#FF1F41"/>
<path d="M38.4101 7.08002L36.9501 6.23004L45.0701 1.54004L46.5301 2.39005L38.4101 7.08002Z" fill="#FF1F41"/>
<path d="M38.75 7.75L38.41 7.07999L46.53 2.39001L46.87 3.06L38.75 7.75Z" fill="#FF405D"/>
<path d="M32.4701 12.7299L32.5301 12.4299C32.9861 10.4607 34.0328 8.67786 35.5301 7.31995C34.0034 8.78556 32.9396 10.6664 32.4701 12.7299Z" fill="#FF405D"/>
<path d="M46.87 3.05995C49.22 1.69995 51.12 2.78994 51.13 5.48994V13.4899C51.0542 14.959 50.6313 16.3893 49.896 17.6634C49.1608 18.9375 48.134 20.0192 46.9 20.82L38.78 25.51C36.43 26.87 34.52 25.7799 34.51 23.0899V15.0899C34.5874 13.6212 35.011 12.1916 35.7461 10.9178C36.4812 9.6439 37.5071 8.56188 38.74 7.75996L46.87 3.05995Z" fill="#FF5F76"/>
<path d="M34.51 15.08L33.76 15.13C33.8442 13.5163 34.3095 11.9455 35.1178 10.5463C35.926 9.14704 37.0542 7.95915 38.41 7.07996L38.74 7.74997C37.5071 8.55188 36.4812 9.63391 35.7461 10.9078C35.011 12.1816 34.5874 13.6112 34.51 15.08Z" fill="#FF405D"/>
<path d="M33.7601 15.13L32.3 14.28C32.392 12.675 32.8609 11.1142 33.6689 9.72424C34.4768 8.3343 35.6009 7.15432 36.9501 6.28003L38.4101 7.13004C37.0609 8.00433 35.9368 9.18427 35.1288 10.5742C34.3209 11.9642 33.852 13.525 33.7601 15.13Z" fill="#FF1F41"/>
<mask id="mask0_1132_2" style="mask-type:luminance" maskUnits="userSpaceOnUse" x="44" y="15" width="2" height="2">
<path d="M45.68 16.48L44.52 15.81C44.3999 15.7344 44.303 15.6272 44.24 15.5L45.4 16.17C45.4601 16.2991 45.5577 16.4071 45.68 16.48Z" fill="white"/>
</mask>
<g mask="url(#mask0_1132_2)">
<path d="M45.68 16.48L44.52 15.81C44.3999 15.7344 44.303 15.6272 44.24 15.5L45.4 16.17C45.4601 16.2991 45.5577 16.4071 45.68 16.48Z" fill="#BFBFBF"/>
</g>
<mask id="mask1_1132_2" style="mask-type:luminance" maskUnits="userSpaceOnUse" x="41" y="13" width="4" height="5">
<path d="M42.7201 17L41.5601 16.33C41.6953 16.3811 41.8417 16.395 41.9841 16.3704C42.1266 16.3458 42.2598 16.2835 42.3701 16.19C42.7813 15.9402 43.1059 15.5702 43.3 15.13C43.5458 14.5443 43.6717 13.9152 43.6701 13.28L44.8201 13.95C44.8184 14.584 44.6962 15.2117 44.4601 15.8C44.2621 16.2409 43.9341 16.6108 43.5201 16.86C43.1801 17.05 42.9101 17.1 42.7201 17Z" fill="white"/>
</mask>
<g mask="url(#mask1_1132_2)">
<path d="M42.7201 17L41.5601 16.33C41.6953 16.3811 41.8417 16.395 41.9841 16.3704C42.1266 16.3458 42.2598 16.2835 42.3701 16.19C42.7813 15.9402 43.1059 15.5702 43.3 15.13C43.5458 14.5443 43.6717 13.9152 43.6701 13.28L44.8201 13.95C44.8184 14.584 44.6962 15.2117 44.4601 15.8C44.2621 16.2409 43.9341 16.6108 43.5201 16.86C43.1701 17.06 42.9001 17.11 42.7101 17H42.7201Z" fill="#FF1F41"/>
</g>
<mask id="mask2_1132_2" style="mask-type:luminance" maskUnits="userSpaceOnUse" x="39" y="16" width="8" height="5">
<path d="M40.7201 20.3L39.5701 19.63C40.2401 20 41.2001 19.82 42.4501 19.1L42.5201 19.05C43.0802 18.7129 43.615 18.3352 44.1201 17.92C44.719 17.4362 45.2899 16.9187 45.83 16.37L46.9801 17.04C46.4374 17.586 45.8666 18.1034 45.2701 18.59C44.764 18.9993 44.233 19.3767 43.6801 19.72L43.6001 19.77C42.3501 20.49 41.4001 20.66 40.7301 20.3H40.7201Z" fill="white"/>
</mask>
<g mask="url(#mask2_1132_2)">
<path d="M40.7201 20.3L39.5701 19.63C40.2401 20 41.2001 19.82 42.4501 19.1L42.5201 19.05C43.0802 18.7129 43.615 18.3352 44.1201 17.92C44.719 17.4362 45.2899 16.9187 45.83 16.37L46.9801 17.04C46.4374 17.586 45.8666 18.1034 45.2701 18.59C44.764 18.9993 44.233 19.3767 43.6801 19.72L43.6001 19.77C42.3501 20.49 41.4001 20.66 40.7301 20.3H40.7201Z" fill="#FF1F41"/>
</g>
<mask id="mask3_1132_2" style="mask-type:luminance" maskUnits="userSpaceOnUse" x="45" y="8" width="3" height="7">
<path d="M46.62 14.87L45.47 14.21C45.5159 14.2354 45.5675 14.2487 45.62 14.2487C45.6724 14.2487 45.724 14.2354 45.77 14.21C46.1433 13.9316 46.3942 13.5194 46.47 13.06C46.6514 12.3857 46.729 11.6877 46.7 10.99C46.7397 10.2894 46.569 9.59291 46.21 8.98999C46.073 8.78921 45.896 8.61897 45.69 8.48999L46.84 9.16C47.0502 9.28345 47.2284 9.45476 47.36 9.66C47.718 10.2637 47.8918 10.9588 47.86 11.66C47.8798 12.3579 47.799 13.0551 47.62 13.73C47.5438 14.1868 47.2972 14.5978 46.93 14.88C46.8823 14.9067 46.8282 14.9199 46.7736 14.9182C46.719 14.9164 46.6658 14.8997 46.62 14.87Z" fill="white"/>
</mask>
<g mask="url(#mask3_1132_2)">
<path d="M46.62 14.87L45.47 14.21C45.5159 14.2354 45.5675 14.2487 45.62 14.2487C45.6724 14.2487 45.724 14.2354 45.77 14.21C46.1433 13.9316 46.3942 13.5194 46.47 13.06C46.6514 12.3857 46.729 11.6877 46.7 10.99C46.7397 10.2894 46.569 9.59291 46.21 8.98999C46.073 8.78921 45.896 8.61897 45.69 8.48999L46.84 9.16C47.0502 9.28345 47.2284 9.45476 47.36 9.66C47.718 10.2637 47.8918 10.9588 47.86 11.66C47.8798 12.3579 47.799 13.0551 47.62 13.73C47.5438 14.1868 47.2972 14.5978 46.93 14.88C46.8832 14.9082 46.8296 14.9232 46.775 14.9232C46.7203 14.9232 46.6667 14.9082 46.62 14.88V14.87Z" fill="#FF1F41"/>
</g>
<path d="M44.8501 13.93L43.7001 13.26L43.7701 11.48L44.9201 12.15L44.8501 13.93Z" fill="#FF1F41"/>
<mask id="mask4_1132_2" style="mask-type:luminance" maskUnits="userSpaceOnUse" x="39" y="9" width="8" height="10">
<path d="M41.49 18.66L40.34 17.99C39.86 17.71 39.62 17.09 39.61 16.13C39.6001 14.9991 39.9048 13.8877 40.49 12.92C41.0555 11.9112 41.8808 11.0722 42.88 10.49L42.97 10.43C43.3624 10.2115 43.7663 10.0146 44.18 9.83997C44.5592 9.6823 44.9505 9.55522 45.35 9.45996L46.5 10.13C46.1005 10.2252 45.7092 10.3523 45.33 10.51C44.9186 10.6825 44.5179 10.8796 44.13 11.1L44.03 11.16C43.0331 11.7452 42.2087 12.5835 41.64 13.59C41.0548 14.5577 40.7501 15.6691 40.76 16.8C40.77 17.76 41 18.38 41.49 18.66Z" fill="white"/>
</mask>
<g mask="url(#mask4_1132_2)">
<path d="M41.49 18.66L40.34 17.99C39.86 17.71 39.62 17.09 39.61 16.13C39.6001 14.9991 39.9048 13.8877 40.49 12.92C41.0555 11.9112 41.8808 11.0722 42.88 10.49L42.97 10.43C43.3624 10.2115 43.7663 10.0146 44.18 9.83997C44.5592 9.6823 44.9505 9.55522 45.35 9.45996L46.5 10.13C46.1005 10.2252 45.7092 10.3523 45.33 10.51C44.9186 10.6825 44.5179 10.8796 44.13 11.1L44.03 11.16C43.0331 11.7452 42.2087 12.5835 41.64 13.59C41.0548 14.5577 40.7501 15.6691 40.76 16.8C40.76 17.8 41.02 18.38 41.49 18.66Z" fill="#FF1F41"/>
</g>
<mask id="mask5_1132_2" style="mask-type:luminance" maskUnits="userSpaceOnUse" x="37" y="6" width="11" height="16">
<path d="M39.54 22L38.39 21.33C37.5 20.82 37.05 19.68 37.02 17.93C37.0092 16.5653 37.2464 15.2099 37.72 13.93C38.2043 12.5811 38.907 11.321 39.8 10.2C40.6736 9.09355 41.7409 8.15496 42.95 7.43L43.05 7.37C43.8348 6.87487 44.7334 6.58912 45.66 6.54001C46.0734 6.52967 46.4817 6.63345 46.84 6.84L48 7.5C47.6349 7.30247 47.225 7.20257 46.81 7.20999C45.8863 7.25813 44.9907 7.54405 44.21 8.04001L44.11 8.10001C42.896 8.82216 41.825 9.76105 40.95 10.87C40.057 11.991 39.3543 13.2511 38.87 14.6C38.3996 15.8808 38.1625 17.2356 38.17 18.6C38.2 20.31 38.65 21.45 39.54 22Z" fill="white"/>
</mask>
<g mask="url(#mask5_1132_2)">
<path d="M39.54 22L38.39 21.33C37.5 20.82 37.05 19.68 37.02 17.93C37.0092 16.5653 37.2464 15.2099 37.72 13.93C38.2043 12.5811 38.907 11.321 39.8 10.2C40.6736 9.09355 41.7409 8.15496 42.95 7.43L43.05 7.37C43.8348 6.87487 44.7334 6.58912 45.66 6.54001C46.0734 6.52967 46.4817 6.63345 46.84 6.84L48 7.5C47.6349 7.30247 47.225 7.20257 46.81 7.20999C45.8863 7.25813 44.9907 7.54405 44.21 8.04001L44.11 8.10001C42.896 8.82216 41.825 9.76105 40.95 10.87C40.057 11.991 39.3543 13.2511 38.87 14.6C38.3996 15.8808 38.1625 17.2356 38.17 18.6C38.17 20.35 38.65 21.49 39.54 22Z" fill="#FF1F41"/>
</g>
<path d="M49.36 10.74C49.3683 11.4999 49.2707 12.2571 49.07 12.99C48.8887 13.6989 48.595 14.3741 48.2 14.99C47.8651 15.5273 47.4097 15.9792 46.87 16.31C46.6073 16.4946 46.2906 16.5861 45.97 16.5701C45.848 16.5599 45.731 16.5175 45.6308 16.4472C45.5307 16.3769 45.451 16.2813 45.4 16.1701L45.29 16.24C44.8836 17.1119 44.2343 17.848 43.42 18.36H43.36C43.1028 18.5719 42.7925 18.7091 42.4628 18.7567C42.133 18.8043 41.7965 18.7605 41.49 18.6301C41.02 18.3501 40.77 17.73 40.76 16.77C40.7501 15.6391 41.0548 14.5278 41.64 13.56C42.2087 12.5536 43.0331 11.7153 44.03 11.1301L44.13 11.0701C44.5179 10.8496 44.9186 10.6526 45.33 10.4801C45.7092 10.3224 46.1005 10.1953 46.5 10.1001L46.4 14.03C46.4 14.75 46.59 15.03 46.93 14.81C47.2972 14.5278 47.5438 14.1169 47.62 13.6601C47.799 12.9852 47.8798 12.288 47.86 11.59C47.8918 10.8889 47.718 10.1937 47.36 9.59004C47.2202 9.36987 47.0265 9.18907 46.7973 9.06481C46.568 8.94054 46.3107 8.87695 46.05 8.88005C45.3992 8.90663 44.7673 9.10688 44.22 9.46004H44.14C43.223 10.0056 42.4104 10.7099 41.74 11.5401C40.3921 13.2446 39.6844 15.3677 39.74 17.5401C39.74 18.9801 40.11 19.8901 40.8 20.2601C41.49 20.6301 42.42 20.4501 43.67 19.7301L43.75 19.68C44.3029 19.3368 44.834 18.9594 45.34 18.55C45.9365 18.0634 46.5073 17.5461 47.05 17V18.5C46.1046 19.5374 45.0091 20.4273 43.8 21.1401L43.66 21.22C41.99 22.22 40.66 22.4401 39.72 21.9801C38.78 21.5201 38.22 20.35 38.19 18.5C38.1825 17.1356 38.4196 15.7809 38.89 14.5C39.3743 13.1512 40.077 11.891 40.97 10.77C41.8449 9.66109 42.916 8.7222 44.13 8.00005L44.23 7.94005C45.0107 7.44409 45.9063 7.15817 46.83 7.11003C47.1923 7.09491 47.5526 7.17126 47.8777 7.33205C48.2028 7.49283 48.4821 7.73288 48.69 8.03005C49.1911 8.84112 49.4254 9.78888 49.36 10.74ZM44.85 13.93L44.92 12.15C44.6663 12.2397 44.4218 12.3535 44.19 12.49H44.13C43.5624 12.8206 43.101 13.3063 42.8 13.8901C42.4896 14.4923 42.3349 15.1627 42.35 15.84C42.35 16.93 42.76 17.26 43.53 16.84C43.9441 16.5908 44.2721 16.221 44.47 15.78C44.7062 15.1918 44.8283 14.564 44.83 13.93H44.85Z" fill="white"/>
<defs>
<linearGradient id="paint0_linear_1132_2" x1="30.76" y1="64.23" x2="28.3899" y2="48.7301" gradientUnits="userSpaceOnUse">
<stop stop-color="#CACCDE"/>
<stop offset="1" stop-color="#DFDEEE"/>
</linearGradient>
<linearGradient id="paint1_linear_1132_2" x1="27.63" y1="52.96" x2="29.75" y2="52.96" gradientUnits="userSpaceOnUse">
<stop stop-color="#CACCDE"/>
<stop offset="1" stop-color="#DFDEEE"/>
</linearGradient>
<linearGradient id="paint2_linear_1132_2" x1="28.53" y1="64.57" x2="26.16" y2="49.07" gradientUnits="userSpaceOnUse">
<stop stop-color="#CACCDE"/>
<stop offset="1" stop-color="#DFDEEE"/>
</linearGradient>
<linearGradient id="paint3_linear_1132_2" x1="32.2499" y1="64" x2="29.8699" y2="48.5" gradientUnits="userSpaceOnUse">
<stop stop-color="#CACCDE"/>
<stop offset="1" stop-color="#DFDEEE"/>
</linearGradient>
<linearGradient id="paint4_linear_1132_2" x1="36.6099" y1="63.3299" x2="34.2399" y2="47.8299" gradientUnits="userSpaceOnUse">
<stop stop-color="#CACCDE"/>
<stop offset="1" stop-color="#DFDEEE"/>
</linearGradient>
<linearGradient id="paint5_linear_1132_2" x1="39.4999" y1="62.8899" x2="37.1199" y2="47.3899" gradientUnits="userSpaceOnUse">
<stop stop-color="#CACCDE"/>
<stop offset="1" stop-color="#DFDEEE"/>
</linearGradient>
<linearGradient id="paint6_linear_1132_2" x1="47.57" y1="61.6499" x2="45.2" y2="46.1499" gradientUnits="userSpaceOnUse">
<stop stop-color="#CACCDE"/>
<stop offset="1" stop-color="#DFDEEE"/>
</linearGradient>
<linearGradient id="paint7_linear_1132_2" x1="48.83" y1="61.46" x2="46.4599" y2="45.9599" gradientUnits="userSpaceOnUse">
<stop stop-color="#CACCDE"/>
<stop offset="1" stop-color="#DFDEEE"/>
</linearGradient>
<linearGradient id="paint8_linear_1132_2" x1="53.7" y1="60.71" x2="51.3299" y2="45.21" gradientUnits="userSpaceOnUse">
<stop stop-color="#CACCDE"/>
<stop offset="1" stop-color="#DFDEEE"/>
</linearGradient>
<linearGradient id="paint9_linear_1132_2" x1="40.34" y1="61.75" x2="39.82" y2="29.7899" gradientUnits="userSpaceOnUse">
<stop stop-color="#CACCDE"/>
<stop offset="1" stop-color="#DFDEEE"/>
</linearGradient>
<linearGradient id="paint10_linear_1132_2" x1="54.75" y1="60.55" x2="52.37" y2="45.05" gradientUnits="userSpaceOnUse">
<stop stop-color="#CACCDE"/>
<stop offset="1" stop-color="#DFDEEE"/>
</linearGradient>
<linearGradient id="paint11_linear_1132_2" x1="45.0699" y1="59.8199" x2="42.3899" y2="52.08" gradientUnits="userSpaceOnUse">
<stop offset="0.06" stop-color="#EAE9F2"/>
<stop offset="0.51" stop-color="#EAE9F2"/>
</linearGradient>
<linearGradient id="paint12_linear_1132_2" x1="5.07007" y1="72.2" x2="34.4001" y2="72.2" gradientUnits="userSpaceOnUse">
<stop offset="0.37" stop-color="#CACCDE"/>
<stop offset="0.97" stop-color="#EAE9F2"/>
</linearGradient>
<linearGradient id="paint13_linear_1132_2" x1="14.45" y1="70.4" x2="25.59" y2="51.11" gradientUnits="userSpaceOnUse">
<stop stop-color="#CACCDE"/>
<stop offset="0.56" stop-color="#EAE9F2"/>
</linearGradient>
<linearGradient id="paint14_linear_1132_2" x1="17.48" y1="57.3699" x2="40.15" y2="57.3699" gradientUnits="userSpaceOnUse">
<stop offset="0.24" stop-color="#A8A4B5"/>
<stop offset="1" stop-color="#DBD3E2"/>
</linearGradient>
<linearGradient id="paint15_linear_1132_2" x1="5.94997" y1="76.5" x2="29.42" y2="23.45" gradientUnits="userSpaceOnUse">
<stop offset="0.37" stop-color="#CACCDE"/>
<stop offset="0.97" stop-color="#EAE9F2"/>
</linearGradient>
<linearGradient id="paint16_linear_1132_2" x1="13.96" y1="51.3599" x2="26.0899" y2="30.36" gradientUnits="userSpaceOnUse">
<stop stop-color="#CACCDE"/>
<stop offset="0.56" stop-color="#EAE9F2"/>
</linearGradient>
<linearGradient id="paint17_linear_1132_2" x1="8.13995" y1="92.72" x2="2.08995" y2="58.66" gradientUnits="userSpaceOnUse">
<stop stop-color="#CACCDE"/>
<stop offset="1" stop-color="#DFDEEE"/>
</linearGradient>
<linearGradient id="paint18_linear_1132_2" x1="6.46008" y1="90.2299" x2="4.30009" y2="57.64" gradientUnits="userSpaceOnUse">
<stop stop-color="#CACCDE"/>
<stop offset="1" stop-color="#DFDEEE"/>
</linearGradient>
<linearGradient id="paint19_linear_1132_2" x1="13.38" y1="84.68" x2="0.629981" y2="62.6" gradientUnits="userSpaceOnUse">
<stop offset="0.68" stop-color="#D2D3E5"/>
<stop offset="0.81" stop-color="#EAE9F2"/>
</linearGradient>
</defs>
</svg>
